{
  "accessors": [
    {
      "bufferView": 2,
      "componentType": 5126,
      "count": 70,
      "max": [
        3.7689080238342285,
        3.8450489044189453,
        6.4837470054626465
      ],
      "min": [
        -3.84854793548584,
        -3.7718420028686523,
        6.232676029205322
      ],
      "type": "VEC3"
    },
    {
      "bufferView": 2,
      "byteOffset": 840,
      "componentType": 5126,
      "count": 70,
      "max": [
        0.9313647150993347,
        0.9296048879623413,
        0.9999759197235107
      ],
      "min": [
        -0.9313647150993347,
        -0.9296048879623413,
        -0.9999759197235107
      ],
      "type": "VEC3"
    },
    {
      "bufferView": 1,
      "componentType": 5126,
      "count": 70,
      "max": [
        0.8052459955215454,
        0.9951969981193542
      ],
      "min": [
        0.7405369877815247,
        0.9628419876098633
      ],
      "type": "VEC2"
    },
    {
      "bufferView": 0,
      "componentType": 5125,
      "count": 324,
      "type": "SCALAR"
    },
    {
      "bufferView": 2,
      "byteOffset": 1680,
      "componentType": 5126,
      "count": 16594,
      "max": [
        1.9137179851531982,
        3.019824981689453,
        6.05472993850708
      ],
      "min": [
        -1.8823859691619873,
        -3.081702947616577,
        5.969934940338135
      ],
      "type": "VEC3"
    },
    {
      "bufferView": 2,
      "byteOffset": 200808,
      "componentType": 5126,
      "count": 16594,
      "max": [
        0.9999926090240479,
        0.9999419450759888,
        0.9999935626983643
      ],
      "min": [
        -0.9998822212219238,
        -0.9997355341911316,
        -0.999994158744812
      ],
      "type": "VEC3"
    },
    {
      "bufferView": 1,
      "byteOffset": 560,
      "componentType": 5126,
      "count": 16594,
      "max": [
        0.9968540072441101,
        0.30465400218963623
      ],
      "min": [
        0.0019529999699443579,
        0.0019529999699443579
      ],
      "type": "VEC2"
    },
    {
      "bufferView": 0,
      "byteOffset": 1296,
      "componentType": 5125,
      "count": 26964,
      "type": "SCALAR"
    },
    {
      "bufferView": 2,
      "byteOffset": 399936,
      "componentType": 5126,
      "count": 65532,
      "max": [
        23.926977157592773,
        21.059682846069336,
        39.014339447021484
      ],
      "min": [
        -19.672611236572266,
        -20.062984466552734,
        1.2233179807662964
      ],
      "type": "VEC3"
    },
    {
      "bufferView": 2,
      "byteOffset": 1186320,
      "componentType": 5126,
      "count": 65532,
      "max": [
        0.9999735355377197,
        0.9999606609344482,
        0.9999998807907104
      ],
      "min": [
        -0.9999924898147583,
        -0.9999973773956299,
        -1.0
      ],
      "type": "VEC3"
    },
    {
      "bufferView": 1,
      "byteOffset": 133312,
      "componentType": 5126,
      "count": 65532,
      "max": [
        0.9980469942092896,
        0.9877769947052002
      ],
      "min": [
        0.0019529999699443579,
        0.0019529999699443579
      ],
      "type": "VEC2"
    },
    {
      "bufferView": 0,
      "byteOffset": 109152,
      "componentType": 5125,
      "count": 331017,
      "type": "SCALAR"
    },
    {
      "bufferView": 2,
      "byteOffset": 1972704,
      "componentType": 5126,
      "count": 65532,
      "max": [
        24.80641746520996,
        23.255107879638672,
        39.025177001953125
      ],
      "min": [
        1.1508369445800781,
        2.250627040863037,
        5.021282196044922
      ],
      "type": "VEC3"
    },
    {
      "bufferView": 2,
      "byteOffset": 2759088,
      "componentType": 5126,
      "count": 65532,
      "max": [
        0.9999881982803345,
        0.9999822378158569,
        0.9999990463256836
      ],
      "min": [
        -0.9999995231628418,
        -0.9999587535858154,
        -0.9999845027923584
      ],
      "type": "VEC3"
    },
    {
      "bufferView": 1,
      "byteOffset": 657568,
      "componentType": 5126,
      "count": 65532,
      "max": [
        0.9980469942092896,
        0.9977989792823792
      ],
      "min": [
        0.0019529999699443579,
        0.0019529999699443579
      ],
      "type": "VEC2"
    },
    {
      "bufferView": 0,
      "byteOffset": 1433220,
      "componentType": 5125,
      "count": 335700,
      "type": "SCALAR"
    },
    {
      "bufferView": 2,
      "byteOffset": 3545472,
      "componentType": 5126,
      "count": 65532,
      "max": [
        24.485326766967773,
        23.255107879638672,
        39.00701141357422
      ],
      "min": [
        -18.364110946655273,
        -19.925983428955078,
        1.219115972518921
      ],
      "type": "VEC3"
    },
    {
      "bufferView": 2,
      "byteOffset": 4331856,
      "componentType": 5126,
      "count": 65532,
      "max": [
        0.9999839067459106,
        0.9999953508377075,
        1.0
      ],
      "min": [
        -0.9999995231628418,
        -0.9999973773956299,
        -1.0
      ],
      "type": "VEC3"
    },
    {
      "bufferView": 1,
      "byteOffset": 1181824,
      "componentType": 5126,
      "count": 65532,
      "max": [
        0.99583899974823,
        0.9951329827308655
      ],
      "min": [
        0.0019529999699443579,
        0.0019529999699443579
      ],
      "type": "VEC2"
    },
    {
      "bufferView": 0,
      "byteOffset": 2776020,
      "componentType": 5125,
      "count": 321417,
      "type": "SCALAR"
    },
    {
      "bufferView": 2,
      "byteOffset": 5118240,
      "componentType": 5126,
      "count": 16562,
      "max": [
        14.272602081298828,
        15.723372459411621,
        14.605061531066895
      ],
      "min": [
        -15.692801475524902,
        -11.66094970703125,
        4.30128288269043
      ],
      "type": "VEC3"
    },
    {
      "bufferView": 2,
      "byteOffset": 5316984,
      "componentType": 5126,
      "count": 16562,
      "max": [
        0.9988089203834534,
        0.9996499419212341,
        1.0
      ],
      "min": [
        -0.999890923500061,
        -0.9997528195381165,
        -0.9999998807907104
      ],
      "type": "VEC3"
    },
    {
      "bufferView": 1,
      "byteOffset": 1706080,
      "componentType": 5126,
      "count": 16562,
      "max": [
        0.9978240132331848,
        0.9951419830322266
      ],
      "min": [
        0.013527000322937965,
        0.0019529999699443579
      ],
      "type": "VEC2"
    },
    {
      "bufferView": 0,
      "byteOffset": 4061688,
      "componentType": 5125,
      "count": 69300,
      "type": "SCALAR"
    },
    {
      "bufferView": 2,
      "byteOffset": 5515728,
      "componentType": 5126,
      "count": 3090,
      "max": [
        14.834308624267578,
        13.85294246673584,
        6.194112777709961
      ],
      "min": [
        -19.02373695373535,
        -19.418249130249023,
        -0.0012809999752789736
      ],
      "type": "VEC3"
    },
    {
      "bufferView": 2,
      "byteOffset": 5552808,
      "componentType": 5126,
      "count": 3090,
      "max": [
        0.9995520710945129,
        0.9995588660240173,
        0.9999932050704956
      ],
      "min": [
        -0.9995520710945129,
        -0.9995588660240173,
        -0.9999932050704956
      ],
      "type": "VEC3"
    },
    {
      "bufferView": 1,
      "byteOffset": 1838576,
      "componentType": 5126,
      "count": 3090,
      "max": [
        0.8454570174217224,
        0.9760779738426208
      ],
      "min": [
        0.07367199659347534,
        0.0019529999699443579
      ],
      "type": "VEC2"
    },
    {
      "bufferView": 0,
      "byteOffset": 4338888,
      "componentType": 5125,
      "count": 17064,
      "type": "SCALAR"
    }
  ],
  "asset": {
    "extras": {
      "author": "Virtual Museums of Małopolska (https://sketchfab.com/WirtualneMuzeaMalopolski)",
      "license": "CC-BY-4.0 (http://creativecommons.org/licenses/by/4.0/)",
      "source": "https://sketchfab.com/3d-models/astronomical-theodolite-47a8a79e89bc46e3a2c456f328f330d5",
      "title": "Astronomical theodolite"
    },
    "generator": "Sketchfab-12.95.0",
    "version": "2.0"
  },
  "bufferViews": [
    {
      "buffer": 0,
      "byteLength": 4407144,
      "name": "floatBufferViews",
      "target": 34963
    },
    {
      "buffer": 0,
      "byteLength": 1863296,
      "byteOffset": 4407144,
      "byteStride": 8,
      "name": "floatBufferViews",
      "target": 34962
    },
    {
      "buffer": 0,
      "byteLength": 5589888,
      "byteOffset": 6270440,
      "byteStride": 12,
      "name": "floatBufferViews",
      "target": 34962
    }
  ],
  "buffers": [
    {
      "byteLength": 11860328,
      "uri": "scene.bin"
    }
  ],
  "extensionsUsed": [
    "KHR_materials_transmission"
  ],
  "images": [
    {
      "uri": "textures/4065_mat_baseColor.jpeg"
    },
    {
      "uri": "textures/4065_mat_metallicRoughness.png"
    },
    {
      "uri": "textures/glass_mat_baseColor.png"
    },
    {
      "uri": "textures/glass_mat_transmission.png"
    }
  ],
  "materials": [
    {
      "doubleSided": true,
      "name": "4065_mat",
      "emissiveFactor": [0.11, 0.1, 0.1],
      "occlusionTexture": {
        "index": 1
      },
      "pbrMetallicRoughness": {
        "baseColorTexture": {
          "index": 0
        },
        "metallicRoughnessTexture": {
          "index": 1
        },
        "roughnessFactor": 0.5914868455453611
      }
    },
    {
      "alphaMode": "BLEND",
      "doubleSided": true,
      "extensions": {
        "KHR_materials_transmission": {
          "transmissionFactor": 1.0,
          "transmissionTexture": {
            "index": 3
          }
        }
      },
      "name": "glass_mat",
      "pbrMetallicRoughness": {
        "baseColorTexture": {
          "index": 2
        },
        "roughnessFactor": 0.0
      }
    }
  ],
  "meshes": [
    {
      "name": "Object_0",
      "primitives": [
        {
          "attributes": {
            "NORMAL": 1,
            "POSITION": 0,
            "TEXCOORD_0": 2
          },
          "indices": 3,
          "material": 1,
          "mode": 4
        }
      ]
    },
    {
      "name": "Object_1",
      "primitives": [
        {
          "attributes": {
            "NORMAL": 5,
            "POSITION": 4,
            "TEXCOORD_0": 6
          },
          "indices": 7,
          "material": 0,
          "mode": 4
        }
      ]
    },
    {
      "name": "Object_2",
      "primitives": [
        {
          "attributes": {
            "NORMAL": 9,
            "POSITION": 8,
            "TEXCOORD_0": 10
          },
          "indices": 11,
          "material": 0,
          "mode": 4
        }
      ]
    },
    {
      "name": "Object_3",
      "primitives": [
        {
          "attributes": {
            "NORMAL": 13,
            "POSITION": 12,
            "TEXCOORD_0": 14
          },
          "indices": 15,
          "material": 0,
          "mode": 4
        }
      ]
    },
    {
      "name": "Object_4",
      "primitives": [
        {
          "attributes": {
            "NORMAL": 17,
            "POSITION": 16,
            "TEXCOORD_0": 18
          },
          "indices": 19,
          "material": 0,
          "mode": 4
        }
      ]
    },
    {
      "name": "Object_5",
      "primitives": [
        {
          "attributes": {
            "NORMAL": 21,
            "POSITION": 20,
            "TEXCOORD_0": 22
          },
          "indices": 23,
          "material": 0,
          "mode": 4
        }
      ]
    },
    {
      "name": "Object_6",
      "primitives": [
        {
          "attributes": {
            "NORMAL": 25,
            "POSITION": 24,
            "TEXCOORD_0": 26
          },
          "indices": 27,
          "material": 0,
          "mode": 4
        }
      ]
    }
  ],
  "nodes": [
    {
      "children": [
        1
      ],
      "matrix": [
        0.01203303225338459,
        0.0,
        0.0,
        0.0,
        0.0,
        2.6718698927529405e-18,
        -0.01203303225338459,
        0.0,
        0.0,
        0.01203303225338459,
        2.6718698927529405e-18,
        0.0,
        0.0,
        0.0,
        0.0,
        1.0
      ],
      "name": "Sketchfab_model"
    },
    {
      "children": [
        2,
        3,
        4,
        5,
        6,
        7,
        8
      ],
      "name": "4065_65_V_Przyrzad_astronomiczny_z_busola_i_alidada.obj.cleaner.materialmerger.gles"
    },
    {
      "mesh": 0,
      "name": "Object_2"
    },
    {
      "mesh": 1,
      "name": "Object_3"
    },
    {
      "mesh": 2,
      "name": "Object_4"
    },
    {
      "mesh": 3,
      "name": "Object_5"
    },
    {
      "mesh": 4,
      "name": "Object_6"
    },
    {
      "mesh": 5,
      "name": "Object_7"
    },
    {
      "mesh": 6,
      "name": "Object_8"
    }
  ],
  "samplers": [
    {
      "magFilter": 9729,
      "minFilter": 9987,
      "wrapS": 10497,
      "wrapT": 10497
    }
  ],
  "scene": 0,
  "scenes": [
    {
      "name": "Sketchfab_Scene",
      "nodes": [
        0
      ]
    }
  ],
  "textures": [
    {
      "sampler": 0,
      "source": 0
    },
    {
      "sampler": 0,
      "source": 1
    },
    {
      "sampler": 0,
      "source": 2
    },
    {
      "sampler": 0,
      "source": 3
    }
  ]
}
