{
	"asset":{
		"generator":"Khronos glTF Blender I/O v4.0.44",
		"version":"2.0"
	},
	"scene":0,
	"scenes":[
		{
			"name":"Scene",
			"nodes":[
				3
			]
		}
	],
	"nodes":[
		{
			"mesh":0,
			"name":"Object_2",
			"rotation":[
				0.011647761799395084,
				-0.010484875179827213,
				0.7431429624557495,
				0.6689491868019104
			],
			"translation":[
				-0.056840550154447556,
				0.4741652309894562,
				-0.035391915589571
			]
		},
		{
			"mesh":1,
			"name":"Object_3",
			"rotation":[
				0.011647761799395084,
				-0.010484875179827213,
				0.7431429624557495,
				0.6689491868019104
			],
			"translation":[
				-0.056840550154447556,
				0.4741652309894562,
				-0.035391915589571
			]
		},
		{
			"children":[
				0,
				1
			],
			"name":"nefertiti_HQ2.obj.cleaner.gles"
		},
		{
			"children":[
				2
			],
			"name":"Sketchfab_model",
			"rotation":[
				1,
				0,
				0,
				0
			],
			"scale":[
				2.411478281021118,
				1,
				2.411478281021118
			]
		}
	],
	"materials":[
		{
			"doubleSided":true,
			"name":"material_0",
			"occlusionTexture":{
				"index":0
			},
			"pbrMetallicRoughness":{
				"baseColorTexture":{
					"index":1
				},
				"metallicFactor":0,
				"metallicRoughnessTexture":{
					"index":0
				}
			}
		}
	],
	"meshes":[
		{
			"name":"Object_0",
			"primitives":[
				{
					"attributes":{
						"COLOR_0":0,
						"POSITION":1,
						"NORMAL":2,
						"TEXCOORD_0":3
					},
					"indices":4,
					"material":0
				}
			]
		},
		{
			"name":"Object_1",
			"primitives":[
				{
					"attributes":{
						"COLOR_0":5,
						"POSITION":6,
						"NORMAL":7,
						"TEXCOORD_0":8
					},
					"indices":9,
					"material":0
				}
			]
		}
	],
	"textures":[
		{
			"sampler":0,
			"source":0
		},
		{
			"sampler":0,
			"source":1
		}
	],
	"images":[
		{
			"mimeType":"image/png",
			"name":"material_0_metallicRoughness",
			"uri":"material_0_metallicRoughness.png"
		},
		{
			"mimeType":"image/png",
			"name":"material_0_baseColor",
			"uri":"material_0_baseColor.png"
		}
	],
	"accessors":[
		{
			"bufferView":0,
			"componentType":5123,
			"count":66219,
			"normalized":true,
			"type":"VEC4"
		},
		{
			"bufferView":1,
			"componentType":5126,
			"count":66219,
			"max":[
				-0.31660500168800354,
				0.10871600359678268,
				0.5071039795875549
			],
			"min":[
				-0.669655978679657,
				-0.12379500269889832,
				0.02697400003671646
			],
			"type":"VEC3"
		},
		{
			"bufferView":2,
			"componentType":5126,
			"count":66219,
			"type":"VEC3"
		},
		{
			"bufferView":3,
			"componentType":5126,
			"count":66219,
			"type":"VEC2"
		},
		{
			"bufferView":4,
			"componentType":5125,
			"count":275229,
			"type":"SCALAR"
		},
		{
			"bufferView":5,
			"componentType":5123,
			"count":11134,
			"normalized":true,
			"type":"VEC4"
		},
		{
			"bufferView":6,
			"componentType":5126,
			"count":11134,
			"max":[
				-0.31821000576019287,
				0.10846900194883347,
				0.5071039795875549
			],
			"min":[
				-0.6113110184669495,
				-0.12288100272417068,
				0.055087000131607056
			],
			"type":"VEC3"
		},
		{
			"bufferView":7,
			"componentType":5126,
			"count":11134,
			"type":"VEC3"
		},
		{
			"bufferView":8,
			"componentType":5126,
			"count":11134,
			"type":"VEC2"
		},
		{
			"bufferView":9,
			"componentType":5123,
			"count":24771,
			"type":"SCALAR"
		}
	],
	"bufferViews":[
		{
			"buffer":0,
			"byteLength":529752,
			"byteOffset":0,
			"target":34962
		},
		{
			"buffer":0,
			"byteLength":794628,
			"byteOffset":529752,
			"target":34962
		},
		{
			"buffer":0,
			"byteLength":794628,
			"byteOffset":1324380,
			"target":34962
		},
		{
			"buffer":0,
			"byteLength":529752,
			"byteOffset":2119008,
			"target":34962
		},
		{
			"buffer":0,
			"byteLength":1100916,
			"byteOffset":2648760,
			"target":34963
		},
		{
			"buffer":0,
			"byteLength":89072,
			"byteOffset":3749676,
			"target":34962
		},
		{
			"buffer":0,
			"byteLength":133608,
			"byteOffset":3838748,
			"target":34962
		},
		{
			"buffer":0,
			"byteLength":133608,
			"byteOffset":3972356,
			"target":34962
		},
		{
			"buffer":0,
			"byteLength":89072,
			"byteOffset":4105964,
			"target":34962
		},
		{
			"buffer":0,
			"byteLength":49542,
			"byteOffset":4195036,
			"target":34963
		}
	],
	"samplers":[
		{
			"magFilter":9729,
			"minFilter":9987
		}
	],
	"buffers":[
		{
			"byteLength":4244580,
			"uri":"scene.bin"
		}
	]
}
