{
	"asset":{
		"generator":"Khronos glTF Blender I/O v4.0.44",
		"version":"2.0"
	},
	"scene":0,
	"scenes":[
		{
			"name":"Scene",
			"nodes":[
				7
			]
		}
	],
	"nodes":[
		{
			"mesh":0,
			"name":"Object_3",
			"translation":[
				123.65995025634766,
				77.2107162475586,
				127.37722778320312
			]
		},
		{
			"mesh":1,
			"name":"Object_4",
			"translation":[
				95.25338745117188,
				53.43054962158203,
				85.82518768310547
			]
		},
		{
			"mesh":2,
			"name":"Object_5",
			"translation":[
				113.16075897216797,
				45.170894622802734,
				107.50244903564453
			]
		},
		{
			"mesh":3,
			"name":"Object_6",
			"translation":[
				117.0975341796875,
				75.27544403076172,
				100.7801742553711
			]
		},
		{
			"mesh":4,
			"name":"Object_7",
			"translation":[
				88.7187728881836,
				57.37730407714844,
				77.09150695800781
			]
		},
		{
			"children":[
				0,
				1,
				2,
				3,
				4
			],
			"name":"Object_2",
			"translation":[
				-8.58306884765625e-06,
				5.7220458984375e-06,
				0
			]
		},
		{
			"children":[
				5
			],
			"name":"tinker.obj.cleaner.materialmerger.gles",
			"rotation":[
				0,
				0,
				-0.0507928691804409,
				0.9987092018127441
			],
			"translation":[
				-89.1774673461914,
				-77.4090805053711,
				-72.63751220703125
			]
		},
		{
			"children":[
				6
			],
			"name":"Sketchfab_model",
			"rotation":[
				-0.5527706742286682,
				-0.001069681835360825,
				-0.8296372890472412,
				0.07839246094226837
			],
			"scale":[
				0.0873609334230423,
				0.0873609334230423,
				0.0873609259724617
			],
			"translation":[
				0.6639912724494934,
				0.0961606502532959,
				0.07380653917789459
			]
		}
	],
	"materials":[
		{
			"doubleSided":true,
			"name":"color_15277357",
			"pbrMetallicRoughness":{
				"baseColorFactor":[
					0.9137250185012817,
					0.11372499912977219,
					0.17647099494934082,
					1
				],
				"metallicFactor":0,
				"roughnessFactor":0.6000000238418579
			}
		},
		{
			"doubleSided":true,
			"name":"color_16448250",
			"pbrMetallicRoughness":{
				"baseColorFactor":[
					0.9803919792175293,
					0.9803919792175293,
					0.9803919792175293,
					1
				],
				"metallicFactor":0,
				"roughnessFactor":0.6000000238418579
			}
		},
		{
			"doubleSided":true,
			"name":"color_16768282",
			"pbrMetallicRoughness":{
				"baseColorFactor":[
					1,
					0.8666669726371765,
					0.10196100175380707,
					1
				],
				"metallicFactor":0,
				"roughnessFactor":0.6000000238418579
			}
		},
		{
			"doubleSided":true,
			"name":"color_3888547",
			"pbrMetallicRoughness":{
				"baseColorFactor":[
					0.23137299716472626,
					0.33333298563957214,
					0.6392160058021545,
					1
				],
				"metallicFactor":0,
				"roughnessFactor":0.6000000238418579
			}
		},
		{
			"doubleSided":true,
			"name":"color_6383466",
			"pbrMetallicRoughness":{
				"baseColorFactor":[
					0.3803919851779938,
					0.4039219915866852,
					0.4156860113143921,
					1
				],
				"metallicFactor":0,
				"roughnessFactor":0.6000000238418579
			}
		}
	],
	"meshes":[
		{
			"name":"Object_0",
			"primitives":[
				{
					"attributes":{
						"POSITION":0,
						"NORMAL":1
					},
					"indices":2,
					"material":0
				}
			]
		},
		{
			"name":"Object_1",
			"primitives":[
				{
					"attributes":{
						"POSITION":3,
						"NORMAL":4
					},
					"indices":5,
					"material":1
				}
			]
		},
		{
			"name":"Object_2",
			"primitives":[
				{
					"attributes":{
						"POSITION":6,
						"NORMAL":7
					},
					"indices":8,
					"material":2
				}
			]
		},
		{
			"name":"Object_3",
			"primitives":[
				{
					"attributes":{
						"POSITION":9,
						"NORMAL":10
					},
					"indices":11,
					"material":3
				}
			]
		},
		{
			"name":"Object_4",
			"primitives":[
				{
					"attributes":{
						"POSITION":12,
						"NORMAL":13
					},
					"indices":14,
					"material":4
				}
			]
		}
	],
	"accessors":[
		{
			"bufferView":0,
			"componentType":5126,
			"count":3015,
			"max":[
				36.155029296875,
				27.589290618896484,
				46.82854080200195
			],
			"min":[
				-57.418975830078125,
				-29.210712432861328,
				-61.654239654541016
			],
			"type":"VEC3"
		},
		{
			"bufferView":1,
			"componentType":5126,
			"count":3015,
			"type":"VEC3"
		},
		{
			"bufferView":2,
			"componentType":5123,
			"count":16215,
			"type":"SCALAR"
		},
		{
			"bufferView":3,
			"componentType":5126,
			"count":22227,
			"max":[
				63.3136100769043,
				51.469451904296875,
				103.71279907226562
			],
			"min":[
				-95.2533950805664,
				-53.43054962158203,
				-85.8251953125
			],
			"type":"VEC3"
		},
		{
			"bufferView":4,
			"componentType":5126,
			"count":22227,
			"type":"VEC3"
		},
		{
			"bufferView":5,
			"componentType":5123,
			"count":94458,
			"type":"SCALAR"
		},
		{
			"bufferView":6,
			"componentType":5126,
			"count":778,
			"max":[
				4.912225723266602,
				4.438094615936279,
				4.646541595458984
			],
			"min":[
				-5.085775375366211,
				-5.3708882331848145,
				-5.351459503173828
			],
			"type":"VEC3"
		},
		{
			"bufferView":7,
			"componentType":5126,
			"count":778,
			"type":"VEC3"
		},
		{
			"bufferView":8,
			"componentType":5123,
			"count":3921,
			"type":"SCALAR"
		},
		{
			"bufferView":9,
			"componentType":5126,
			"count":1749,
			"max":[
				11.021465301513672,
				10.124550819396973,
				30.006826400756836
			],
			"min":[
				-10.904537200927734,
				-10.075453758239746,
				-28.905176162719727
			],
			"type":"VEC3"
		},
		{
			"bufferView":10,
			"componentType":5126,
			"count":1749,
			"type":"VEC3"
		},
		{
			"bufferView":11,
			"componentType":5123,
			"count":8751,
			"type":"SCALAR"
		},
		{
			"bufferView":12,
			"componentType":5126,
			"count":14281,
			"max":[
				52.21068572998047,
				41.52269744873047,
				88.24447631835938
			],
			"min":[
				-74.05878448486328,
				-41.87730407714844,
				-72.06752014160156
			],
			"type":"VEC3"
		},
		{
			"bufferView":13,
			"componentType":5126,
			"count":14281,
			"type":"VEC3"
		},
		{
			"bufferView":14,
			"componentType":5123,
			"count":69147,
			"type":"SCALAR"
		}
	],
	"bufferViews":[
		{
			"buffer":0,
			"byteLength":36180,
			"byteOffset":0,
			"target":34962
		},
		{
			"buffer":0,
			"byteLength":36180,
			"byteOffset":36180,
			"target":34962
		},
		{
			"buffer":0,
			"byteLength":32430,
			"byteOffset":72360,
			"target":34963
		},
		{
			"buffer":0,
			"byteLength":266724,
			"byteOffset":104792,
			"target":34962
		},
		{
			"buffer":0,
			"byteLength":266724,
			"byteOffset":371516,
			"target":34962
		},
		{
			"buffer":0,
			"byteLength":188916,
			"byteOffset":638240,
			"target":34963
		},
		{
			"buffer":0,
			"byteLength":9336,
			"byteOffset":827156,
			"target":34962
		},
		{
			"buffer":0,
			"byteLength":9336,
			"byteOffset":836492,
			"target":34962
		},
		{
			"buffer":0,
			"byteLength":7842,
			"byteOffset":845828,
			"target":34963
		},
		{
			"buffer":0,
			"byteLength":20988,
			"byteOffset":853672,
			"target":34962
		},
		{
			"buffer":0,
			"byteLength":20988,
			"byteOffset":874660,
			"target":34962
		},
		{
			"buffer":0,
			"byteLength":17502,
			"byteOffset":895648,
			"target":34963
		},
		{
			"buffer":0,
			"byteLength":171372,
			"byteOffset":913152,
			"target":34962
		},
		{
			"buffer":0,
			"byteLength":171372,
			"byteOffset":1084524,
			"target":34962
		},
		{
			"buffer":0,
			"byteLength":138294,
			"byteOffset":1255896,
			"target":34963
		}
	],
	"buffers":[
		{
			"byteLength":1394192,
			"uri":"scene2.bin"
		}
	]
}
