{
  "asset": {
    "generator": "Sketchfab-12.65.0",
    "version": "2.0",
    "extras": {
      "author": "Thomas Flynn (https://sketchfab.com/nebulousflynn)",
      "license": "CC-BY-4.0 (http://creativecommons.org/licenses/by/4.0/)",
      "source": "https://sketchfab.com/3d-models/alexander-flemming-describes-penicillin-audio-e2c2e88f3f794ff496ab8baa51e60b3e",
      "title": "Alexander Flemming describes Penicillin [audio]"
    }
  },
  "buffers": [
    {
      "uri": "scene.bin",
      "byteLength": 1740936
    }
  ],
  "bufferViews": [
    {
      "buffer": 0,
      "byteOffset": 0,
      "byteLength": 769968,
      "target": 34963
    },
    {
      "buffer": 0,
      "byteOffset": 769968,
      "byteLength": 970968,
      "byteStride": 12,
      "target": 34962
    }
  ],
  "accessors": [
    {
      "bufferView": 0,
      "componentType": 5125,
      "count": 16215,
      "type": "SCALAR"
    },
    {
      "bufferView": 1,
      "componentType": 5126,
      "count": 3015,
      "type": "VEC3",
      "min": [66.24099731445313, 48.0, 65.7229995727539],
      "max": [159.81500244140625, 104.80000305175781, 174.20578002929688]
    },
    {
      "bufferView": 1,
      "byteOffset": 36180,
      "componentType": 5126,
      "count": 3015,
      "type": "VEC3",
      "min": [-0.999849259853363, -1.0, -1.0],
      "max": [1.0, 1.0, 0.9998525977134705]
    },
    {
      "bufferView": 1,
      "byteOffset": 72360,
      "componentType": 5126,
      "count": 20634,
      "type": "VEC3",
      "min": [0.0, 0.0, 0.0],
      "max": [158.56700134277344, 104.9000015258789, 189.53799438476563]
    },
    {
      "bufferView": 1,
      "byteOffset": 319968,
      "componentType": 5126,
      "count": 20634,
      "type": "VEC3",
      "min": [-0.9999443292617798, -1.0, -1.0],
      "max": [0.9999992251396179, 1.0, 0.9999997019767761]
    },
    {
      "bufferView": 0,
      "byteOffset": 64860,
      "componentType": 5125,
      "count": 94458,
      "type": "SCALAR"
    }
  ],
  "materials": [
    {
      "doubleSided": true,
      "name": "color_15277357",
      "pbrMetallicRoughness": {
        "baseColorFactor": [0.913725, 0.113725, 0.176471, 1.0],
        "metallicFactor": 0.0,
        "roughnessFactor": 0.6
      }
    },
    {
      "doubleSided": true,
      "name": "color_16448250",
      "pbrMetallicRoughness": {
        "baseColorFactor": [0.980392, 0.980392, 0.980392, 1.0],
        "metallicFactor": 0.0,
        "roughnessFactor": 0.6
      }
    }
  ],
  "meshes": [
    {
      "name": "Object_0",
      "primitives": [
        {
          "attributes": {
            "POSITION": 0,
            "NORMAL": 1
          },
          "indices": 2,
          "material": 0,
          "mode": 4
        }
      ]
    }
  ],
  "nodes": [
    {
      "name": "Sketchfab_model",
      "matrix": [
        0.020365601405501366, 0.0, 0.0, 0.0,
        0.0, -0.020365601405501366, -9.044143836290426e-18, 0.0,
        0.0, 9.044143836290426e-18, -0.020365601405501366, 0.0,
        0.0, -110.780876159668, 114.31907653808591, 1.0
      ],
      "children": [1]
    },
    {
      "name": "tinker.obj.cleaner.materialmerger.gles",
      "matrix": [
        1.0, 0.0, 0.0, 0.0,
        0.0, 1.0, 0.0, 0.0,
        0.0, 0.0, 1.0, 0.0,
        -104.81500244140625, -165.0, -93.0, 1.0
      ]
    }
  ],
  "scenes": [
    {
      "name": "Sketchfab_Scene",
      "nodes": [0]
    }
  ]
}
