{
  "accessors": [
    {
      "bufferView": 2,
      "componentType": 5126,
      "count": 5002,
      "max": [
        0.2378649264574051,
        0.08376523107290268,
        0.9580745697021484
      ],
      "min": [
        -0.2383725643157959,
        -0.08835913985967636,
        0.2275262027978897
      ],
      "type": "VEC3"
    },
    {
      "bufferView": 2,
      "byteOffset": 60024,
      "componentType": 5126,
      "count": 5002,
      "max": [
        1.0,
        1.0,
        1.0
      ],
      "min": [
        -1.0,
        -1.0,
        -1.0
      ],
      "type": "VEC3"
    },
    {
      "bufferView": 3,
      "componentType": 5126,
      "count": 5002,
      "max": [
        0.9999931454658508,
        0.9982514977455139,
        0.9999743103981018,
        1.0
      ],
      "min": [
        -0.9999931454658508,
        -0.9906071424484253,
        -1.0,
        -1.0
      ],
      "type": "VEC4"
    },
    {
      "bufferView": 1,
      "componentType": 5126,
      "count": 5002,
      "max": [
        0.9633792042732239,
        0.9931764006614685
      ],
      "min": [
        0.006823582574725151,
        0.005160573869943619
      ],
      "type": "VEC2"
    },
    {
      "bufferView": 0,
      "componentType": 5125,
      "count": 25824,
      "type": "SCALAR"
    },
    {
      "bufferView": 2,
      "byteOffset": 120048,
      "componentType": 5126,
      "count": 9034,
      "max": [
        0.07312893867492676,
        0.06976785510778427,
        1.4031018018722534
      ],
      "min": [
        -0.07033968716859818,
        -0.17605793476104736,
        2.572475121809248e-09
      ],
      "type": "VEC3"
    },
    {
      "bufferView": 2,
      "byteOffset": 228456,
      "componentType": 5126,
      "count": 9034,
      "max": [
        1.0,
        1.0,
        1.0
      ],
      "min": [
        -1.0,
        -1.0,
        -1.0
      ],
      "type": "VEC3"
    },
    {
      "bufferView": 3,
      "byteOffset": 80032,
      "componentType": 5126,
      "count": 9034,
      "max": [
        1.0,
        1.0,
        1.0,
        1.0
      ],
      "min": [
        -0.9999963641166687,
        -0.9999998807907104,
        -0.9999999403953552,
        -1.0
      ],
      "type": "VEC4"
    },
    {
      "bufferView": 1,
      "byteOffset": 40016,
      "componentType": 5126,
      "count": 9034,
      "max": [
        0.9908996820449829,
        0.9940215349197388
      ],
      "min": [
        0.005215662997215986,
        0.012789204716682434
      ],
      "type": "VEC2"
    },
    {
      "bufferView": 0,
      "byteOffset": 103296,
      "componentType": 5125,
      "count": 42459,
      "type": "SCALAR"
    }
  ],
  "asset": {
    "extras": {
      "author": "VM-Models (https://sketchfab.com/vm-models)",
      "license": "CC-BY-4.0 (http://creativecommons.org/licenses/by/4.0/)",
      "source": "https://sketchfab.com/3d-models/cello-ece053225f3a42f1939528b9c9014775",
      "title": "Cello"
    },
    "generator": "Sketchfab-16.59.0",
    "version": "2.0"
  },
  "bufferViews": [
    {
      "buffer": 0,
      "byteLength": 273132,
      "name": "floatBufferViews",
      "target": 34963
    },
    {
      "buffer": 0,
      "byteLength": 112288,
      "byteOffset": 273132,
      "byteStride": 8,
      "name": "floatBufferViews",
      "target": 34962
    },
    {
      "buffer": 0,
      "byteLength": 336864,
      "byteOffset": 385420,
      "byteStride": 12,
      "name": "floatBufferViews",
      "target": 34962
    },
    {
      "buffer": 0,
      "byteLength": 224576,
      "byteOffset": 722284,
      "byteStride": 16,
      "name": "floatBufferViews",
      "target": 34962
    }
  ],
  "buffers": [
    {
      "byteLength": 946860,
      "uri": "scene.bin"
    }
  ],
  "images": [
    {
      "uri": "textures/cello_mat01_baseColor.png"
    },
    {
      "uri": "textures/cello_mat01_metallicRoughness.png"
    },
    {
      "uri": "textures/cello_mat01_normal.png"
    },
    {
      "uri": "textures/cello_mat02_baseColor.png"
    },
    {
      "uri": "textures/cello_mat02_metallicRoughness.png"
    },
    {
      "uri": "textures/cello_mat02_normal.png"
    }
  ],
  "materials": [
    {
      "doubleSided": true,
      "name": "cello_mat01",
      "normalTexture": {
        "index": 2
      },
      "occlusionTexture": {
        "index": 1
      },
      "pbrMetallicRoughness": {
        "baseColorTexture": {
          "index": 0
        },
        "metallicFactor": 0.0,
        "metallicRoughnessTexture": {
          "index": 1
        }
      }
    },
    {
      "doubleSided": true,
      "name": "cello_mat02",
      "normalTexture": {
        "index": 5
      },
      "occlusionTexture": {
        "index": 4
      },
      "pbrMetallicRoughness": {
        "baseColorTexture": {
          "index": 3
        },
        "metallicRoughnessTexture": {
          "index": 4
        }
      }
    }
  ],
  "meshes": [
    {
      "name": "cello_cello_mat01_0",
      "primitives": [
        {
          "attributes": {
            "NORMAL": 1,
            "POSITION": 0,
            "TANGENT": 2,
            "TEXCOORD_0": 3
          },
          "indices": 4,
          "material": 0,
          "mode": 4
        }
      ]
    },
    {
      "name": "cello_cello_mat02_0",
      "primitives": [
        {
          "attributes": {
            "NORMAL": 6,
            "POSITION": 5,
            "TANGENT": 7,
            "TEXCOORD_0": 8
          },
          "indices": 9,
          "material": 1,
          "mode": 4
        }
      ]
    }
  ],
  "nodes": [
    {
      "children": [
        1
      ],
      "matrix": [
        1.0,
        0.0,
        0.0,
        0.0,
        0.0,
        2.220446049250313e-16,
        -1.0,
        0.0,
        0.0,
        1.0,
        2.220446049250313e-16,
        0.0,
        0.0,
        0.0,
        0.0,
        1.0
      ],
      "name": "Sketchfab_model"
    },
    {
      "children": [
        2
      ],
      "matrix": [
        1.0,
        0.0,
        0.0,
        0.0,
        0.0,
        0.0,
        1.0,
        0.0,
        0.0,
        -1.0,
        0.0,
        0.0,
        0.0,
        0.0,
        0.0,
        1.0
      ],
      "name": "e968a06b7a6440fcac689323be54df3b.fbx"
    },
    {
      "children": [
        3
      ],
      "name": "RootNode"
    },
    {
      "children": [
        4,
        5
      ],
      "matrix": [
        1.0,
        0.0,
        0.0,
        0.0,
        -0.0,
        -1.6292067939183141e-07,
        -0.9999999999999868,
        0.0,
        0.0,
        0.9999999999999868,
        -1.6292067939183141e-07,
        0.0,
        -2.805609256029129e-08,
        0.0,
        1.6919027956419086e-08,
        1.0
      ],
      "name": "cello"
    },
    {
      "mesh": 0,
      "name": "cello_cello_mat01_0"
    },
    {
      "mesh": 1,
      "name": "cello_cello_mat02_0"
    }
  ],
  "samplers": [
    {
      "magFilter": 9729,
      "minFilter": 9987,
      "wrapS": 10497,
      "wrapT": 10497
    }
  ],
  "scene": 0,
  "scenes": [
    {
      "name": "Sketchfab_Scene",
      "nodes": [
        0
      ]
    }
  ],
  "textures": [
    {
      "sampler": 0,
      "source": 0
    },
    {
      "sampler": 0,
      "source": 1
    },
    {
      "sampler": 0,
      "source": 2
    },
    {
      "sampler": 0,
      "source": 3
    },
    {
      "sampler": 0,
      "source": 4
    },
    {
      "sampler": 0,
      "source": 5
    }
  ]
}
