{
  "accessors": [
    {
      "bufferView": 2,
      "componentType": 5126,
      "count": 6296,
      "max": [
        0.08670400083065033,
        0.006750999949872494,
        0.08343499898910522
      ],
      "min": [
        -0.08105199784040451,
        -0.04203300178050995,
        -0.08282200247049332
      ],
      "type": "VEC3"
    },
    {
      "bufferView": 2,
      "byteOffset": 75552,
      "componentType": 5126,
      "count": 6296,
      "max": [
        0.9973117709159851,
        0.9999927282333374,
        0.9932313561439514
      ],
      "min": [
        -0.987095057964325,
        -0.9999732971191406,
        -0.9982285499572754
      ],
      "type": "VEC3"
    },
    {
      "bufferView": 3,
      "componentType": 5126,
      "count": 6296,
      "max": [
        0.9716415405273438,
        0.9998756647109985,
        0.9999699592590332,
        1.0
      ],
      "min": [
        -0.9962090849876404,
        -0.9997772574424744,
        -0.9915689826011658,
        -1.0
      ],
      "type": "VEC4"
    },
    {
      "bufferView": 1,
      "componentType": 5126,
      "count": 6296,
      "max": [
        1.0,
        0.937749981880188
      ],
      "min": [
        0.0,
        0.0
      ],
      "type": "VEC2"
    },
    {
      "bufferView": 0,
      "componentType": 5125,
      "count": 29976,
      "type": "SCALAR"
    }
  ],
  "asset": {
    "extras": {
      "author": "Bonn Center for Digital Humanities (https://sketchfab.com/bcdh)",
      "license": "CC-BY-4.0 (http://creativecommons.org/licenses/by/4.0/)",
      "source": "https://sketchfab.com/3d-models/hunting-bowl-5210a579dbd14b2cb5760e0d85ddb925",
      "title": "Hunting Bowl"
    },
    "generator": "Sketchfab-14.23.0",
    "version": "2.0"
  },
  "bufferViews": [
    {
      "buffer": 0,
      "byteLength": 119904,
      "name": "floatBufferViews",
      "target": 34963
    },
    {
      "buffer": 0,
      "byteLength": 50368,
      "byteOffset": 119904,
      "byteStride": 8,
      "name": "floatBufferViews",
      "target": 34962
    },
    {
      "buffer": 0,
      "byteLength": 151104,
      "byteOffset": 170272,
      "byteStride": 12,
      "name": "floatBufferViews",
      "target": 34962
    },
    {
      "buffer": 0,
      "byteLength": 100736,
      "byteOffset": 321376,
      "byteStride": 16,
      "name": "floatBufferViews",
      "target": 34962
    }
  ],
  "buffers": [
    {
      "byteLength": 422112,
      "uri": "scene.bin"
    }
  ],
  "images": [
    {
      "uri": "textures/Schale_Inv_1434_1257_u1_v1_baseColor.jpeg"
    },
    {
      "uri": "textures/Schale_Inv_1434_1257_u1_v1_metallicRoughness.png"
    },
    {
      "uri": "textures/Schale_Inv_1434_1257_u1_v1_normal.png"
    }
  ],
  "materials": [
    {
      "doubleSided": true,
      "name": "Schale_Inv_1434_1257_u1_v1",
      "normalTexture": {
        "index": 2
      },
      "occlusionTexture": {
        "index": 1,
        "strength": 0.5489256334020393
      },
      "pbrMetallicRoughness": {
        "baseColorTexture": {
          "index": 0
        },
        "metallicFactor": 0.0,
        "metallicRoughnessTexture": {
          "index": 1
        },
        "roughnessFactor": 0.12331351196882087
      }
    }
  ],
  "meshes": [
    {
      "name": "Object_0",
      "primitives": [
        {
          "attributes": {
            "NORMAL": 1,
            "POSITION": 0,
            "TANGENT": 2,
            "TEXCOORD_0": 3
          },
          "indices": 4,
          "material": 0,
          "mode": 4
        }
      ]
    }
  ],
  "nodes": [
    {
      "children": [
        1
      ],
      "matrix": [
        0.8213348984718323,
        0.5704463124275208,
        1.2666452607390982e-16,
        0.0,
        0.0,
        2.220446049250313e-16,
        -1.0,
        0.0,
        -0.5704463124275208,
        0.8213348984718323,
        1.823729830423187e-16,
        0.0,
        0.0,
        0.0,
        0.0,
        1.0
      ],
      "name": "Sketchfab_model"
    },
    {
      "children": [
        2
      ],
      "name": "Schale_Inv_1434_(1257)_lp.obj.cleaner.materialmerger.gles"
    },
    {
      "mesh": 0,
      "name": "Object_2"
    }
  ],
  "samplers": [
    {
      "magFilter": 9729,
      "minFilter": 9987,
      "wrapS": 10497,
      "wrapT": 10497
    }
  ],
  "scene": 0,
  "scenes": [
    {
      "name": "Sketchfab_Scene",
      "nodes": [
        0
      ]
    }
  ],
  "textures": [
    {
      "sampler": 0,
      "source": 0
    },
    {
      "sampler": 0,
      "source": 1
    },
    {
      "sampler": 0,
      "source": 2
    }
  ]
}
