{
	"asset":{
		"generator":"Khronos glTF Blender I/O v4.2.57",
		"version":"2.0"
	},
	"scene":0,
	"scenes":[
		{
			"name":"Scene",
			"nodes":[
				5
			]
		}
	],
	"nodes":[
		{
			"mesh":0,
			"name":"Model_material0_0"
		},
		{
			"mesh":1,
			"name":"Model_material0_0.001"
		},
		{
			"children":[
				0,
				1
			],
			"name":"Model"
		},
		{
			"children":[
				2
			],
			"name":"RootNode"
		},
		{
			"children":[
				3
			],
			"name":"model.fbx",
			"rotation":[
				1,
				0,
				0,
				0
			]
		},
		{
			"children":[
				4
			],
			"name":"Sketchfab_model",
			"rotation":[
				-0.70710688829422,
				0,
				0,
				0.7071066498756409
			]
		}
	],
	"materials":[
		{
			"doubleSided":true,
			"name":"material0",
			"normalTexture":{
				"index":0,
				"texCoord":1
			},
			"occlusionTexture":{
				"index":1
			},
			"pbrMetallicRoughness":{
				"baseColorTexture":{
					"index":2
				},
				"metallicRoughnessTexture":{
					"index":1
				},
				"roughnessFactor":0.5680453181266785
			}
		}
	],
	"meshes":[
		{
			"name":"Model_material0_0",
			"primitives":[
				{
					"attributes":{
						"POSITION":0,
						"NORMAL":1,
						"TEXCOORD_0":2,
						"TEXCOORD_1":3
					},
					"indices":4,
					"material":0
				}
			]
		},
		{
			"name":"Model_material0_0.001",
			"primitives":[
				{
					"attributes":{
						"POSITION":5,
						"NORMAL":6,
						"TEXCOORD_0":7,
						"TEXCOORD_1":8
					},
					"indices":9,
					"material":0
				}
			]
		}
	],
	"textures":[
		{
			"sampler":0,
			"source":0
		},
		{
			"sampler":0,
			"source":1
		},
		{
			"sampler":0,
			"source":2
		}
	],
	"images":[
		{
			"mimeType":"image/jpeg",
			"name":"material0_normal",
			"uri":"material0_normal.jpg"
		},
		{
			"mimeType":"image/png",
			"name":"material0_metallicRoughness",
			"uri":"material0_metallicRoughness.png"
		},
		{
			"mimeType":"image/jpeg",
			"name":"material0_baseColor",
			"uri":"material0_baseColor.jpg"
		}
	],
	"accessors":[
		{
			"bufferView":0,
			"componentType":5126,
			"count":47736,
			"max":[
				0.4007255733013153,
				0.08355635404586792,
				0.38464897871017456
			],
			"min":[
				-0.3861943185329437,
				-0.008448495529592037,
				-0.4019998610019684
			],
			"type":"VEC3"
		},
		{
			"bufferView":1,
			"componentType":5126,
			"count":47736,
			"type":"VEC3"
		},
		{
			"bufferView":2,
			"componentType":5126,
			"count":47736,
			"type":"VEC2"
		},
		{
			"bufferView":3,
			"componentType":5126,
			"count":47736,
			"type":"VEC2"
		},
		{
			"bufferView":4,
			"componentType":5123,
			"count":252078,
			"type":"SCALAR"
		},
		{
			"bufferView":5,
			"componentType":5126,
			"count":18630,
			"max":[
				0.4004812240600586,
				0.08170685172080994,
				0.3817993998527527
			],
			"min":[
				-0.3861943185329437,
				-0.007195832673460245,
				-0.4013158977031708
			],
			"type":"VEC3"
		},
		{
			"bufferView":6,
			"componentType":5126,
			"count":18630,
			"type":"VEC3"
		},
		{
			"bufferView":7,
			"componentType":5126,
			"count":18630,
			"type":"VEC2"
		},
		{
			"bufferView":8,
			"componentType":5126,
			"count":18630,
			"type":"VEC2"
		},
		{
			"bufferView":9,
			"componentType":5123,
			"count":62916,
			"type":"SCALAR"
		}
	],
	"bufferViews":[
		{
			"buffer":0,
			"byteLength":572832,
			"byteOffset":0,
			"target":34962
		},
		{
			"buffer":0,
			"byteLength":572832,
			"byteOffset":572832,
			"target":34962
		},
		{
			"buffer":0,
			"byteLength":381888,
			"byteOffset":1145664,
			"target":34962
		},
		{
			"buffer":0,
			"byteLength":381888,
			"byteOffset":1527552,
			"target":34962
		},
		{
			"buffer":0,
			"byteLength":504156,
			"byteOffset":1909440,
			"target":34963
		},
		{
			"buffer":0,
			"byteLength":223560,
			"byteOffset":2413596,
			"target":34962
		},
		{
			"buffer":0,
			"byteLength":223560,
			"byteOffset":2637156,
			"target":34962
		},
		{
			"buffer":0,
			"byteLength":149040,
			"byteOffset":2860716,
			"target":34962
		},
		{
			"buffer":0,
			"byteLength":149040,
			"byteOffset":3009756,
			"target":34962
		},
		{
			"buffer":0,
			"byteLength":125832,
			"byteOffset":3158796,
			"target":34963
		}
	],
	"samplers":[
		{
			"magFilter":9729,
			"minFilter":9987
		}
	],
	"buffers":[
		{
			"byteLength":3284628,
			"uri":"scene.bin"
		}
	]
}
