{
  "accessors": [
    {
      "bufferView": 2,
      "componentType": 5126,
      "count": 65532,
      "max": [
        17.990928649902344,
        -0.24013875424861908,
        10.38683032989502
      ],
      "min": [
        -12.642790794372559,
        -27.413009643554688,
        -11.505550384521484
      ],
      "type": "VEC3"
    },
    {
      "bufferView": 2,
      "byteOffset": 786384,
      "componentType": 5126,
      "count": 65532,
      "max": [
        0.9999579787254333,
        0.9999997615814209,
        0.9999966621398926
      ],
      "min": [
        -0.9999939203262329,
        -0.999998927116394,
        -0.9999987483024597
      ],
      "type": "VEC3"
    },
    {
      "bufferView": 3,
      "componentType": 5126,
      "count": 65532,
      "max": [
        0.999975860118866,
        0.9999700784683228,
        0.9999812245368958,
        1.0
      ],
      "min": [
        -0.9999943375587463,
        -0.9999997615814209,
        -0.999999463558197,
        -1.0
      ],
      "type": "VEC4"
    },
    {
      "bufferView": 1,
      "componentType": 5126,
      "count": 65532,
      "max": [
        0.9979599714279175,
        0.9977700114250183
      ],
      "min": [
        0.0019499999471008778,
        0.0019499999471008778
      ],
      "type": "VEC2"
    },
    {
      "bufferView": 0,
      "componentType": 5125,
      "count": 317820,
      "type": "SCALAR"
    },
    {
      "bufferView": 2,
      "byteOffset": 1572768,
      "componentType": 5126,
      "count": 65532,
      "max": [
        17.990928649902344,
        -0.24751600623130798,
        11.42846965789795
      ],
      "min": [
        -11.104559898376465,
        -25.89011001586914,
        -11.495429992675781
      ],
      "type": "VEC3"
    },
    {
      "bufferView": 2,
      "byteOffset": 2359152,
      "componentType": 5126,
      "count": 65532,
      "max": [
        0.9999943375587463,
        0.9999986886978149,
        0.9998763203620911
      ],
      "min": [
        -0.9999920129776001,
        -0.999999463558197,
        -0.9999987483024597
      ],
      "type": "VEC3"
    },
    {
      "bufferView": 3,
      "byteOffset": 1048512,
      "componentType": 5126,
      "count": 65532,
      "max": [
        1.0,
        0.9999983310699463,
        0.9999716281890869,
        1.0
      ],
      "min": [
        -0.9999929070472717,
        -0.9999961256980896,
        -0.9999576210975647,
        -1.0
      ],
      "type": "VEC4"
    },
    {
      "bufferView": 1,
      "byteOffset": 524256,
      "componentType": 5126,
      "count": 65532,
      "max": [
        0.9980400204658508,
        0.9964399933815002
      ],
      "min": [
        0.0019499999471008778,
        0.0019499999471008778
      ],
      "type": "VEC2"
    },
    {
      "bufferView": 0,
      "byteOffset": 1271280,
      "componentType": 5125,
      "count": 316677,
      "type": "SCALAR"
    },
    {
      "bufferView": 2,
      "byteOffset": 3145536,
      "componentType": 5126,
      "count": 63878,
      "max": [
        17.956008911132813,
        -0.26455292105674744,
        11.42846965789795
      ],
      "min": [
        -12.642790794372559,
        -27.30805778503418,
        -11.303890228271484
      ],
      "type": "VEC3"
    },
    {
      "bufferView": 2,
      "byteOffset": 3912072,
      "componentType": 5126,
      "count": 63878,
      "max": [
        0.9999991059303284,
        0.9999986886978149,
        0.9999933242797852
      ],
      "min": [
        -0.9999819397926331,
        -0.9999991059303284,
        -0.9999969005584717
      ],
      "type": "VEC3"
    },
    {
      "bufferView": 3,
      "byteOffset": 2097024,
      "componentType": 5126,
      "count": 63878,
      "max": [
        0.9999494552612305,
        0.9999984502792358,
        0.9999853372573853,
        1.0
      ],
      "min": [
        -0.9999994039535522,
        -0.9999997615814209,
        -0.999934196472168,
        -1.0
      ],
      "type": "VEC4"
    },
    {
      "bufferView": 1,
      "byteOffset": 1048512,
      "componentType": 5126,
      "count": 63878,
      "max": [
        0.9963700175285339,
        0.9961599707603455
      ],
      "min": [
        0.0019499999471008778,
        0.0019499999471008778
      ],
      "type": "VEC2"
    },
    {
      "bufferView": 0,
      "byteOffset": 2537988,
      "componentType": 5125,
      "count": 283917,
      "type": "SCALAR"
    }
  ],
  "asset": {
    "extras": {
      "author": "Virtual Museums of Małopolska (https://sketchfab.com/WirtualneMuzeaMalopolski)",
      "license": "CC0-1.0 (http://creativecommons.org/publicdomain/zero/1.0/)",
      "source": "https://sketchfab.com/3d-models/tankard-depicting-the-queen-of-sheba-and-solomon-a1ed5f79b647481297366adc42bc6903",
      "title": "Tankard depicting the Queen of Sheba and Solomon"
    },
    "generator": "Sketchfab-12.68.0",
    "version": "2.0"
  },
  "bufferViews": [
    {
      "buffer": 0,
      "byteLength": 3673656,
      "name": "floatBufferViews",
      "target": 34963
    },
    {
      "buffer": 0,
      "byteLength": 1559536,
      "byteOffset": 3673656,
      "byteStride": 8,
      "name": "floatBufferViews",
      "target": 34962
    },
    {
      "buffer": 0,
      "byteLength": 4678608,
      "byteOffset": 5233192,
      "byteStride": 12,
      "name": "floatBufferViews",
      "target": 34962
    },
    {
      "buffer": 0,
      "byteLength": 3119072,
      "byteOffset": 9911800,
      "byteStride": 16,
      "name": "floatBufferViews",
      "target": 34962
    }
  ],
  "buffers": [
    {
      "byteLength": 13030872,
      "uri": "scene.bin"
    }
  ],
  "images": [
    {
      "uri": "textures/8743_3430__IV_Kufel_06_FIN_Material_u1_v1_baseColor.jpeg"
    },
    {
      "uri": "textures/8743_3430__IV_Kufel_06_FIN_Material_u1_v1_metallicRoughness.png"
    },
    {
      "uri": "textures/8743_3430__IV_Kufel_06_FIN_Material_u1_v1_normal.png"
    }
  ],
  "materials": [
    {
      "doubleSided": true,
      "name": "8743_3430__IV_Kufel_06_FIN_Material_u1_v1",
      "normalTexture": {
        "index": 2
      },
      "occlusionTexture": {
        "index": 1
      },
      "pbrMetallicRoughness": {
        "baseColorTexture": {
          "index": 0
        },
        "metallicRoughnessTexture": {
          "index": 1
        }
      }
    }
  ],
  "meshes": [
    {
      "name": "Object_0",
      "primitives": [
        {
          "attributes": {
            "NORMAL": 1,
            "POSITION": 0,
            "TANGENT": 2,
            "TEXCOORD_0": 3
          },
          "indices": 4,
          "material": 0,
          "mode": 4
        }
      ]
    },
    {
      "name": "Object_1",
      "primitives": [
        {
          "attributes": {
            "NORMAL": 6,
            "POSITION": 5,
            "TANGENT": 7,
            "TEXCOORD_0": 8
          },
          "indices": 9,
          "material": 0,
          "mode": 4
        }
      ]
    },
    {
      "name": "Object_2",
      "primitives": [
        {
          "attributes": {
            "NORMAL": 11,
            "POSITION": 10,
            "TANGENT": 12,
            "TEXCOORD_0": 13
          },
          "indices": 14,
          "material": 0,
          "mode": 4
        }
      ]
    }
  ],
  "nodes": [
    {
      "children": [
        1
      ],
      "matrix": [
        1.0,      0.0,    0.0,      0.0,
        0.0,     -1.0,    0.0,      0.0,
        0.0,      0.0,   -1.0,      0.0,
        0.0,      0.0,     0.0,     1.0
      ],
      "name": "Sketchfab_model"
    },
    {
      "children": [
        2,
        3,
        4
      ],
      "name": "8743_3430__IV_Kufel_06_FIN.obj.cleaner.materialmerger.gles"
    },
    {
      "mesh": 0,
      "name": "Object_2"
    },
    {
      "mesh": 1,
      "name": "Object_3"
    },
    {
      "mesh": 2,
      "name": "Object_4"
    }
  ],
  "samplers": [
    {
      "magFilter": 9729,
      "minFilter": 9987,
      "wrapS": 10497,
      "wrapT": 10497
    }
  ],
  "scene": 0,
  "scenes": [
    {
      "name": "Sketchfab_Scene",
      "nodes": [
        0
      ]
    }
  ],
  "textures": [
    {
      "sampler": 0,
      "source": 0
    },
    {
      "sampler": 0,
      "source": 1
    },
    {
      "sampler": 0,
      "source": 2
    }
  ]
}
