{"accessors" : [{"bufferView" : 0, "byteOffset" : 0, "componentType" : 5123, "count" : 5760, "type" : "SCALAR", "max" : [1117], "min" : [0]}, {"bufferView" : 1, "byteOffset" : 0, "componentType" : 5126, "count" : 1118, "type" : "VEC3", "max" : [0.000965118408203125, 0.8006241321563721, 0.29542747139930725], "min" : [-0.42932891845703125, -0.8190558552742004, -0.33161690831184387], "name" : "POSITION"}, {"bufferView" : 1, "byteOffset" : 12, "componentType" : 5126, "count" : 1118, "type" : "VEC3", "max" : [1.0000044107437134, 1.0000044107437134, 1.0000044107437134], "min" : [-1.0000044107437134, -1.0000044107437134, -1.0000044107437134], "name" : "NORMAL"}, {"bufferView" : 1, "byteOffset" : 24, "componentType" : 5126, "count" : 1118, "type" : "VEC2", "max" : [1.000000238418579, 2], "min" : [0, 1], "name" : "TEXCOORD_0"}, {"bufferView" : 0, "byteOffset" : 11520, "componentType" : 5123, "count" : 24576, "type" : "SCALAR", "max" : [7839], "min" : [0]}, {"bufferView" : 2, "byteOffset" : 0, "componentType" : 5126, "count" : 7840, "type" : "VEC3", "max" : [1.1142325401306152, 0.885711133480072, 0.021583914756774902], "min" : [-0.8857675194740295, -1.1142890453338623, -0.21079504489898682], "name" : "POSITION"}, {"bufferView" : 2, "byteOffset" : 12, "componentType" : 5126, "count" : 7840, "type" : "VEC3", "max" : [0.5491803288459778, 0.5491803288459778, 1.0000044107437134], "min" : [-0.5491803288459778, -0.5491803288459778, 0.7922886610031128], "name" : "NORMAL"}, {"bufferView" : 2, "byteOffset" : 24, "componentType" : 5126, "count" : 7840, "type" : "VEC2", "max" : [1, 2], "min" : [0, 1], "name" : "TEXCOORD_0"}, {"bufferView" : 0, "byteOffset" : 60672, "componentType" : 5123, "count" : 139968, "type" : "SCALAR", "max" : [62285], "min" : [0]}, {"bufferView" : 3, "byteOffset" : 0, "componentType" : 5126, "count" : 62286, "type" : "VEC3", "max" : [0.5673177242279053, 0.5858020782470703, 0.5848255753517151], "min" : [-0.5848570466041565, -0.5667171478271484, -0.5676952004432678], "name" : "POSITION"}, {"bufferView" : 3, "byteOffset" : 12, "componentType" : 5126, "count" : 62286, "type" : "VEC3", "max" : [1.0000028610229492, 1.0000033378601074, 1.0000042915344238], "min" : [-1.0000041723251343, -1.000003695487976, -1.0000044107437134], "name" : "NORMAL"}, {"bufferView" : 3, "byteOffset" : 24, "componentType" : 5126, "count" : 62286, "type" : "VEC2", "max" : [0, 1], "min" : [0, 1], "name" : "TEXCOORD_0"}], "asset" : {"generator" : "Aspose.3D 24.6.0", "version" : "2.0"}, "buffers" : [{"uri" : "data:application/octet-stream;base64,", "byteLength" : 2620432}], "bufferViews" : [{"buffer" : 0, "byteOffset" : 0, "byteLength" : 340608, "target" : 34963}, {"buffer" : 0, "byteOffset" : 340612, "byteLength" : 35776, "byteStride" : 32, "target" : 34962}, {"buffer" : 0, "byteOffset" : 376392, "byteLength" : 250880, "byteStride" : 32, "target" : 34962}, {"buffer" : 0, "byteOffset" : 627276, "byteLength" : 1993152, "byteStride" : 32, "target" : 34962}], "images" : [{"uri" : "data:image/png;base64,"}], "materials" : [{"name" : "Material.002", "pbrMetallicRoughness" : {"baseColorFactor" : [0, 0, 0, 1], "metallicFactor" : 0, "roughnessFactor" : 0.8211145401000977}, "emissiveFactor" : [1, 0.09321818500757217, 0.09321818500757217], "alphaMode" : "OPAQUE", "doubleSided" : true}, {"name" : "Material.003", "pbrMetallicRoughness" : {"baseColorFactor" : [1, 1, 1, 1], "baseColorTexture" : {"index" : 0, "texCoord" : 0}, "metallicFactor" : 0, "roughnessFactor" : 0.8211145401000977}, "emissiveFactor" : [0, 0, 0], "alphaMode" : "OPAQUE", "doubleSided" : true}, {"name" : "Material.004", "pbrMetallicRoughness" : {"baseColorFactor" : [0.800000011920929, 0.800000011920929, 0.800000011920929, 1], "metallicFactor" : 1, "roughnessFactor" : 1}, "emissiveFactor" : [0, 0, 0], "alphaMode" : "OPAQUE", "doubleSided" : true}], "meshes" : [{"primitives" : [{"attributes" : {"POSITION" : 1, "NORMAL" : 2, "TEXCOORD_0" : 3}, "indices" : 0, "material" : 0, "mode" : 4}]}, {"primitives" : [{"attributes" : {"POSITION" : 5, "NORMAL" : 6, "TEXCOORD_0" : 7}, "indices" : 4, "material" : 1, "mode" : 4}]}, {"primitives" : [{"attributes" : {"POSITION" : 9, "NORMAL" : 10, "TEXCOORD_0" : 11}, "indices" : 8, "material" : 2, "mode" : 4}]}], "nodes" : [{"matrix" : [1, 0, 0, 0, 0, 1, 0, 0, 0, 0, 1, 0, 0.10801579058170319, 0.9977428913116455, 0.09730567038059235, 1], "mesh" : 0, "name" : "Plane_Material.002_0"}, {"matrix" : [1, 0, 0, 0, 0, 1, 0, 0, 0, 0, 1, 0, -0.11423255503177643, 0.1142890676856041, -0.021583987399935722, 1], "mesh" : 1, "name" : "Plane_Material.003_0"}, {"matrix" : [1, 0, 0, 0, 0, 1, 0, 0, 0, 0, 1, 0, -0.05557733029127121, 1.9009085893630981, 0.4859124422073364, 1], "mesh" : 2, "name" : "Plane_Material.004_0"}, {"children" : [0, 1, 2], "matrix" : [1402.2674560546875, 0, 0, 0, 0, -0.0011340258382199764, -1402.2676483295427, 0, 0, 1402.2676483295427, -0.0011340258382199764, 0, 1053.5736083984375, -8.985138265416026E-06, 2122.009765625, 1], "name" : "Plane"}, {"children" : [3], "matrix" : [1, 0, 0, 0, 0, 1, 0, 0, 0, 0, 1, 0, -580.4942626953125, -123.46080017089844, -4.365961074829102, 1], "name" : "RootNode"}, {"children" : [4], "matrix" : [1, 0, 0, 0, 0, -3.029462689596585E-07, 0.9999999657714298, 0, 0, -0.9999999657714298, -3.029462689596585E-07, 0, -580.494384765625, 4.365975856781006, -123.46082305908203, 1], "name" : "3a8fb8e31c3e434db4b1afb11710a903.fbx"}, {"children" : [5], "matrix" : [0.0006049185176379979, 0, 0, 0, 0, -3.8722116628535135E-10, -0.0006049186061309488, 0, 0, 0.0006049186061309488, -3.8722116628535135E-10, 0, 0.1683579832315445, -0.10351524502038956, -0.04159953072667122, 1], "name" : "Sketchfab_model"}], "samplers" : [{"magFilter" : 9729, "minFilter" : 9987, "wrapS" : 10497, "wrapT" : 10497}], "scene" : 0, "scenes" : [{"nodes" : [6]}], "textures" : [{"sampler" : 0, "source" : 0, "name" : ""}]}