{
	"asset":{
		"generator":"Khronos glTF Blender I/O v4.0.44",
		"version":"2.0"
	},
	"scene":0,
	"scenes":[
		{
			"name":"Scene",
			"nodes":[
				6
			]
		}
	],
	"nodes":[
		{
			"mesh":0,
			"name":"Plane_Material.002_0"
		},
		{
			"mesh":1,
			"name":"Plane_Material.003_0"
		},
		{
			"mesh":2,
			"name":"Plane_Material.004_0"
		},
		{
			"children":[
				0,
				1,
				2
			],
			"name":"Plane",
			"rotation":[
				-0.7071070075035095,
				0,
				0,
				0.7071065902709961
			],
			"scale":[
				1402.2674560546875,
				1402.267578125,
				1402.267578125
			],
			"translation":[
				1053.573486328125,
				-7.62939453125e-06,
				2122.009521484375
			]
		},
		{
			"children":[
				3
			],
			"name":"RootNode",
			"translation":[
				6.103515625e-05,
				-7.62939453125e-06,
				0
			]
		},
		{
			"children":[
				4
			],
			"name":"3a8fb8e31c3e434db4b1afb11710a903.fbx",
			"rotation":[
				0.70710688829422,
				0,
				0,
				0.7071066498756409
			],
			"translation":[
				-0.0001220703125,
				-1.460168459743727e-05,
				5.364221578929573e-06
			]
		},
		{
			"children":[
				5
			],
			"name":"Sketchfab_model",
			"rotation":[
				-0.7071069478988647,
				0,
				0,
				0.7071066498756409
			],
			"scale":[
				0.0006049185176379979,
				0.0006049185758456588,
				0.0006049185758456588
			],
			"translation":[
				-0.5974794030189514,
				-0.07165750861167908,
				-0.09285017848014832
			]
		}
	],
	"materials":[
		{
			"doubleSided":true,
			"emissiveFactor":[
				1,
				0.09321818500757217,
				0.09321818500757217
			],
			"name":"Material.002",
			"pbrMetallicRoughness":{
				"baseColorFactor":[
					0,
					0,
					0,
					1
				],
				"metallicFactor":0,
				"roughnessFactor":0.8211145401000977
			}
		},
		{
			"doubleSided":true,
			"name":"Material.003",
			"pbrMetallicRoughness":{
				"metallicFactor":0,
				"roughnessFactor":0.8211145401000977
			}
		},
		{
			"doubleSided":true,
			"name":"Material.004",
			"pbrMetallicRoughness":{
				"baseColorFactor":[
					0.800000011920929,
					0.800000011920929,
					0.800000011920929,
					1
				]
			}
		}
	],
	"meshes":[
		{
			"name":"Plane_Material.002_0",
			"primitives":[
				{
					"attributes":{
						"POSITION":0,
						"NORMAL":1,
						"TEXCOORD_0":2
					},
					"indices":3,
					"material":0
				}
			]
		},
		{
			"name":"Plane_Material.003_0",
			"primitives":[
				{
					"attributes":{
						"POSITION":4,
						"NORMAL":5,
						"TEXCOORD_0":6
					},
					"indices":7,
					"material":1
				}
			]
		},
		{
			"name":"Plane_Material.004_0",
			"primitives":[
				{
					"attributes":{
						"POSITION":8,
						"NORMAL":9,
						"TEXCOORD_0":10
					},
					"indices":11,
					"material":2
				}
			]
		}
	],
	"accessors":[
		{
			"bufferView":0,
			"componentType":5126,
			"count":1118,
			"max":[
				0.10898090898990631,
				1.798366904258728,
				0.392733097076416
			],
			"min":[
				-0.3213130533695221,
				0.17868703603744507,
				-0.2343113124370575
			],
			"type":"VEC3"
		},
		{
			"bufferView":1,
			"componentType":5126,
			"count":1118,
			"type":"VEC3"
		},
		{
			"bufferView":2,
			"componentType":5126,
			"count":1118,
			"type":"VEC2"
		},
		{
			"bufferView":3,
			"componentType":5123,
			"count":5760,
			"type":"SCALAR"
		},
		{
			"bufferView":4,
			"componentType":5126,
			"count":7840,
			"max":[
				1,
				1,
				0
			],
			"min":[
				-1,
				-1,
				-0.23237904906272888
			],
			"type":"VEC3"
		},
		{
			"bufferView":5,
			"componentType":5126,
			"count":7840,
			"type":"VEC3"
		},
		{
			"bufferView":6,
			"componentType":5126,
			"count":7840,
			"type":"VEC2"
		},
		{
			"bufferView":7,
			"componentType":5123,
			"count":24576,
			"type":"SCALAR"
		},
		{
			"bufferView":8,
			"componentType":5126,
			"count":62272,
			"max":[
				0.5117403864860535,
				2.4867103099823,
				1.0707380771636963
			],
			"min":[
				-0.6404343843460083,
				1.334191083908081,
				-0.0817827433347702
			],
			"type":"VEC3"
		},
		{
			"bufferView":9,
			"componentType":5126,
			"count":62272,
			"type":"VEC3"
		},
		{
			"bufferView":10,
			"componentType":5126,
			"count":62272,
			"type":"VEC2"
		},
		{
			"bufferView":11,
			"componentType":5123,
			"count":139968,
			"type":"SCALAR"
		}
	],
	"bufferViews":[
		{
			"buffer":0,
			"byteLength":13416,
			"byteOffset":0,
			"target":34962
		},
		{
			"buffer":0,
			"byteLength":13416,
			"byteOffset":13416,
			"target":34962
		},
		{
			"buffer":0,
			"byteLength":8944,
			"byteOffset":26832,
			"target":34962
		},
		{
			"buffer":0,
			"byteLength":11520,
			"byteOffset":35776,
			"target":34963
		},
		{
			"buffer":0,
			"byteLength":94080,
			"byteOffset":47296,
			"target":34962
		},
		{
			"buffer":0,
			"byteLength":94080,
			"byteOffset":141376,
			"target":34962
		},
		{
			"buffer":0,
			"byteLength":62720,
			"byteOffset":235456,
			"target":34962
		},
		{
			"buffer":0,
			"byteLength":49152,
			"byteOffset":298176,
			"target":34963
		},
		{
			"buffer":0,
			"byteLength":747264,
			"byteOffset":347328,
			"target":34962
		},
		{
			"buffer":0,
			"byteLength":747264,
			"byteOffset":1094592,
			"target":34962
		},
		{
			"buffer":0,
			"byteLength":498176,
			"byteOffset":1841856,
			"target":34962
		},
		{
			"buffer":0,
			"byteLength":279936,
			"byteOffset":2340032,
			"target":34963
		}
	],
	"buffers":[
		{
			"byteLength":2619968,
			"uri":"scene.bin"
		}
	]
}
