{
	"asset":{
		"generator":"Khronos glTF Blender I/O v4.0.44",
		"version":"2.0"
	},
	"scene":0,
	"scenes":[
		{
			"name":"Scene",
			"nodes":[
				3
			]
		}
	],
	"nodes":[
		{
			"mesh":0,
			"name":"Object_2",
			"translation":[
				20.386375427246094,
				108.21501159667969,
				-62.19401931762695
			]
		},
		{
			"mesh":1,
			"name":"Object_3",
			"translation":[
				34.909461975097656,
				138.41966247558594,
				-46.766536712646484
			]
		},
		{
			"children":[
				0,
				1
			],
			"name":"A. Afarensis.obj.cleaner.materialmerger.gles",
			"translation":[
				0,
				0,
				9.894371032714844e-06
			]
		},
		{
			"children":[
				2
			],
			"name":"Sketchfab_model",
			"rotation":[
				-0.10985711216926575,
				0.30705976486206055,
				0.9212803244590759,
				0.21186859905719757
			],
			"translation":[
				75.16952514648438,
				102.78156280517578,
				1.3205273151397705
			]
		}
	],
	"materials":[
		{
			"doubleSided":true,
			"name":"A._Afarensis",
			"pbrMetallicRoughness":{
				"baseColorTexture":{
					"index":0
				},
				"metallicFactor":0
			}
		}
	],
	"meshes":[
		{
			"name":"Object_0",
			"primitives":[
				{
					"attributes":{
						"POSITION":0,
						"NORMAL":1,
						"TEXCOORD_0":2
					},
					"indices":3,
					"material":0
				}
			]
		},
		{
			"name":"Object_1",
			"primitives":[
				{
					"attributes":{
						"POSITION":4,
						"NORMAL":5,
						"TEXCOORD_0":6
					},
					"indices":7,
					"material":0
				}
			]
		}
	],
	"textures":[
		{
			"sampler":0,
			"source":0
		}
	],
	"images":[
		{
			"mimeType":"image/jpeg",
			"name":"A._Afarensis_baseColor",
			"uri":"A__Afarensis_baseColor.jpg"
		}
	],
	"accessors":[
		{
			"bufferView":0,
			"componentType":5126,
			"count":65561,
			"max":[
				70.37413787841797,
				83.88923645019531,
				55.51302719116211
			],
			"min":[
				-53.42030334472656,
				-61.763668060302734,
				-55.60927963256836
			],
			"type":"VEC3"
		},
		{
			"bufferView":1,
			"componentType":5126,
			"count":65561,
			"type":"VEC3"
		},
		{
			"bufferView":2,
			"componentType":5126,
			"count":65561,
			"type":"VEC2"
		},
		{
			"bufferView":3,
			"componentType":5125,
			"count":368238,
			"type":"SCALAR"
		},
		{
			"bufferView":4,
			"componentType":5126,
			"count":43674,
			"max":[
				55.851051330566406,
				53.52972412109375,
				42.359954833984375
			],
			"min":[
				-63.08241653442383,
				-64.77874755859375,
				-67.14411926269531
			],
			"type":"VEC3"
		},
		{
			"bufferView":5,
			"componentType":5126,
			"count":43674,
			"type":"VEC3"
		},
		{
			"bufferView":6,
			"componentType":5126,
			"count":43674,
			"type":"VEC2"
		},
		{
			"bufferView":7,
			"componentType":5123,
			"count":217992,
			"type":"SCALAR"
		}
	],
	"bufferViews":[
		{
			"buffer":0,
			"byteLength":786732,
			"byteOffset":0,
			"target":34962
		},
		{
			"buffer":0,
			"byteLength":786732,
			"byteOffset":786732,
			"target":34962
		},
		{
			"buffer":0,
			"byteLength":524488,
			"byteOffset":1573464,
			"target":34962
		},
		{
			"buffer":0,
			"byteLength":1472952,
			"byteOffset":2097952,
			"target":34963
		},
		{
			"buffer":0,
			"byteLength":524088,
			"byteOffset":3570904,
			"target":34962
		},
		{
			"buffer":0,
			"byteLength":524088,
			"byteOffset":4094992,
			"target":34962
		},
		{
			"buffer":0,
			"byteLength":349392,
			"byteOffset":4619080,
			"target":34962
		},
		{
			"buffer":0,
			"byteLength":435984,
			"byteOffset":4968472,
			"target":34963
		}
	],
	"samplers":[
		{
			"magFilter":9729,
			"minFilter":9987
		}
	],
	"buffers":[
		{
			"byteLength":5404456,
			"uri":"scene.bin"
		}
	]
}
