{
  "accessors": [
    {
      "bufferView": 2,
      "componentType": 5126,
      "count": 65532,
      "max": [
        90.76051330566406,
        192.104248046875,
        -6.68100118637085
      ],
      "min": [
        -33.03392791748047,
        46.45134353637695,
        -117.80330657958984
      ],
      "type": "VEC3"
    },
    {
      "bufferView": 2,
      "byteOffset": 786384,
      "componentType": 5126,
      "count": 65532,
      "max": [
        0.9999991655349731,
        0.9999817609786987,
        0.9999632835388184
      ],
      "min": [
        -0.999973475933075,
        -0.9999378323554993,
        -0.9999771118164063
      ],
      "type": "VEC3"
    },
    {
      "bufferView": 1,
      "componentType": 5126,
      "count": 65532,
      "max": [
        1.0,
        0.9451029896736145
      ],
      "min": [
        0.0447160005569458,
        0.029048999771475792
      ],
      "type": "VEC2"
    },
    {
      "bufferView": 0,
      "componentType": 5125,
      "count": 368238,
      "type": "SCALAR"
    },
    {
      "bufferView": 2,
      "byteOffset": 1572768,
      "componentType": 5126,
      "count": 43616,
      "max": [
        90.76051330566406,
        191.9493865966797,
        -4.406589984893799
      ],
      "min": [
        -28.172954559326172,
        73.64091491699219,
        -113.91065979003906
      ],
      "type": "VEC3"
    },
    {
      "bufferView": 2,
      "byteOffset": 2096160,
      "componentType": 5126,
      "count": 43616,
      "max": [
        0.9999803304672241,
        0.9999693036079407,
        0.999994695186615
      ],
      "min": [
        -0.9999837279319763,
        -0.9922401905059814,
        -0.9999180436134338
      ],
      "type": "VEC3"
    },
    {
      "bufferView": 1,
      "byteOffset": 524256,
      "componentType": 5126,
      "count": 43616,
      "max": [
        1.0,
        0.9797369837760925
      ],
      "min": [
        0.0,
        0.0
      ],
      "type": "VEC2"
    },
    {
      "bufferView": 0,
      "byteOffset": 1472952,
      "componentType": 5125,
      "count": 217992,
      "type": "SCALAR"
    }
  ],
  "asset": {
    "extras": {
      "author": "Digital Atlas of Ancient Life (https://sketchfab.com/DigitalAtlasOfAncientLife)",
      "license": "CC-BY-NC-SA-4.0 (http://creativecommons.org/licenses/by-nc-sa/4.0/)",
      "source": "https://sketchfab.com/3d-models/australopithecus-afarensis-cranium-4562f063aba647d290abb5808d66f20a",
      "title": "Australopithecus afarensis cranium"
    },
    "generator": "Sketchfab-14.79.0",
    "version": "2.0"
  },
  "bufferViews": [
    {
      "buffer": 0,
      "byteLength": 2344920,
      "name": "floatBufferViews",
      "target": 34963
    },
    {
      "buffer": 0,
      "byteLength": 873184,
      "byteOffset": 2344920,
      "byteStride": 8,
      "name": "floatBufferViews",
      "target": 34962
    },
    {
      "buffer": 0,
      "byteLength": 2619552,
      "byteOffset": 3218104,
      "byteStride": 12,
      "name": "floatBufferViews",
      "target": 34962
    }
  ],
  "buffers": [
    {
      "byteLength": 5837656,
      "uri": "scene.bin"
    }
  ],
  "images": [
    {
      "uri": "textures/A._Afarensis_baseColor.jpeg"
    }
  ],
  "materials": [
    {
      "doubleSided": true,
      "name": "A._Afarensis",
      "pbrMetallicRoughness": {
        "baseColorTexture": {
          "index": 0
        },
        "metallicFactor": 0.0
      }
    }
  ],
  "meshes": [
    {
      "name": "Object_0",
      "primitives": [
        {
          "attributes": {
            "NORMAL": 1,
            "POSITION": 0,
            "TEXCOORD_0": 2
          },
          "indices": 3,
          "material": 0,
          "mode": 4
        }
      ]
    },
    {
      "name": "Object_1",
      "primitives": [
        {
          "attributes": {
            "NORMAL": 5,
            "POSITION": 4,
            "TEXCOORD_0": 6
          },
          "indices": 7,
          "material": 0,
          "mode": 4
        }
      ]
    }
  ],
  "nodes": [
    {
      "children": [
        1
      ],
      "matrix": [
        -0.8860862255096436,
        0.3229153454303742,
        -0.3325310051441192,
        0.0,
        -0.45784610509872437,
        -0.7216520309448243,
        0.5192256569862365,
        0.0,
        -0.07230573892593384,
        0.6123267412185667,
        0.7872914671897889,
        0.0,
        0.0,
        0.0,
        0.0,
        1.0
      ],
      "name": "Sketchfab_model"
    },
    {
      "children": [
        2,
        3
      ],
      "name": "A. Afarensis.obj.cleaner.materialmerger.gles"
    },
    {
      "mesh": 0,
      "name": "Object_2"
    },
    {
      "mesh": 1,
      "name": "Object_3"
    }
  ],
  "samplers": [
    {
      "magFilter": 9729,
      "minFilter": 9987,
      "wrapS": 10497,
      "wrapT": 10497
    }
  ],
  "scene": 0,
  "scenes": [
    {
      "name": "Sketchfab_Scene",
      "nodes": [
        0
      ]
    }
  ],
  "textures": [
    {
      "sampler": 0,
      "source": 0
    }
  ]
}
