{
	"asset":{
		"generator":"Khronos glTF Blender I/O v4.0.44",
		"version":"2.0"
	},
	"scene":0,
	"scenes":[
		{
			"name":"Scene",
			"nodes":[
				2
			]
		}
	],
	"nodes":[
		{
			"mesh":0,
			"name":"Object_2",
			"translation":[
				0,
				-7.775881385896355e-06,
				-8.986470675154123e-06
			]
		},
		{
			"children":[
				0
			],
			"name":"Water_PVT_with_labels.stl.cleaner.materialmerger.gles",
			"translation":[
				0,
				-7.775882295391057e-06,
				-8.986469765659422e-06
			]
		},
		{
			"children":[
				1
			],
			"name":"Sketchfab_model",
			"rotation":[
				-0.70710688829422,
				0,
				0,
				0.7071066498756409
			],
			"translation":[
				-27.868778228759766,
				-37.29242706298828,
				42.25556182861328
			]
		}
	],
	"materials":[
		{
			"doubleSided":true,
			"name":"Scene_-_Root",
			"pbrMetallicRoughness":{
				"baseColorFactor":[
					0.9213560223579407,
					0.7514420747756958,
					0.015789015218615532,
					1
				],
				"metallicFactor":0.5139100551605225,
				"roughnessFactor":0.6000000238418579
			}
		}
	],
	"meshes":[
		{
			"name":"Object_0",
			"primitives":[
				{
					"attributes":{
						"POSITION":0,
						"NORMAL":1
					},
					"indices":2,
					"material":0
				}
			]
		}
	],
	"accessors":[
		{
			"bufferView":0,
			"componentType":5126,
			"count":21847,
			"max":[
				65.28522491455078,
				81.45709991455078,
				76.20001983642578
			],
			"min":[
				-10.914770126342773,
				5.257083892822266,
				0
			],
			"type":"VEC3"
		},
		{
			"bufferView":1,
			"componentType":5126,
			"count":21847,
			"type":"VEC3"
		},
		{
			"bufferView":2,
			"componentType":5123,
			"count":76125,
			"type":"SCALAR"
		}
	],
	"bufferViews":[
		{
			"buffer":0,
			"byteLength":262164,
			"byteOffset":0,
			"target":34962
		},
		{
			"buffer":0,
			"byteLength":262164,
			"byteOffset":262164,
			"target":34962
		},
		{
			"buffer":0,
			"byteLength":152250,
			"byteOffset":524328,
			"target":34963
		}
	],
	"buffers":[
		{
			"byteLength":676580,
			"uri":"scene.bin"
		}
	]
}
