{
	"asset":{
		"generator":"Khronos glTF Blender I/O v4.0.44",
		"version":"2.0"
	},
	"scene":0,
	"scenes":[
		{
			"name":"Scene",
			"nodes":[
				19
			]
		}
	],
	"nodes":[
		{
			"mesh":0,
			"name":"Object_10",
			"translation":[
				-0.04633597284555435,
				0.03968862444162369,
				-0.49550822377204895
			]
		},
		{
			"mesh":1,
			"name":"Object_11",
			"translation":[
				0.008360804058611393,
				0.029637029394507408,
				0.23019777238368988
			]
		},
		{
			"mesh":2,
			"name":"Object_12",
			"translation":[
				-0.02906728908419609,
				0.005295939743518829,
				0.29986700415611267
			]
		},
		{
			"mesh":3,
			"name":"Object_13",
			"translation":[
				-0.072515569627285,
				-0.01271382812410593,
				0.12269725650548935
			]
		},
		{
			"mesh":4,
			"name":"Object_14",
			"translation":[
				-0.05756236985325813,
				0.007333305198699236,
				0.19656258821487427
			]
		},
		{
			"mesh":5,
			"name":"Object_15",
			"translation":[
				-0.026864714920520782,
				-0.017964182421565056,
				0.28637072443962097
			]
		},
		{
			"mesh":6,
			"name":"Object_16",
			"translation":[
				-0.020757241174578667,
				-0.03972863405942917,
				0.17967285215854645
			]
		},
		{
			"mesh":7,
			"name":"Object_17",
			"translation":[
				-0.023761309683322906,
				-0.035966284573078156,
				0.07589615881443024
			]
		},
		{
			"mesh":8,
			"name":"Object_18",
			"translation":[
				-0.0034444001503288746,
				-0.010754872113466263,
				0.3569427728652954
			]
		},
		{
			"mesh":9,
			"name":"Object_19",
			"translation":[
				0.020684588700532913,
				0.020074931904673576,
				0.28533437848091125
			]
		},
		{
			"mesh":10,
			"name":"Object_2",
			"translation":[
				0.036341290920972824,
				-0.0014478936791419983,
				0.017439614981412888
			]
		},
		{
			"mesh":11,
			"name":"Object_3",
			"translation":[
				0.07198480516672134,
				-0.02398785389959812,
				-0.16067832708358765
			]
		},
		{
			"mesh":12,
			"name":"Object_4",
			"translation":[
				0.02924973890185356,
				-0.12708579003810883,
				0.6090203523635864
			]
		},
		{
			"mesh":13,
			"name":"Object_5",
			"translation":[
				0.06019663065671921,
				0.016832897439599037,
				0.3238351047039032
			]
		},
		{
			"mesh":14,
			"name":"Object_6",
			"translation":[
				0.01098925992846489,
				-0.03489617630839348,
				0.050466086715459824
			]
		},
		{
			"mesh":15,
			"name":"Object_7",
			"translation":[
				0.02218320220708847,
				-0.04059777781367302,
				0.13311515748500824
			]
		},
		{
			"mesh":16,
			"name":"Object_8",
			"translation":[
				-0.06119116023182869,
				0.06999018788337708,
				-0.06894407421350479
			]
		},
		{
			"mesh":17,
			"name":"Object_9",
			"translation":[
				0.0029228366911411285,
				-0.01860889419913292,
				0.37046390771865845
			]
		},
		{
			"children":[
				0,
				1,
				2,
				3,
				4,
				5,
				6,
				7,
				8,
				9,
				10,
				11,
				12,
				13,
				14,
				15,
				16,
				17
			],
			"name":"Stradivari_CT_2M_vertical.obj.cleaner.materialmerger.gles"
		},
		{
			"children":[
				18
			],
			"name":"Sketchfab_model",
			"rotation":[
				-0.7070872783660889,
				0.005263355560600758,
				-0.00526335509493947,
				0.7070871591567993
			],
			"scale":[
				1.664432168006897,
				1.664432406425476,
				1.6644322872161865
			],
			"translation":[
				0,
				-0.21315941214561462,
				-0.026107285171747208
			]
		}
	],
	"materials":[
		{
			"doubleSided":true,
			"name":"material_0",
			"pbrMetallicRoughness":{}
		}
	],
	"meshes":[
		{
			"name":"Object_8",
			"primitives":[
				{
					"attributes":{
						"POSITION":0,
						"TEXCOORD_0":1
					},
					"indices":2,
					"material":0
				}
			]
		},
		{
			"name":"Object_9",
			"primitives":[
				{
					"attributes":{
						"POSITION":3,
						"TEXCOORD_0":4
					},
					"indices":5,
					"material":0
				}
			]
		},
		{
			"name":"Object_10",
			"primitives":[
				{
					"attributes":{
						"POSITION":6,
						"TEXCOORD_0":7
					},
					"indices":8,
					"material":0
				}
			]
		},
		{
			"name":"Object_11",
			"primitives":[
				{
					"attributes":{
						"POSITION":9,
						"TEXCOORD_0":10
					},
					"indices":11,
					"material":0
				}
			]
		},
		{
			"name":"Object_12",
			"primitives":[
				{
					"attributes":{
						"POSITION":12,
						"TEXCOORD_0":13
					},
					"indices":14,
					"material":0
				}
			]
		},
		{
			"name":"Object_13",
			"primitives":[
				{
					"attributes":{
						"POSITION":15,
						"TEXCOORD_0":16
					},
					"indices":17,
					"material":0
				}
			]
		},
		{
			"name":"Object_14",
			"primitives":[
				{
					"attributes":{
						"POSITION":18,
						"TEXCOORD_0":19
					},
					"indices":20,
					"material":0
				}
			]
		},
		{
			"name":"Object_15",
			"primitives":[
				{
					"attributes":{
						"POSITION":21,
						"TEXCOORD_0":22
					},
					"indices":23,
					"material":0
				}
			]
		},
		{
			"name":"Object_16",
			"primitives":[
				{
					"attributes":{
						"POSITION":24,
						"TEXCOORD_0":25
					},
					"indices":26,
					"material":0
				}
			]
		},
		{
			"name":"Object_17",
			"primitives":[
				{
					"attributes":{
						"POSITION":27,
						"TEXCOORD_0":28
					},
					"indices":29,
					"material":0
				}
			]
		},
		{
			"name":"Object_0",
			"primitives":[
				{
					"attributes":{
						"POSITION":30,
						"TEXCOORD_0":31
					},
					"indices":32,
					"material":0
				}
			]
		},
		{
			"name":"Object_1",
			"primitives":[
				{
					"attributes":{
						"POSITION":33,
						"TEXCOORD_0":34
					},
					"indices":35,
					"material":0
				}
			]
		},
		{
			"name":"Object_2",
			"primitives":[
				{
					"attributes":{
						"POSITION":36,
						"TEXCOORD_0":37
					},
					"indices":38,
					"material":0
				}
			]
		},
		{
			"name":"Object_3",
			"primitives":[
				{
					"attributes":{
						"POSITION":39,
						"TEXCOORD_0":40
					},
					"indices":41,
					"material":0
				}
			]
		},
		{
			"name":"Object_4",
			"primitives":[
				{
					"attributes":{
						"POSITION":42,
						"TEXCOORD_0":43
					},
					"indices":44,
					"material":0
				}
			]
		},
		{
			"name":"Object_5",
			"primitives":[
				{
					"attributes":{
						"POSITION":45,
						"TEXCOORD_0":46
					},
					"indices":47,
					"material":0
				}
			]
		},
		{
			"name":"Object_6",
			"primitives":[
				{
					"attributes":{
						"POSITION":48,
						"TEXCOORD_0":49
					},
					"indices":50,
					"material":0
				}
			]
		},
		{
			"name":"Object_7",
			"primitives":[
				{
					"attributes":{
						"POSITION":51,
						"TEXCOORD_0":52
					},
					"indices":53,
					"material":0
				}
			]
		}
	],
	"accessors":[
		{
			"bufferView":0,
			"componentType":5126,
			"count":34440,
			"max":[
				0.09461797773838043,
				-0.019518624991178513,
				1.038967251777649
			],
			"min":[
				-0.051576025784015656,
				-0.07506262511014938,
				0.45084521174430847
			],
			"type":"VEC3"
		},
		{
			"bufferView":1,
			"componentType":5126,
			"count":34440,
			"type":"VEC2"
		},
		{
			"bufferView":2,
			"componentType":5123,
			"count":124023,
			"type":"SCALAR"
		},
		{
			"bufferView":3,
			"componentType":5126,
			"count":30281,
			"max":[
				0.03536619618535042,
				-0.007593028247356415,
				0.092966228723526
			],
			"min":[
				-0.10109580308198929,
				-0.05427102744579315,
				-0.1884627640247345
			],
			"type":"VEC3"
		},
		{
			"bufferView":4,
			"componentType":5126,
			"count":30281,
			"type":"VEC2"
		},
		{
			"bufferView":5,
			"componentType":5123,
			"count":141024,
			"type":"SCALAR"
		},
		{
			"bufferView":6,
			"componentType":5126,
			"count":35244,
			"max":[
				0.043144289404153824,
				0.044441431760787964,
				0.24439148604869843
			],
			"min":[
				-0.04736771062016487,
				-0.038219939917325974,
				-0.34245797991752625
			],
			"type":"VEC3"
		},
		{
			"bufferView":7,
			"componentType":5126,
			"count":35244,
			"type":"VEC2"
		},
		{
			"bufferView":8,
			"componentType":5123,
			"count":119028,
			"type":"SCALAR"
		},
		{
			"bufferView":9,
			"componentType":5126,
			"count":32984,
			"max":[
				0.061590563505887985,
				0.025657828897237778,
				0.1873537302017212
			],
			"min":[
				-0.029333434998989105,
				-0.024685172364115715,
				-0.1612362563610077
			],
			"type":"VEC3"
		},
		{
			"bufferView":10,
			"componentType":5126,
			"count":32984,
			"type":"VEC2"
		},
		{
			"bufferView":11,
			"componentType":5123,
			"count":129876,
			"type":"SCALAR"
		},
		{
			"bufferView":12,
			"componentType":5126,
			"count":34116,
			"max":[
				0.010940365493297577,
				0.007287695072591305,
				0.10367941856384277
			],
			"min":[
				-0.04566523805260658,
				-0.0396433062851429,
				-0.20869958400726318
			],
			"type":"VEC3"
		},
		{
			"bufferView":13,
			"componentType":5126,
			"count":34116,
			"type":"VEC2"
		},
		{
			"bufferView":14,
			"componentType":5123,
			"count":125334,
			"type":"SCALAR"
		},
		{
			"bufferView":15,
			"componentType":5126,
			"count":38706,
			"max":[
				0.02558671496808529,
				0.019831182435154915,
				0.1553572714328766
			],
			"min":[
				-0.07591982185840607,
				-0.030529318377375603,
				-0.2992437183856964
			],
			"type":"VEC3"
		},
		{
			"bufferView":16,
			"componentType":5126,
			"count":38706,
			"type":"VEC2"
		},
		{
			"bufferView":17,
			"componentType":5123,
			"count":102477,
			"type":"SCALAR"
		},
		{
			"bufferView":18,
			"componentType":5126,
			"count":38436,
			"max":[
				0.01884124055504799,
				0.040894635021686554,
				0.11236914992332458
			],
			"min":[
				-0.032547757029533386,
				-0.016798365861177444,
				-0.09315383434295654
			],
			"type":"VEC3"
		},
		{
			"bufferView":19,
			"componentType":5126,
			"count":38436,
			"type":"VEC2"
		},
		{
			"bufferView":20,
			"componentType":5123,
			"count":106014,
			"type":"SCALAR"
		},
		{
			"bufferView":21,
			"componentType":5126,
			"count":38972,
			"max":[
				0.02248830534517765,
				0.012560287490487099,
				0.06578383594751358
			],
			"min":[
				-0.029063694179058075,
				-0.01910771057009697,
				-0.10483516752719879
			],
			"type":"VEC3"
		},
		{
			"bufferView":22,
			"componentType":5126,
			"count":38972,
			"type":"VEC2"
		},
		{
			"bufferView":23,
			"componentType":5123,
			"count":100320,
			"type":"SCALAR"
		},
		{
			"bufferView":24,
			"componentType":5126,
			"count":38643,
			"max":[
				0.01696139946579933,
				0.05184832587838173,
				0.18712425231933594
			],
			"min":[
				-0.04955060034990311,
				-0.06321920454502106,
				-0.41293177008628845
			],
			"type":"VEC3"
		},
		{
			"bufferView":25,
			"componentType":5126,
			"count":38643,
			"type":"VEC2"
		},
		{
			"bufferView":26,
			"componentType":5123,
			"count":102810,
			"type":"SCALAR"
		},
		{
			"bufferView":27,
			"componentType":5126,
			"count":34094,
			"max":[
				0.02803141437470913,
				0.029811067506670952,
				0.2418154627084732
			],
			"min":[
				-0.02551058679819107,
				-0.023363931104540825,
				-0.2967233657836914
			],
			"type":"VEC3"
		},
		{
			"bufferView":28,
			"componentType":5126,
			"count":34094,
			"type":"VEC2"
		},
		{
			"bufferView":29,
			"componentType":5123,
			"count":100827,
			"type":"SCALAR"
		},
		{
			"bufferView":30,
			"componentType":5126,
			"count":31425,
			"max":[
				0.06620544195175171,
				0.022344892844557762,
				0.09968537837266922
			],
			"min":[
				-0.13618329167366028,
				-0.035887107253074646,
				-0.05899161845445633
			],
			"type":"VEC3"
		},
		{
			"bufferView":31,
			"componentType":5126,
			"count":31425,
			"type":"VEC2"
		},
		{
			"bufferView":32,
			"componentType":5123,
			"count":136440,
			"type":"SCALAR"
		},
		{
			"bufferView":33,
			"componentType":5126,
			"count":34761,
			"max":[
				0.027269192039966583,
				0.045318856835365295,
				0.3359833359718323
			],
			"min":[
				-0.12559780478477478,
				-0.01653314381837845,
				0.11993333697319031
			],
			"type":"VEC3"
		},
		{
			"bufferView":34,
			"componentType":5126,
			"count":34761,
			"type":"VEC2"
		},
		{
			"bufferView":35,
			"componentType":5123,
			"count":122655,
			"type":"SCALAR"
		},
		{
			"bufferView":36,
			"componentType":5126,
			"count":34375,
			"max":[
				0.06068512424826622,
				0.13388179242610931,
				-0.3363204002380371
			],
			"min":[
				0.006617262959480286,
				0.086301788687706,
				-0.5707134008407593
			],
			"type":"VEC3"
		},
		{
			"bufferView":37,
			"componentType":5126,
			"count":34375,
			"type":"VEC2"
		},
		{
			"bufferView":38,
			"componentType":5123,
			"count":123978,
			"type":"SCALAR"
		},
		{
			"bufferView":39,
			"componentType":5126,
			"count":35618,
			"max":[
				0.02815237268805504,
				0.0006421040743589401,
				-0.01686909794807434
			],
			"min":[
				-0.0706816241145134,
				-0.08902989327907562,
				-0.34672409296035767
			],
			"type":"VEC3"
		},
		{
			"bufferView":40,
			"componentType":5126,
			"count":35618,
			"type":"VEC2"
		},
		{
			"bufferView":41,
			"componentType":5123,
			"count":119157,
			"type":"SCALAR"
		},
		{
			"bufferView":42,
			"componentType":5126,
			"count":35974,
			"max":[
				0.03819473832845688,
				0.0481434091925621,
				0.22889691591262817
			],
			"min":[
				-0.04022325575351715,
				-0.03921018913388252,
				-0.10647490620613098
			],
			"type":"VEC3"
		},
		{
			"bufferView":43,
			"componentType":5126,
			"count":35974,
			"type":"VEC2"
		},
		{
			"bufferView":44,
			"componentType":5123,
			"count":116442,
			"type":"SCALAR"
		},
		{
			"bufferView":45,
			"componentType":5126,
			"count":37701,
			"max":[
				0.026864798739552498,
				0.057649776339530945,
				0.04414984583854675
			],
			"min":[
				-0.03353619948029518,
				-0.008482221513986588,
				-0.14677315950393677
			],
			"type":"VEC3"
		},
		{
			"bufferView":46,
			"componentType":5126,
			"count":37701,
			"type":"VEC2"
		},
		{
			"bufferView":47,
			"componentType":5123,
			"count":109434,
			"type":"SCALAR"
		},
		{
			"bufferView":48,
			"componentType":5126,
			"count":34991,
			"max":[
				0.10939153283834457,
				-0.06597719341516495,
				0.3781740665435791
			],
			"min":[
				0.03238515555858612,
				-0.11989519000053406,
				0.15041807293891907
			],
			"type":"VEC3"
		},
		{
			"bufferView":49,
			"componentType":5126,
			"count":34991,
			"type":"VEC2"
		},
		{
			"bufferView":50,
			"componentType":5123,
			"count":121659,
			"type":"SCALAR"
		},
		{
			"bufferView":51,
			"componentType":5126,
			"count":35879,
			"max":[
				0.04505016282200813,
				0.03631089627742767,
				0.16955208778381348
			],
			"min":[
				-0.0242268368601799,
				-0.031852107495069504,
				-0.13044491410255432
			],
			"type":"VEC3"
		},
		{
			"bufferView":52,
			"componentType":5126,
			"count":35879,
			"type":"VEC2"
		},
		{
			"bufferView":53,
			"componentType":5123,
			"count":115965,
			"type":"SCALAR"
		}
	],
	"bufferViews":[
		{
			"buffer":0,
			"byteLength":413280,
			"byteOffset":0,
			"target":34962
		},
		{
			"buffer":0,
			"byteLength":275520,
			"byteOffset":413280,
			"target":34962
		},
		{
			"buffer":0,
			"byteLength":248046,
			"byteOffset":688800,
			"target":34963
		},
		{
			"buffer":0,
			"byteLength":363372,
			"byteOffset":936848,
			"target":34962
		},
		{
			"buffer":0,
			"byteLength":242248,
			"byteOffset":1300220,
			"target":34962
		},
		{
			"buffer":0,
			"byteLength":282048,
			"byteOffset":1542468,
			"target":34963
		},
		{
			"buffer":0,
			"byteLength":422928,
			"byteOffset":1824516,
			"target":34962
		},
		{
			"buffer":0,
			"byteLength":281952,
			"byteOffset":2247444,
			"target":34962
		},
		{
			"buffer":0,
			"byteLength":238056,
			"byteOffset":2529396,
			"target":34963
		},
		{
			"buffer":0,
			"byteLength":395808,
			"byteOffset":2767452,
			"target":34962
		},
		{
			"buffer":0,
			"byteLength":263872,
			"byteOffset":3163260,
			"target":34962
		},
		{
			"buffer":0,
			"byteLength":259752,
			"byteOffset":3427132,
			"target":34963
		},
		{
			"buffer":0,
			"byteLength":409392,
			"byteOffset":3686884,
			"target":34962
		},
		{
			"buffer":0,
			"byteLength":272928,
			"byteOffset":4096276,
			"target":34962
		},
		{
			"buffer":0,
			"byteLength":250668,
			"byteOffset":4369204,
			"target":34963
		},
		{
			"buffer":0,
			"byteLength":464472,
			"byteOffset":4619872,
			"target":34962
		},
		{
			"buffer":0,
			"byteLength":309648,
			"byteOffset":5084344,
			"target":34962
		},
		{
			"buffer":0,
			"byteLength":204954,
			"byteOffset":5393992,
			"target":34963
		},
		{
			"buffer":0,
			"byteLength":461232,
			"byteOffset":5598948,
			"target":34962
		},
		{
			"buffer":0,
			"byteLength":307488,
			"byteOffset":6060180,
			"target":34962
		},
		{
			"buffer":0,
			"byteLength":212028,
			"byteOffset":6367668,
			"target":34963
		},
		{
			"buffer":0,
			"byteLength":467664,
			"byteOffset":6579696,
			"target":34962
		},
		{
			"buffer":0,
			"byteLength":311776,
			"byteOffset":7047360,
			"target":34962
		},
		{
			"buffer":0,
			"byteLength":200640,
			"byteOffset":7359136,
			"target":34963
		},
		{
			"buffer":0,
			"byteLength":463716,
			"byteOffset":7559776,
			"target":34962
		},
		{
			"buffer":0,
			"byteLength":309144,
			"byteOffset":8023492,
			"target":34962
		},
		{
			"buffer":0,
			"byteLength":205620,
			"byteOffset":8332636,
			"target":34963
		},
		{
			"buffer":0,
			"byteLength":409128,
			"byteOffset":8538256,
			"target":34962
		},
		{
			"buffer":0,
			"byteLength":272752,
			"byteOffset":8947384,
			"target":34962
		},
		{
			"buffer":0,
			"byteLength":201654,
			"byteOffset":9220136,
			"target":34963
		},
		{
			"buffer":0,
			"byteLength":377100,
			"byteOffset":9421792,
			"target":34962
		},
		{
			"buffer":0,
			"byteLength":251400,
			"byteOffset":9798892,
			"target":34962
		},
		{
			"buffer":0,
			"byteLength":272880,
			"byteOffset":10050292,
			"target":34963
		},
		{
			"buffer":0,
			"byteLength":417132,
			"byteOffset":10323172,
			"target":34962
		},
		{
			"buffer":0,
			"byteLength":278088,
			"byteOffset":10740304,
			"target":34962
		},
		{
			"buffer":0,
			"byteLength":245310,
			"byteOffset":11018392,
			"target":34963
		},
		{
			"buffer":0,
			"byteLength":412500,
			"byteOffset":11263704,
			"target":34962
		},
		{
			"buffer":0,
			"byteLength":275000,
			"byteOffset":11676204,
			"target":34962
		},
		{
			"buffer":0,
			"byteLength":247956,
			"byteOffset":11951204,
			"target":34963
		},
		{
			"buffer":0,
			"byteLength":427416,
			"byteOffset":12199160,
			"target":34962
		},
		{
			"buffer":0,
			"byteLength":284944,
			"byteOffset":12626576,
			"target":34962
		},
		{
			"buffer":0,
			"byteLength":238314,
			"byteOffset":12911520,
			"target":34963
		},
		{
			"buffer":0,
			"byteLength":431688,
			"byteOffset":13149836,
			"target":34962
		},
		{
			"buffer":0,
			"byteLength":287792,
			"byteOffset":13581524,
			"target":34962
		},
		{
			"buffer":0,
			"byteLength":232884,
			"byteOffset":13869316,
			"target":34963
		},
		{
			"buffer":0,
			"byteLength":452412,
			"byteOffset":14102200,
			"target":34962
		},
		{
			"buffer":0,
			"byteLength":301608,
			"byteOffset":14554612,
			"target":34962
		},
		{
			"buffer":0,
			"byteLength":218868,
			"byteOffset":14856220,
			"target":34963
		},
		{
			"buffer":0,
			"byteLength":419892,
			"byteOffset":15075088,
			"target":34962
		},
		{
			"buffer":0,
			"byteLength":279928,
			"byteOffset":15494980,
			"target":34962
		},
		{
			"buffer":0,
			"byteLength":243318,
			"byteOffset":15774908,
			"target":34963
		},
		{
			"buffer":0,
			"byteLength":430548,
			"byteOffset":16018228,
			"target":34962
		},
		{
			"buffer":0,
			"byteLength":287032,
			"byteOffset":16448776,
			"target":34962
		},
		{
			"buffer":0,
			"byteLength":231930,
			"byteOffset":16735808,
			"target":34963
		}
	],
	"buffers":[
		{
			"byteLength":16967740,
			"uri":"scene.bin"
		}
	]
}
