{
	"asset":{
		"generator":"Khronos glTF Blender I/O v4.0.44",
		"version":"2.0"
	},
	"scene":0,
	"scenes":[
		{
			"name":"Scene",
			"nodes":[
				1,
				21
			]
		}
	],
	"nodes":[
		{
			"name":"Stradivari_CT_2M_vertical.obj.cleaner.materialmerger.gles"
		},
		{
			"children":[
				0
			],
			"name":"Sketchfab_model",
			"rotation":[
				-0.70710688829422,
				0,
				0,
				0.7071066498756409
			],
			"scale":[
				1.664432168006897,
				1.664432406425476,
				1.664432406425476
			]
		},
		{
			"mesh":0,
			"name":"Object_10"
		},
		{
			"mesh":1,
			"name":"Object_11"
		},
		{
			"mesh":2,
			"name":"Object_12"
		},
		{
			"mesh":3,
			"name":"Object_13"
		},
		{
			"mesh":4,
			"name":"Object_14"
		},
		{
			"mesh":5,
			"name":"Object_15"
		},
		{
			"mesh":6,
			"name":"Object_16"
		},
		{
			"mesh":7,
			"name":"Object_17"
		},
		{
			"mesh":8,
			"name":"Object_18"
		},
		{
			"mesh":9,
			"name":"Object_19"
		},
		{
			"mesh":10,
			"name":"Object_2"
		},
		{
			"mesh":11,
			"name":"Object_3"
		},
		{
			"mesh":12,
			"name":"Object_4"
		},
		{
			"mesh":13,
			"name":"Object_5"
		},
		{
			"mesh":14,
			"name":"Object_6"
		},
		{
			"mesh":15,
			"name":"Object_7"
		},
		{
			"mesh":16,
			"name":"Object_8"
		},
		{
			"mesh":17,
			"name":"Object_9"
		},
		{
			"children":[
				2,
				3,
				4,
				5,
				6,
				7,
				8,
				9,
				10,
				11,
				12,
				13,
				14,
				15,
				16,
				17,
				18,
				19
			],
			"name":"Stradivari_CT_2M_vertical.obj.cleaner.materialmerger.gles.001"
		},
		{
			"children":[
				20
			],
			"name":"Sketchfab_model.001",
			"rotation":[
				-0.70710688829422,
				0,
				0,
				0.7071066498756409
			],
			"scale":[
				1.664432168006897,
				1.664432406425476,
				1.664432406425476
			]
		}
	],
	"materials":[
		{
			"doubleSided":true,
			"name":"material_0",
			"pbrMetallicRoughness":{}
		}
	],
	"meshes":[
		{
			"name":"Object_8",
			"primitives":[
				{
					"attributes":{
						"POSITION":0,
						"NORMAL":1,
						"TEXCOORD_0":2
					},
					"indices":3,
					"material":0
				}
			]
		},
		{
			"name":"Object_9",
			"primitives":[
				{
					"attributes":{
						"POSITION":4,
						"NORMAL":5,
						"TEXCOORD_0":6
					},
					"indices":7,
					"material":0
				}
			]
		},
		{
			"name":"Object_10",
			"primitives":[
				{
					"attributes":{
						"POSITION":8,
						"NORMAL":9,
						"TEXCOORD_0":10
					},
					"indices":11,
					"material":0
				}
			]
		},
		{
			"name":"Object_11",
			"primitives":[
				{
					"attributes":{
						"POSITION":12,
						"NORMAL":13,
						"TEXCOORD_0":14
					},
					"indices":15,
					"material":0
				}
			]
		},
		{
			"name":"Object_12",
			"primitives":[
				{
					"attributes":{
						"POSITION":16,
						"NORMAL":17,
						"TEXCOORD_0":18
					},
					"indices":19,
					"material":0
				}
			]
		},
		{
			"name":"Object_13",
			"primitives":[
				{
					"attributes":{
						"POSITION":20,
						"NORMAL":21,
						"TEXCOORD_0":22
					},
					"indices":23,
					"material":0
				}
			]
		},
		{
			"name":"Object_14",
			"primitives":[
				{
					"attributes":{
						"POSITION":24,
						"NORMAL":25,
						"TEXCOORD_0":26
					},
					"indices":27,
					"material":0
				}
			]
		},
		{
			"name":"Object_15",
			"primitives":[
				{
					"attributes":{
						"POSITION":28,
						"NORMAL":29,
						"TEXCOORD_0":30
					},
					"indices":31,
					"material":0
				}
			]
		},
		{
			"name":"Object_16",
			"primitives":[
				{
					"attributes":{
						"POSITION":32,
						"NORMAL":33,
						"TEXCOORD_0":34
					},
					"indices":35,
					"material":0
				}
			]
		},
		{
			"name":"Object_17",
			"primitives":[
				{
					"attributes":{
						"POSITION":36,
						"NORMAL":37,
						"TEXCOORD_0":38
					},
					"indices":39,
					"material":0
				}
			]
		},
		{
			"name":"Object_0.001",
			"primitives":[
				{
					"attributes":{
						"POSITION":40,
						"NORMAL":41,
						"TEXCOORD_0":42
					},
					"indices":43,
					"material":0
				}
			]
		},
		{
			"name":"Object_1",
			"primitives":[
				{
					"attributes":{
						"POSITION":44,
						"NORMAL":45,
						"TEXCOORD_0":46
					},
					"indices":47,
					"material":0
				}
			]
		},
		{
			"name":"Object_2",
			"primitives":[
				{
					"attributes":{
						"POSITION":48,
						"NORMAL":49,
						"TEXCOORD_0":50
					},
					"indices":51,
					"material":0
				}
			]
		},
		{
			"name":"Object_3",
			"primitives":[
				{
					"attributes":{
						"POSITION":52,
						"NORMAL":53,
						"TEXCOORD_0":54
					},
					"indices":55,
					"material":0
				}
			]
		},
		{
			"name":"Object_4",
			"primitives":[
				{
					"attributes":{
						"POSITION":56,
						"NORMAL":57,
						"TEXCOORD_0":58
					},
					"indices":59,
					"material":0
				}
			]
		},
		{
			"name":"Object_5",
			"primitives":[
				{
					"attributes":{
						"POSITION":60,
						"NORMAL":61,
						"TEXCOORD_0":62
					},
					"indices":63,
					"material":0
				}
			]
		},
		{
			"name":"Object_6",
			"primitives":[
				{
					"attributes":{
						"POSITION":64,
						"NORMAL":65,
						"TEXCOORD_0":66
					},
					"indices":67,
					"material":0
				}
			]
		},
		{
			"name":"Object_7",
			"primitives":[
				{
					"attributes":{
						"POSITION":68,
						"NORMAL":69,
						"TEXCOORD_0":70
					},
					"indices":71,
					"material":0
				}
			]
		}
	],
	"accessors":[
		{
			"bufferView":0,
			"componentType":5126,
			"count":34705,
			"max":[
				0.04828200116753578,
				0.020169999450445175,
				0.5434589982032776
			],
			"min":[
				-0.09791199862957001,
				-0.035374000668525696,
				-0.04466300085186958
			],
			"type":"VEC3"
		},
		{
			"bufferView":1,
			"componentType":5126,
			"count":34705,
			"type":"VEC3"
		},
		{
			"bufferView":2,
			"componentType":5126,
			"count":34705,
			"type":"VEC2"
		},
		{
			"bufferView":3,
			"componentType":5123,
			"count":124023,
			"type":"SCALAR"
		},
		{
			"bufferView":4,
			"componentType":5126,
			"count":30399,
			"max":[
				0.043726999312639236,
				0.022043999284505844,
				0.3231639862060547
			],
			"min":[
				-0.09273499995470047,
				-0.024633999913930893,
				0.041735000908374786
			],
			"type":"VEC3"
		},
		{
			"bufferView":5,
			"componentType":5126,
			"count":30399,
			"type":"VEC3"
		},
		{
			"bufferView":6,
			"componentType":5126,
			"count":30399,
			"type":"VEC2"
		},
		{
			"bufferView":7,
			"componentType":5123,
			"count":141024,
			"type":"SCALAR"
		},
		{
			"bufferView":8,
			"componentType":5126,
			"count":35679,
			"max":[
				0.014077000319957733,
				0.04973737150430679,
				0.5442584753036499
			],
			"min":[
				-0.07643499970436096,
				-0.032924000173807144,
				-0.04259100183844566
			],
			"type":"VEC3"
		},
		{
			"bufferView":9,
			"componentType":5126,
			"count":35679,
			"type":"VEC3"
		},
		{
			"bufferView":10,
			"componentType":5126,
			"count":35679,
			"type":"VEC2"
		},
		{
			"bufferView":11,
			"componentType":5123,
			"count":119028,
			"type":"SCALAR"
		},
		{
			"bufferView":12,
			"componentType":5126,
			"count":33169,
			"max":[
				-0.010924999602138996,
				0.012943999841809273,
				0.31005099415779114
			],
			"min":[
				-0.10184899717569351,
				-0.03739900141954422,
				-0.03853899985551834
			],
			"type":"VEC3"
		},
		{
			"bufferView":13,
			"componentType":5126,
			"count":33169,
			"type":"VEC3"
		},
		{
			"bufferView":14,
			"componentType":5126,
			"count":33169,
			"type":"VEC2"
		},
		{
			"bufferView":15,
			"componentType":5123,
			"count":129873,
			"type":"SCALAR"
		},
		{
			"bufferView":16,
			"componentType":5126,
			"count":34269,
			"max":[
				-0.04662200063467026,
				0.014620999805629253,
				0.30024200677871704
			],
			"min":[
				-0.10322760045528412,
				-0.03231000155210495,
				-0.012137000449001789
			],
			"type":"VEC3"
		},
		{
			"bufferView":17,
			"componentType":5126,
			"count":34269,
			"type":"VEC3"
		},
		{
			"bufferView":18,
			"componentType":5126,
			"count":34269,
			"type":"VEC2"
		},
		{
			"bufferView":19,
			"componentType":5123,
			"count":125334,
			"type":"SCALAR"
		},
		{
			"bufferView":20,
			"componentType":5126,
			"count":39122,
			"max":[
				-0.0012779999524354935,
				0.001867000013589859,
				0.44172799587249756
			],
			"min":[
				-0.10278452932834625,
				-0.04849348962306976,
				-0.012873000465333462
			],
			"type":"VEC3"
		},
		{
			"bufferView":21,
			"componentType":5126,
			"count":39122,
			"type":"VEC3"
		},
		{
			"bufferView":22,
			"componentType":5126,
			"count":39122,
			"type":"VEC2"
		},
		{
			"bufferView":23,
			"componentType":5123,
			"count":102474,
			"type":"SCALAR"
		},
		{
			"bufferView":24,
			"componentType":5126,
			"count":38642,
			"max":[
				-0.0019160000374540687,
				0.0011660000309348106,
				0.29204198718070984
			],
			"min":[
				-0.0533050000667572,
				-0.05652699992060661,
				0.08651900291442871
			],
			"type":"VEC3"
		},
		{
			"bufferView":25,
			"componentType":5126,
			"count":38642,
			"type":"VEC3"
		},
		{
			"bufferView":26,
			"componentType":5126,
			"count":38642,
			"type":"VEC2"
		},
		{
			"bufferView":27,
			"componentType":5123,
			"count":106014,
			"type":"SCALAR"
		},
		{
			"bufferView":28,
			"componentType":5126,
			"count":39156,
			"max":[
				-0.0012730000307783484,
				-0.023406000807881355,
				0.14168000221252441
			],
			"min":[
				-0.05282500013709068,
				-0.055073998868465424,
				-0.02893899939954281
			],
			"type":"VEC3"
		},
		{
			"bufferView":29,
			"componentType":5126,
			"count":39156,
			"type":"VEC3"
		},
		{
			"bufferView":30,
			"componentType":5126,
			"count":39156,
			"type":"VEC2"
		},
		{
			"bufferView":31,
			"componentType":5123,
			"count":100320,
			"type":"SCALAR"
		},
		{
			"bufferView":32,
			"componentType":5126,
			"count":38817,
			"max":[
				0.013516999781131744,
				0.041093453764915466,
				0.5440670251846313
			],
			"min":[
				-0.052995000034570694,
				-0.07397406548261642,
				-0.05598900094628334
			],
			"type":"VEC3"
		},
		{
			"bufferView":33,
			"componentType":5126,
			"count":38817,
			"type":"VEC3"
		},
		{
			"bufferView":34,
			"componentType":5126,
			"count":38817,
			"type":"VEC2"
		},
		{
			"bufferView":35,
			"componentType":5123,
			"count":102807,
			"type":"SCALAR"
		},
		{
			"bufferView":36,
			"componentType":5126,
			"count":34492,
			"max":[
				0.04871600121259689,
				0.04988599941134453,
				0.5271498560905457
			],
			"min":[
				-0.004825999960303307,
				-0.0032889998983591795,
				-0.011389000341296196
			],
			"type":"VEC3"
		},
		{
			"bufferView":37,
			"componentType":5126,
			"count":34492,
			"type":"VEC3"
		},
		{
			"bufferView":38,
			"componentType":5126,
			"count":34492,
			"type":"VEC2"
		},
		{
			"bufferView":39,
			"componentType":5123,
			"count":100827,
			"type":"SCALAR"
		},
		{
			"bufferView":40,
			"componentType":5126,
			"count":31693,
			"max":[
				0.10254672914743423,
				0.020896999165415764,
				0.1171249970793724
			],
			"min":[
				-0.09984199702739716,
				-0.037335000932216644,
				-0.04155199974775314
			],
			"type":"VEC3"
		},
		{
			"bufferView":41,
			"componentType":5126,
			"count":31693,
			"type":"VEC3"
		},
		{
			"bufferView":42,
			"componentType":5126,
			"count":31693,
			"type":"VEC2"
		},
		{
			"bufferView":43,
			"componentType":5123,
			"count":136440,
			"type":"SCALAR"
		},
		{
			"bufferView":44,
			"componentType":5126,
			"count":34974,
			"max":[
				0.09925399720668793,
				0.021330999210476875,
				0.17530499398708344
			],
			"min":[
				-0.053612999618053436,
				-0.04052099958062172,
				-0.040745001286268234
			],
			"type":"VEC3"
		},
		{
			"bufferView":45,
			"componentType":5126,
			"count":34974,
			"type":"VEC3"
		},
		{
			"bufferView":46,
			"componentType":5126,
			"count":34974,
			"type":"VEC2"
		},
		{
			"bufferView":47,
			"componentType":5123,
			"count":122655,
			"type":"SCALAR"
		},
		{
			"bufferView":48,
			"componentType":5126,
			"count":34524,
			"max":[
				0.08993486315011978,
				0.006796000059694052,
				0.2727000117301941
			],
			"min":[
				0.03586700186133385,
				-0.04078400135040283,
				0.03830699995160103
			],
			"type":"VEC3"
		},
		{
			"bufferView":49,
			"componentType":5126,
			"count":34524,
			"type":"VEC3"
		},
		{
			"bufferView":50,
			"componentType":5126,
			"count":34524,
			"type":"VEC2"
		},
		{
			"bufferView":51,
			"componentType":5123,
			"count":123978,
			"type":"SCALAR"
		},
		{
			"bufferView":52,
			"componentType":5126,
			"count":35788,
			"max":[
				0.08834899961948395,
				0.017474999651312828,
				0.30696600675582886
			],
			"min":[
				-0.010484999977052212,
				-0.07219699770212173,
				-0.022888999432325363
			],
			"type":"VEC3"
		},
		{
			"bufferView":53,
			"componentType":5126,
			"count":35788,
			"type":"VEC3"
		},
		{
			"bufferView":54,
			"componentType":5126,
			"count":35788,
			"type":"VEC2"
		},
		{
			"bufferView":55,
			"componentType":5123,
			"count":119160,
			"type":"SCALAR"
		},
		{
			"bufferView":56,
			"componentType":5126,
			"count":36119,
			"max":[
				0.04918399825692177,
				0.013247231021523476,
				0.2793630063533783
			],
			"min":[
				-0.02923399955034256,
				-0.074106365442276,
				-0.05600881576538086
			],
			"type":"VEC3"
		},
		{
			"bufferView":57,
			"componentType":5126,
			"count":36119,
			"type":"VEC3"
		},
		{
			"bufferView":58,
			"componentType":5126,
			"count":36119,
			"type":"VEC2"
		},
		{
			"bufferView":59,
			"componentType":5123,
			"count":116442,
			"type":"SCALAR"
		},
		{
			"bufferView":60,
			"componentType":5126,
			"count":37896,
			"max":[
				0.04904799908399582,
				0.017052000388503075,
				0.177265003323555
			],
			"min":[
				-0.011353000067174435,
				-0.04907999932765961,
				-0.013658000156283379
			],
			"type":"VEC3"
		},
		{
			"bufferView":61,
			"componentType":5126,
			"count":37896,
			"type":"VEC3"
		},
		{
			"bufferView":62,
			"componentType":5126,
			"count":37896,
			"type":"VEC2"
		},
		{
			"bufferView":63,
			"componentType":5123,
			"count":109434,
			"type":"SCALAR"
		},
		{
			"bufferView":64,
			"componentType":5126,
			"count":35139,
			"max":[
				0.04820038005709648,
				0.004013000056147575,
				0.3092299997806549
			],
			"min":[
				-0.02880599908530712,
				-0.049904998391866684,
				0.08147399872541428
			],
			"type":"VEC3"
		},
		{
			"bufferView":65,
			"componentType":5126,
			"count":35139,
			"type":"VEC3"
		},
		{
			"bufferView":66,
			"componentType":5126,
			"count":35139,
			"type":"VEC2"
		},
		{
			"bufferView":67,
			"componentType":5123,
			"count":121659,
			"type":"SCALAR"
		},
		{
			"bufferView":68,
			"componentType":5126,
			"count":36281,
			"max":[
				0.04797299951314926,
				0.017702000215649605,
				0.5400159955024719
			],
			"min":[
				-0.021304000169038773,
				-0.05046100169420242,
				0.24001899361610413
			],
			"type":"VEC3"
		},
		{
			"bufferView":69,
			"componentType":5126,
			"count":36281,
			"type":"VEC3"
		},
		{
			"bufferView":70,
			"componentType":5126,
			"count":36281,
			"type":"VEC2"
		},
		{
			"bufferView":71,
			"componentType":5123,
			"count":115968,
			"type":"SCALAR"
		}
	],
	"bufferViews":[
		{
			"buffer":0,
			"byteLength":416460,
			"byteOffset":0,
			"target":34962
		},
		{
			"buffer":0,
			"byteLength":416460,
			"byteOffset":416460,
			"target":34962
		},
		{
			"buffer":0,
			"byteLength":277640,
			"byteOffset":832920,
			"target":34962
		},
		{
			"buffer":0,
			"byteLength":248046,
			"byteOffset":1110560,
			"target":34963
		},
		{
			"buffer":0,
			"byteLength":364788,
			"byteOffset":1358608,
			"target":34962
		},
		{
			"buffer":0,
			"byteLength":364788,
			"byteOffset":1723396,
			"target":34962
		},
		{
			"buffer":0,
			"byteLength":243192,
			"byteOffset":2088184,
			"target":34962
		},
		{
			"buffer":0,
			"byteLength":282048,
			"byteOffset":2331376,
			"target":34963
		},
		{
			"buffer":0,
			"byteLength":428148,
			"byteOffset":2613424,
			"target":34962
		},
		{
			"buffer":0,
			"byteLength":428148,
			"byteOffset":3041572,
			"target":34962
		},
		{
			"buffer":0,
			"byteLength":285432,
			"byteOffset":3469720,
			"target":34962
		},
		{
			"buffer":0,
			"byteLength":238056,
			"byteOffset":3755152,
			"target":34963
		},
		{
			"buffer":0,
			"byteLength":398028,
			"byteOffset":3993208,
			"target":34962
		},
		{
			"buffer":0,
			"byteLength":398028,
			"byteOffset":4391236,
			"target":34962
		},
		{
			"buffer":0,
			"byteLength":265352,
			"byteOffset":4789264,
			"target":34962
		},
		{
			"buffer":0,
			"byteLength":259746,
			"byteOffset":5054616,
			"target":34963
		},
		{
			"buffer":0,
			"byteLength":411228,
			"byteOffset":5314364,
			"target":34962
		},
		{
			"buffer":0,
			"byteLength":411228,
			"byteOffset":5725592,
			"target":34962
		},
		{
			"buffer":0,
			"byteLength":274152,
			"byteOffset":6136820,
			"target":34962
		},
		{
			"buffer":0,
			"byteLength":250668,
			"byteOffset":6410972,
			"target":34963
		},
		{
			"buffer":0,
			"byteLength":469464,
			"byteOffset":6661640,
			"target":34962
		},
		{
			"buffer":0,
			"byteLength":469464,
			"byteOffset":7131104,
			"target":34962
		},
		{
			"buffer":0,
			"byteLength":312976,
			"byteOffset":7600568,
			"target":34962
		},
		{
			"buffer":0,
			"byteLength":204948,
			"byteOffset":7913544,
			"target":34963
		},
		{
			"buffer":0,
			"byteLength":463704,
			"byteOffset":8118492,
			"target":34962
		},
		{
			"buffer":0,
			"byteLength":463704,
			"byteOffset":8582196,
			"target":34962
		},
		{
			"buffer":0,
			"byteLength":309136,
			"byteOffset":9045900,
			"target":34962
		},
		{
			"buffer":0,
			"byteLength":212028,
			"byteOffset":9355036,
			"target":34963
		},
		{
			"buffer":0,
			"byteLength":469872,
			"byteOffset":9567064,
			"target":34962
		},
		{
			"buffer":0,
			"byteLength":469872,
			"byteOffset":10036936,
			"target":34962
		},
		{
			"buffer":0,
			"byteLength":313248,
			"byteOffset":10506808,
			"target":34962
		},
		{
			"buffer":0,
			"byteLength":200640,
			"byteOffset":10820056,
			"target":34963
		},
		{
			"buffer":0,
			"byteLength":465804,
			"byteOffset":11020696,
			"target":34962
		},
		{
			"buffer":0,
			"byteLength":465804,
			"byteOffset":11486500,
			"target":34962
		},
		{
			"buffer":0,
			"byteLength":310536,
			"byteOffset":11952304,
			"target":34962
		},
		{
			"buffer":0,
			"byteLength":205614,
			"byteOffset":12262840,
			"target":34963
		},
		{
			"buffer":0,
			"byteLength":413904,
			"byteOffset":12468456,
			"target":34962
		},
		{
			"buffer":0,
			"byteLength":413904,
			"byteOffset":12882360,
			"target":34962
		},
		{
			"buffer":0,
			"byteLength":275936,
			"byteOffset":13296264,
			"target":34962
		},
		{
			"buffer":0,
			"byteLength":201654,
			"byteOffset":13572200,
			"target":34963
		},
		{
			"buffer":0,
			"byteLength":380316,
			"byteOffset":13773856,
			"target":34962
		},
		{
			"buffer":0,
			"byteLength":380316,
			"byteOffset":14154172,
			"target":34962
		},
		{
			"buffer":0,
			"byteLength":253544,
			"byteOffset":14534488,
			"target":34962
		},
		{
			"buffer":0,
			"byteLength":272880,
			"byteOffset":14788032,
			"target":34963
		},
		{
			"buffer":0,
			"byteLength":419688,
			"byteOffset":15060912,
			"target":34962
		},
		{
			"buffer":0,
			"byteLength":419688,
			"byteOffset":15480600,
			"target":34962
		},
		{
			"buffer":0,
			"byteLength":279792,
			"byteOffset":15900288,
			"target":34962
		},
		{
			"buffer":0,
			"byteLength":245310,
			"byteOffset":16180080,
			"target":34963
		},
		{
			"buffer":0,
			"byteLength":414288,
			"byteOffset":16425392,
			"target":34962
		},
		{
			"buffer":0,
			"byteLength":414288,
			"byteOffset":16839680,
			"target":34962
		},
		{
			"buffer":0,
			"byteLength":276192,
			"byteOffset":17253968,
			"target":34962
		},
		{
			"buffer":0,
			"byteLength":247956,
			"byteOffset":17530160,
			"target":34963
		},
		{
			"buffer":0,
			"byteLength":429456,
			"byteOffset":17778116,
			"target":34962
		},
		{
			"buffer":0,
			"byteLength":429456,
			"byteOffset":18207572,
			"target":34962
		},
		{
			"buffer":0,
			"byteLength":286304,
			"byteOffset":18637028,
			"target":34962
		},
		{
			"buffer":0,
			"byteLength":238320,
			"byteOffset":18923332,
			"target":34963
		},
		{
			"buffer":0,
			"byteLength":433428,
			"byteOffset":19161652,
			"target":34962
		},
		{
			"buffer":0,
			"byteLength":433428,
			"byteOffset":19595080,
			"target":34962
		},
		{
			"buffer":0,
			"byteLength":288952,
			"byteOffset":20028508,
			"target":34962
		},
		{
			"buffer":0,
			"byteLength":232884,
			"byteOffset":20317460,
			"target":34963
		},
		{
			"buffer":0,
			"byteLength":454752,
			"byteOffset":20550344,
			"target":34962
		},
		{
			"buffer":0,
			"byteLength":454752,
			"byteOffset":21005096,
			"target":34962
		},
		{
			"buffer":0,
			"byteLength":303168,
			"byteOffset":21459848,
			"target":34962
		},
		{
			"buffer":0,
			"byteLength":218868,
			"byteOffset":21763016,
			"target":34963
		},
		{
			"buffer":0,
			"byteLength":421668,
			"byteOffset":21981884,
			"target":34962
		},
		{
			"buffer":0,
			"byteLength":421668,
			"byteOffset":22403552,
			"target":34962
		},
		{
			"buffer":0,
			"byteLength":281112,
			"byteOffset":22825220,
			"target":34962
		},
		{
			"buffer":0,
			"byteLength":243318,
			"byteOffset":23106332,
			"target":34963
		},
		{
			"buffer":0,
			"byteLength":435372,
			"byteOffset":23349652,
			"target":34962
		},
		{
			"buffer":0,
			"byteLength":435372,
			"byteOffset":23785024,
			"target":34962
		},
		{
			"buffer":0,
			"byteLength":290248,
			"byteOffset":24220396,
			"target":34962
		},
		{
			"buffer":0,
			"byteLength":231936,
			"byteOffset":24510644,
			"target":34963
		}
	],
	"buffers":[
		{
			"byteLength":24742580,
			"uri":"scene.bin"
		}
	]
}
