{
  "accessors": [
    {
      "bufferView": 2,
      "componentType": 5126,
      "count": 65532,
      "max": [
        0.9680910110473633,
        6.140367031097412,
        0.6053289771080017
      ],
      "min": [
        -0.7686859965324402,
        5.205648899078369,
        -0.6732029914855957
      ],
      "type": "VEC3"
    },
    {
      "bufferView": 2,
      "byteOffset": 786384,
      "componentType": 5126,
      "count": 65532,
      "max": [
        0.9996808171272278,
        0.9999748468399048,
        0.9999316334724426
      ],
      "min": [
        -0.9999557733535767,
        -0.9999887347221375,
        -0.9999732375144958
      ],
      "type": "VEC3"
    },
    {
      "bufferView": 1,
      "componentType": 5126,
      "count": 65532,
      "max": [
        1.0,
        0.8771070241928101
      ],
      "min": [
        0.0,
        0.0
      ],
      "type": "VEC2"
    },
    {
      "bufferView": 0,
      "componentType": 5125,
      "count": 353328,
      "type": "SCALAR"
    },
    {
      "bufferView": 2,
      "byteOffset": 1572768,
      "componentType": 5126,
      "count": 65532,
      "max": [
        0.9811739921569824,
        6.229453086853027,
        0.650518000125885
      ],
      "min": [
        -0.6242899894714355,
        5.1610331535339355,
        -0.6588230133056641
      ],
      "type": "VEC3"
    },
    {
      "bufferView": 2,
      "byteOffset": 2359152,
      "componentType": 5126,
      "count": 65532,
      "max": [
        0.9999291300773621,
        0.9999078512191772,
        0.9999938011169434
      ],
      "min": [
        -0.9999592900276184,
        -0.9999540448188782,
        -0.999987781047821
      ],
      "type": "VEC3"
    },
    {
      "bufferView": 1,
      "byteOffset": 524256,
      "componentType": 5126,
      "count": 65532,
      "max": [
        0.9998469948768616,
        0.8366000056266785
      ],
      "min": [
        0.0,
        0.008899999782443047
      ],
      "type": "VEC2"
    },
    {
      "bufferView": 0,
      "byteOffset": 1413312,
      "componentType": 5125,
      "count": 332493,
      "type": "SCALAR"
    },
    {
      "bufferView": 2,
      "byteOffset": 3145536,
      "componentType": 5126,
      "count": 65532,
      "max": [
        0.9809229969978333,
        6.232501983642578,
        0.650518000125885
      ],
      "min": [
        -0.38823801279067993,
        5.161677837371826,
        -0.6792489886283875
      ],
      "type": "VEC3"
    },
    {
      "bufferView": 2,
      "byteOffset": 3931920,
      "componentType": 5126,
      "count": 65532,
      "max": [
        0.9999747276306152,
        0.9999837875366211,
        0.9999316334724426
      ],
      "min": [
        -0.9999673366546631,
        -0.9999160766601563,
        -0.9999101161956787
      ],
      "type": "VEC3"
    },
    {
      "bufferView": 1,
      "byteOffset": 1048512,
      "componentType": 5126,
      "count": 65532,
      "max": [
        0.9968860149383545,
        0.8771070241928101
      ],
      "min": [
        0.0008829999715089798,
        0.0
      ],
      "type": "VEC2"
    },
    {
      "bufferView": 0,
      "byteOffset": 2743284,
      "componentType": 5125,
      "count": 299277,
      "type": "SCALAR"
    },
    {
      "bufferView": 2,
      "byteOffset": 4718304,
      "componentType": 5126,
      "count": 11070,
      "max": [
        0.42257198691368103,
        6.1213459968566895,
        0.3392789959907532
      ],
      "min": [
        -0.5682979822158813,
        5.207021236419678,
        -0.6748489737510681
      ],
      "type": "VEC3"
    },
    {
      "bufferView": 2,
      "byteOffset": 4851144,
      "componentType": 5126,
      "count": 11070,
      "max": [
        0.9999653100967407,
        0.9999463558197021,
        0.9994582533836365
      ],
      "min": [
        -0.9995989799499512,
        -0.9999831318855286,
        -0.9999732375144958
      ],
      "type": "VEC3"
    },
    {
      "bufferView": 1,
      "byteOffset": 1572768,
      "componentType": 5126,
      "count": 11070,
      "max": [
        0.9946640133857727,
        0.8726959824562073
      ],
      "min": [
        0.08395200222730637,
        0.0011180000146850944
      ],
      "type": "VEC2"
    },
    {
      "bufferView": 0,
      "byteOffset": 3940392,
      "componentType": 5125,
      "count": 36288,
      "type": "SCALAR"
    }
  ],
  "asset": {
    "extras": {
      "author": "Digital Atlas of Ancient Life (https://sketchfab.com/DigitalAtlasOfAncientLife)",
      "license": "CC0-1.0 (http://creativecommons.org/publicdomain/zero/1.0/)",
      "source": "https://sketchfab.com/3d-models/mineral-galena-pbs-627cdc91f20248e7860e9e5363b91147",
      "title": "Mineral: Galena (PbS)"
    },
    "generator": "Sketchfab-13.74.0",
    "version": "2.0"
  },
  "bufferViews": [
    {
      "buffer": 0,
      "byteLength": 4085544,
      "name": "floatBufferViews",
      "target": 34963
    },
    {
      "buffer": 0,
      "byteLength": 1661328,
      "byteOffset": 4085544,
      "byteStride": 8,
      "name": "floatBufferViews",
      "target": 34962
    },
    {
      "buffer": 0,
      "byteLength": 4983984,
      "byteOffset": 5746872,
      "byteStride": 12,
      "name": "floatBufferViews",
      "target": 34962
    }
  ],
  "buffers": [
    {
      "byteLength": 10730856,
      "uri": "scene.bin"
    }
  ],
  "extensionsUsed": [
    "KHR_materials_unlit"
  ],
  "images": [
    {
      "uri": "textures/Galena_baseColor.jpeg"
    }
  ],
  "materials": [
    {
      "doubleSided": true,
      "extensions": {
        "KHR_materials_unlit": {}
      },
      "name": "Galena",
      "pbrMetallicRoughness": {
        "baseColorTexture": {
          "index": 0
        },
        "metallicFactor": 0.0
      }
    }
  ],
  "meshes": [
    {
      "name": "Object_0",
      "primitives": [
        {
          "attributes": {
            "NORMAL": 1,
            "POSITION": 0,
            "TEXCOORD_0": 2
          },
          "indices": 3,
          "material": 0,
          "mode": 4
        }
      ]
    },
    {
      "name": "Object_1",
      "primitives": [
        {
          "attributes": {
            "NORMAL": 5,
            "POSITION": 4,
            "TEXCOORD_0": 6
          },
          "indices": 7,
          "material": 0,
          "mode": 4
        }
      ]
    },
    {
      "name": "Object_2",
      "primitives": [
        {
          "attributes": {
            "NORMAL": 9,
            "POSITION": 8,
            "TEXCOORD_0": 10
          },
          "indices": 11,
          "material": 0,
          "mode": 4
        }
      ]
    },
    {
      "name": "Object_3",
      "primitives": [
        {
          "attributes": {
            "NORMAL": 13,
            "POSITION": 12,
            "TEXCOORD_0": 14
          },
          "indices": 15,
          "material": 0,
          "mode": 4
        }
      ]
    }
  ],
  "nodes": [
    {
      "children": [
        1
      ],
      "matrix": [
        0.9495954513549805,
        -0.29872840642929077,
        0.09502563625574105,
        0.0,
        0.17553721368312836,
        0.25557160377502464,
        -0.9507206678390502,
        0.0,
        0.25972139835357666,
        0.9194805622100829,
        0.2951275706291201,
        0.0,
        0.0,
        0.0,
        0.0,
        1.0
      ],
      "name": "Sketchfab_model"
    },
    {
      "children": [
        2,
        3,
        4,
        5
      ],
      "name": "Galena.obj.cleaner.materialmerger.gles"
    },
    {
      "mesh": 0,
      "name": "Object_2"
    },
    {
      "mesh": 1,
      "name": "Object_3"
    },
    {
      "mesh": 2,
      "name": "Object_4"
    },
    {
      "mesh": 3,
      "name": "Object_5"
    }
  ],
  "samplers": [
    {
      "magFilter": 9729,
      "minFilter": 9987,
      "wrapS": 10497,
      "wrapT": 10497
    }
  ],
  "scene": 0,
  "scenes": [
    {
      "name": "Sketchfab_Scene",
      "nodes": [
        0
      ]
    }
  ],
  "textures": [
    {
      "sampler": 0,
      "source": 0
    }
  ]
}
