{
	"asset":{
		"generator":"Khronos glTF Blender I/O v4.0.44",
		"version":"2.0"
	},
	"extensionsUsed":[
		"KHR_materials_specular",
		"KHR_materials_ior"
	],
	"scene":0,
	"scenes":[
		{
			"name":"Scene",
			"nodes":[
				0
			]
		}
	],
	"nodes":[
		{
			"mesh":0,
			"name":"model_New Qlone",
			"rotation":[
				0.70710688829422,
				0,
				0,
				0.7071066498756409
			],
			"scale":[
				0.0010000000474974513,
				0.0010000000474974513,
				0.0010000000474974513
			]
		}
	],
	"materials":[
		{
			"doubleSided":true,
			"extensions":{
				"KHR_materials_specular":{
					"specularFactor":0
				},
				"KHR_materials_ior":{
					"ior":1.4500000476837158
				}
			},
			"name":"material0.001",
			"pbrMetallicRoughness":{
				"baseColorTexture":{
					"index":0
				},
				"metallicFactor":0
			}
		}
	],
	"meshes":[
		{
			"name":"model_New Qlone.001",
			"primitives":[
				{
					"attributes":{
						"POSITION":0,
						"NORMAL":1,
						"TEXCOORD_0":2
					},
					"indices":3,
					"material":0
				}
			]
		}
	],
	"textures":[
		{
			"sampler":0,
			"source":0
		}
	],
	"images":[
		{
			"mimeType":"image/jpeg",
			"name":"texture",
			"uri":"texture.jpg"
		}
	],
	"accessors":[
		{
			"bufferView":0,
			"componentType":5126,
			"count":318402,
			"max":[
				53.124210357666016,
				18.287939071655273,
				73.55970001220703
			],
			"min":[
				-53.124210357666016,
				-18.287939071655273,
				5.5626301765441895
			],
			"type":"VEC3"
		},
		{
			"bufferView":1,
			"componentType":5126,
			"count":318402,
			"type":"VEC3"
		},
		{
			"bufferView":2,
			"componentType":5126,
			"count":318402,
			"type":"VEC2"
		},
		{
			"bufferView":3,
			"componentType":5125,
			"count":437388,
			"type":"SCALAR"
		}
	],
	"bufferViews":[
		{
			"buffer":0,
			"byteLength":3820824,
			"byteOffset":0,
			"target":34962
		},
		{
			"buffer":0,
			"byteLength":3820824,
			"byteOffset":3820824,
			"target":34962
		},
		{
			"buffer":0,
			"byteLength":2547216,
			"byteOffset":7641648,
			"target":34962
		},
		{
			"buffer":0,
			"byteLength":1749552,
			"byteOffset":10188864,
			"target":34963
		}
	],
	"samplers":[
		{
			"magFilter":9729,
			"minFilter":9987
		}
	],
	"buffers":[
		{
			"byteLength":11938416,
			"uri":"untitled.bin"
		}
	]
}
