{
  "accessors": [
    {
      "bufferView": 2,
      "componentType": 5126,
      "count": 65532,
      "max": [
        0.831637978553772,
        9.185066223144531,
        1.6096750497817993
      ],
      "min": [
        -1.5770809650421143,
        6.342562198638916,
        -0.3389880061149597
      ],
      "type": "VEC3"
    },
    {
      "bufferView": 2,
      "byteOffset": 786384,
      "componentType": 5126,
      "count": 65532,
      "max": [
        0.9999682307243347,
        0.9999761581420898,
        0.9999528527259827
      ],
      "min": [
        -0.9999448657035828,
        -0.9999640583992004,
        -0.9999553561210632
      ],
      "type": "VEC3"
    },
    {
      "bufferView": 1,
      "componentType": 5126,
      "count": 65532,
      "max": [
        0.9735559821128845,
        1.0
      ],
      "min": [
        0.0,
        0.0
      ],
      "type": "VEC2"
    },
    {
      "bufferView": 0,
      "componentType": 5125,
      "count": 355080,
      "type": "SCALAR"
    },
    {
      "bufferView": 2,
      "byteOffset": 1572768,
      "componentType": 5126,
      "count": 34610,
      "max": [
        0.8311079740524292,
        8.510974884033203,
        1.60874605178833
      ],
      "min": [
        -1.4673689603805542,
        6.330790996551514,
        -0.3386940062046051
      ],
      "type": "VEC3"
    },
    {
      "bufferView": 2,
      "byteOffset": 1988088,
      "componentType": 5126,
      "count": 34610,
      "max": [
        0.9999682307243347,
        0.9999716281890869,
        0.999951958656311
      ],
      "min": [
        -0.9997600317001343,
        -0.9999640583992004,
        -0.999641478061676
      ],
      "type": "VEC3"
    },
    {
      "bufferView": 1,
      "byteOffset": 524256,
      "componentType": 5126,
      "count": 34610,
      "max": [
        0.974107027053833,
        0.98887699842453
      ],
      "min": [
        0.010048000141978264,
        0.00076299998909235
      ],
      "type": "VEC2"
    },
    {
      "bufferView": 0,
      "byteOffset": 1420320,
      "componentType": 5125,
      "count": 156888,
      "type": "SCALAR"
    }
  ],
  "asset": {
    "extras": {
      "author": "Digital Atlas of Ancient Life (https://sketchfab.com/DigitalAtlasOfAncientLife)",
      "license": "CC-BY-NC-SA-4.0 (http://creativecommons.org/licenses/by-nc-sa/4.0/)",
      "source": "https://sketchfab.com/3d-models/homo-erectus-cranium-2e9f6faf44924293a00dac6b9d482eb8",
      "title": "Homo erectus cranium"
    },
    "generator": "Sketchfab-14.79.0",
    "version": "2.0"
  },
  "bufferViews": [
    {
      "buffer": 0,
      "byteLength": 2047872,
      "name": "floatBufferViews",
      "target": 34963
    },
    {
      "buffer": 0,
      "byteLength": 801136,
      "byteOffset": 2047872,
      "byteStride": 8,
      "name": "floatBufferViews",
      "target": 34962
    },
    {
      "buffer": 0,
      "byteLength": 2403408,
      "byteOffset": 2849008,
      "byteStride": 12,
      "name": "floatBufferViews",
      "target": 34962
    }
  ],
  "buffers": [
    {
      "byteLength": 5252416,
      "uri": "scene.bin"
    }
  ],
  "images": [
    {
      "uri": "textures/H._ERECTUS_baseColor.jpeg"
    }
  ],
  "materials": [
    {
      "doubleSided": true,
      "name": "H._ERECTUS",
      "pbrMetallicRoughness": {
        "baseColorTexture": {
          "index": 0
        },
        "metallicFactor": 0.0
      }
    }
  ],
  "meshes": [
    {
      "name": "Object_0",
      "primitives": [
        {
          "attributes": {
            "NORMAL": 1,
            "POSITION": 0,
            "TEXCOORD_0": 2
          },
          "indices": 3,
          "material": 0,
          "mode": 4
        }
      ]
    },
    {
      "name": "Object_1",
      "primitives": [
        {
          "attributes": {
            "NORMAL": 5,
            "POSITION": 4,
            "TEXCOORD_0": 6
          },
          "indices": 7,
          "material": 0,
          "mode": 4
        }
      ]
    }
  ],
  "nodes": [
    {
      "children": [
        1
      ],
      "matrix": [
        0.19219234585762024,
        -0.7111282348632811,
        -0.6762830018997193,
        0.0,
        0.12314986437559128,
        -0.6662058234214784,
        0.7355297207832335,
        0.0,
        -0.9735996127128601,
        -0.22464732825756073,
        -0.040464304387569476,
        0.0,
        0.0,
        0.0,
        0.0,
        1.0
      ],
      "name": "Sketchfab_model"
    },
    {
      "children": [
        2,
        3
      ],
      "name": "H. ERECTUS.obj.cleaner.materialmerger.gles"
    },
    {
      "mesh": 0,
      "name": "Object_2"
    },
    {
      "mesh": 1,
      "name": "Object_3"
    }
  ],
  "samplers": [
    {
      "magFilter": 9729,
      "minFilter": 9987,
      "wrapS": 10497,
      "wrapT": 10497
    }
  ],
  "scene": 0,
  "scenes": [
    {
      "name": "Sketchfab_Scene",
      "nodes": [
        0
      ]
    }
  ],
  "textures": [
    {
      "sampler": 0,
      "source": 0
    }
  ]
}
