{
	"asset":{
		"generator":"Khronos glTF Blender I/O v4.0.44",
		"version":"2.0"
	},
	"scene":0,
	"scenes":[
		{
			"name":"Scene",
			"nodes":[
				2,
				3,
				4
			]
		}
	],
	"nodes":[
		{
			"name":"RootNode",
			"translation":[
				0,
				-2.231610778835602e-06,
				-3.598931471060496e-06
			]
		},
		{
			"children":[
				0
			],
			"name":"3a8fb8e31c3e434db4b1afb11710a903.fbx",
			"rotation":[
				0.70710688829422,
				0,
				0,
				0.7071066498756409
			],
			"translation":[
				0.000244140625,
				-2.0946754375472665e-06,
				2.821005182340741e-06
			]
		},
		{
			"children":[
				1
			],
			"name":"Sketchfab_model",
			"rotation":[
				-0.7071070075035095,
				0,
				0,
				0.7071065902709961
			],
			"scale":[
				0.0006049185176379979,
				0.0006049185758456588,
				0.0006049185758456588
			],
			"translation":[
				2.416736602783203,
				0.0418374240398407,
				-0.10149455815553665
			]
		},
		{
			"mesh":0,
			"name":"Plane_Material.004_0.001",
			"translation":[
				0.003872394561767578,
				0.00038591306656599045,
				0.003664802759885788
			]
		},
		{
			"mesh":1,
			"name":"Sphere",
			"scale":[
				0.05273407697677612,
				0.05273407697677612,
				0.05273407697677612
			],
			"translation":[
				0.13413755595684052,
				-0.13565456867218018,
				-0.12346673011779785
			]
		}
	],
	"materials":[
		{
			"doubleSided":true,
			"name":"Material.001",
			"pbrMetallicRoughness":{
				"baseColorFactor":[
					0.800000011920929,
					0.800000011920929,
					0.800000011920929,
					1
				]
			}
		},
		{
			"doubleSided":true,
			"name":"Material.005",
			"pbrMetallicRoughness":{
				"metallicFactor":0,
				"roughnessFactor":0.5
			}
		}
	],
	"meshes":[
		{
			"name":"Plane_Material.004_0.002",
			"primitives":[
				{
					"attributes":{
						"POSITION":0,
						"NORMAL":1,
						"TEXCOORD_0":2
					},
					"indices":3,
					"material":0
				}
			]
		},
		{
			"name":"Sphere",
			"primitives":[
				{
					"attributes":{
						"POSITION":4,
						"NORMAL":5,
						"TEXCOORD_0":6
					},
					"indices":7,
					"material":1
				}
			]
		}
	],
	"accessors":[
		{
			"bufferView":0,
			"componentType":5126,
			"count":62272,
			"max":[
				0.5672722458839417,
				0.5857329964637756,
				0.5847551226615906
			],
			"min":[
				-0.5849025249481201,
				-0.5667862296104431,
				-0.5677657127380371
			],
			"type":"VEC3"
		},
		{
			"bufferView":1,
			"componentType":5126,
			"count":62272,
			"type":"VEC3"
		},
		{
			"bufferView":2,
			"componentType":5126,
			"count":62272,
			"type":"VEC2"
		},
		{
			"bufferView":3,
			"componentType":5123,
			"count":139968,
			"type":"SCALAR"
		},
		{
			"bufferView":4,
			"componentType":5126,
			"count":559,
			"max":[
				0.9999997019767761,
				1,
				0.9999993443489075
			],
			"min":[
				-0.9999990463256836,
				-1,
				-1
			],
			"type":"VEC3"
		},
		{
			"bufferView":5,
			"componentType":5126,
			"count":559,
			"type":"VEC3"
		},
		{
			"bufferView":6,
			"componentType":5126,
			"count":559,
			"type":"VEC2"
		},
		{
			"bufferView":7,
			"componentType":5123,
			"count":2880,
			"type":"SCALAR"
		}
	],
	"bufferViews":[
		{
			"buffer":0,
			"byteLength":747264,
			"byteOffset":0,
			"target":34962
		},
		{
			"buffer":0,
			"byteLength":747264,
			"byteOffset":747264,
			"target":34962
		},
		{
			"buffer":0,
			"byteLength":498176,
			"byteOffset":1494528,
			"target":34962
		},
		{
			"buffer":0,
			"byteLength":279936,
			"byteOffset":1992704,
			"target":34963
		},
		{
			"buffer":0,
			"byteLength":6708,
			"byteOffset":2272640,
			"target":34962
		},
		{
			"buffer":0,
			"byteLength":6708,
			"byteOffset":2279348,
			"target":34962
		},
		{
			"buffer":0,
			"byteLength":4472,
			"byteOffset":2286056,
			"target":34962
		},
		{
			"buffer":0,
			"byteLength":5760,
			"byteOffset":2290528,
			"target":34963
		}
	],
	"buffers":[
		{
			"byteLength":2296288,
			"uri":"scene.bin"
		}
	]
}
