{
  "accessors": [
    {
      "bufferView": 2,
      "componentType": 5126,
      "count": 65532,
      "max": [
        1.8036229610443115,
        2.298616886138916,
        1.960405945777893
      ],
      "min": [
        -2.448591947555542,
        -1.1733330488204956,
        0.11659300327301025
      ],
      "type": "VEC3"
    },
    {
      "bufferView": 2,
      "byteOffset": 786384,
      "componentType": 5126,
      "count": 65532,
      "max": [
        0.9999842643737793,
        0.9999406337738037,
        1.0
      ],
      "min": [
        -0.999932050704956,
        -0.9998300671577454,
        -0.9999980926513672
      ],
      "type": "VEC3"
    },
    {
      "bufferView": 1,
      "componentType": 5126,
      "count": 65532,
      "max": [
        0.9979299902915955,
        0.9984409809112549
      ],
      "min": [
        0.00021499999274965376,
        0.0005579999997280538
      ],
      "type": "VEC2"
    },
    {
      "bufferView": 0,
      "componentType": 5125,
      "count": 351618,
      "type": "SCALAR"
    },
    {
      "bufferView": 2,
      "byteOffset": 1572768,
      "componentType": 5126,
      "count": 65532,
      "max": [
        1.476209044456482,
        1.5053199529647827,
        4.882390022277832
      ],
      "min": [
        -2.2563281059265137,
        -2.005866050720215,
        0.12763400375843048
      ],
      "type": "VEC3"
    },
    {
      "bufferView": 2,
      "byteOffset": 2359152,
      "componentType": 5126,
      "count": 65532,
      "max": [
        0.9999911785125732,
        0.9999674558639526,
        1.0
      ],
      "min": [
        -0.9999808073043823,
        -0.9999679327011108,
        -0.9999963045120239
      ],
      "type": "VEC3"
    },
    {
      "bufferView": 1,
      "byteOffset": 524256,
      "componentType": 5126,
      "count": 65532,
      "max": [
        0.9989510178565979,
        0.9989969730377197
      ],
      "min": [
        0.0005239999736659229,
        0.0020039998926222324
      ],
      "type": "VEC2"
    },
    {
      "bufferView": 0,
      "byteOffset": 1406472,
      "componentType": 5125,
      "count": 340932,
      "type": "SCALAR"
    },
    {
      "bufferView": 2,
      "byteOffset": 3145536,
      "componentType": 5126,
      "count": 65532,
      "max": [
        1.6604390144348145,
        2.264009952545166,
        1.656167984008789
      ],
      "min": [
        -2.4302010536193848,
        -1.867339015007019,
        0.11455699801445007
      ],
      "type": "VEC3"
    },
    {
      "bufferView": 2,
      "byteOffset": 3931920,
      "componentType": 5126,
      "count": 65532,
      "max": [
        0.9999934434890747,
        0.9999501705169678,
        0.9999997615814209
      ],
      "min": [
        -0.9999995231628418,
        -0.9999994039535522,
        -0.9999284744262695
      ],
      "type": "VEC3"
    },
    {
      "bufferView": 1,
      "byteOffset": 1048512,
      "componentType": 5126,
      "count": 65532,
      "max": [
        0.9989550113677979,
        0.9999899864196777
      ],
      "min": [
        1.4999999621068127e-05,
        0.00012799999967683107
      ],
      "type": "VEC2"
    },
    {
      "bufferView": 0,
      "byteOffset": 2770200,
      "componentType": 5125,
      "count": 316683,
      "type": "SCALAR"
    },
    {
      "bufferView": 2,
      "byteOffset": 4718304,
      "componentType": 5126,
      "count": 65532,
      "max": [
        1.8075690269470215,
        0.6536359786987305,
        2.8604300022125244
      ],
      "min": [
        -2.1093990802764893,
        -2.2765259742736816,
        0.10052400082349777
      ],
      "type": "VEC3"
    },
    {
      "bufferView": 2,
      "byteOffset": 5504688,
      "componentType": 5126,
      "count": 65532,
      "max": [
        0.9999971389770508,
        0.9999970197677612,
        0.9999997615814209
      ],
      "min": [
        -0.99998939037323,
        -0.9999872446060181,
        -0.999997615814209
      ],
      "type": "VEC3"
    },
    {
      "bufferView": 1,
      "byteOffset": 1572768,
      "componentType": 5126,
      "count": 65532,
      "max": [
        0.9990010261535645,
        0.9999319911003113
      ],
      "min": [
        1.9999999949504854e-06,
        3.999999989900971e-06
      ],
      "type": "VEC2"
    },
    {
      "bufferView": 0,
      "byteOffset": 4036932,
      "componentType": 5125,
      "count": 319308,
      "type": "SCALAR"
    },
    {
      "bufferView": 2,
      "byteOffset": 6291072,
      "componentType": 5126,
      "count": 36592,
      "max": [
        0.7495729923248291,
        1.2828129529953003,
        4.91810417175293
      ],
      "min": [
        -2.3188979625701904,
        -1.2228859663009644,
        0.1784449964761734
      ],
      "type": "VEC3"
    },
    {
      "bufferView": 2,
      "byteOffset": 6730176,
      "componentType": 5126,
      "count": 36592,
      "max": [
        0.9999326467514038,
        0.9999974966049194,
        0.9999969005584717
      ],
      "min": [
        -0.9998940229415894,
        -0.9999638795852661,
        -0.9997788071632385
      ],
      "type": "VEC3"
    },
    {
      "bufferView": 1,
      "byteOffset": 2097024,
      "componentType": 5126,
      "count": 36592,
      "max": [
        0.9980130195617676,
        0.9999729990959167
      ],
      "min": [
        6.199999916134402e-05,
        0.00011300000187475234
      ],
      "type": "VEC2"
    },
    {
      "bufferView": 0,
      "byteOffset": 5314164,
      "componentType": 5125,
      "count": 171450,
      "type": "SCALAR"
    }
  ],
  "asset": {
    "extras": {
      "author": "Muinsuskaitseamet (https://sketchfab.com/muinsuskaitseamet)",
      "license": "CC-BY-SA-4.0 (http://creativecommons.org/licenses/by-sa/4.0/)",
      "source": "https://sketchfab.com/3d-models/fraunhofers-refractor-in-tartu-old-observatory-4b7fa3eab36d4bcaaf233cce491e8449",
      "title": "Fraunhofer's refractor in Tartu Old Observatory"
    },
    "generator": "Sketchfab-16.14.0",
    "version": "2.0"
  },
  "bufferViews": [
    {
      "buffer": 0,
      "byteLength": 5999964,
      "name": "floatBufferViews",
      "target": 34963
    },
    {
      "buffer": 0,
      "byteLength": 2389760,
      "byteOffset": 5999964,
      "byteStride": 8,
      "name": "floatBufferViews",
      "target": 34962
    },
    {
      "buffer": 0,
      "byteLength": 7169280,
      "byteOffset": 8389724,
      "byteStride": 12,
      "name": "floatBufferViews",
      "target": 34962
    }
  ],
  "buffers": [
    {
      "byteLength": 15559004,
      "uri": "scene.bin"
    }
  ],
  "images": [
    {
      "uri": "textures/refrektor-koos-001-mm-sf-500k.1001_baseColor.jpeg"
    }
  ],
  "materials": [
    {
      "doubleSided": true,
      "name": "refrektor-koos-001-mm-sf-500k.1001",
      "pbrMetallicRoughness": {
        "baseColorTexture": {
          "index": 0
        },
        "metallicFactor": 0.0
      }
    }
  ],
  "meshes": [
    {
      "name": "Object_0",
      "primitives": [
        {
          "attributes": {
            "NORMAL": 1,
            "POSITION": 0,
            "TEXCOORD_0": 2
          },
          "indices": 3,
          "material": 0,
          "mode": 4
        }
      ]
    },
    {
      "name": "Object_1",
      "primitives": [
        {
          "attributes": {
            "NORMAL": 5,
            "POSITION": 4,
            "TEXCOORD_0": 6
          },
          "indices": 7,
          "material": 0,
          "mode": 4
        }
      ]
    },
    {
      "name": "Object_2",
      "primitives": [
        {
          "attributes": {
            "NORMAL": 9,
            "POSITION": 8,
            "TEXCOORD_0": 10
          },
          "indices": 11,
          "material": 0,
          "mode": 4
        }
      ]
    },
    {
      "name": "Object_3",
      "primitives": [
        {
          "attributes": {
            "NORMAL": 13,
            "POSITION": 12,
            "TEXCOORD_0": 14
          },
          "indices": 15,
          "material": 0,
          "mode": 4
        }
      ]
    },
    {
      "name": "Object_4",
      "primitives": [
        {
          "attributes": {
            "NORMAL": 17,
            "POSITION": 16,
            "TEXCOORD_0": 18
          },
          "indices": 19,
          "material": 0,
          "mode": 4
        }
      ]
    }
  ],
  "nodes": [
    {
      "children": [
        1
      ],
      "matrix": [
        1.0,
        0.0,
        0.0,
        0.0,
        0.0,
        2.220446049250313e-16,
        -1.0,
        0.0,
        0.0,
        1.0,
        2.220446049250313e-16,
        0.0,
        0.0,
        0.0,
        0.0,
        1.0
      ],
      "name": "Sketchfab_model"
    },
    {
      "children": [
        2,
        3,
        4,
        5,
        6
      ],
      "name": "refrektor-koos-001-mm-sf-500k-5-3.obj.cleaner.materialmerger.gles"
    },
    {
      "mesh": 0,
      "name": "Object_2"
    },
    {
      "mesh": 1,
      "name": "Object_3"
    },
    {
      "mesh": 2,
      "name": "Object_4"
    },
    {
      "mesh": 3,
      "name": "Object_5"
    },
    {
      "mesh": 4,
      "name": "Object_6"
    }
  ],
  "samplers": [
    {
      "magFilter": 9729,
      "minFilter": 9987,
      "wrapS": 10497,
      "wrapT": 10497
    }
  ],
  "scene": 0,
  "scenes": [
    {
      "name": "Sketchfab_Scene",
      "nodes": [
        0
      ]
    }
  ],
  "textures": [
    {
      "sampler": 0,
      "source": 0
    }
  ]
}
