{
  "accessors": [
    {
      "bufferView": 2,
      "componentType": 5126,
      "count": 1508,
      "max": [
        10.685522079467773,
        62.46042251586914,
        13.047508239746094
      ],
      "min": [
        -11.947683334350586,
        41.06260681152344,
        -11.22675895690918
      ],
      "type": "VEC3"
    },
    {
      "bufferView": 2,
      "byteOffset": 18096,
      "componentType": 5126,
      "count": 1508,
      "max": [
        0.9987618923187256,
        0.999996542930603,
        0.998808741569519
      ],
      "min": [
        -0.9988079071044922,
        -0.9998457431793213,
        -0.9992601871490479
      ],
      "type": "VEC3"
    },
    {
      "bufferView": 3,
      "componentType": 5126,
      "count": 1508,
      "max": [
        0.9989790916442871,
        0.9998646974563599,
        0.9999711513519287,
        1.0
      ],
      "min": [
        -0.999882161617279,
        -0.9998458027839661,
        -0.9999836683273315,
        -1.0
      ],
      "type": "VEC4"
    },
    {
      "bufferView": 1,
      "componentType": 5126,
      "count": 1508,
      "max": [
        0.9946097731590271,
        0.7266326546669006
      ],
      "min": [
        0.0043492913246154785,
        0.03656184673309326
      ],
      "type": "VEC2"
    },
    {
      "bufferView": 0,
      "componentType": 5125,
      "count": 5229,
      "type": "SCALAR"
    },
    {
      "bufferView": 2,
      "byteOffset": 36192,
      "componentType": 5126,
      "count": 4282,
      "max": [
        24.06306266784668,
        43.40970230102539,
        24.06305503845215
      ],
      "min": [
        -24.06305503845215,
        -6.794929504394531e-05,
        -24.063047409057617
      ],
      "type": "VEC3"
    },
    {
      "bufferView": 2,
      "byteOffset": 87576,
      "componentType": 5126,
      "count": 4282,
      "max": [
        1.0,
        1.0,
        1.0
      ],
      "min": [
        -1.0,
        -1.0,
        -1.0
      ],
      "type": "VEC3"
    },
    {
      "bufferView": 3,
      "byteOffset": 24128,
      "componentType": 5126,
      "count": 4282,
      "max": [
        1.0,
        0.9999998807907104,
        1.0,
        1.0
      ],
      "min": [
        -1.0,
        -0.999953031539917,
        -1.0,
        -1.0
      ],
      "type": "VEC4"
    },
    {
      "bufferView": 1,
      "byteOffset": 12064,
      "componentType": 5126,
      "count": 4282,
      "max": [
        0.9981673955917358,
        0.9964022636413574
      ],
      "min": [
        0.008369684219360352,
        0.008220784366130829
      ],
      "type": "VEC2"
    },
    {
      "bufferView": 0,
      "byteOffset": 20916,
      "componentType": 5125,
      "count": 15774,
      "type": "SCALAR"
    }
  ],
  "asset": {
    "extras": {
      "author": "TadasSadauskas (https://sketchfab.com/TadasSadauskas)",
      "license": "CC-BY-4.0 (http://creativecommons.org/licenses/by/4.0/)",
      "source": "https://sketchfab.com/3d-models/moroccan-incense-burner-78d4699623d940079b9f32e318ea911e",
      "title": "Moroccan Incense burner"
    },
    "generator": "Sketchfab-12.67.0",
    "version": "2.0"
  },
  "bufferViews": [
    {
      "buffer": 0,
      "byteLength": 84012,
      "name": "floatBufferViews",
      "target": 34963
    },
    {
      "buffer": 0,
      "byteLength": 46320,
      "byteOffset": 84012,
      "byteStride": 8,
      "name": "floatBufferViews",
      "target": 34962
    },
    {
      "buffer": 0,
      "byteLength": 138960,
      "byteOffset": 130332,
      "byteStride": 12,
      "name": "floatBufferViews",
      "target": 34962
    },
    {
      "buffer": 0,
      "byteLength": 92640,
      "byteOffset": 269292,
      "byteStride": 16,
      "name": "floatBufferViews",
      "target": 34962
    }
  ],
  "buffers": [
    {
      "byteLength": 361932,
      "uri": "scene.bin"
    }
  ],
  "images": [
    {
      "uri": "textures/T_IncenseBurner_baseColor.png"
    },
    {
      "uri": "textures/T_IncenseBurner_metallicRoughness.png"
    },
    {
      "uri": "textures/T_IncenseBurner_normal.png"
    }
  ],
  "materials": [
    {
      "doubleSided": true,
      "name": "T_IncenseBurner",
      "normalTexture": {
        "index": 2
      },
      "occlusionTexture": {
        "index": 1
      },
      "pbrMetallicRoughness": {
        "baseColorTexture": {
          "index": 0
        },
        "metallicRoughnessTexture": {
          "index": 1
        }
      }
    }
  ],
  "meshes": [
    {
      "name": "IncenseBurner_top_low_T_IncenseBurner_0",
      "primitives": [
        {
          "attributes": {
            "NORMAL": 1,
            "POSITION": 0,
            "TANGENT": 2,
            "TEXCOORD_0": 3
          },
          "indices": 4,
          "material": 0,
          "mode": 4
        }
      ]
    },
    {
      "name": "IncenseBurner_bottom_low_T_IncenseBurner_0",
      "primitives": [
        {
          "attributes": {
            "NORMAL": 6,
            "POSITION": 5,
            "TANGENT": 7,
            "TEXCOORD_0": 8
          },
          "indices": 9,
          "material": 0,
          "mode": 4
        }
      ]
    }
  ],
  "nodes": [
    {
      "children": [
        1
      ],
      "matrix": [
        1.0,
        0.0,
        0.0,
        0.0,
        0.0,
        2.220446049250313e-16,
        -1.0,
        0.0,
        0.0,
        1.0,
        2.220446049250313e-16,
        0.0,
        0.0,
        0.0,
        0.0,
        1.0
      ],
      "name": "Sketchfab_model"
    },
    {
      "children": [
        2
      ],
      "matrix": [
        1.0,
        0.0,
        0.0,
        0.0,
        0.0,
        0.0,
        1.0,
        0.0,
        0.0,
        -1.0,
        0.0,
        0.0,
        0.0,
        0.0,
        0.0,
        1.0
      ],
      "name": "94c09ec1571d45a28b9d1acb5c94aa5a.fbx"
    },
    {
      "children": [
        3,
        5
      ],
      "name": "RootNode"
    },
    {
      "children": [
        4
      ],
      "name": "IncenseBurner_top_low"
    },
    {
      "mesh": 0,
      "name": "IncenseBurner_top_low_T_IncenseBurner_0"
    },
    {
      "children": [
        6
      ],
      "name": "IncenseBurner_bottom_low"
    },
    {
      "mesh": 1,
      "name": "IncenseBurner_bottom_low_T_IncenseBurner_0"
    }
  ],
  "samplers": [
    {
      "magFilter": 9729,
      "minFilter": 9987,
      "wrapS": 10497,
      "wrapT": 10497
    }
  ],
  "scene": 0,
  "scenes": [
    {
      "name": "Sketchfab_Scene",
      "nodes": [
        0
      ]
    }
  ],
  "textures": [
    {
      "sampler": 0,
      "source": 0
    },
    {
      "sampler": 0,
      "source": 1
    },
    {
      "sampler": 0,
      "source": 2
    }
  ]
}
