{
  "accessors": [
    {
      "bufferView": 2,
      "componentType": 5126,
      "count": 3835,
      "max": [
        10.754986763000488,
        7.912390232086182,
        10.565299987792969
      ],
      "min": [
        -11.953413963317871,
        -5.916743278503418,
        -16.651962280273438
      ],
      "type": "VEC3"
    },
    {
      "bufferView": 2,
      "byteOffset": 46020,
      "componentType": 5126,
      "count": 3835,
      "max": [
        0.9979708790779114,
        0.9997875094413757,
        0.9991362690925598
      ],
      "min": [
        -0.9997705817222595,
        -0.9999953508377075,
        -0.999098002910614
      ],
      "type": "VEC3"
    },
    {
      "bufferView": 1,
      "componentType": 5126,
      "count": 3835,
      "max": [
        0.9910410046577454,
        0.49846500158309937
      ],
      "min": [
        0.0786593034863472,
        0.016006886959075928
      ],
      "type": "VEC2"
    },
    {
      "bufferView": 1,
      "byteOffset": 30680,
      "componentType": 5126,
      "count": 3835,
      "max": [
        0.9910410046577454,
        0.49846500158309937
      ],
      "min": [
        0.0786593034863472,
        0.016006886959075928
      ],
      "type": "VEC2"
    },
    {
      "bufferView": 0,
      "componentType": 5125,
      "count": 11277,
      "type": "SCALAR"
    }
  ],
  "asset": {
    "extras": {
      "author": "saravananm4594 (https://sketchfab.com/saravananm4594)",
      "license": "CC-BY-4.0 (http://creativecommons.org/licenses/by/4.0/)",
      "source": "https://sketchfab.com/3d-models/large-intestine-10393-b1ebb52b0cfc4f638148180c1abaa5c2",
      "title": "Large Intestine 10393"
    },
    "generator": "Sketchfab-16.7.0",
    "version": "2.0"
  },
  "bufferViews": [
    {
      "buffer": 0,
      "byteLength": 45108,
      "name": "floatBufferViews",
      "target": 34963
    },
    {
      "buffer": 0,
      "byteLength": 61360,
      "byteOffset": 45108,
      "byteStride": 8,
      "name": "floatBufferViews",
      "target": 34962
    },
    {
      "buffer": 0,
      "byteLength": 92040,
      "byteOffset": 106468,
      "byteStride": 12,
      "name": "floatBufferViews",
      "target": 34962
    }
  ],
  "buffers": [
    {
      "byteLength": 198508,
      "uri": "scene.bin"
    }
  ],
  "images": [
    {
      "uri": "textures/Digestive_System_baseColor.jpeg"
    }
  ],
  "materials": [
    {
      "doubleSided": true,
      "name": "Digestive_System",
      "pbrMetallicRoughness": {
        "baseColorTexture": {
          "index": 0
        },
        "metallicFactor": 0.0,
        "roughnessFactor": 0.869232
      }
    }
  ],
  "meshes": [
    {
      "name": "Object_0",
      "primitives": [
        {
          "attributes": {
            "NORMAL": 1,
            "POSITION": 0,
            "TEXCOORD_0": 2,
            "TEXCOORD_1": 3
          },
          "indices": 4,
          "material": 0,
          "mode": 4
        }
      ]
    }
  ],
  "nodes": [
    {
      "children": [
        1
      ],
      "matrix": [
        1.0,
        0.0,
        0.0,
        0.0,
        0.0,
        2.220446049250313e-16,
        -1.0,
        0.0,
        0.0,
        1.0,
        2.220446049250313e-16,
        0.0,
        0.0,
        0.0,
        0.0,
        1.0
      ],
      "name": "Sketchfab_model"
    },
    {
      "children": [
        2
      ],
      "name": "root"
    },
    {
      "children": [
        3
      ],
      "matrix": [
        1.0,
        0.0,
        0.0,
        0.0,
        0.0,
        2.220446049250313e-16,
        1.0,
        0.0,
        0.0,
        -1.0,
        2.220446049250313e-16,
        0.0,
        0.0,
        0.0,
        0.0,
        1.0
      ],
      "name": "GLTF_SceneRootNode"
    },
    {
      "children": [
        4
      ],
      "name": "DigestiveSystem001_Digestive_System_0_0"
    },
    {
      "mesh": 0,
      "name": "Object_4"
    }
  ],
  "samplers": [
    {
      "magFilter": 9729,
      "minFilter": 9987,
      "wrapS": 10497,
      "wrapT": 10497
    }
  ],
  "scene": 0,
  "scenes": [
    {
      "name": "Sketchfab_Scene",
      "nodes": [
        0
      ]
    }
  ],
  "textures": [
    {
      "sampler": 0,
      "source": 0
    }
  ]
}
