{
  "accessors": [
    {
      "bufferView": 2,
      "componentType": 5126,
      "count": 65532,
      "max": [
        0.8609189987182617,
        12.510869026184082,
        0.07042299956083298
      ],
      "min": [
        -1.1658209562301636,
        7.681241035461426,
        -1.581794023513794
      ],
      "type": "VEC3"
    },
    {
      "bufferView": 2,
      "byteOffset": 786384,
      "componentType": 5126,
      "count": 65532,
      "max": [
        0.9999942183494568,
        0.9998915195465088,
        0.9998483657836914
      ],
      "min": [
        -0.9999918937683105,
        -0.9992620944976807,
        -1.0
      ],
      "type": "VEC3"
    },
    {
      "bufferView": 1,
      "componentType": 5126,
      "count": 65532,
      "max": [
        0.9969990253448486,
        0.9813249707221985
      ],
      "min": [
        0.0018210000125691295,
        0.0
      ],
      "type": "VEC2"
    },
    {
      "bufferView": 0,
      "componentType": 5125,
      "count": 352866,
      "type": "SCALAR"
    },
    {
      "bufferView": 2,
      "byteOffset": 1572768,
      "componentType": 5126,
      "count": 65532,
      "max": [
        0.8933899998664856,
        12.498828887939453,
        0.07006199657917023
      ],
      "min": [
        -1.1476199626922607,
        7.6972270011901855,
        -1.6285510063171387
      ],
      "type": "VEC3"
    },
    {
      "bufferView": 2,
      "byteOffset": 2359152,
      "componentType": 5126,
      "count": 65532,
      "max": [
        0.999999463558197,
        0.9999715089797974,
        0.9994752407073975
      ],
      "min": [
        -0.9999966621398926,
        -0.9988774657249451,
        -1.0
      ],
      "type": "VEC3"
    },
    {
      "bufferView": 1,
      "byteOffset": 524256,
      "componentType": 5126,
      "count": 65532,
      "max": [
        0.9940860271453857,
        0.9818789958953857
      ],
      "min": [
        0.008545000106096268,
        0.0010740000288933516
      ],
      "type": "VEC2"
    },
    {
      "bufferView": 0,
      "byteOffset": 1411464,
      "componentType": 5125,
      "count": 340647,
      "type": "SCALAR"
    },
    {
      "bufferView": 2,
      "byteOffset": 3145536,
      "componentType": 5126,
      "count": 56539,
      "max": [
        0.8803769946098328,
        12.512954711914063,
        0.07064100354909897
      ],
      "min": [
        -1.1658209562301636,
        7.684690952301025,
        -1.6274830102920532
      ],
      "type": "VEC3"
    },
    {
      "bufferView": 2,
      "byteOffset": 3824004,
      "componentType": 5126,
      "count": 56539,
      "max": [
        0.9999922513961792,
        0.9999498724937439,
        0.9972602128982544
      ],
      "min": [
        -0.9999918937683105,
        -0.9992550015449524,
        -0.9999997615814209
      ],
      "type": "VEC3"
    },
    {
      "bufferView": 1,
      "byteOffset": 1048512,
      "componentType": 5126,
      "count": 56539,
      "max": [
        0.9953219890594482,
        0.9814839959144592
      ],
      "min": [
        0.03565099835395813,
        0.004705999977886677
      ],
      "type": "VEC2"
    },
    {
      "bufferView": 0,
      "byteOffset": 2774052,
      "componentType": 5125,
      "count": 269220,
      "type": "SCALAR"
    }
  ],
  "asset": {
    "extras": {
      "author": "Arnadi Murtiyoso (https://sketchfab.com/murtiyoso.arnadi)",
      "license": "CC-BY-4.0 (http://creativecommons.org/licenses/by/4.0/)",
      "source": "https://sketchfab.com/3d-models/solomon-0acf78efb5a64c6c9dd1937dc9450186",
      "title": "Solomon"
    },
    "generator": "Sketchfab-15.49.0",
    "version": "2.0"
  },
  "bufferViews": [
    {
      "buffer": 0,
      "byteLength": 3850932,
      "name": "floatBufferViews",
      "target": 34963
    },
    {
      "buffer": 0,
      "byteLength": 1500824,
      "byteOffset": 3850932,
      "byteStride": 8,
      "name": "floatBufferViews",
      "target": 34962
    },
    {
      "buffer": 0,
      "byteLength": 4502472,
      "byteOffset": 5351756,
      "byteStride": 12,
      "name": "floatBufferViews",
      "target": 34962
    }
  ],
  "buffers": [
    {
      "byteLength": 9854228,
      "uri": "scene.bin"
    }
  ],
  "extensionsUsed": [
    "KHR_materials_specular"
  ],
  "images": [
    {
      "uri": "textures/material_0_baseColor.jpeg"
    }
  ],
  "materials": [
    {
      "doubleSided": true,
      "extensions": {
        "KHR_materials_specular": {
          "specularColorFactor": [
            1.0,
            1.0,
            1.0
          ],
          "specularFactor": 0.5429866328009341
        }
      },
      "name": "material_0",
      "pbrMetallicRoughness": {
        "baseColorFactor": [
          0.4031511522836644,
          0.4031511522836644,
          0.4031511522836644,
          1.0
        ],
        "baseColorTexture": {
          "index": 0
        },
        "metallicFactor": 0.0,
        "roughnessFactor": 0.8278813807448681
      }
    }
  ],
  "meshes": [
    {
      "name": "Object_0",
      "primitives": [
        {
          "attributes": {
            "NORMAL": 1,
            "POSITION": 0,
            "TEXCOORD_0": 2
          },
          "indices": 3,
          "material": 0,
          "mode": 4
        }
      ]
    },
    {
      "name": "Object_1",
      "primitives": [
        {
          "attributes": {
            "NORMAL": 5,
            "POSITION": 4,
            "TEXCOORD_0": 6
          },
          "indices": 7,
          "material": 0,
          "mode": 4
        }
      ]
    },
    {
      "name": "Object_2",
      "primitives": [
        {
          "attributes": {
            "NORMAL": 9,
            "POSITION": 8,
            "TEXCOORD_0": 10
          },
          "indices": 11,
          "material": 0,
          "mode": 4
        }
      ]
    }
  ],
  "nodes": [
    {
      "children": [
        1
      ],
      "matrix": [
        0.5466560125350952,
        0.0,
        0.0,
        0.0,
        0.0,
        -0.5466560125350952,
        -2.4276403666649636e-16,
        0.0,
        0.0,
        2.4276403666649636e-16,
        -0.5466560125350952,
        0.0,
        0.0,
        0.0,
        0.0,
        1.0
      ],
      "name": "Sketchfab_model"
    },
    {
      "children": [
        2,
        3,
        4
      ],
      "name": "solomon_closed-textured.obj.cleaner.materialmerger.gles"
    },
    {
      "mesh": 0,
      "name": "Object_2"
    },
    {
      "mesh": 1,
      "name": "Object_3"
    },
    {
      "mesh": 2,
      "name": "Object_4"
    }
  ],
  "samplers": [
    {
      "magFilter": 9729,
      "minFilter": 9987,
      "wrapS": 10497,
      "wrapT": 10497
    }
  ],
  "scene": 0,
  "scenes": [
    {
      "name": "Sketchfab_Scene",
      "nodes": [
        0
      ]
    }
  ],
  "textures": [
    {
      "sampler": 0,
      "source": 0
    }
  ]
}
