{
  "accessors": [
    {
      "bufferView": 2,
      "componentType": 5126,
      "count": 4,
      "max": [
        0.054673001170158386,
        0.057652998715639114,
        0.03873300179839134
      ],
      "min": [
        -0.05238800123333931,
        -0.049407001584768295,
        0.03873300179839134
      ],
      "type": "VEC3"
    },
    {
      "bufferView": 2,
      "byteOffset": 48,
      "componentType": 5126,
      "count": 4,
      "max": [
        0.0,
        -0.0,
        1.0
      ],
      "min": [
        0.0,
        -0.0,
        1.0
      ],
      "type": "VEC3"
    },
    {
      "bufferView": 1,
      "componentType": 5126,
      "count": 4,
      "max": [
        0.09016700088977814,
        0.09016799926757813
      ],
      "min": [
        0.0019529999699443579,
        0.0019529999699443579
      ],
      "type": "VEC2"
    },
    {
      "bufferView": 0,
      "componentType": 5125,
      "count": 6,
      "type": "SCALAR"
    },
    {
      "bufferView": 2,
      "byteOffset": 96,
      "componentType": 5126,
      "count": 65532,
      "max": [
        0.21056200563907623,
        0.15138700604438782,
        0.5089930295944214
      ],
      "min": [
        -0.17773599922657013,
        -0.14468500018119812,
        -0.0011869999580085278
      ],
      "type": "VEC3"
    },
    {
      "bufferView": 2,
      "byteOffset": 786480,
      "componentType": 5126,
      "count": 65532,
      "max": [
        0.9999979734420776,
        0.9999873638153076,
        1.0
      ],
      "min": [
        -0.999976396560669,
        -0.9998486638069153,
        -1.0
      ],
      "type": "VEC3"
    },
    {
      "bufferView": 3,
      "componentType": 5126,
      "count": 65532,
      "max": [
        0.9999951124191284,
        0.9999983310699463,
        0.9999898076057434,
        1.0
      ],
      "min": [
        -0.9999964237213135,
        -0.999998927116394,
        -0.9999634027481079,
        -1.0
      ],
      "type": "VEC4"
    },
    {
      "bufferView": 1,
      "byteOffset": 32,
      "componentType": 5126,
      "count": 65532,
      "max": [
        0.9980419874191284,
        0.9980469942092896
      ],
      "min": [
        0.0019529999699443579,
        0.0019529999699443579
      ],
      "type": "VEC2"
    },
    {
      "bufferView": 0,
      "byteOffset": 24,
      "componentType": 5125,
      "count": 294540,
      "type": "SCALAR"
    },
    {
      "bufferView": 2,
      "byteOffset": 1572864,
      "componentType": 5126,
      "count": 65532,
      "max": [
        0.21010099351406097,
        0.15337100625038147,
        0.5080749988555908
      ],
      "min": [
        -0.19093400239944458,
        -0.15071700513362885,
        -0.001088000019080937
      ],
      "type": "VEC3"
    },
    {
      "bufferView": 2,
      "byteOffset": 2359248,
      "componentType": 5126,
      "count": 65532,
      "max": [
        0.9999967813491821,
        0.9999873638153076,
        1.0
      ],
      "min": [
        -0.9999765157699585,
        -0.9999761581420898,
        -1.0
      ],
      "type": "VEC3"
    },
    {
      "bufferView": 3,
      "byteOffset": 1048512,
      "componentType": 5126,
      "count": 65532,
      "max": [
        0.9999833106994629,
        0.9999958276748657,
        0.9999946355819702,
        1.0
      ],
      "min": [
        -0.9999921321868896,
        -0.9999974966049194,
        -0.9999819397926331,
        1.0
      ],
      "type": "VEC4"
    },
    {
      "bufferView": 1,
      "byteOffset": 524288,
      "componentType": 5126,
      "count": 65532,
      "max": [
        0.9882240295410156,
        0.9933429956436157
      ],
      "min": [
        0.0019529999699443579,
        0.0019529999699443579
      ],
      "type": "VEC2"
    },
    {
      "bufferView": 0,
      "byteOffset": 1178184,
      "componentType": 5125,
      "count": 309279,
      "type": "SCALAR"
    },
    {
      "bufferView": 2,
      "byteOffset": 3145632,
      "componentType": 5126,
      "count": 65532,
      "max": [
        0.21016700565814972,
        0.1530729979276657,
        0.5080959796905518
      ],
      "min": [
        -0.20356200635433197,
        -0.14945100247859955,
        -0.001108999946154654
      ],
      "type": "VEC3"
    },
    {
      "bufferView": 2,
      "byteOffset": 3932016,
      "componentType": 5126,
      "count": 65532,
      "max": [
        0.9999045133590698,
        0.9999829530715942,
        1.0
      ],
      "min": [
        -0.9999276399612427,
        -0.9999961853027344,
        -1.0
      ],
      "type": "VEC3"
    },
    {
      "bufferView": 3,
      "byteOffset": 2097024,
      "componentType": 5126,
      "count": 65532,
      "max": [
        0.9999954104423523,
        0.9999431371688843,
        0.999995768070221,
        1.0
      ],
      "min": [
        -0.9999734163284302,
        -0.9999708533287048,
        -0.9999977946281433,
        1.0
      ],
      "type": "VEC4"
    },
    {
      "bufferView": 1,
      "byteOffset": 1048544,
      "componentType": 5126,
      "count": 65532,
      "max": [
        0.9975799918174744,
        0.995747983455658
      ],
      "min": [
        0.0019529999699443579,
        0.0019529999699443579
      ],
      "type": "VEC2"
    },
    {
      "bufferView": 0,
      "byteOffset": 2415300,
      "componentType": 5125,
      "count": 295581,
      "type": "SCALAR"
    },
    {
      "bufferView": 2,
      "byteOffset": 4718400,
      "componentType": 5126,
      "count": 6554,
      "max": [
        0.11209399998188019,
        0.13957199454307556,
        0.04513699933886528
      ],
      "min": [
        -0.20345599949359894,
        -0.13913500308990479,
        0.00014400000509340316
      ],
      "type": "VEC3"
    },
    {
      "bufferView": 2,
      "byteOffset": 4797048,
      "componentType": 5126,
      "count": 6554,
      "max": [
        0.18120139837265015,
        0.995957612991333,
        0.9999940395355225
      ],
      "min": [
        -0.9999516010284424,
        -0.9589862823486328,
        -1.0
      ],
      "type": "VEC3"
    },
    {
      "bufferView": 3,
      "byteOffset": 3145536,
      "componentType": 5126,
      "count": 6554,
      "max": [
        0.9966698884963989,
        0.9989800453186035,
        0.999994158744812,
        1.0
      ],
      "min": [
        -0.9833648204803467,
        -0.9994029402732849,
        -0.9995397329330444,
        1.0
      ],
      "type": "VEC4"
    },
    {
      "bufferView": 1,
      "byteOffset": 1572800,
      "componentType": 5126,
      "count": 6554,
      "max": [
        0.9799010157585144,
        0.8960739970207214
      ],
      "min": [
        0.0019529999699443579,
        0.0019529999699443579
      ],
      "type": "VEC2"
    },
    {
      "bufferView": 0,
      "byteOffset": 3597624,
      "componentType": 5125,
      "count": 27288,
      "type": "SCALAR"
    }
  ],
  "asset": {
    "extras": {
      "author": "Virtual Museums of Małopolska (https://sketchfab.com/WirtualneMuzeaMalopolski)",
      "license": "CC-BY-4.0 (http://creativecommons.org/licenses/by/4.0/)",
      "source": "https://sketchfab.com/3d-models/armillary-sphere-1771-41e23659c75241459eec6477d9e77c93",
      "title": "Armillary sphere (1771)"
    },
    "generator": "Sketchfab-12.60.0",
    "version": "2.0"
  },
  "bufferViews": [
    {
      "buffer": 0,
      "byteLength": 3706776,
      "name": "floatBufferViews",
      "target": 34963
    },
    {
      "buffer": 0,
      "byteLength": 1625232,
      "byteOffset": 3706776,
      "byteStride": 8,
      "name": "floatBufferViews",
      "target": 34962
    },
    {
      "buffer": 0,
      "byteLength": 4875696,
      "byteOffset": 5332008,
      "byteStride": 12,
      "name": "floatBufferViews",
      "target": 34962
    },
    {
      "buffer": 0,
      "byteLength": 3250400,
      "byteOffset": 10207704,
      "byteStride": 16,
      "name": "floatBufferViews",
      "target": 34962
    }
  ],
  "buffers": [
    {
      "byteLength": 13458104,
      "uri": "scene.bin"
    }
  ],
  "extensionsUsed": [
    "KHR_materials_transmission"
  ],
  "images": [
    {
      "uri": "textures/glass_metallicRoughness.png"
    },
    {
      "uri": "textures/sfera_baseColor.jpeg"
    },
    {
      "uri": "textures/sfera_metallicRoughness.png"
    },
    {
      "uri": "textures/sfera_normal.png"
    }
  ],
  "materials": [
    {
      "alphaMode": "BLEND",
      "extensions": {
        "KHR_materials_transmission": {
          "transmissionFactor": 0.9861296049711495
        }
      },
      "name": "glass",
      "pbrMetallicRoughness": {
        "baseColorFactor": [
          0.0,
          0.0,
          0.0,
          0.25
        ],
        "metallicFactor": 0.5124445944220491,
        "metallicRoughnessTexture": {
          "index": 0
        },
        "roughnessFactor": 0.0017100487021870384
      }
    },
    {
      "doubleSided": true,
      "name": "sfera",
      "normalTexture": {
        "index": 3
      },
      "occlusionTexture": {
        "index": 2
      },
      "pbrMetallicRoughness": {
        "baseColorTexture": {
          "index": 1
        },
        "metallicRoughnessTexture": {
          "index": 2
        },
        "roughnessFactor": 0.8954955037119458
      }
    }
  ],
  "meshes": [
    {
      "name": "Object_0",
      "primitives": [
        {
          "attributes": {
            "NORMAL": 1,
            "POSITION": 0,
            "TEXCOORD_0": 2
          },
          "indices": 3,
          "material": 0,
          "mode": 4
        }
      ]
    },
    {
      "name": "Object_1",
      "primitives": [
        {
          "attributes": {
            "NORMAL": 5,
            "POSITION": 4,
            "TANGENT": 6,
            "TEXCOORD_0": 7
          },
          "indices": 8,
          "material": 1,
          "mode": 4
        }
      ]
    },
    {
      "name": "Object_2",
      "primitives": [
        {
          "attributes": {
            "NORMAL": 10,
            "POSITION": 9,
            "TANGENT": 11,
            "TEXCOORD_0": 12
          },
          "indices": 13,
          "material": 1,
          "mode": 4
        }
      ]
    },
    {
      "name": "Object_3",
      "primitives": [
        {
          "attributes": {
            "NORMAL": 15,
            "POSITION": 14,
            "TANGENT": 16,
            "TEXCOORD_0": 17
          },
          "indices": 18,
          "material": 1,
          "mode": 4
        }
      ]
    },
    {
      "name": "Object_4",
      "primitives": [
        {
          "attributes": {
            "NORMAL": 20,
            "POSITION": 19,
            "TANGENT": 21,
            "TEXCOORD_0": 22
          },
          "indices": 23,
          "material": 1,
          "mode": 4
        }
      ]
    }
  ],
  "nodes": [
    {
      "children": [
        1
      ],
      "matrix": [
        1.0,
        0.0,
        0.0,
        0.0,
        0.0,
        2.220446049250313e-16,
        -1.0,
        0.0,
        0.0,
        1.0,
        2.220446049250313e-16,
        0.0,
        0.0,
        0.0,
        0.0,
        1.0
      ],
      "name": "Sketchfab_model"
    },
    {
      "children": [
        2,
        3,
        4,
        5,
        6
      ],
      "name": "Sfera_nr_2_07_FIN.obj.cleaner.materialmerger.gles"
    },
    {
      "mesh": 0,
      "name": "Object_2"
    },
    {
      "mesh": 1,
      "name": "Object_3"
    },
    {
      "mesh": 2,
      "name": "Object_4"
    },
    {
      "mesh": 3,
      "name": "Object_5"
    },
    {
      "mesh": 4,
      "name": "Object_6"
    }
  ],
  "samplers": [
    {
      "magFilter": 9729,
      "minFilter": 9987,
      "wrapS": 10497,
      "wrapT": 10497
    }
  ],
  "scene": 0,
  "scenes": [
    {
      "name": "Sketchfab_Scene",
      "nodes": [
        0
      ]
    }
  ],
  "textures": [
    {
      "sampler": 0,
      "source": 0
    },
    {
      "sampler": 0,
      "source": 1
    },
    {
      "sampler": 0,
      "source": 2
    },
    {
      "sampler": 0,
      "source": 3
    }
  ]
}
