{
	"asset":{
		"generator":"Khronos glTF Blender I/O v4.2.57",
		"version":"2.0"
	},
	"extensionsUsed":[
		"KHR_materials_transmission"
	],
	"scene":0,
	"scenes":[
		{
			"name":"Scene",
			"nodes":[
				6
			]
		}
	],
	"nodes":[
		{
			"mesh":0,
			"name":"Object_2",
			"translation":[
				0,
				0,
				0.21768993139266968
			]
		},
		{
			"mesh":1,
			"name":"Object_3",
			"translation":[
				0,
				0,
				0.21768994629383087
			]
		},
		{
			"mesh":2,
			"name":"Object_4",
			"translation":[
				0,
				0,
				0.21768993139266968
			]
		},
		{
			"mesh":3,
			"name":"Object_5",
			"translation":[
				0,
				0,
				0.21768994629383087
			]
		},
		{
			"mesh":4,
			"name":"Object_6",
			"translation":[
				0,
				0,
				0.21768994629383087
			]
		},
		{
			"children":[
				0,
				1,
				2,
				3,
				4
			],
			"name":"Sfera_nr_2_07_FIN.obj.cleaner.materialmerger.gles"
		},
		{
			"children":[
				5
			],
			"name":"Sketchfab_model",
			"rotation":[
				-0.70710688829422,
				0,
				0,
				0.7071066498756409
			],
			"translation":[
				0,
				-0.21768994629383087,
				0
			]
		}
	],
	"materials":[
		{
			"alphaMode":"BLEND",
			"extensions":{
				"KHR_materials_transmission":{
					"transmissionFactor":0.9861295819282532
				}
			},
			"name":"glass",
			"pbrMetallicRoughness":{
				"baseColorFactor":[
					0,
					0,
					0,
					0.25
				],
				"metallicFactor":0.5124446153640747,
				"metallicRoughnessTexture":{
					"index":0
				},
				"roughnessFactor":0.0017100487602874637
			}
		},
		{
			"doubleSided":true,
			"name":"sfera",
			"normalTexture":{
				"index":1
			},
			"occlusionTexture":{
				"index":2
			},
			"pbrMetallicRoughness":{
				"baseColorTexture":{
					"index":3
				},
				"metallicRoughnessTexture":{
					"index":2
				},
				"roughnessFactor":0.8954954743385315
			}
		}
	],
	"meshes":[
		{
			"name":"Object_0",
			"primitives":[
				{
					"attributes":{
						"POSITION":0,
						"NORMAL":1,
						"TEXCOORD_0":2
					},
					"indices":3,
					"material":0
				}
			]
		},
		{
			"name":"Object_1",
			"primitives":[
				{
					"attributes":{
						"POSITION":4,
						"NORMAL":5,
						"TEXCOORD_0":6
					},
					"indices":7,
					"material":1
				}
			]
		},
		{
			"name":"Object_2",
			"primitives":[
				{
					"attributes":{
						"POSITION":8,
						"NORMAL":9,
						"TEXCOORD_0":10
					},
					"indices":11,
					"material":1
				}
			]
		},
		{
			"name":"Object_3",
			"primitives":[
				{
					"attributes":{
						"POSITION":12,
						"NORMAL":13,
						"TEXCOORD_0":14
					},
					"indices":15,
					"material":1
				}
			]
		},
		{
			"name":"Object_4",
			"primitives":[
				{
					"attributes":{
						"POSITION":16,
						"NORMAL":17,
						"TEXCOORD_0":18
					},
					"indices":19,
					"material":1
				}
			]
		}
	],
	"textures":[
		{
			"sampler":0,
			"source":0
		},
		{
			"sampler":0,
			"source":1
		},
		{
			"sampler":0,
			"source":2
		},
		{
			"sampler":0,
			"source":3
		}
	],
	"images":[
		{
			"mimeType":"image/png",
			"name":"glass_metallicRoughness",
			"uri":"glass_metallicRoughness.png"
		},
		{
			"mimeType":"image/png",
			"name":"sfera_normal",
			"uri":"sfera_normal.png"
		},
		{
			"mimeType":"image/png",
			"name":"sfera_metallicRoughness",
			"uri":"sfera_metallicRoughness.png"
		},
		{
			"mimeType":"image/jpeg",
			"name":"sfera_baseColor",
			"uri":"sfera_baseColor.jpg"
		}
	],
	"accessors":[
		{
			"bufferView":0,
			"componentType":5126,
			"count":4,
			"max":[
				0.054673001170158386,
				0.0576530285179615,
				-0.17895691096782684
			],
			"min":[
				-0.05238799750804901,
				-0.04940697178244591,
				-0.17895691096782684
			],
			"type":"VEC3"
		},
		{
			"bufferView":1,
			"componentType":5126,
			"count":4,
			"type":"VEC3"
		},
		{
			"bufferView":2,
			"componentType":5126,
			"count":4,
			"type":"VEC2"
		},
		{
			"bufferView":3,
			"componentType":5123,
			"count":6,
			"type":"SCALAR"
		},
		{
			"bufferView":4,
			"componentType":5126,
			"count":76819,
			"max":[
				0.21056200563907623,
				0.1513870358467102,
				0.2913030982017517
			],
			"min":[
				-0.17773599922657013,
				-0.14468497037887573,
				-0.2188769280910492
			],
			"type":"VEC3"
		},
		{
			"bufferView":5,
			"componentType":5126,
			"count":76819,
			"type":"VEC3"
		},
		{
			"bufferView":6,
			"componentType":5126,
			"count":76819,
			"type":"VEC2"
		},
		{
			"bufferView":7,
			"componentType":5125,
			"count":294540,
			"type":"SCALAR"
		},
		{
			"bufferView":8,
			"componentType":5126,
			"count":104535,
			"max":[
				0.21010099351406097,
				0.15337103605270386,
				0.29038506746292114
			],
			"min":[
				-0.19093400239944458,
				-0.15071697533130646,
				-0.21877790987491608
			],
			"type":"VEC3"
		},
		{
			"bufferView":9,
			"componentType":5126,
			"count":104535,
			"type":"VEC3"
		},
		{
			"bufferView":10,
			"componentType":5126,
			"count":104535,
			"type":"VEC2"
		},
		{
			"bufferView":11,
			"componentType":5125,
			"count":309279,
			"type":"SCALAR"
		},
		{
			"bufferView":12,
			"componentType":5126,
			"count":76779,
			"max":[
				0.21016700565814972,
				0.1530730277299881,
				0.2904060482978821
			],
			"min":[
				-0.20356200635433197,
				-0.14945097267627716,
				-0.2187989354133606
			],
			"type":"VEC3"
		},
		{
			"bufferView":13,
			"componentType":5126,
			"count":76779,
			"type":"VEC3"
		},
		{
			"bufferView":14,
			"componentType":5126,
			"count":76779,
			"type":"VEC2"
		},
		{
			"bufferView":15,
			"componentType":5125,
			"count":295581,
			"type":"SCALAR"
		},
		{
			"bufferView":16,
			"componentType":5126,
			"count":11940,
			"max":[
				0.11209399998188019,
				0.13957202434539795,
				-0.1725529283285141
			],
			"min":[
				-0.20345599949359894,
				-0.1391349732875824,
				-0.21754592657089233
			],
			"type":"VEC3"
		},
		{
			"bufferView":17,
			"componentType":5126,
			"count":11940,
			"type":"VEC3"
		},
		{
			"bufferView":18,
			"componentType":5126,
			"count":11940,
			"type":"VEC2"
		},
		{
			"bufferView":19,
			"componentType":5123,
			"count":27288,
			"type":"SCALAR"
		}
	],
	"bufferViews":[
		{
			"buffer":0,
			"byteLength":48,
			"byteOffset":0,
			"target":34962
		},
		{
			"buffer":0,
			"byteLength":48,
			"byteOffset":48,
			"target":34962
		},
		{
			"buffer":0,
			"byteLength":32,
			"byteOffset":96,
			"target":34962
		},
		{
			"buffer":0,
			"byteLength":12,
			"byteOffset":128,
			"target":34963
		},
		{
			"buffer":0,
			"byteLength":921828,
			"byteOffset":140,
			"target":34962
		},
		{
			"buffer":0,
			"byteLength":921828,
			"byteOffset":921968,
			"target":34962
		},
		{
			"buffer":0,
			"byteLength":614552,
			"byteOffset":1843796,
			"target":34962
		},
		{
			"buffer":0,
			"byteLength":1178160,
			"byteOffset":2458348,
			"target":34963
		},
		{
			"buffer":0,
			"byteLength":1254420,
			"byteOffset":3636508,
			"target":34962
		},
		{
			"buffer":0,
			"byteLength":1254420,
			"byteOffset":4890928,
			"target":34962
		},
		{
			"buffer":0,
			"byteLength":836280,
			"byteOffset":6145348,
			"target":34962
		},
		{
			"buffer":0,
			"byteLength":1237116,
			"byteOffset":6981628,
			"target":34963
		},
		{
			"buffer":0,
			"byteLength":921348,
			"byteOffset":8218744,
			"target":34962
		},
		{
			"buffer":0,
			"byteLength":921348,
			"byteOffset":9140092,
			"target":34962
		},
		{
			"buffer":0,
			"byteLength":614232,
			"byteOffset":10061440,
			"target":34962
		},
		{
			"buffer":0,
			"byteLength":1182324,
			"byteOffset":10675672,
			"target":34963
		},
		{
			"buffer":0,
			"byteLength":143280,
			"byteOffset":11857996,
			"target":34962
		},
		{
			"buffer":0,
			"byteLength":143280,
			"byteOffset":12001276,
			"target":34962
		},
		{
			"buffer":0,
			"byteLength":95520,
			"byteOffset":12144556,
			"target":34962
		},
		{
			"buffer":0,
			"byteLength":54576,
			"byteOffset":12240076,
			"target":34963
		}
	],
	"samplers":[
		{
			"magFilter":9729,
			"minFilter":9987
		}
	],
	"buffers":[
		{
			"byteLength":12294652,
			"uri":"scene.bin"
		}
	]
}
