{
  "accessors": [
    {
      "bufferView": 2,
      "componentType": 5126,
      "count": 272,
      "max": [
        -1.3882023096084595,
        0.5625138878822327,
        6.419086456298828
      ],
      "min": [
        -1.4089430570602417,
        -0.6991850137710571,
        5.165985584259033
      ],
      "type": "VEC3"
    },
    {
      "bufferView": 2,
      "byteOffset": 3264,
      "componentType": 5126,
      "count": 272,
      "max": [
        -0.9982054233551025,
        0.04072800278663635,
        0.059771958738565445
      ],
      "min": [
        -0.9999959468841553,
        -0.023243794217705727,
        -0.008208062499761581
      ],
      "type": "VEC3"
    },
    {
      "bufferView": 1,
      "componentType": 5126,
      "count": 272,
      "max": [
        0.9848999977111816,
        0.9980000257492065
      ],
      "min": [
        0.0020000000949949026,
        0.2304999828338623
      ],
      "type": "VEC2"
    },
    {
      "bufferView": 0,
      "componentType": 5125,
      "count": 1002,
      "type": "SCALAR"
    },
    {
      "bufferView": 2,
      "byteOffset": 6528,
      "componentType": 5126,
      "count": 9212,
      "max": [
        -1.1661843061447144,
        0.571592390537262,
        6.431718349456787
      ],
      "min": [
        -1.4089431762695313,
        -0.7082244753837585,
        5.155553817749023
      ],
      "type": "VEC3"
    },
    {
      "bufferView": 2,
      "byteOffset": 117072,
      "componentType": 5126,
      "count": 9212,
      "max": [
        0.9999999403953552,
        0.9974666237831116,
        0.9975528717041016
      ],
      "min": [
        -0.9999979734420776,
        -0.9975151419639587,
        -0.997392475605011
      ],
      "type": "VEC3"
    },
    {
      "bufferView": 1,
      "byteOffset": 2176,
      "componentType": 5126,
      "count": 9212,
      "max": [
        0.9412199854850769,
        0.9980000257492065
      ],
      "min": [
        0.029419999569654465,
        0.2289000153541565
      ],
      "type": "VEC2"
    },
    {
      "bufferView": 0,
      "byteOffset": 4008,
      "componentType": 5125,
      "count": 45792,
      "type": "SCALAR"
    },
    {
      "bufferView": 2,
      "byteOffset": 227616,
      "componentType": 5126,
      "count": 65532,
      "max": [
        1.0146993398666382,
        0.4055905342102051,
        6.242164134979248
      ],
      "min": [
        -1.1790696382522583,
        -0.5289921164512634,
        5.340944766998291
      ],
      "type": "VEC3"
    },
    {
      "bufferView": 2,
      "byteOffset": 1014000,
      "componentType": 5126,
      "count": 65532,
      "max": [
        1.0,
        0.9999664425849915,
        0.9999988079071045
      ],
      "min": [
        -0.9999852180480957,
        -1.0,
        -0.9999995827674866
      ],
      "type": "VEC3"
    },
    {
      "bufferView": 1,
      "byteOffset": 75872,
      "componentType": 5126,
      "count": 65532,
      "max": [
        0.9934999942779541,
        0.8766999840736389
      ],
      "min": [
        0.18289999663829803,
        0.005799999926239252
      ],
      "type": "VEC2"
    },
    {
      "bufferView": 0,
      "byteOffset": 187176,
      "componentType": 5125,
      "count": 361014,
      "type": "SCALAR"
    },
    {
      "bufferView": 2,
      "byteOffset": 1800384,
      "componentType": 5126,
      "count": 65532,
      "max": [
        0.885323166847229,
        0.42269665002822876,
        6.253001689910889
      ],
      "min": [
        -1.182491660118103,
        -0.5325013399124146,
        5.330258846282959
      ],
      "type": "VEC3"
    },
    {
      "bufferView": 2,
      "byteOffset": 2586768,
      "componentType": 5126,
      "count": 65532,
      "max": [
        0.9999672174453735,
        1.0,
        0.9999985098838806
      ],
      "min": [
        -1.0,
        -0.9999980330467224,
        -0.9999985694885254
      ],
      "type": "VEC3"
    },
    {
      "bufferView": 1,
      "byteOffset": 600128,
      "componentType": 5126,
      "count": 65532,
      "max": [
        0.9970999956130981,
        0.9980000257492065
      ],
      "min": [
        0.0020000000949949026,
        0.006800000090152025
      ],
      "type": "VEC2"
    },
    {
      "bufferView": 0,
      "byteOffset": 1631232,
      "componentType": 5125,
      "count": 340437,
      "type": "SCALAR"
    },
    {
      "bufferView": 2,
      "byteOffset": 3373152,
      "componentType": 5126,
      "count": 46693,
      "max": [
        0.8435479402542114,
        0.4353075623512268,
        6.010021209716797
      ],
      "min": [
        -0.6544508934020996,
        -0.5541016459465027,
        5.532485485076904
      ],
      "type": "VEC3"
    },
    {
      "bufferView": 2,
      "byteOffset": 3933468,
      "componentType": 5126,
      "count": 46693,
      "max": [
        0.9999672770500183,
        0.9999913573265076,
        0.9999949932098389
      ],
      "min": [
        -0.9999988675117493,
        -0.9999887347221375,
        -0.9999224543571472
      ],
      "type": "VEC3"
    },
    {
      "bufferView": 1,
      "byteOffset": 1124384,
      "componentType": 5126,
      "count": 46693,
      "max": [
        0.9912999868392944,
        0.9945999979972839
      ],
      "min": [
        0.0020000000949949026,
        0.007400000002235174
      ],
      "type": "VEC2"
    },
    {
      "bufferView": 0,
      "byteOffset": 2992980,
      "componentType": 5125,
      "count": 230721,
      "type": "SCALAR"
    },
    {
      "bufferView": 2,
      "byteOffset": 4493784,
      "componentType": 5126,
      "count": 28220,
      "max": [
        1.9301038980484009,
        0.13509945571422577,
        5.90570068359375
      ],
      "min": [
        0.9190509915351868,
        -0.2553209364414215,
        5.59498405456543
      ],
      "type": "VEC3"
    },
    {
      "bufferView": 2,
      "byteOffset": 4832424,
      "componentType": 5126,
      "count": 28220,
      "max": [
        0.9999993443489075,
        0.9999548196792603,
        0.9999985694885254
      ],
      "min": [
        -1.0,
        -0.9999983310699463,
        -0.999954879283905
      ],
      "type": "VEC3"
    },
    {
      "bufferView": 1,
      "byteOffset": 1497928,
      "componentType": 5126,
      "count": 28220,
      "max": [
        0.9513999819755554,
        0.968999981880188
      ],
      "min": [
        -0.1370999962091446,
        0.014399999752640724
      ],
      "type": "VEC2"
    },
    {
      "bufferView": 0,
      "byteOffset": 3915864,
      "componentType": 5125,
      "count": 160392,
      "type": "SCALAR"
    },
    {
      "bufferView": 2,
      "byteOffset": 5171064,
      "componentType": 5126,
      "count": 2803,
      "max": [
        0.6378735303878784,
        0.18215937912464142,
        5.6666460037231445
      ],
      "min": [
        0.25702011585235596,
        -0.2937048375606537,
        5.611738204956055
      ],
      "type": "VEC3"
    },
    {
      "bufferView": 2,
      "byteOffset": 5204700,
      "componentType": 5126,
      "count": 2803,
      "max": [
        0.9998730421066284,
        0.9972255825996399,
        0.9155107140541077
      ],
      "min": [
        -0.9998737573623657,
        -0.9999980330467224,
        -0.9999754428863525
      ],
      "type": "VEC3"
    },
    {
      "bufferView": 1,
      "byteOffset": 1723688,
      "componentType": 5126,
      "count": 2803,
      "max": [
        0.9926699995994568,
        0.8622199892997742
      ],
      "min": [
        0.949970006942749,
        0.2935199737548828
      ],
      "type": "VEC2"
    },
    {
      "bufferView": 0,
      "byteOffset": 4557432,
      "componentType": 5125,
      "count": 14175,
      "type": "SCALAR"
    },
    {
      "bufferView": 2,
      "byteOffset": 5238336,
      "componentType": 5126,
      "count": 9185,
      "max": [
        0.8610873222351074,
        0.17374804615974426,
        5.940404415130615
      ],
      "min": [
        0.3008994162082672,
        -0.2801643908023834,
        5.580479621887207
      ],
      "type": "VEC3"
    },
    {
      "bufferView": 2,
      "byteOffset": 5348556,
      "componentType": 5126,
      "count": 9185,
      "max": [
        0.9999856948852539,
        0.9999977946281433,
        0.9999889135360718
      ],
      "min": [
        -0.9999978542327881,
        -0.999932587146759,
        -0.9999867677688599
      ],
      "type": "VEC3"
    },
    {
      "bufferView": 1,
      "byteOffset": 1746112,
      "componentType": 5126,
      "count": 9185,
      "max": [
        0.9908999800682068,
        0.9955000281333923
      ],
      "min": [
        0.12250000238418579,
        0.020800000056624413
      ],
      "type": "VEC2"
    },
    {
      "bufferView": 0,
      "byteOffset": 4614132,
      "componentType": 5125,
      "count": 50025,
      "type": "SCALAR"
    },
    {
      "bufferView": 2,
      "byteOffset": 5458776,
      "componentType": 5126,
      "count": 65532,
      "max": [
        1.5927443504333496,
        0.15596267580986023,
        5.92428731918335
      ],
      "min": [
        0.8065884709358215,
        -0.27545133233070374,
        5.578158855438232
      ],
      "type": "VEC3"
    },
    {
      "bufferView": 2,
      "byteOffset": 6245160,
      "componentType": 5126,
      "count": 65532,
      "max": [
        1.0,
        0.999998152256012,
        1.0
      ],
      "min": [
        -1.0,
        -0.9999951124191284,
        -1.0
      ],
      "type": "VEC3"
    },
    {
      "bufferView": 1,
      "byteOffset": 1819592,
      "componentType": 5126,
      "count": 65532,
      "max": [
        0.9901999831199646,
        0.9948999881744385
      ],
      "min": [
        0.010250000283122063,
        0.02199999988079071
      ],
      "type": "VEC2"
    },
    {
      "bufferView": 0,
      "byteOffset": 4814232,
      "componentType": 5125,
      "count": 363009,
      "type": "SCALAR"
    },
    {
      "bufferView": 2,
      "byteOffset": 7031544,
      "componentType": 5126,
      "count": 27455,
      "max": [
        1.5929700136184692,
        0.1293480545282364,
        5.857030391693115
      ],
      "min": [
        0.9255995154380798,
        -0.2108733057975769,
        5.580265045166016
      ],
      "type": "VEC3"
    },
    {
      "bufferView": 2,
      "byteOffset": 7361004,
      "componentType": 5126,
      "count": 27455,
      "max": [
        0.999995768070221,
        0.9998786449432373,
        0.9999701380729675
      ],
      "min": [
        -1.0,
        -0.9998446702957153,
        -0.9999912977218628
      ],
      "type": "VEC3"
    },
    {
      "bufferView": 1,
      "byteOffset": 2343848,
      "componentType": 5126,
      "count": 27455,
      "max": [
        0.9559999704360962,
        0.6428999900817871
      ],
      "min": [
        0.5453000068664551,
        0.007899999618530273
      ],
      "type": "VEC2"
    },
    {
      "bufferView": 0,
      "byteOffset": 6266268,
      "componentType": 5125,
      "count": 155763,
      "type": "SCALAR"
    },
    {
      "bufferView": 2,
      "byteOffset": 7690464,
      "componentType": 5126,
      "count": 7652,
      "max": [
        0.9272075891494751,
        0.36986494064331055,
        5.950506210327148
      ],
      "min": [
        0.08199700713157654,
        -0.48957085609436035,
        5.561905384063721
      ],
      "type": "VEC3"
    },
    {
      "bufferView": 2,
      "byteOffset": 7782288,
      "componentType": 5126,
      "count": 7652,
      "max": [
        0.9995318651199341,
        0.9995129704475403,
        1.0
      ],
      "min": [
        -0.9997947216033936,
        -0.998924732208252,
        -0.999203622341156
      ],
      "type": "VEC3"
    },
    {
      "bufferView": 1,
      "byteOffset": 2563488,
      "componentType": 5126,
      "count": 7652,
      "max": [
        0.8367000222206116,
        0.9980000257492065
      ],
      "min": [
        0.0020000000949949026,
        0.007400000002235174
      ],
      "type": "VEC2"
    },
    {
      "bufferView": 0,
      "byteOffset": 6889320,
      "componentType": 5125,
      "count": 44310,
      "type": "SCALAR"
    }
  ],
  "asset": {
    "extras": {
      "author": "Virtual Museums of Małopolska (https://sketchfab.com/WirtualneMuzeaMalopolski)",
      "license": "CC0-1.0 (http://creativecommons.org/publicdomain/zero/1.0/)",
      "source": "https://sketchfab.com/3d-models/astronomical-monstrance-clock-ec83c5935b7341788775f856f268ac61",
      "title": "Astronomical monstrance clock"
    },
    "generator": "Sketchfab-12.68.0",
    "version": "2.0"
  },
  "bufferViews": [
    {
      "buffer": 0,
      "byteLength": 7066560,
      "name": "floatBufferViews",
      "target": 34963
    },
    {
      "buffer": 0,
      "byteLength": 2624704,
      "byteOffset": 7066560,
      "byteStride": 8,
      "name": "floatBufferViews",
      "target": 34962
    },
    {
      "buffer": 0,
      "byteLength": 7874112,
      "byteOffset": 9691264,
      "byteStride": 12,
      "name": "floatBufferViews",
      "target": 34962
    }
  ],
  "buffers": [
    {
      "byteLength": 17565376,
      "uri": "scene.bin"
    }
  ],
  "images": [
    {
      "uri": "textures/02_-_Default_baseColor.jpeg"
    },
    {
      "uri": "textures/02_-_Default_metallicRoughness.png"
    }
  ],
  "materials": [
    {
      "doubleSided": true,
      "name": "black",
      "pbrMetallicRoughness": {
        "baseColorFactor": [
          0.0,
          0.0,
          0.0,
          1.0
        ],
        "metallicFactor": 0.0
      }
    },
    {
      "doubleSided": true,
      "name": "02_-_Default",
      "occlusionTexture": {
        "index": 1,
        "strength": 0.98
      },
      "pbrMetallicRoughness": {
        "baseColorTexture": {
          "index": 0
        },
        "metallicFactor": 0.98,
        "metallicRoughnessTexture": {
          "index": 1
        },
        "roughnessFactor": 0.040000000000000036
      }
    }
  ],
  "meshes": [
    {
      "name": "1282_Zegar_03_bottom_black_0",
      "primitives": [
        {
          "attributes": {
            "NORMAL": 1,
            "POSITION": 0,
            "TEXCOORD_0": 2
          },
          "indices": 3,
          "material": 0,
          "mode": 4
        }
      ]
    },
    {
      "name": "1282_Zegar_01_02 - Default_0",
      "primitives": [
        {
          "attributes": {
            "NORMAL": 5,
            "POSITION": 4,
            "TEXCOORD_0": 6
          },
          "indices": 7,
          "material": 1,
          "mode": 4
        }
      ]
    },
    {
      "name": "1282_Zegar_07_02 - Default_0",
      "primitives": [
        {
          "attributes": {
            "NORMAL": 9,
            "POSITION": 8,
            "TEXCOORD_0": 10
          },
          "indices": 11,
          "material": 1,
          "mode": 4
        }
      ]
    },
    {
      "name": "1282_Zegar_07_02 - Default_0",
      "primitives": [
        {
          "attributes": {
            "NORMAL": 13,
            "POSITION": 12,
            "TEXCOORD_0": 14
          },
          "indices": 15,
          "material": 1,
          "mode": 4
        }
      ]
    },
    {
      "name": "1282_Zegar_07_02 - Default_0",
      "primitives": [
        {
          "attributes": {
            "NORMAL": 17,
            "POSITION": 16,
            "TEXCOORD_0": 18
          },
          "indices": 19,
          "material": 1,
          "mode": 4
        }
      ]
    },
    {
      "name": "1282_Zegar_02_02 - Default_0",
      "primitives": [
        {
          "attributes": {
            "NORMAL": 21,
            "POSITION": 20,
            "TEXCOORD_0": 22
          },
          "indices": 23,
          "material": 1,
          "mode": 4
        }
      ]
    },
    {
      "name": "1282_Zegar_00_02 - Default_0",
      "primitives": [
        {
          "attributes": {
            "NORMAL": 25,
            "POSITION": 24,
            "TEXCOORD_0": 26
          },
          "indices": 27,
          "material": 1,
          "mode": 4
        }
      ]
    },
    {
      "name": "1282_Zegar_04_02 - Default_0",
      "primitives": [
        {
          "attributes": {
            "NORMAL": 29,
            "POSITION": 28,
            "TEXCOORD_0": 30
          },
          "indices": 31,
          "material": 1,
          "mode": 4
        }
      ]
    },
    {
      "name": "1282_Zegar_05_02 - Default_0",
      "primitives": [
        {
          "attributes": {
            "NORMAL": 33,
            "POSITION": 32,
            "TEXCOORD_0": 34
          },
          "indices": 35,
          "material": 1,
          "mode": 4
        }
      ]
    },
    {
      "name": "1282_Zegar_05_02 - Default_0",
      "primitives": [
        {
          "attributes": {
            "NORMAL": 37,
            "POSITION": 36,
            "TEXCOORD_0": 38
          },
          "indices": 39,
          "material": 1,
          "mode": 4
        }
      ]
    },
    {
      "name": "1282_Zegar_06_02 - Default_0",
      "primitives": [
        {
          "attributes": {
            "NORMAL": 41,
            "POSITION": 40,
            "TEXCOORD_0": 42
          },
          "indices": 43,
          "material": 1,
          "mode": 4
        }
      ]
    }
  ],
  "nodes": [
    {
      "children": [
        1
      ],
      "matrix": [
        -1.0,
        2.220446049250313e-16,
        4.930380657631324e-32,
        0.0,
        0.0,
        2.220446049250313e-16,
        -1.0,
        0.0,
        -2.220446049250313e-16,
        -1.0,
        -2.220446049250313e-16,
        0.0,
        0.04509277269244194,
        -8.183660507202148,
        -1.8171376641622824e-15,
        1.0
      ],
      "name": "Sketchfab_model"
    },
    {
      "children": [
        2
      ],
      "matrix": [
        1.0,
        0.0,
        0.0,
        0.0,
        0.0,
        -1.0,
        0.0,
        0.0,
        0.0,
        0.0,
        -1.0,
        0.0,
        0.0,
        0.0,
        0.0,
        1.0
      ],
      "name": "2767fdceb16c4036ab582cc3f8e405a6.fbx"
    },
    {
      "children": [
        3,
        5,
        7,
        11,
        13,
        15,
        17,
        20
      ],
      "name": "RootNode"
    },
    {
      "children": [
        4
      ],
      "matrix": [
        0.0,
        1.5636943949154814e-15,
        28.16901397705078,
        0.0,
        -28.048830002315903,
        -2.599323746759062,
        1.5636943949154814e-15,
        0.0,
        2.599323746759059,
        -28.048830002315903,
        0.0,
        0.0,
        -16.794998168945313,
        161.54917907714844,
        -3.038766860961914,
        1.0
      ],
      "name": "1282_Zegar_03_bottom"
    },
    {
      "mesh": 0,
      "name": "1282_Zegar_03_bottom_black_0"
    },
    {
      "children": [
        6
      ],
      "matrix": [
        0.0,
        1.5636941831572446e-15,
        28.169010162353516,
        0.0,
        -28.048825755189664,
        -2.5993282366381982,
        1.5636941831572446e-15,
        0.0,
        2.599328236638195,
        -28.048825755189664,
        0.0,
        0.0,
        -16.953155517578125,
        161.5344696044922,
        -3.2486162185668945,
        1.0
      ],
      "name": "1282_Zegar_01"
    },
    {
      "mesh": 1,
      "name": "1282_Zegar_01_02 - Default_0"
    },
    {
      "children": [
        8,
        9,
        10
      ],
      "matrix": [
        6.254777156145452e-15,
        0.0,
        28.169012069702145,
        0.0,
        -28.048827648734882,
        -2.5993284737775846,
        4.691082867109089e-15,
        0.0,
        2.5993284737775877,
        -28.04882764873488,
        0.0,
        0.0,
        -16.953155517578125,
        161.5345001220703,
        -3.2483577728271484,
        1.0
      ],
      "name": "1282_Zegar_07"
    },
    {
      "mesh": 2,
      "name": "1282_Zegar_07_02 - Default_0"
    },
    {
      "mesh": 3,
      "name": "1282_Zegar_07_02 - Default_0"
    },
    {
      "mesh": 4,
      "name": "1282_Zegar_07_02 - Default_0"
    },
    {
      "children": [
        12
      ],
      "matrix": [
        6.254777156145452e-15,
        0.0,
        28.169012069702145,
        0.0,
        -28.048827648734882,
        -2.5993284737775846,
        4.691082867109089e-15,
        0.0,
        2.5993284737775877,
        -28.04882764873488,
        0.0,
        0.0,
        -16.953155517578125,
        161.5345001220703,
        -3.2483577728271484,
        1.0
      ],
      "name": "1282_Zegar_02"
    },
    {
      "mesh": 5,
      "name": "1282_Zegar_02_02 - Default_0"
    },
    {
      "children": [
        14
      ],
      "matrix": [
        6.254777156145452e-15,
        0.0,
        28.169012069702145,
        0.0,
        -28.048827648734882,
        -2.5993284737775846,
        4.691082867109089e-15,
        0.0,
        2.5993284737775877,
        -28.04882764873488,
        0.0,
        0.0,
        -16.953155517578125,
        161.5345001220703,
        -3.2483577728271484,
        1.0
      ],
      "name": "1282_Zegar_00"
    },
    {
      "mesh": 6,
      "name": "1282_Zegar_00_02 - Default_0"
    },
    {
      "children": [
        16
      ],
      "matrix": [
        6.254777156145452e-15,
        0.0,
        28.169012069702145,
        0.0,
        -28.048827648734882,
        -2.5993284737775846,
        4.691082867109089e-15,
        0.0,
        2.5993284737775877,
        -28.04882764873488,
        0.0,
        0.0,
        -16.953155517578125,
        161.5345001220703,
        -3.2483577728271484,
        1.0
      ],
      "name": "1282_Zegar_04"
    },
    {
      "mesh": 7,
      "name": "1282_Zegar_04_02 - Default_0"
    },
    {
      "children": [
        18,
        19
      ],
      "matrix": [
        6.254777156145452e-15,
        0.0,
        28.169012069702145,
        0.0,
        -28.048827648734882,
        -2.5993284737775846,
        4.691082867109089e-15,
        0.0,
        2.5993284737775877,
        -28.04882764873488,
        0.0,
        0.0,
        -16.953155517578125,
        161.5345001220703,
        -3.2483577728271484,
        1.0
      ],
      "name": "1282_Zegar_05"
    },
    {
      "mesh": 8,
      "name": "1282_Zegar_05_02 - Default_0"
    },
    {
      "mesh": 9,
      "name": "1282_Zegar_05_02 - Default_0"
    },
    {
      "children": [
        21
      ],
      "matrix": [
        6.254777156145452e-15,
        0.0,
        28.169012069702145,
        0.0,
        -28.048827648734882,
        -2.5993284737775846,
        4.691082867109089e-15,
        0.0,
        2.5993284737775877,
        -28.04882764873488,
        0.0,
        0.0,
        -16.953155517578125,
        161.5345001220703,
        -3.2483577728271484,
        1.0
      ],
      "name": "1282_Zegar_06"
    },
    {
      "mesh": 10,
      "name": "1282_Zegar_06_02 - Default_0"
    }
  ],
  "samplers": [
    {
      "magFilter": 9729,
      "minFilter": 9987,
      "wrapS": 10497,
      "wrapT": 10497
    }
  ],
  "scene": 0,
  "scenes": [
    {
      "name": "Sketchfab_Scene",
      "nodes": [
        0
      ]
    }
  ],
  "textures": [
    {
      "sampler": 0,
      "source": 0
    },
    {
      "sampler": 0,
      "source": 1
    }
  ]
}
