{
  "accessors": [
    {
      "bufferView": 3,
      "componentType": 5126,
      "count": 65532,
      "max": [
        337.9380798339844,
        659.059814453125,
        257.759521484375
      ],
      "min": [
        -688.286865234375,
        138.75961303710938,
        -257.759521484375
      ],
      "type": "VEC3"
    },
    {
      "bufferView": 3,
      "byteOffset": 786384,
      "componentType": 5126,
      "count": 65532,
      "max": [
        1.0,
        1.0,
        1.0
      ],
      "min": [
        -1.0,
        -1.0,
        -1.0
      ],
      "type": "VEC3"
    },
    {
      "bufferView": 4,
      "componentType": 5126,
      "count": 65532,
      "max": [
        1.0,
        1.0,
        1.0,
        1.0
      ],
      "min": [
        -1.0,
        -1.0,
        -1.0,
        -1.0
      ],
      "type": "VEC4"
    },
    {
      "bufferView": 2,
      "componentType": 5126,
      "count": 65532,
      "max": [
        0.9989347457885742,
        1.0
      ],
      "min": [
        -0.0,
        0.004395008087158203
      ],
      "type": "VEC2"
    },
    {
      "bufferView": 2,
      "byteOffset": 524256,
      "componentType": 5126,
      "count": 65532,
      "max": [
        0.9989347457885742,
        1.0
      ],
      "min": [
        -0.0,
        0.004395008087158203
      ],
      "type": "VEC2"
    },
    {
      "bufferView": 2,
      "byteOffset": 1048512,
      "componentType": 5126,
      "count": 65532,
      "max": [
        0.9989347457885742,
        1.0
      ],
      "min": [
        -0.0,
        0.004395008087158203
      ],
      "type": "VEC2"
    },
    {
      "bufferView": 2,
      "byteOffset": 1572768,
      "componentType": 5126,
      "count": 65532,
      "max": [
        0.9989347457885742,
        1.0
      ],
      "min": [
        -0.0,
        0.004395008087158203
      ],
      "type": "VEC2"
    },
    {
      "bufferView": 2,
      "byteOffset": 2097024,
      "componentType": 5126,
      "count": 65532,
      "max": [
        0.9989347457885742,
        1.0
      ],
      "min": [
        -0.0,
        0.004395008087158203
      ],
      "type": "VEC2"
    },
    {
      "bufferView": 1,
      "componentType": 5125,
      "count": 194067,
      "type": "SCALAR"
    },
    {
      "bufferView": 3,
      "byteOffset": 1572768,
      "componentType": 5126,
      "count": 9271,
      "max": [
        270.45330810546875,
        550.018798828125,
        151.10623168945313
      ],
      "min": [
        91.29657745361328,
        247.80038452148438,
        -151.11224365234375
      ],
      "type": "VEC3"
    },
    {
      "bufferView": 3,
      "byteOffset": 1684020,
      "componentType": 5126,
      "count": 9271,
      "max": [
        0.999998152256012,
        1.0,
        1.0
      ],
      "min": [
        -0.9999993443489075,
        -1.0,
        -1.0
      ],
      "type": "VEC3"
    },
    {
      "bufferView": 4,
      "byteOffset": 1048512,
      "componentType": 5126,
      "count": 9271,
      "max": [
        1.0,
        1.0,
        1.0,
        1.0
      ],
      "min": [
        -0.9999958872795105,
        -1.0,
        -1.0,
        -1.0
      ],
      "type": "VEC4"
    },
    {
      "bufferView": 2,
      "byteOffset": 2621280,
      "componentType": 5126,
      "count": 9271,
      "max": [
        0.9960747361183167,
        1.0
      ],
      "min": [
        -0.0,
        0.007456541061401367
      ],
      "type": "VEC2"
    },
    {
      "bufferView": 2,
      "byteOffset": 2695448,
      "componentType": 5126,
      "count": 9271,
      "max": [
        0.9960747361183167,
        1.0
      ],
      "min": [
        -0.0,
        0.007456541061401367
      ],
      "type": "VEC2"
    },
    {
      "bufferView": 2,
      "byteOffset": 2769616,
      "componentType": 5126,
      "count": 9271,
      "max": [
        0.9960747361183167,
        1.0
      ],
      "min": [
        -0.0,
        0.007456541061401367
      ],
      "type": "VEC2"
    },
    {
      "bufferView": 2,
      "byteOffset": 2843784,
      "componentType": 5126,
      "count": 9271,
      "max": [
        0.9960747361183167,
        1.0
      ],
      "min": [
        -0.0,
        0.007456541061401367
      ],
      "type": "VEC2"
    },
    {
      "bufferView": 2,
      "byteOffset": 2917952,
      "componentType": 5126,
      "count": 9271,
      "max": [
        0.9960747361183167,
        1.0
      ],
      "min": [
        -0.0,
        0.007456541061401367
      ],
      "type": "VEC2"
    },
    {
      "bufferView": 1,
      "byteOffset": 776268,
      "componentType": 5125,
      "count": 22215,
      "type": "SCALAR"
    },
    {
      "bufferView": 3,
      "byteOffset": 1795272,
      "componentType": 5126,
      "count": 23559,
      "max": [
        481.79559326171875,
        773.0531616210938,
        1.8712005615234375
      ],
      "min": [
        -778.6105346679688,
        24.716552734375,
        -374.9604187011719
      ],
      "type": "VEC3"
    },
    {
      "bufferView": 3,
      "byteOffset": 2077980,
      "componentType": 5126,
      "count": 23559,
      "max": [
        1.0,
        1.0,
        1.0
      ],
      "min": [
        -1.0,
        -1.0,
        -1.0
      ],
      "type": "VEC3"
    },
    {
      "bufferView": 4,
      "byteOffset": 1196848,
      "componentType": 5126,
      "count": 23559,
      "max": [
        1.0,
        1.0,
        1.0,
        1.0
      ],
      "min": [
        -1.0,
        -1.0,
        -1.0,
        -1.0
      ],
      "type": "VEC4"
    },
    {
      "bufferView": 2,
      "byteOffset": 2992120,
      "componentType": 5126,
      "count": 23559,
      "max": [
        0.9978969097137451,
        0.9966596364974976
      ],
      "min": [
        0.0061001903377473354,
        0.0005702972412109375
      ],
      "type": "VEC2"
    },
    {
      "bufferView": 1,
      "byteOffset": 865128,
      "componentType": 5125,
      "count": 87846,
      "type": "SCALAR"
    },
    {
      "bufferView": 3,
      "byteOffset": 2360688,
      "componentType": 5126,
      "count": 7365,
      "max": [
        617.8964233398438,
        545.6310424804688,
        146.71954345703125
      ],
      "min": [
        -214.18589782714844,
        252.1883544921875,
        -146.719482421875
      ],
      "type": "VEC3"
    },
    {
      "bufferView": 3,
      "byteOffset": 2449068,
      "componentType": 5126,
      "count": 7365,
      "max": [
        1.0,
        1.0,
        1.0
      ],
      "min": [
        -1.0,
        -1.0,
        -1.0
      ],
      "type": "VEC3"
    },
    {
      "bufferView": 4,
      "byteOffset": 1573792,
      "componentType": 5126,
      "count": 7365,
      "max": [
        1.0,
        1.0,
        1.0,
        1.0
      ],
      "min": [
        -1.0,
        -1.0,
        -1.0,
        1.0
      ],
      "type": "VEC4"
    },
    {
      "bufferView": 2,
      "byteOffset": 3180592,
      "componentType": 5126,
      "count": 7365,
      "max": [
        0.996783435344696,
        1.0000001192092896
      ],
      "min": [
        -5.960464477539063e-08,
        0.0024656057357788086
      ],
      "type": "VEC2"
    },
    {
      "bufferView": 1,
      "byteOffset": 1216512,
      "componentType": 5125,
      "count": 20370,
      "type": "SCALAR"
    },
    {
      "bufferView": 5,
      "componentType": 5126,
      "count": 4,
      "max": [
        1.0,
        0.0,
        0.0,
        0.0,
        0.0,
        1.0,
        0.0,
        0.0,
        0.0,
        0.0,
        1.0,
        0.0,
        687.867431640625,
        0.0,
        0.0,
        1.0
      ],
      "min": [
        1.0,
        0.0,
        0.0,
        0.0,
        0.0,
        1.0,
        0.0,
        0.0,
        0.0,
        0.0,
        1.0,
        0.0,
        0.0,
        -398.9096984863281,
        0.0,
        1.0
      ],
      "type": "MAT4"
    },
    {
      "bufferView": 0,
      "componentType": 5123,
      "count": 65532,
      "type": "VEC4"
    },
    {
      "bufferView": 4,
      "byteOffset": 1691632,
      "componentType": 5126,
      "count": 65532,
      "max": [
        1.0,
        0.0,
        0.0,
        0.0
      ],
      "min": [
        1.0,
        0.0,
        0.0,
        0.0
      ],
      "type": "VEC4"
    },
    {
      "bufferView": 0,
      "byteOffset": 524256,
      "componentType": 5123,
      "count": 9271,
      "type": "VEC4"
    },
    {
      "bufferView": 4,
      "byteOffset": 2740144,
      "componentType": 5126,
      "count": 9271,
      "max": [
        1.0,
        0.0,
        0.0,
        0.0
      ],
      "min": [
        1.0,
        0.0,
        0.0,
        0.0
      ],
      "type": "VEC4"
    },
    {
      "bufferView": 0,
      "byteOffset": 598424,
      "componentType": 5123,
      "count": 23559,
      "type": "VEC4"
    },
    {
      "bufferView": 4,
      "byteOffset": 2888480,
      "componentType": 5126,
      "count": 23559,
      "max": [
        1.0,
        0.0,
        0.0,
        0.0
      ],
      "min": [
        1.0,
        0.0,
        0.0,
        0.0
      ],
      "type": "VEC4"
    },
    {
      "bufferView": 0,
      "byteOffset": 786896,
      "componentType": 5123,
      "count": 7365,
      "type": "VEC4"
    },
    {
      "bufferView": 4,
      "byteOffset": 3265424,
      "componentType": 5126,
      "count": 7365,
      "max": [
        1.0,
        0.0,
        0.0,
        0.0
      ],
      "min": [
        1.0,
        0.0,
        0.0,
        0.0
      ],
      "type": "VEC4"
    },
    {
      "bufferView": 6,
      "componentType": 5126,
      "count": 50,
      "max": [
        1.6333333253860474
      ],
      "min": [
        0.0
      ],
      "type": "SCALAR"
    },
    {
      "bufferView": 7,
      "componentType": 5126,
      "count": 50,
      "max": [
        0.9994862675666809,
        0.0,
        0.0,
        1.0
      ],
      "min": [
        -0.8551427125930786,
        0.0,
        0.0,
        -0.46253839135169983
      ],
      "type": "VEC4"
    },
    {
      "bufferView": 6,
      "byteOffset": 200,
      "componentType": 5126,
      "count": 700,
      "max": [
        23.299999237060547
      ],
      "min": [
        0.0
      ],
      "type": "SCALAR"
    },
    {
      "bufferView": 7,
      "byteOffset": 800,
      "componentType": 5126,
      "count": 700,
      "max": [
        0.9999809861183167,
        0.0,
        0.0,
        1.0
      ],
      "min": [
        -0.857816219329834,
        0.0,
        0.0,
        -0.4999188184738159
      ],
      "type": "VEC4"
    }
  ],
  "animations": [
    {
      "channels": [
        {
          "sampler": 0,
          "target": {
            "node": 9,
            "path": "rotation"
          }
        }
      ],
      "name": "idle",
      "samplers": [
        {
          "input": 37,
          "interpolation": "LINEAR",
          "output": 38
        }
      ]
    },
    {
      "channels": [
        {
          "sampler": 0,
          "target": {
            "node": 9,
            "path": "rotation"
          }
        }
      ],
      "name": "start_up_down",
      "samplers": [
        {
          "input": 39,
          "interpolation": "LINEAR",
          "output": 40
        }
      ]
    }
  ],
  "asset": {
    "extras": {
      "author": "OTMFYou (https://sketchfab.com/OTMFYou)",
      "license": "CC-BY-4.0 (http://creativecommons.org/licenses/by/4.0/)",
      "source": "https://sketchfab.com/3d-models/rotating-jet-engine-fe662696ee4a4ddb969bbf25252a17e7",
      "title": "Rotating Jet Engine"
    },
    "generator": "Sketchfab-13.91.0",
    "version": "2.0"
  },
  "bufferViews": [
    {
      "buffer": 0,
      "byteLength": 845816,
      "byteStride": 8,
      "name": "shortBufferViews",
      "target": 34962
    },
    {
      "buffer": 0,
      "byteLength": 1297992,
      "byteOffset": 845816,
      "name": "floatBufferViews",
      "target": 34963
    },
    {
      "buffer": 0,
      "byteLength": 3239512,
      "byteOffset": 2143808,
      "byteStride": 8,
      "name": "floatBufferViews",
      "target": 34962
    },
    {
      "buffer": 0,
      "byteLength": 2537448,
      "byteOffset": 5383320,
      "byteStride": 12,
      "name": "floatBufferViews",
      "target": 34962
    },
    {
      "buffer": 0,
      "byteLength": 3383264,
      "byteOffset": 7920768,
      "byteStride": 16,
      "name": "floatBufferViews",
      "target": 34962
    },
    {
      "buffer": 0,
      "byteLength": 256,
      "byteOffset": 11304032,
      "name": "floatBufferViews"
    },
    {
      "buffer": 0,
      "byteLength": 3000,
      "byteOffset": 11304288,
      "name": "floatBufferViews"
    },
    {
      "buffer": 0,
      "byteLength": 12000,
      "byteOffset": 11307288,
      "byteStride": 16,
      "name": "floatBufferViews"
    }
  ],
  "buffers": [
    {
      "byteLength": 11319288,
      "uri": "scene.bin"
    }
  ],
  "extensionsRequired": [
    "KHR_materials_pbrSpecularGlossiness"
  ],
  "extensionsUsed": [
    "KHR_materials_pbrSpecularGlossiness"
  ],
  "images": [
    {
      "uri": "textures/material_0_diffuse.png"
    },
    {
      "uri": "textures/material_0_specularGlossiness.png"
    },
    {
      "uri": "textures/material_0_normal.png"
    },
    {
      "uri": "textures/material_0_occlusion.png"
    },
    {
      "uri": "textures/material_1_diffuse.png"
    },
    {
      "uri": "textures/material_1_specularGlossiness.png"
    },
    {
      "uri": "textures/material_1_normal.png"
    },
    {
      "uri": "textures/material_1_occlusion.png"
    }
  ],
  "materials": [
    {
      "doubleSided": true,
      "extensions": {
        "KHR_materials_pbrSpecularGlossiness": {
          "diffuseFactor": [
            1.0,
            1.0,
            1.0,
            1.0
          ],
          "diffuseTexture": {
            "index": 0
          },
          "glossinessFactor": 1.0,
          "specularFactor": [
            1.0,
            1.0,
            1.0
          ],
          "specularGlossinessTexture": {
            "index": 1,
            "texCoord": 1
          }
        }
      },
      "name": "material_0",
      "normalTexture": {
        "index": 2,
        "texCoord": 2
      },
      "occlusionTexture": {
        "index": 3,
        "texCoord": 3
      }
    },
    {
      "doubleSided": true,
      "extensions": {
        "KHR_materials_pbrSpecularGlossiness": {
          "diffuseFactor": [
            1.0,
            1.0,
            1.0,
            1.0
          ],
          "diffuseTexture": {
            "index": 4
          },
          "glossinessFactor": 1.0,
          "specularFactor": [
            1.0,
            1.0,
            1.0
          ],
          "specularGlossinessTexture": {
            "index": 5
          }
        }
      },
      "name": "material_1",
      "normalTexture": {
        "index": 6
      },
      "occlusionTexture": {
        "index": 7
      }
    },
    {
      "doubleSided": true,
      "extensions": {
        "KHR_materials_pbrSpecularGlossiness": {
          "diffuseFactor": [
            1.0,
            1.0,
            1.0,
            1.0
          ],
          "diffuseTexture": {
            "index": 0
          },
          "glossinessFactor": 1.0,
          "specularFactor": [
            1.0,
            1.0,
            1.0
          ],
          "specularGlossinessTexture": {
            "index": 1
          }
        }
      },
      "name": "material_2",
      "normalTexture": {
        "index": 2
      },
      "occlusionTexture": {
        "index": 3
      }
    }
  ],
  "meshes": [
    {
      "name": "Object_0",
      "primitives": [
        {
          "attributes": {
            "JOINTS_0": 29,
            "NORMAL": 1,
            "POSITION": 0,
            "TANGENT": 2,
            "TEXCOORD_0": 3,
            "TEXCOORD_1": 4,
            "TEXCOORD_2": 5,
            "TEXCOORD_3": 6,
            "TEXCOORD_4": 7,
            "WEIGHTS_0": 30
          },
          "indices": 8,
          "material": 0,
          "mode": 4
        }
      ]
    },
    {
      "name": "Object_1",
      "primitives": [
        {
          "attributes": {
            "JOINTS_0": 31,
            "NORMAL": 10,
            "POSITION": 9,
            "TANGENT": 11,
            "TEXCOORD_0": 12,
            "TEXCOORD_1": 13,
            "TEXCOORD_2": 14,
            "TEXCOORD_3": 15,
            "TEXCOORD_4": 16,
            "WEIGHTS_0": 32
          },
          "indices": 17,
          "material": 0,
          "mode": 4
        }
      ]
    },
    {
      "name": "Object_2",
      "primitives": [
        {
          "attributes": {
            "JOINTS_0": 33,
            "NORMAL": 19,
            "POSITION": 18,
            "TANGENT": 20,
            "TEXCOORD_0": 21,
            "TEXCOORD_1": 21,
            "TEXCOORD_2": 21,
            "TEXCOORD_3": 21,
            "TEXCOORD_4": 21,
            "WEIGHTS_0": 34
          },
          "indices": 22,
          "material": 1,
          "mode": 4
        }
      ]
    },
    {
      "name": "Object_3",
      "primitives": [
        {
          "attributes": {
            "JOINTS_0": 35,
            "NORMAL": 24,
            "POSITION": 23,
            "TANGENT": 25,
            "TEXCOORD_0": 26,
            "TEXCOORD_1": 26,
            "TEXCOORD_2": 26,
            "TEXCOORD_3": 26,
            "TEXCOORD_4": 26,
            "WEIGHTS_0": 36
          },
          "indices": 27,
          "material": 2,
          "mode": 4
        }
      ]
    }
  ],
  "nodes": [
    {
      "children": [
        1
      ],
      "matrix": [
        1.0,
        0.0,
        0.0,
        0.0,
        0.0,
        2.220446049250313e-16,
        -1.0,
        0.0,
        0.0,
        1.0,
        2.220446049250313e-16,
        0.0,
        0.0,
        0.0,
        0.0,
        1.0
      ],
      "name": "Sketchfab_model"
    },
    {
      "children": [
        2
      ],
      "name": "root"
    },
    {
      "children": [
        3
      ],
      "matrix": [
        1.0,
        0.0,
        0.0,
        0.0,
        0.0,
        2.220446049250313e-16,
        1.0,
        0.0,
        0.0,
        -1.0,
        2.220446049250313e-16,
        0.0,
        0.0,
        0.0,
        0.0,
        1.0
      ],
      "name": "GLTF_SceneRootNode"
    },
    {
      "children": [
        4
      ],
      "matrix": [
        0.009999999776482582,
        0.0,
        0.0,
        0.0,
        0.0,
        0.009999999776482582,
        0.0,
        0.0,
        0.0,
        0.0,
        0.009999999776482582,
        0.0,
        0.0,
        0.0,
        0.0,
        1.0
      ],
      "name": "RootNode.0_0"
    },
    {
      "children": [
        5
      ],
      "name": "skeletal.5_5"
    },
    {
      "children": [
        6,
        12,
        13,
        16,
        19,
        10,
        14,
        17
      ],
      "name": "GLTF_created_0"
    },
    {
      "children": [
        7
      ],
      "name": "GLTF_created_0_rootJoint"
    },
    {
      "children": [
        8,
        9
      ],
      "name": "root.6_6"
    },
    {
      "name": "body_joint.7_7",
      "translation": [
        -143.50914001464844,
        398.9096984863281,
        0.0
      ]
    },
    {
      "name": "core_rot_joint.8_8",
      "translation": [
        -687.867431640625,
        398.9096984863281,
        0.0
      ]
    },
    {
      "children": [
        11
      ],
      "matrix": [
        1.0000000000000002,
        0.0,
        0.0,
        0.0,
        0.0,
        1.0,
        0.0,
        0.0,
        0.0,
        0.0,
        1.0,
        0.0,
        0.0,
        0.0,
        0.0,
        1.0
      ],
      "name": "Body.2_2_correction"
    },
    {
      "name": "Body.2_2"
    },
    {
      "mesh": 0,
      "name": "Object_12",
      "skin": 0
    },
    {
      "mesh": 1,
      "name": "Object_13",
      "skin": 0
    },
    {
      "children": [
        15
      ],
      "matrix": [
        1.0000000000000002,
        0.0,
        0.0,
        0.0,
        0.0,
        1.0,
        0.0,
        0.0,
        0.0,
        0.0,
        1.0,
        0.0,
        0.0,
        0.0,
        0.0,
        1.0
      ],
      "name": "Shell.3_3_correction"
    },
    {
      "name": "Shell.3_3"
    },
    {
      "mesh": 2,
      "name": "Object_16",
      "skin": 0
    },
    {
      "children": [
        18
      ],
      "matrix": [
        1.0000000000000002,
        0.0,
        0.0,
        0.0,
        0.0,
        1.0,
        0.0,
        0.0,
        0.0,
        0.0,
        1.0,
        0.0,
        0.0,
        0.0,
        0.0,
        1.0
      ],
      "name": "exhaust_and_combustor.4_4_correction"
    },
    {
      "name": "exhaust_and_combustor.4_4"
    },
    {
      "mesh": 3,
      "name": "Object_19",
      "skin": 0
    }
  ],
  "samplers": [
    {
      "magFilter": 9729,
      "minFilter": 9987,
      "wrapS": 10497,
      "wrapT": 10497
    }
  ],
  "scene": 0,
  "scenes": [
    {
      "name": "Sketchfab_Scene",
      "nodes": [
        0
      ]
    }
  ],
  "skins": [
    {
      "inverseBindMatrices": 28,
      "joints": [
        6,
        7,
        8,
        9
      ],
      "skeleton": 6
    }
  ],
  "textures": [
    {
      "sampler": 0,
      "source": 0
    },
    {
      "sampler": 0,
      "source": 1
    },
    {
      "sampler": 0,
      "source": 2
    },
    {
      "sampler": 0,
      "source": 3
    },
    {
      "sampler": 0,
      "source": 4
    },
    {
      "sampler": 0,
      "source": 5
    },
    {
      "sampler": 0,
      "source": 6
    },
    {
      "sampler": 0,
      "source": 7
    }
  ]
}
