{
	"asset":{
		"generator":"Khronos glTF Blender I/O v4.2.57",
		"version":"2.0"
	},
	"extensionsUsed":[
		"KHR_materials_specular",
		"KHR_materials_ior"
	],
	"scene":0,
	"scenes":[
		{
			"name":"Scene",
			"nodes":[
				17
			]
		}
	],
	"nodes":[
		{
			"mesh":0,
			"name":"Object_10",
			"translation":[
				-5.323073863983154,
				-20.96446990966797,
				5.277124881744385
			]
		},
		{
			"mesh":1,
			"name":"Object_11",
			"translation":[
				8.418014526367188,
				-1.2101088762283325,
				21.26950454711914
			]
		},
		{
			"mesh":2,
			"name":"Object_12",
			"translation":[
				-8.55905818939209,
				0.5925908088684082,
				23.801979064941406
			]
		},
		{
			"mesh":3,
			"name":"Object_13",
			"translation":[
				-6.657451152801514,
				-11.47119140625,
				12.848222732543945
			]
		},
		{
			"mesh":4,
			"name":"Object_14",
			"translation":[
				-9.729294776916504,
				10.33954906463623,
				25.673912048339844
			]
		},
		{
			"mesh":5,
			"name":"Object_15",
			"translation":[
				-4.5873332023620605,
				-8.009145736694336,
				14.179271697998047
			]
		},
		{
			"mesh":6,
			"name":"Object_16",
			"translation":[
				-1.3260101079940796,
				-6.325448513031006,
				8.963133811950684
			]
		},
		{
			"mesh":7,
			"name":"Object_17",
			"translation":[
				0.27208447456359863,
				14.74102783203125,
				13.15199089050293
			]
		},
		{
			"mesh":8,
			"name":"Object_2",
			"translation":[
				-12.635364532470703,
				-27.457082748413086,
				-16.384801864624023
			]
		},
		{
			"mesh":9,
			"name":"Object_3",
			"translation":[
				-25.083812713623047,
				-6.361527919769287,
				-6.816090106964111
			]
		},
		{
			"mesh":10,
			"name":"Object_4",
			"translation":[
				11.332305908203125,
				-15.56118106842041,
				-14.833027839660645
			]
		},
		{
			"mesh":11,
			"name":"Object_5",
			"translation":[
				-3.7985901832580566,
				-10.313867568969727,
				-10.906245231628418
			]
		},
		{
			"mesh":12,
			"name":"Object_6",
			"translation":[
				9.67904281616211,
				1.9877835512161255,
				-1.5751649141311646
			]
		},
		{
			"mesh":13,
			"name":"Object_7",
			"translation":[
				4.259819030761719,
				2.360161304473877,
				-1.2712568044662476
			]
		},
		{
			"mesh":14,
			"name":"Object_8",
			"translation":[
				-1.1607022285461426,
				-14.227129936218262,
				3.7931649684906006
			]
		},
		{
			"mesh":15,
			"name":"Object_9",
			"translation":[
				-2.4897212982177734,
				-18.98687171936035,
				7.444019794464111
			]
		},
		{
			"children":[
				0,
				1,
				2,
				3,
				4,
				5,
				6,
				7,
				8,
				9,
				10,
				11,
				12,
				13,
				14,
				15
			],
			"name":"YBC7290.obj.cleaner.materialmerger.gles"
		},
		{
			"children":[
				16
			],
			"name":"Sketchfab_model",
			"rotation":[
				-0.38554972410202026,
				-0.04367659240961075,
				0.0559430792927742,
				0.919953465461731
			],
			"scale":[
				0.24121281504631042,
				0.24121282994747162,
				0.2412128448486328
			],
			"translation":[
				-0.10466021299362183,
				0.0906672477722168,
				-2.354497194290161
			]
		}
	],
	"materials":[
		{
			"doubleSided":true,
			"extensions":{
				"KHR_materials_specular":{
					"specularColorFactor":[
						0.0,
						0.0,
						0.0
					]
				},
				"KHR_materials_ior":{
					"ior":1000
				}
			},
			"name":"material_0",
			"pbrMetallicRoughness":{
				"baseColorTexture":{
					"index":0
				},
				"metallicFactor":0,
				"roughnessFactor":0.5623413324356079
			}
		}
	],
	"meshes":[
		{
			"name":"Object_8",
			"primitives":[
				{
					"attributes":{
						"POSITION":0,
						"NORMAL":1,
						"TEXCOORD_0":2
					},
					"indices":3,
					"material":0
				}
			]
		},
		{
			"name":"Object_9",
			"primitives":[
				{
					"attributes":{
						"POSITION":4,
						"NORMAL":5,
						"TEXCOORD_0":6
					},
					"indices":7,
					"material":0
				}
			]
		},
		{
			"name":"Object_10",
			"primitives":[
				{
					"attributes":{
						"POSITION":8,
						"NORMAL":9,
						"TEXCOORD_0":10
					},
					"indices":11,
					"material":0
				}
			]
		},
		{
			"name":"Object_11",
			"primitives":[
				{
					"attributes":{
						"POSITION":12,
						"NORMAL":13,
						"TEXCOORD_0":14
					},
					"indices":15,
					"material":0
				}
			]
		},
		{
			"name":"Object_12",
			"primitives":[
				{
					"attributes":{
						"POSITION":16,
						"NORMAL":17,
						"TEXCOORD_0":18
					},
					"indices":19,
					"material":0
				}
			]
		},
		{
			"name":"Object_13",
			"primitives":[
				{
					"attributes":{
						"POSITION":20,
						"NORMAL":21,
						"TEXCOORD_0":22
					},
					"indices":23,
					"material":0
				}
			]
		},
		{
			"name":"Object_14",
			"primitives":[
				{
					"attributes":{
						"POSITION":24,
						"NORMAL":25,
						"TEXCOORD_0":26
					},
					"indices":27,
					"material":0
				}
			]
		},
		{
			"name":"Object_15",
			"primitives":[
				{
					"attributes":{
						"POSITION":28,
						"NORMAL":29,
						"TEXCOORD_0":30
					},
					"indices":31,
					"material":0
				}
			]
		},
		{
			"name":"Object_0",
			"primitives":[
				{
					"attributes":{
						"POSITION":32,
						"NORMAL":33,
						"TEXCOORD_0":34
					},
					"indices":35,
					"material":0
				}
			]
		},
		{
			"name":"Object_1",
			"primitives":[
				{
					"attributes":{
						"POSITION":36,
						"NORMAL":37,
						"TEXCOORD_0":38
					},
					"indices":39,
					"material":0
				}
			]
		},
		{
			"name":"Object_2",
			"primitives":[
				{
					"attributes":{
						"POSITION":40,
						"NORMAL":41,
						"TEXCOORD_0":42
					},
					"indices":43,
					"material":0
				}
			]
		},
		{
			"name":"Object_3",
			"primitives":[
				{
					"attributes":{
						"POSITION":44,
						"NORMAL":45,
						"TEXCOORD_0":46
					},
					"indices":47,
					"material":0
				}
			]
		},
		{
			"name":"Object_4",
			"primitives":[
				{
					"attributes":{
						"POSITION":48,
						"NORMAL":49,
						"TEXCOORD_0":50
					},
					"indices":51,
					"material":0
				}
			]
		},
		{
			"name":"Object_5",
			"primitives":[
				{
					"attributes":{
						"POSITION":52,
						"NORMAL":53,
						"TEXCOORD_0":54
					},
					"indices":55,
					"material":0
				}
			]
		},
		{
			"name":"Object_6",
			"primitives":[
				{
					"attributes":{
						"POSITION":56,
						"NORMAL":57,
						"TEXCOORD_0":58
					},
					"indices":59,
					"material":0
				}
			]
		},
		{
			"name":"Object_7",
			"primitives":[
				{
					"attributes":{
						"POSITION":60,
						"NORMAL":61,
						"TEXCOORD_0":62
					},
					"indices":63,
					"material":0
				}
			]
		}
	],
	"textures":[
		{
			"sampler":0,
			"source":0
		}
	],
	"images":[
		{
			"mimeType":"image/png",
			"name":"material_0_diffuse",
			"uri":"material_0_diffuse.png"
		}
	],
	"accessors":[
		{
			"bufferView":0,
			"componentType":5126,
			"count":31706,
			"max":[
				41.45025634765625,
				17.67483901977539,
				19.420608520507812
			],
			"min":[
				-37.38328170776367,
				-16.694143295288086,
				-22.967113494873047
			],
			"type":"VEC3"
		},
		{
			"bufferView":1,
			"componentType":5126,
			"count":31706,
			"type":"VEC3"
		},
		{
			"bufferView":2,
			"componentType":5126,
			"count":31706,
			"type":"VEC2"
		},
		{
			"bufferView":3,
			"componentType":5123,
			"count":129108,
			"type":"SCALAR"
		},
		{
			"bufferView":4,
			"componentType":5126,
			"count":31529,
			"max":[
				29.245647430419922,
				20.187063217163086,
				12.879825592041016
			],
			"min":[
				-51.13840866088867,
				-35.31565475463867,
				-37.37176513671875
			],
			"type":"VEC3"
		},
		{
			"bufferView":5,
			"componentType":5126,
			"count":31529,
			"type":"VEC3"
		},
		{
			"bufferView":6,
			"componentType":5126,
			"count":31529,
			"type":"VEC2"
		},
		{
			"bufferView":7,
			"componentType":5123,
			"count":127266,
			"type":"SCALAR"
		},
		{
			"bufferView":8,
			"componentType":5126,
			"count":30860,
			"max":[
				46.225830078125,
				11.999249458312988,
				12.712096214294434
			],
			"min":[
				-33.769500732421875,
				-37.25911331176758,
				-37.80443572998047
			],
			"type":"VEC3"
		},
		{
			"bufferView":9,
			"componentType":5126,
			"count":30860,
			"type":"VEC3"
		},
		{
			"bufferView":10,
			"componentType":5126,
			"count":30860,
			"type":"VEC2"
		},
		{
			"bufferView":11,
			"componentType":5123,
			"count":133083,
			"type":"SCALAR"
		},
		{
			"bufferView":12,
			"componentType":5126,
			"count":34420,
			"max":[
				44.18617630004883,
				26.163049697875977,
				23.699508666992188
			],
			"min":[
				-35.428550720214844,
				-25.436960220336914,
				-30.75061798095703
			],
			"type":"VEC3"
		},
		{
			"bufferView":13,
			"componentType":5126,
			"count":34420,
			"type":"VEC3"
		},
		{
			"bufferView":14,
			"componentType":5126,
			"count":34420,
			"type":"VEC2"
		},
		{
			"bufferView":15,
			"componentType":5123,
			"count":114042,
			"type":"SCALAR"
		},
		{
			"bufferView":16,
			"componentType":5126,
			"count":31790,
			"max":[
				47.37852478027344,
				11.208321571350098,
				10.905603408813477
			],
			"min":[
				-31.381664276123047,
				-48.14896011352539,
				-44.176177978515625
			],
			"type":"VEC3"
		},
		{
			"bufferView":17,
			"componentType":5126,
			"count":31790,
			"type":"VEC3"
		},
		{
			"bufferView":18,
			"componentType":5126,
			"count":31790,
			"type":"VEC2"
		},
		{
			"bufferView":19,
			"componentType":5123,
			"count":129408,
			"type":"SCALAR"
		},
		{
			"bufferView":20,
			"componentType":5126,
			"count":38563,
			"max":[
				42.106292724609375,
				29.569379806518555,
				22.38722801208496
			],
			"min":[
				-38.120445251464844,
				-29.64952278137207,
				-32.232948303222656
			],
			"type":"VEC3"
		},
		{
			"bufferView":21,
			"componentType":5126,
			"count":38563,
			"type":"VEC3"
		},
		{
			"bufferView":22,
			"componentType":5126,
			"count":38563,
			"type":"VEC2"
		},
		{
			"bufferView":23,
			"componentType":5123,
			"count":90153,
			"type":"SCALAR"
		},
		{
			"bufferView":24,
			"componentType":5126,
			"count":36859,
			"max":[
				37.81233596801758,
				27.825834274291992,
				17.084781646728516
			],
			"min":[
				-41.394447326660156,
				-29.832704544067383,
				-32.4153938293457
			],
			"type":"VEC3"
		},
		{
			"bufferView":25,
			"componentType":5126,
			"count":36859,
			"type":"VEC3"
		},
		{
			"bufferView":26,
			"componentType":5126,
			"count":36859,
			"type":"VEC2"
		},
		{
			"bufferView":27,
			"componentType":5123,
			"count":102780,
			"type":"SCALAR"
		},
		{
			"bufferView":28,
			"componentType":5126,
			"count":30669,
			"max":[
				37.06694793701172,
				6.803299903869629,
				14.695807456970215
			],
			"min":[
				-41.516605377197266,
				-52.57258987426758,
				-37.6464729309082
			],
			"type":"VEC3"
		},
		{
			"bufferView":29,
			"componentType":5126,
			"count":30669,
			"type":"VEC3"
		},
		{
			"bufferView":30,
			"componentType":5126,
			"count":30669,
			"type":"VEC2"
		},
		{
			"bufferView":31,
			"componentType":5123,
			"count":101862,
			"type":"SCALAR"
		},
		{
			"bufferView":32,
			"componentType":5126,
			"count":13335,
			"max":[
				43.892398834228516,
				41.09910583496094,
				42.340572357177734
			],
			"min":[
				-30.128498077392578,
				-10.375208854675293,
				-8.109582901000977
			],
			"type":"VEC3"
		},
		{
			"bufferView":33,
			"componentType":5126,
			"count":13335,
			"type":"VEC3"
		},
		{
			"bufferView":34,
			"componentType":5126,
			"count":13335,
			"type":"VEC2"
		},
		{
			"bufferView":35,
			"componentType":5123,
			"count":57792,
			"type":"SCALAR"
		},
		{
			"bufferView":36,
			"componentType":5126,
			"count":29610,
			"max":[
				61.28724670410156,
				27.94175148010254,
				34.36351013183594
			],
			"min":[
				-16.963151931762695,
				-29.785520553588867,
				-17.263328552246094
			],
			"type":"VEC3"
		},
		{
			"bufferView":37,
			"componentType":5126,
			"count":29610,
			"type":"VEC3"
		},
		{
			"bufferView":38,
			"componentType":5126,
			"count":29610,
			"type":"VEC2"
		},
		{
			"bufferView":39,
			"componentType":5123,
			"count":138417,
			"type":"SCALAR"
		},
		{
			"bufferView":40,
			"componentType":5126,
			"count":29374,
			"max":[
				24.89159393310547,
				33.35406494140625,
				33.530765533447266
			],
			"min":[
				-54.0052604675293,
				-20.296972274780273,
				-9.414109230041504
			],
			"type":"VEC3"
		},
		{
			"bufferView":41,
			"componentType":5126,
			"count":29374,
			"type":"VEC3"
		},
		{
			"bufferView":42,
			"componentType":5126,
			"count":29374,
			"type":"VEC2"
		},
		{
			"bufferView":43,
			"componentType":5123,
			"count":140244,
			"type":"SCALAR"
		},
		{
			"bufferView":44,
			"componentType":5126,
			"count":35968,
			"max":[
				40.146854400634766,
				28.605709075927734,
				30.95400619506836
			],
			"min":[
				-38.96527099609375,
				-27.04428482055664,
				-13.476338386535645
			],
			"type":"VEC3"
		},
		{
			"bufferView":45,
			"componentType":5126,
			"count":35968,
			"type":"VEC3"
		},
		{
			"bufferView":46,
			"componentType":5126,
			"count":35968,
			"type":"VEC2"
		},
		{
			"bufferView":47,
			"componentType":5123,
			"count":104292,
			"type":"SCALAR"
		},
		{
			"bufferView":48,
			"componentType":5126,
			"count":31501,
			"max":[
				27.910112380981445,
				16.419118881225586,
				18.802017211914062
			],
			"min":[
				-52.37514114379883,
				-38.7325325012207,
				-22.602832794189453
			],
			"type":"VEC3"
		},
		{
			"bufferView":49,
			"componentType":5126,
			"count":31501,
			"type":"VEC3"
		},
		{
			"bufferView":50,
			"componentType":5126,
			"count":31501,
			"type":"VEC2"
		},
		{
			"bufferView":51,
			"componentType":5123,
			"count":129102,
			"type":"SCALAR"
		},
		{
			"bufferView":52,
			"componentType":5126,
			"count":35109,
			"max":[
				33.365211486816406,
				15.031679153442383,
				18.619672775268555
			],
			"min":[
				-45.97219467163086,
				-40.00790023803711,
				-23.194278717041016
			],
			"type":"VEC3"
		},
		{
			"bufferView":53,
			"componentType":5126,
			"count":35109,
			"type":"VEC3"
		},
		{
			"bufferView":54,
			"componentType":5126,
			"count":35109,
			"type":"VEC2"
		},
		{
			"bufferView":55,
			"componentType":5123,
			"count":113622,
			"type":"SCALAR"
		},
		{
			"bufferView":56,
			"componentType":5126,
			"count":34015,
			"max":[
				38.64975357055664,
				32.92741775512695,
				18.354570388793945
			],
			"min":[
				-41.45579528808594,
				-23.43654441833496,
				-27.84542465209961
			],
			"type":"VEC3"
		},
		{
			"bufferView":57,
			"componentType":5126,
			"count":34015,
			"type":"VEC3"
		},
		{
			"bufferView":58,
			"componentType":5126,
			"count":34015,
			"type":"VEC2"
		},
		{
			"bufferView":59,
			"componentType":5123,
			"count":116217,
			"type":"SCALAR"
		},
		{
			"bufferView":60,
			"componentType":5126,
			"count":31628,
			"max":[
				39.577308654785156,
				14.47890567779541,
				16.20418930053711
			],
			"min":[
				-40.24314880371094,
				-15.911294937133789,
				-19.496280670166016
			],
			"type":"VEC3"
		},
		{
			"bufferView":61,
			"componentType":5126,
			"count":31628,
			"type":"VEC3"
		},
		{
			"bufferView":62,
			"componentType":5126,
			"count":31628,
			"type":"VEC2"
		},
		{
			"bufferView":63,
			"componentType":5123,
			"count":129162,
			"type":"SCALAR"
		}
	],
	"bufferViews":[
		{
			"buffer":0,
			"byteLength":380472,
			"byteOffset":0,
			"target":34962
		},
		{
			"buffer":0,
			"byteLength":380472,
			"byteOffset":380472,
			"target":34962
		},
		{
			"buffer":0,
			"byteLength":253648,
			"byteOffset":760944,
			"target":34962
		},
		{
			"buffer":0,
			"byteLength":258216,
			"byteOffset":1014592,
			"target":34963
		},
		{
			"buffer":0,
			"byteLength":378348,
			"byteOffset":1272808,
			"target":34962
		},
		{
			"buffer":0,
			"byteLength":378348,
			"byteOffset":1651156,
			"target":34962
		},
		{
			"buffer":0,
			"byteLength":252232,
			"byteOffset":2029504,
			"target":34962
		},
		{
			"buffer":0,
			"byteLength":254532,
			"byteOffset":2281736,
			"target":34963
		},
		{
			"buffer":0,
			"byteLength":370320,
			"byteOffset":2536268,
			"target":34962
		},
		{
			"buffer":0,
			"byteLength":370320,
			"byteOffset":2906588,
			"target":34962
		},
		{
			"buffer":0,
			"byteLength":246880,
			"byteOffset":3276908,
			"target":34962
		},
		{
			"buffer":0,
			"byteLength":266166,
			"byteOffset":3523788,
			"target":34963
		},
		{
			"buffer":0,
			"byteLength":413040,
			"byteOffset":3789956,
			"target":34962
		},
		{
			"buffer":0,
			"byteLength":413040,
			"byteOffset":4202996,
			"target":34962
		},
		{
			"buffer":0,
			"byteLength":275360,
			"byteOffset":4616036,
			"target":34962
		},
		{
			"buffer":0,
			"byteLength":228084,
			"byteOffset":4891396,
			"target":34963
		},
		{
			"buffer":0,
			"byteLength":381480,
			"byteOffset":5119480,
			"target":34962
		},
		{
			"buffer":0,
			"byteLength":381480,
			"byteOffset":5500960,
			"target":34962
		},
		{
			"buffer":0,
			"byteLength":254320,
			"byteOffset":5882440,
			"target":34962
		},
		{
			"buffer":0,
			"byteLength":258816,
			"byteOffset":6136760,
			"target":34963
		},
		{
			"buffer":0,
			"byteLength":462756,
			"byteOffset":6395576,
			"target":34962
		},
		{
			"buffer":0,
			"byteLength":462756,
			"byteOffset":6858332,
			"target":34962
		},
		{
			"buffer":0,
			"byteLength":308504,
			"byteOffset":7321088,
			"target":34962
		},
		{
			"buffer":0,
			"byteLength":180306,
			"byteOffset":7629592,
			"target":34963
		},
		{
			"buffer":0,
			"byteLength":442308,
			"byteOffset":7809900,
			"target":34962
		},
		{
			"buffer":0,
			"byteLength":442308,
			"byteOffset":8252208,
			"target":34962
		},
		{
			"buffer":0,
			"byteLength":294872,
			"byteOffset":8694516,
			"target":34962
		},
		{
			"buffer":0,
			"byteLength":205560,
			"byteOffset":8989388,
			"target":34963
		},
		{
			"buffer":0,
			"byteLength":368028,
			"byteOffset":9194948,
			"target":34962
		},
		{
			"buffer":0,
			"byteLength":368028,
			"byteOffset":9562976,
			"target":34962
		},
		{
			"buffer":0,
			"byteLength":245352,
			"byteOffset":9931004,
			"target":34962
		},
		{
			"buffer":0,
			"byteLength":203724,
			"byteOffset":10176356,
			"target":34963
		},
		{
			"buffer":0,
			"byteLength":160020,
			"byteOffset":10380080,
			"target":34962
		},
		{
			"buffer":0,
			"byteLength":160020,
			"byteOffset":10540100,
			"target":34962
		},
		{
			"buffer":0,
			"byteLength":106680,
			"byteOffset":10700120,
			"target":34962
		},
		{
			"buffer":0,
			"byteLength":115584,
			"byteOffset":10806800,
			"target":34963
		},
		{
			"buffer":0,
			"byteLength":355320,
			"byteOffset":10922384,
			"target":34962
		},
		{
			"buffer":0,
			"byteLength":355320,
			"byteOffset":11277704,
			"target":34962
		},
		{
			"buffer":0,
			"byteLength":236880,
			"byteOffset":11633024,
			"target":34962
		},
		{
			"buffer":0,
			"byteLength":276834,
			"byteOffset":11869904,
			"target":34963
		},
		{
			"buffer":0,
			"byteLength":352488,
			"byteOffset":12146740,
			"target":34962
		},
		{
			"buffer":0,
			"byteLength":352488,
			"byteOffset":12499228,
			"target":34962
		},
		{
			"buffer":0,
			"byteLength":234992,
			"byteOffset":12851716,
			"target":34962
		},
		{
			"buffer":0,
			"byteLength":280488,
			"byteOffset":13086708,
			"target":34963
		},
		{
			"buffer":0,
			"byteLength":431616,
			"byteOffset":13367196,
			"target":34962
		},
		{
			"buffer":0,
			"byteLength":431616,
			"byteOffset":13798812,
			"target":34962
		},
		{
			"buffer":0,
			"byteLength":287744,
			"byteOffset":14230428,
			"target":34962
		},
		{
			"buffer":0,
			"byteLength":208584,
			"byteOffset":14518172,
			"target":34963
		},
		{
			"buffer":0,
			"byteLength":378012,
			"byteOffset":14726756,
			"target":34962
		},
		{
			"buffer":0,
			"byteLength":378012,
			"byteOffset":15104768,
			"target":34962
		},
		{
			"buffer":0,
			"byteLength":252008,
			"byteOffset":15482780,
			"target":34962
		},
		{
			"buffer":0,
			"byteLength":258204,
			"byteOffset":15734788,
			"target":34963
		},
		{
			"buffer":0,
			"byteLength":421308,
			"byteOffset":15992992,
			"target":34962
		},
		{
			"buffer":0,
			"byteLength":421308,
			"byteOffset":16414300,
			"target":34962
		},
		{
			"buffer":0,
			"byteLength":280872,
			"byteOffset":16835608,
			"target":34962
		},
		{
			"buffer":0,
			"byteLength":227244,
			"byteOffset":17116480,
			"target":34963
		},
		{
			"buffer":0,
			"byteLength":408180,
			"byteOffset":17343724,
			"target":34962
		},
		{
			"buffer":0,
			"byteLength":408180,
			"byteOffset":17751904,
			"target":34962
		},
		{
			"buffer":0,
			"byteLength":272120,
			"byteOffset":18160084,
			"target":34962
		},
		{
			"buffer":0,
			"byteLength":232434,
			"byteOffset":18432204,
			"target":34963
		},
		{
			"buffer":0,
			"byteLength":379536,
			"byteOffset":18664640,
			"target":34962
		},
		{
			"buffer":0,
			"byteLength":379536,
			"byteOffset":19044176,
			"target":34962
		},
		{
			"buffer":0,
			"byteLength":253024,
			"byteOffset":19423712,
			"target":34962
		},
		{
			"buffer":0,
			"byteLength":258324,
			"byteOffset":19676736,
			"target":34963
		}
	],
	"samplers":[
		{
			"magFilter":9729,
			"minFilter":9987
		}
	],
	"buffers":[
		{
			"byteLength":19935060,
			"uri":"scene.bin"
		}
	]
}
