{
  "accessors": [
    {
      "bufferView": 2,
      "componentType": 5126,
      "count": 38015,
      "max": [
        2.937741994857788,
        2.6789400577545166,
        2.670167922973633
      ],
      "min": [
        0.0,
        0.0,
        0.0
      ],
      "type": "VEC3"
    },
    {
      "bufferView": 2,
      "byteOffset": 456180,
      "componentType": 5126,
      "count": 38015,
      "max": [
        0.9999696612358093,
        0.9999701976776123,
        0.9997826218605042
      ],
      "min": [
        -0.9999706149101257,
        -0.9999874234199524,
        -0.9999145865440369
      ],
      "type": "VEC3"
    },
    {
      "bufferView": 1,
      "componentType": 5126,
      "count": 38015,
      "max": [
        0.9988150000572205,
        0.9994789958000183
      ],
      "min": [
        0.0009590000263415277,
        0.001145999995060265
      ],
      "type": "VEC2"
    },
    {
      "bufferView": 0,
      "componentType": 5125,
      "count": 194616,
      "type": "SCALAR"
    }
  ],
  "asset": {
    "extras": {
      "author": "David Neikirk (https://sketchfab.com/drneikirk)",
      "license": "CC-BY-NC-SA-4.0 (http://creativecommons.org/licenses/by-nc-sa/4.0/)",
      "source": "https://sketchfab.com/3d-models/1603-williem-blaeu-celestial-globe-9d5a401d985144ce80f9934492a78f35",
      "title": "1603 Williem Blaeu Celestial Globe"
    },
    "generator": "Sketchfab-12.66.0",
    "version": "2.0"
  },
  "bufferViews": [
    {
      "buffer": 0,
      "byteLength": 778464,
      "name": "floatBufferViews",
      "target": 34963
    },
    {
      "buffer": 0,
      "byteLength": 304120,
      "byteOffset": 778464,
      "byteStride": 8,
      "name": "floatBufferViews",
      "target": 34962
    },
    {
      "buffer": 0,
      "byteLength": 912360,
      "byteOffset": 1082584,
      "byteStride": 12,
      "name": "floatBufferViews",
      "target": 34962
    }
  ],
  "buffers": [
    {
      "byteLength": 1994944,
      "uri": "scene.bin"
    }
  ],
  "images": [
    {
      "uri": "textures/material_0_baseColor.jpeg"
    }
  ],
  "materials": [
    {
      "doubleSided": true,
      "name": "material_0",
      "pbrMetallicRoughness": {
        "baseColorTexture": {
          "index": 0
        },
        "metallicFactor": 0.0,
        "roughnessFactor": 0.6
      }
    }
  ],
  "meshes": [
    {
      "name": "Object_0",
      "primitives": [
        {
          "attributes": {
            "NORMAL": 1,
            "POSITION": 0,
            "TEXCOORD_0": 2
          },
          "indices": 3,
          "material": 0,
          "mode": 4
        }
      ]
    }
  ],
  "nodes": [
    {
      "children": [
        1
      ],
      "matrix": [
        0.8469594717025757,
        0.4767111539840699,
        -0.23538500070571888,
        0.0,
        -0.22675372660160065,
        0.7243486046791076,
        0.6510774493217469,
        0.0,
        0.4808766841888428,
        -0.498061776161194,
        0.7215899825096129,
        0.0,
        -1.729809696371376e-06,
        5.399072051659459e-06,
        -1.4591885246773005e-06,
        1.0
      ],
      "name": "Sketchfab_model"
    },
    {
      "children": [
        2
      ],
      "matrix": [
        1.0,
        0.0,
        0.0,
        0.0,
        0.0,
        1.0,
        0.0,
        0.0,
        0.0,
        0.0,
        1.0,
        0.0,
        -1.468870997428894,
        -1.3394700288772583,
        -1.3350839614868164,
        1.0
      ],
      "name": "model.obj.cleaner.gles"
    },
    {
      "mesh": 0,
      "name": "Object_2"
    }
  ],
  "samplers": [
    {
      "magFilter": 9729,
      "minFilter": 9987,
      "wrapS": 10497,
      "wrapT": 10497
    }
  ],
  "scene": 0,
  "scenes": [
    {
      "name": "Sketchfab_Scene",
      "nodes": [
        0
      ]
    }
  ],
  "textures": [
    {
      "sampler": 0,
      "source": 0
    }
  ]
}
