{
    "asset": {
        "version": "1.0",
        "generator": "Open Asset Import Library (assimp v4.1.0)"
    },
    "accessors": {
        "model_New Qlone_mesh_accessor": {
            "bufferView": "model_New Qlone_mesh_view",
            "byteOffset": 0,
            "byteStride": 0,
            "componentType": 5126,
            "count": 65533,
            "type": "VEC3",
            "max": [
                20.0631103515625,
                -57.496009826660159,
                28.57938003540039
            ],
            "min": [
                -20.784500122070314,
                -73.51466369628906,
                -28.980960845947267
            ]
        },
        "model_New Qlone_mesh_accessor_0": {
            "bufferView": "model_New Qlone_mesh_view_0",
            "byteOffset": 0,
            "byteStride": 0,
            "componentType": 5126,
            "count": 65533,
            "type": "VEC3",
            "max": [
                0.9998963475227356,
                0.998797595500946,
                0.9993690848350525
            ],
            "min": [
                -0.9995375871658325,
                -0.9999409317970276,
                -0.9994866251945496
            ]
        },
        "model_New Qlone_mesh_accessor_1": {
            "bufferView": "model_New Qlone_mesh_view_1",
            "byteOffset": 0,
            "byteStride": 0,
            "componentType": 5126,
            "count": 65533,
            "type": "VEC2",
            "max": [
                0.421860009431839,
                0.31484997272491457
            ],
            "min": [
                0.0034199999645352365,
                0.0034099817276000978
            ]
        },
        "model_New Qlone_mesh_accessor_2": {
            "bufferView": "model_New Qlone_mesh_view_2",
            "byteOffset": 0,
            "byteStride": 0,
            "componentType": 5123,
            "count": 65535,
            "type": "SCALAR",
            "max": [
                65532.0
            ],
            "min": [
                0.0
            ]
        },
        "model_New Qlone_mesh_0_accessor": {
            "bufferView": "model_New Qlone_mesh_0_view",
            "byteOffset": 0,
            "byteStride": 0,
            "componentType": 5126,
            "count": 65534,
            "type": "VEC3",
            "max": [
                20.784500122070314,
                -40.25001907348633,
                32.33382034301758
            ],
            "min": [
                -18.236190795898439,
                -59.66923141479492,
                -32.58831024169922
            ]
        },
        "model_New Qlone_mesh_0_accessor_0": {
            "bufferView": "model_New Qlone_mesh_0_view_0",
            "byteOffset": 0,
            "byteStride": 0,
            "componentType": 5126,
            "count": 65534,
            "type": "VEC3",
            "max": [
                0.9999971985816956,
                0.988495409488678,
                0.9999732375144959
            ],
            "min": [
                -0.9999905228614807,
                -0.9591397643089294,
                -0.999801516532898
            ]
        },
        "model_New Qlone_mesh_0_accessor_1": {
            "bufferView": "model_New Qlone_mesh_0_view_1",
            "byteOffset": 0,
            "byteStride": 0,
            "componentType": 5126,
            "count": 65534,
            "type": "VEC2",
            "max": [
                0.37411001324653628,
                0.3355799913406372
            ],
            "min": [
                0.003590000094845891,
                0.01155000925064087
            ]
        },
        "model_New Qlone_mesh_0_accessor_2": {
            "bufferView": "model_New Qlone_mesh_0_view_2",
            "byteOffset": 0,
            "byteStride": 0,
            "componentType": 5123,
            "count": 65544,
            "type": "SCALAR",
            "max": [
                65533.0
            ],
            "min": [
                0.0
            ]
        },
        "model_New Qlone_mesh_1_accessor": {
            "bufferView": "model_New Qlone_mesh_1_view",
            "byteOffset": 0,
            "byteStride": 0,
            "componentType": 5126,
            "count": 29485,
            "type": "VEC3",
            "max": [
                20.253990173339845,
                -27.452129364013673,
                32.58831024169922
            ],
            "min": [
                2.4412500858306886,
                -42.50716018676758,
                -31.971179962158204
            ]
        },
        "model_New Qlone_mesh_1_accessor_0": {
            "bufferView": "model_New Qlone_mesh_1_view_0",
            "byteOffset": 0,
            "byteStride": 0,
            "componentType": 5126,
            "count": 29485,
            "type": "VEC3",
            "max": [
                0.9999083280563355,
                0.9999640583992004,
                0.9999989867210388
            ],
            "min": [
                -0.9929230213165283,
                -0.9939664006233215,
                -0.9984248876571655
            ]
        },
        "model_New Qlone_mesh_1_accessor_1": {
            "bufferView": "model_New Qlone_mesh_1_view_1",
            "byteOffset": 0,
            "byteStride": 0,
            "componentType": 5126,
            "count": 29485,
            "type": "VEC2",
            "max": [
                0.4469600021839142,
                0.33581000566482546
            ],
            "min": [
                0.003370000049471855,
                0.003300011157989502
            ]
        },
        "model_New Qlone_mesh_1_accessor_2": {
            "bufferView": "model_New Qlone_mesh_1_view_2",
            "byteOffset": 0,
            "byteStride": 0,
            "componentType": 5123,
            "count": 29493,
            "type": "SCALAR",
            "max": [
                29484.0
            ],
            "min": [
                0.0
            ]
        }
    },
    "buffers": {
        "../../download/cmody8dasgr8/cmody8dasgr8": {
            "byteLength": 5458810,
            "type": "arraybuffer",
            "uri": "../../download/cmody8dasgr8/cmody8dasgr8.bin"
        }
    },
    "bufferViews": {
        "model_New Qlone_mesh_view": {
            "buffer": "../../download/cmody8dasgr8/cmody8dasgr8",
            "byteOffset": 0,
            "byteLength": 786396,
            "target": 34962
        },
        "model_New Qlone_mesh_view_0": {
            "buffer": "../../download/cmody8dasgr8/cmody8dasgr8",
            "byteOffset": 786396,
            "byteLength": 786396,
            "target": 34962
        },
        "model_New Qlone_mesh_view_1": {
            "buffer": "../../download/cmody8dasgr8/cmody8dasgr8",
            "byteOffset": 1572792,
            "byteLength": 524264,
            "target": 34962
        },
        "model_New Qlone_mesh_view_2": {
            "buffer": "../../download/cmody8dasgr8/cmody8dasgr8",
            "byteOffset": 2097056,
            "byteLength": 131070,
            "target": 34963
        },
        "model_New Qlone_mesh_0_view": {
            "buffer": "../../download/cmody8dasgr8/cmody8dasgr8",
            "byteOffset": 2228128,
            "byteLength": 786408,
            "target": 34962
        },
        "model_New Qlone_mesh_0_view_0": {
            "buffer": "../../download/cmody8dasgr8/cmody8dasgr8",
            "byteOffset": 3014536,
            "byteLength": 786408,
            "target": 34962
        },
        "model_New Qlone_mesh_0_view_1": {
            "buffer": "../../download/cmody8dasgr8/cmody8dasgr8",
            "byteOffset": 3800944,
            "byteLength": 524272,
            "target": 34962
        },
        "model_New Qlone_mesh_0_view_2": {
            "buffer": "../../download/cmody8dasgr8/cmody8dasgr8",
            "byteOffset": 4325216,
            "byteLength": 131088,
            "target": 34963
        },
        "model_New Qlone_mesh_1_view": {
            "buffer": "../../download/cmody8dasgr8/cmody8dasgr8",
            "byteOffset": 4456304,
            "byteLength": 353820,
            "target": 34962
        },
        "model_New Qlone_mesh_1_view_0": {
            "buffer": "../../download/cmody8dasgr8/cmody8dasgr8",
            "byteOffset": 4810124,
            "byteLength": 353820,
            "target": 34962
        },
        "model_New Qlone_mesh_1_view_1": {
            "buffer": "../../download/cmody8dasgr8/cmody8dasgr8",
            "byteOffset": 5163944,
            "byteLength": 235880,
            "target": 34962
        },
        "model_New Qlone_mesh_1_view_2": {
            "buffer": "../../download/cmody8dasgr8/cmody8dasgr8",
            "byteOffset": 5399824,
            "byteLength": 58986,
            "target": 34963
        }
    },
    "images": {
        "image": {
            "uri": "data:image/jpeg;base64,"
        }
    },
    "materials": {
        "material0": {
            "values": {
                "ambient": [
                    0.0,
                    0.0,
                    0.0,
                    1.0
                ],
                "diffuse": "texture",
                "specular": [
                    0.0,
                    0.0,
                    0.0,
                    1.0
                ],
                "emission": [
                    0.0,
                    0.0,
                    0.0,
                    1.0
                ],
                "shininess": 0.0
            }
        }
    },
    "meshes": {
        "model_New Qlone_mesh": {
            "name": "",
            "primitives": [
                {
                    "mode": 4,
                    "material": "material0",
                    "indices": "model_New Qlone_mesh_accessor_2",
                    "attributes": {
                        "POSITION": "model_New Qlone_mesh_accessor",
                        "NORMAL": "model_New Qlone_mesh_accessor_0",
                        "TEXCOORD_0": "model_New Qlone_mesh_accessor_1"
                    }
                }
            ]
        },
        "model_New Qlone_mesh_0": {
            "name": "",
            "primitives": [
                {
                    "mode": 4,
                    "material": "material0",
                    "indices": "model_New Qlone_mesh_0_accessor_2",
                    "attributes": {
                        "POSITION": "model_New Qlone_mesh_0_accessor",
                        "NORMAL": "model_New Qlone_mesh_0_accessor_0",
                        "TEXCOORD_0": "model_New Qlone_mesh_0_accessor_1"
                    }
                }
            ]
        },
        "model_New Qlone_mesh_1": {
            "name": "",
            "primitives": [
                {
                    "mode": 4,
                    "material": "material0",
                    "indices": "model_New Qlone_mesh_1_accessor_2",
                    "attributes": {
                        "POSITION": "model_New Qlone_mesh_1_accessor",
                        "NORMAL": "model_New Qlone_mesh_1_accessor_0",
                        "TEXCOORD_0": "model_New Qlone_mesh_1_accessor_1"
                    }
                }
            ]
        }
    },
    "nodes": {
        "RootNode": {
            "children": [
                "model_New Qlone"
            ]
        },
        "model_New Qlone": {
            "matrix": [
                0.10000000149011612,
                0.0,
                0.0,
                0.0,
                0.0,
                0.10000000149011612,
                0.0,
                0.0,
                0.0,
                0.0,
                0.10000000149011612,
                0.0,
                0.0,
                0.0,
                0.0,
                1.0
            ],
            "meshes": [
                "model_New Qlone_mesh",
                "model_New Qlone_mesh_0",
                "model_New Qlone_mesh_1"
            ]
        }
    },
    "samplers": {
        "sampler": {
            "wrapS": 10497,
            "wrapT": 10497,
            "magFilter": 9729,
            "minFilter": 9729
        }
    },
    "scenes": {
        "defaultScene": {
            "nodes": [
                "RootNode"
            ]
        }
    },
    "textures": {
        "texture": {
            "source": "image",
            "sampler": "sampler"
        }
    },
    "scene": "defaultScene"
}