{
  "accessors": [
    {
      "bufferView": 2,
      "componentType": 5126,
      "count": 10769,
      "max": [
        0.0726078599691391,
        0.03975838050246239,
        0.06645973771810532
      ],
      "min": [
        -0.07013320177793503,
        -0.04656250774860382,
        -0.07073983550071716
      ],
      "type": "VEC3"
    },
    {
      "bufferView": 2,
      "byteOffset": 129228,
      "componentType": 5126,
      "count": 10769,
      "max": [
        0.9993559122085571,
        0.9999725222587585,
        0.9999310374259949
      ],
      "min": [
        -0.9999607801437378,
        -0.9997919201850891,
        -0.9998918175697327
      ],
      "type": "VEC3"
    },
    {
      "bufferView": 3,
      "componentType": 5126,
      "count": 10769,
      "max": [
        0.9995090961456299,
        0.9999462962150574,
        0.9970130920410156,
        1.0
      ],
      "min": [
        -0.9995312690734863,
        -0.9997959733009338,
        -0.9996753334999084,
        1.0
      ],
      "type": "VEC4"
    },
    {
      "bufferView": 1,
      "componentType": 5126,
      "count": 10769,
      "max": [
        1.0,
        0.995990514755249
      ],
      "min": [
        0.0,
        0.0
      ],
      "type": "VEC2"
    },
    {
      "bufferView": 0,
      "componentType": 5125,
      "count": 47718,
      "type": "SCALAR"
    }
  ],
  "asset": {
    "extras": {
      "author": "Bonn Center for Digital Humanities (https://sketchfab.com/bcdh)",
      "license": "CC-BY-4.0 (http://creativecommons.org/licenses/by/4.0/)",
      "source": "https://sketchfab.com/3d-models/nasca-vessel-c9385c0f9c214cbbabf578baacebb1b2",
      "title": "Nasca vessel"
    },
    "generator": "Sketchfab-15.30.0",
    "version": "2.0"
  },
  "bufferViews": [
    {
      "buffer": 0,
      "byteLength": 190872,
      "name": "floatBufferViews",
      "target": 34963
    },
    {
      "buffer": 0,
      "byteLength": 86152,
      "byteOffset": 190872,
      "byteStride": 8,
      "name": "floatBufferViews",
      "target": 34962
    },
    {
      "buffer": 0,
      "byteLength": 258456,
      "byteOffset": 277024,
      "byteStride": 12,
      "name": "floatBufferViews",
      "target": 34962
    },
    {
      "buffer": 0,
      "byteLength": 172304,
      "byteOffset": 535480,
      "byteStride": 16,
      "name": "floatBufferViews",
      "target": 34962
    }
  ],
  "buffers": [
    {
      "byteLength": 707784,
      "uri": "scene.bin"
    }
  ],
  "images": [
    {
      "uri": "textures/3108_Nasca_Gefaess_baseColor.jpeg"
    },
    {
      "uri": "textures/3108_Nasca_Gefaess_metallicRoughness.png"
    },
    {
      "uri": "textures/3108_Nasca_Gefaess_normal.jpeg"
    }
  ],
  "materials": [
    {
      "doubleSided": true,
      "name": "3108_Nasca_Gefaess",
      "normalTexture": {
        "index": 2
      },
      "occlusionTexture": {
        "index": 1
      },
      "pbrMetallicRoughness": {
        "baseColorTexture": {
          "index": 0
        },
        "metallicFactor": 0.0,
        "metallicRoughnessTexture": {
          "index": 1
        }
      }
    }
  ],
  "meshes": [
    {
      "name": "Object_0",
      "primitives": [
        {
          "attributes": {
            "NORMAL": 1,
            "POSITION": 0,
            "TANGENT": 2,
            "TEXCOORD_0": 3
          },
          "indices": 4,
          "material": 0,
          "mode": 4
        }
      ]
    }
  ],
  "nodes": [
    {
      "children": [
        1
      ],
      "matrix": [
        1.0,
        0.0,
        0.0,
        0.0,
        0.0,
        2.220446049250313e-16,
        -1.0,
        0.0,
        0.0,
        1.0,
        2.220446049250313e-16,
        0.0,
        0.0,
        0.0,
        0.0,
        1.0
      ],
      "name": "Sketchfab_model"
    },
    {
      "children": [
        2
      ],
      "name": "root"
    },
    {
      "children": [
        3
      ],
      "matrix": [
        1.0,
        0.0,
        0.0,
        0.0,
        0.0,
        2.220446049250313e-16,
        1.0,
        0.0,
        0.0,
        -1.0,
        2.220446049250313e-16,
        0.0,
        0.0,
        0.0,
        0.0,
        1.0
      ],
      "name": "GLTF_SceneRootNode"
    },
    {
      "children": [
        4
      ],
      "matrix": [
        0.09317594949440589,
        0.027292219525550727,
        -0.9952755282780669,
        0.0,
        -0.007999351254027953,
        0.9996124920137318,
        0.02666226152470452,
        0.0,
        0.9956175233569017,
        0.005477277012001975,
        0.09335816312033562,
        0.0,
        0.0,
        0.0,
        0.0,
        1.0
      ],
      "name": "3108_Nasca_Gefaess_2"
    },
    {
      "mesh": 0,
      "name": "Object_4"
    }
  ],
  "samplers": [
    {
      "magFilter": 9729,
      "minFilter": 9987,
      "wrapS": 10497,
      "wrapT": 10497
    }
  ],
  "scene": 0,
  "scenes": [
    {
      "name": "Sketchfab_Scene",
      "nodes": [
        0
      ]
    }
  ],
  "textures": [
    {
      "sampler": 0,
      "source": 0
    },
    {
      "sampler": 0,
      "source": 1
    },
    {
      "sampler": 0,
      "source": 2
    }
  ]
}
