{
	"asset":{
		"generator":"Khronos glTF Blender I/O v4.2.57",
		"version":"2.0"
	},
	"scene":0,
	"scenes":[
		{
			"name":"Scene",
			"nodes":[
				0
			]
		}
	],
	"nodes":[
		{
			"mesh":0,
			"name":"Object_2",
			"rotation":[
				-0.07327453047037125,
				0.015326377935707569,
				-0.34927377104759216,
				0.9340255856513977
			],
			"scale":[
				0.10000000149011612,
				0.10000000149011612,
				0.10000000149011612
			],
			"translation":[
				0.01714479923248291,
				1.048862338066101,
				-0.1057736873626709
			]
		}
	],
	"materials":[
		{
			"doubleSided":true,
			"name":"material_0",
			"pbrMetallicRoughness":{
				"baseColorTexture":{
					"index":0
				},
				"metallicFactor":0,
				"metallicRoughnessTexture":{
					"index":1
				},
				"roughnessFactor":0.5623413324356079
			}
		}
	],
	"meshes":[
		{
			"name":"Mesh_0",
			"primitives":[
				{
					"attributes":{
						"POSITION":0,
						"NORMAL":1,
						"TEXCOORD_0":2
					},
					"indices":3,
					"material":0
				}
			]
		}
	],
	"textures":[
		{
			"sampler":0,
			"source":0
		},
		{
			"sampler":0,
			"source":1
		}
	],
	"images":[
		{
			"mimeType":"image/png",
			"name":"baseColor0image",
			"uri":"yale/baseColor0image.png"
		},
		{
			"mimeType":"image/png",
			"name":"metallicRoughness1image",
			"uri":"yale/metallicRoughness1image.png"
		}
	],
	"accessors":[
		{
			"bufferView":0,
			"componentType":5126,
			"count":157729,
			"max":[
				36.236881256103516,
				38.1318244934082,
				26.86631965637207
			],
			"min":[
				-36.80913543701172,
				-32.701202392578125,
				-5.619564533233643
			],
			"type":"VEC3"
		},
		{
			"bufferView":1,
			"componentType":5126,
			"count":157729,
			"type":"VEC3"
		},
		{
			"bufferView":2,
			"componentType":5126,
			"count":157729,
			"type":"VEC2"
		},
		{
			"bufferView":3,
			"componentType":5125,
			"count":873147,
			"type":"SCALAR"
		}
	],
	"bufferViews":[
		{
			"buffer":0,
			"byteLength":1892748,
			"byteOffset":0,
			"target":34962
		},
		{
			"buffer":0,
			"byteLength":1892748,
			"byteOffset":1892748,
			"target":34962
		},
		{
			"buffer":0,
			"byteLength":1261832,
			"byteOffset":3785496,
			"target":34962
		},
		{
			"buffer":0,
			"byteLength":3492588,
			"byteOffset":5047328,
			"target":34963
		}
	],
	"samplers":[
		{
			"magFilter":9729,
			"minFilter":9987
		}
	],
	"buffers":[
		{
			"byteLength":8539916,
			"uri":"scene.bin"
		}
	]
}
