{
	"asset":{
		"generator":"Khronos glTF Blender I/O v4.2.57",
		"version":"2.0"
	},
	"extensionsUsed":[
		"KHR_materials_specular",
		"KHR_materials_ior"
	],
	"scene":0,
	"scenes":[
		{
			"name":"Scene",
			"nodes":[
				13
			]
		}
	],
	"nodes":[
		{
			"mesh":0,
			"name":"Object_10",
			"translation":[
				1.3684674501419067,
				-1.2273151874542236,
				8.225946426391602
			]
		},
		{
			"mesh":1,
			"name":"Object_11",
			"translation":[
				1.3684674501419067,
				-1.2273151874542236,
				8.225946426391602
			]
		},
		{
			"mesh":2,
			"name":"Object_12",
			"translation":[
				1.3684674501419067,
				-1.2273151874542236,
				8.225946426391602
			]
		},
		{
			"mesh":3,
			"name":"Object_13",
			"translation":[
				1.3684674501419067,
				-1.2273151874542236,
				8.225946426391602
			]
		},
		{
			"mesh":4,
			"name":"Object_2",
			"translation":[
				1.3684674501419067,
				-1.2273151874542236,
				8.225946426391602
			]
		},
		{
			"mesh":5,
			"name":"Object_3",
			"translation":[
				1.3684674501419067,
				-1.2273151874542236,
				8.225946426391602
			]
		},
		{
			"mesh":6,
			"name":"Object_4",
			"translation":[
				1.3684674501419067,
				-1.2273151874542236,
				8.225946426391602
			]
		},
		{
			"mesh":7,
			"name":"Object_5",
			"translation":[
				1.3684674501419067,
				-1.2273151874542236,
				8.225946426391602
			]
		},
		{
			"mesh":8,
			"name":"Object_6",
			"translation":[
				1.3684674501419067,
				-1.2273151874542236,
				8.225946426391602
			]
		},
		{
			"mesh":9,
			"name":"Object_7",
			"translation":[
				1.3684674501419067,
				-1.2273151874542236,
				8.225946426391602
			]
		},
		{
			"mesh":10,
			"name":"Object_8",
			"translation":[
				1.3684674501419067,
				-1.2273151874542236,
				8.225946426391602
			]
		},
		{
			"mesh":11,
			"name":"Object_9",
			"translation":[
				1.3684674501419067,
				-1.2273151874542236,
				8.225946426391602
			]
		},
		{
			"children":[
				0,
				1,
				2,
				3,
				4,
				5,
				6,
				7,
				8,
				9,
				10,
				11
			],
			"name":"YBC7289.obj.cleaner.materialmerger.gles"
		},
		{
			"children":[
				12
			],
			"name":"Sketchfab_model",
			"rotation":[
				-0.07327452301979065,
				0.015326377004384995,
				-0.34927377104759216,
				0.9340255856513977
			],
			"scale":[
				0.07307835668325424,
				0.07307834178209305,
				0.07307834178209305
			],
			"translation":[
				-0.06522130966186523,
				0.056470006704330444,
				-0.6098935604095459
			]
		}
	],
	"materials":[
		{
			"doubleSided":true,
			"extensions":{
				"KHR_materials_specular":{
					"specularColorFactor":[
						0.0,
						0.0,
						0.0
					]
				},
				"KHR_materials_ior":{
					"ior":1000
				}
			},
			"name":"material_0",
			"pbrMetallicRoughness":{
				"baseColorTexture":{
					"index":0
				},
				"metallicFactor":0,
				"roughnessFactor":0.5623413324356079
			}
		}
	],
	"meshes":[
		{
			"name":"Object_8",
			"primitives":[
				{
					"attributes":{
						"POSITION":0,
						"NORMAL":1,
						"TEXCOORD_0":2
					},
					"indices":3,
					"material":0
				}
			]
		},
		{
			"name":"Object_9",
			"primitives":[
				{
					"attributes":{
						"POSITION":4,
						"NORMAL":5,
						"TEXCOORD_0":6
					},
					"indices":7,
					"material":0
				}
			]
		},
		{
			"name":"Object_10",
			"primitives":[
				{
					"attributes":{
						"POSITION":8,
						"NORMAL":9,
						"TEXCOORD_0":10
					},
					"indices":11,
					"material":0
				}
			]
		},
		{
			"name":"Object_11",
			"primitives":[
				{
					"attributes":{
						"POSITION":12,
						"NORMAL":13,
						"TEXCOORD_0":14
					},
					"indices":15,
					"material":0
				}
			]
		},
		{
			"name":"Object_0",
			"primitives":[
				{
					"attributes":{
						"POSITION":16,
						"NORMAL":17,
						"TEXCOORD_0":18
					},
					"indices":19,
					"material":0
				}
			]
		},
		{
			"name":"Object_1",
			"primitives":[
				{
					"attributes":{
						"POSITION":20,
						"NORMAL":21,
						"TEXCOORD_0":22
					},
					"indices":23,
					"material":0
				}
			]
		},
		{
			"name":"Object_2",
			"primitives":[
				{
					"attributes":{
						"POSITION":24,
						"NORMAL":25,
						"TEXCOORD_0":26
					},
					"indices":27,
					"material":0
				}
			]
		},
		{
			"name":"Object_3",
			"primitives":[
				{
					"attributes":{
						"POSITION":28,
						"NORMAL":29,
						"TEXCOORD_0":30
					},
					"indices":31,
					"material":0
				}
			]
		},
		{
			"name":"Object_4",
			"primitives":[
				{
					"attributes":{
						"POSITION":32,
						"NORMAL":33,
						"TEXCOORD_0":34
					},
					"indices":35,
					"material":0
				}
			]
		},
		{
			"name":"Object_5",
			"primitives":[
				{
					"attributes":{
						"POSITION":36,
						"NORMAL":37,
						"TEXCOORD_0":38
					},
					"indices":39,
					"material":0
				}
			]
		},
		{
			"name":"Object_6",
			"primitives":[
				{
					"attributes":{
						"POSITION":40,
						"NORMAL":41,
						"TEXCOORD_0":42
					},
					"indices":43,
					"material":0
				}
			]
		},
		{
			"name":"Object_7",
			"primitives":[
				{
					"attributes":{
						"POSITION":44,
						"NORMAL":45,
						"TEXCOORD_0":46
					},
					"indices":47,
					"material":0
				}
			]
		}
	],
	"textures":[
		{
			"sampler":0,
			"source":0
		}
	],
	"images":[
		{
			"mimeType":"image/png",
			"name":"material_0_diffuse",
			"uri":"material_0_diffuse.png"
		}
	],
	"accessors":[
		{
			"bufferView":0,
			"componentType":5126,
			"count":28655,
			"max":[
				16.99027442932129,
				20.63282012939453,
				2.5284340381622314
			],
			"min":[
				-37.248497009277344,
				-26.317182540893555,
				-13.846819877624512
			],
			"type":"VEC3"
		},
		{
			"bufferView":1,
			"componentType":5126,
			"count":28655,
			"type":"VEC3"
		},
		{
			"bufferView":2,
			"componentType":5126,
			"count":28655,
			"type":"VEC2"
		},
		{
			"bufferView":3,
			"componentType":5123,
			"count":158736,
			"type":"SCALAR"
		},
		{
			"bufferView":4,
			"componentType":5126,
			"count":33143,
			"max":[
				34.33306121826172,
				39.25608444213867,
				17.922119140625
			],
			"min":[
				-33.25973129272461,
				-25.894611358642578,
				-13.741438865661621
			],
			"type":"VEC3"
		},
		{
			"bufferView":5,
			"componentType":5126,
			"count":33143,
			"type":"VEC3"
		},
		{
			"bufferView":6,
			"componentType":5126,
			"count":33143,
			"type":"VEC2"
		},
		{
			"bufferView":7,
			"componentType":5123,
			"count":180429,
			"type":"SCALAR"
		},
		{
			"bufferView":8,
			"componentType":5126,
			"count":30778,
			"max":[
				19.690275192260742,
				39.323631286621094,
				18.64037322998047
			],
			"min":[
				-35.2040901184082,
				13.432818412780762,
				-3.6251301765441895
			],
			"type":"VEC3"
		},
		{
			"bufferView":9,
			"componentType":5126,
			"count":30778,
			"type":"VEC3"
		},
		{
			"bufferView":10,
			"componentType":5126,
			"count":30778,
			"type":"VEC2"
		},
		{
			"bufferView":11,
			"componentType":5123,
			"count":170205,
			"type":"SCALAR"
		},
		{
			"bufferView":12,
			"componentType":5126,
			"count":8315,
			"max":[
				34.85621643066406,
				25.572973251342773,
				16.326183319091797
			],
			"min":[
				-35.41847229003906,
				-6.44268798828125,
				-2.502925395965576
			],
			"type":"VEC3"
		},
		{
			"bufferView":13,
			"componentType":5126,
			"count":8315,
			"type":"VEC3"
		},
		{
			"bufferView":14,
			"componentType":5126,
			"count":8315,
			"type":"VEC2"
		},
		{
			"bufferView":15,
			"componentType":5123,
			"count":39189,
			"type":"SCALAR"
		},
		{
			"bufferView":16,
			"componentType":5126,
			"count":11144,
			"max":[
				29.440275192260742,
				32.93281936645508,
				17.377941131591797
			],
			"min":[
				-28.15999984741211,
				-26.871938705444336,
				-13.62372875213623
			],
			"type":"VEC3"
		},
		{
			"bufferView":17,
			"componentType":5126,
			"count":11144,
			"type":"VEC3"
		},
		{
			"bufferView":18,
			"componentType":5126,
			"count":11144,
			"type":"VEC2"
		},
		{
			"bufferView":19,
			"componentType":5123,
			"count":46713,
			"type":"SCALAR"
		},
		{
			"bufferView":20,
			"componentType":5126,
			"count":6844,
			"max":[
				30.798500061035156,
				36.836082458496094,
				18.428043365478516
			],
			"min":[
				-25.778440475463867,
				-31.26729393005371,
				-11.276971817016602
			],
			"type":"VEC3"
		},
		{
			"bufferView":21,
			"componentType":5126,
			"count":6844,
			"type":"VEC3"
		},
		{
			"bufferView":22,
			"componentType":5126,
			"count":6844,
			"type":"VEC2"
		},
		{
			"bufferView":23,
			"componentType":5123,
			"count":29316,
			"type":"SCALAR"
		},
		{
			"bufferView":24,
			"componentType":5126,
			"count":30393,
			"max":[
				34.867008209228516,
				39.35725402832031,
				11.378586769104004
			],
			"min":[
				-9.10972785949707,
				-13.867465019226074,
				-9.425141334533691
			],
			"type":"VEC3"
		},
		{
			"bufferView":25,
			"componentType":5126,
			"count":30393,
			"type":"VEC3"
		},
		{
			"bufferView":26,
			"componentType":5126,
			"count":30393,
			"type":"VEC2"
		},
		{
			"bufferView":27,
			"componentType":5123,
			"count":155145,
			"type":"SCALAR"
		},
		{
			"bufferView":28,
			"componentType":5126,
			"count":36256,
			"max":[
				34.02937316894531,
				39.344505310058594,
				13.02755355834961
			],
			"min":[
				-30.259843826293945,
				-31.30595588684082,
				-7.972447395324707
			],
			"type":"VEC3"
		},
		{
			"bufferView":29,
			"componentType":5126,
			"count":36256,
			"type":"VEC3"
		},
		{
			"bufferView":30,
			"componentType":5126,
			"count":36256,
			"type":"VEC2"
		},
		{
			"bufferView":31,
			"componentType":5123,
			"count":155880,
			"type":"SCALAR"
		},
		{
			"bufferView":32,
			"componentType":5126,
			"count":31445,
			"max":[
				34.39027404785156,
				2.7828826904296875,
				15.52728271484375
			],
			"min":[
				-36.06721115112305,
				-26.1884708404541,
				-5.122447490692139
			],
			"type":"VEC3"
		},
		{
			"bufferView":33,
			"componentType":5126,
			"count":31445,
			"type":"VEC3"
		},
		{
			"bufferView":34,
			"componentType":5126,
			"count":31445,
			"type":"VEC2"
		},
		{
			"bufferView":35,
			"componentType":5123,
			"count":149967,
			"type":"SCALAR"
		},
		{
			"bufferView":36,
			"componentType":5126,
			"count":32149,
			"max":[
				34.654998779296875,
				12.382818222045898,
				17.026704788208008
			],
			"min":[
				-38.178199768066406,
				-30.274566650390625,
				-4.893577575683594
			],
			"type":"VEC3"
		},
		{
			"bufferView":37,
			"componentType":5126,
			"count":32149,
			"type":"VEC3"
		},
		{
			"bufferView":38,
			"componentType":5126,
			"count":32149,
			"type":"VEC2"
		},
		{
			"bufferView":39,
			"componentType":5123,
			"count":130506,
			"type":"SCALAR"
		},
		{
			"bufferView":40,
			"componentType":5126,
			"count":32436,
			"max":[
				34.673179626464844,
				21.53282356262207,
				17.90093421936035
			],
			"min":[
				-38.17634582519531,
				-31.47388458251953,
				-5.872447490692139
			],
			"type":"VEC3"
		},
		{
			"bufferView":41,
			"componentType":5126,
			"count":32436,
			"type":"VEC3"
		},
		{
			"bufferView":42,
			"componentType":5126,
			"count":32436,
			"type":"VEC2"
		},
		{
			"bufferView":43,
			"componentType":5123,
			"count":138261,
			"type":"SCALAR"
		},
		{
			"bufferView":44,
			"componentType":5126,
			"count":32551,
			"max":[
				34.62034225463867,
				36.546897888183594,
				15.960342407226562
			],
			"min":[
				-38.14128875732422,
				-24.517183303833008,
				-8.722447395324707
			],
			"type":"VEC3"
		},
		{
			"bufferView":45,
			"componentType":5126,
			"count":32551,
			"type":"VEC3"
		},
		{
			"bufferView":46,
			"componentType":5126,
			"count":32551,
			"type":"VEC2"
		},
		{
			"bufferView":47,
			"componentType":5123,
			"count":137496,
			"type":"SCALAR"
		}
	],
	"bufferViews":[
		{
			"buffer":0,
			"byteLength":343860,
			"byteOffset":0,
			"target":34962
		},
		{
			"buffer":0,
			"byteLength":343860,
			"byteOffset":343860,
			"target":34962
		},
		{
			"buffer":0,
			"byteLength":229240,
			"byteOffset":687720,
			"target":34962
		},
		{
			"buffer":0,
			"byteLength":317472,
			"byteOffset":916960,
			"target":34963
		},
		{
			"buffer":0,
			"byteLength":397716,
			"byteOffset":1234432,
			"target":34962
		},
		{
			"buffer":0,
			"byteLength":397716,
			"byteOffset":1632148,
			"target":34962
		},
		{
			"buffer":0,
			"byteLength":265144,
			"byteOffset":2029864,
			"target":34962
		},
		{
			"buffer":0,
			"byteLength":360858,
			"byteOffset":2295008,
			"target":34963
		},
		{
			"buffer":0,
			"byteLength":369336,
			"byteOffset":2655868,
			"target":34962
		},
		{
			"buffer":0,
			"byteLength":369336,
			"byteOffset":3025204,
			"target":34962
		},
		{
			"buffer":0,
			"byteLength":246224,
			"byteOffset":3394540,
			"target":34962
		},
		{
			"buffer":0,
			"byteLength":340410,
			"byteOffset":3640764,
			"target":34963
		},
		{
			"buffer":0,
			"byteLength":99780,
			"byteOffset":3981176,
			"target":34962
		},
		{
			"buffer":0,
			"byteLength":99780,
			"byteOffset":4080956,
			"target":34962
		},
		{
			"buffer":0,
			"byteLength":66520,
			"byteOffset":4180736,
			"target":34962
		},
		{
			"buffer":0,
			"byteLength":78378,
			"byteOffset":4247256,
			"target":34963
		},
		{
			"buffer":0,
			"byteLength":133728,
			"byteOffset":4325636,
			"target":34962
		},
		{
			"buffer":0,
			"byteLength":133728,
			"byteOffset":4459364,
			"target":34962
		},
		{
			"buffer":0,
			"byteLength":89152,
			"byteOffset":4593092,
			"target":34962
		},
		{
			"buffer":0,
			"byteLength":93426,
			"byteOffset":4682244,
			"target":34963
		},
		{
			"buffer":0,
			"byteLength":82128,
			"byteOffset":4775672,
			"target":34962
		},
		{
			"buffer":0,
			"byteLength":82128,
			"byteOffset":4857800,
			"target":34962
		},
		{
			"buffer":0,
			"byteLength":54752,
			"byteOffset":4939928,
			"target":34962
		},
		{
			"buffer":0,
			"byteLength":58632,
			"byteOffset":4994680,
			"target":34963
		},
		{
			"buffer":0,
			"byteLength":364716,
			"byteOffset":5053312,
			"target":34962
		},
		{
			"buffer":0,
			"byteLength":364716,
			"byteOffset":5418028,
			"target":34962
		},
		{
			"buffer":0,
			"byteLength":243144,
			"byteOffset":5782744,
			"target":34962
		},
		{
			"buffer":0,
			"byteLength":310290,
			"byteOffset":6025888,
			"target":34963
		},
		{
			"buffer":0,
			"byteLength":435072,
			"byteOffset":6336180,
			"target":34962
		},
		{
			"buffer":0,
			"byteLength":435072,
			"byteOffset":6771252,
			"target":34962
		},
		{
			"buffer":0,
			"byteLength":290048,
			"byteOffset":7206324,
			"target":34962
		},
		{
			"buffer":0,
			"byteLength":311760,
			"byteOffset":7496372,
			"target":34963
		},
		{
			"buffer":0,
			"byteLength":377340,
			"byteOffset":7808132,
			"target":34962
		},
		{
			"buffer":0,
			"byteLength":377340,
			"byteOffset":8185472,
			"target":34962
		},
		{
			"buffer":0,
			"byteLength":251560,
			"byteOffset":8562812,
			"target":34962
		},
		{
			"buffer":0,
			"byteLength":299934,
			"byteOffset":8814372,
			"target":34963
		},
		{
			"buffer":0,
			"byteLength":385788,
			"byteOffset":9114308,
			"target":34962
		},
		{
			"buffer":0,
			"byteLength":385788,
			"byteOffset":9500096,
			"target":34962
		},
		{
			"buffer":0,
			"byteLength":257192,
			"byteOffset":9885884,
			"target":34962
		},
		{
			"buffer":0,
			"byteLength":261012,
			"byteOffset":10143076,
			"target":34963
		},
		{
			"buffer":0,
			"byteLength":389232,
			"byteOffset":10404088,
			"target":34962
		},
		{
			"buffer":0,
			"byteLength":389232,
			"byteOffset":10793320,
			"target":34962
		},
		{
			"buffer":0,
			"byteLength":259488,
			"byteOffset":11182552,
			"target":34962
		},
		{
			"buffer":0,
			"byteLength":276522,
			"byteOffset":11442040,
			"target":34963
		},
		{
			"buffer":0,
			"byteLength":390612,
			"byteOffset":11718564,
			"target":34962
		},
		{
			"buffer":0,
			"byteLength":390612,
			"byteOffset":12109176,
			"target":34962
		},
		{
			"buffer":0,
			"byteLength":260408,
			"byteOffset":12499788,
			"target":34962
		},
		{
			"buffer":0,
			"byteLength":274992,
			"byteOffset":12760196,
			"target":34963
		}
	],
	"samplers":[
		{
			"magFilter":9729,
			"minFilter":9987
		}
	],
	"buffers":[
		{
			"byteLength":13035188,
			"uri":"scene.bin"
		}
	]
}
