{
	"asset":{
		"generator":"Khronos glTF Blender I/O v4.2.57",
		"version":"2.0"
	},
	"extensionsUsed":[
		"KHR_materials_specular",
		"KHR_materials_ior"
	],
	"scene":0,
	"scenes":[
		{
			"name":"Scene",
			"nodes":[
				13
			]
		}
	],
	"nodes":[
		{
			"mesh":0,
			"name":"Object_10"
		},
		{
			"mesh":1,
			"name":"Object_11"
		},
		{
			"mesh":2,
			"name":"Object_12"
		},
		{
			"mesh":3,
			"name":"Object_13"
		},
		{
			"mesh":4,
			"name":"Object_2"
		},
		{
			"mesh":5,
			"name":"Object_3"
		},
		{
			"mesh":6,
			"name":"Object_4"
		},
		{
			"mesh":7,
			"name":"Object_5"
		},
		{
			"mesh":8,
			"name":"Object_6"
		},
		{
			"mesh":9,
			"name":"Object_7"
		},
		{
			"mesh":10,
			"name":"Object_8"
		},
		{
			"mesh":11,
			"name":"Object_9"
		},
		{
			"children":[
				0,
				1,
				2,
				3,
				4,
				5,
				6,
				7,
				8,
				9,
				10,
				11
			],
			"name":"YBC7289.obj.cleaner.materialmerger.gles"
		},
		{
			"children":[
				12
			],
			"name":"Sketchfab_model",
			"rotation":[
				-0.07327452301979065,
				0.01532637607306242,
				-0.34927380084991455,
				0.9340255856513977
			],
			"scale":[
				0.18860933184623718,
				0.18860936164855957,
				0.18860936164855957
			],
			"translation":[
				1.0529001951217651,
				-0.4491824507713318,
				-2.3044052124023438
			]
		}
	],
	"materials":[
		{
			"doubleSided":true,
			"extensions":{
				"KHR_materials_specular":{
					"specularColorFactor":[
						0.0,
						0.0,
						0.0
					]
				},
				"KHR_materials_ior":{
					"ior":1000
				}
			},
			"name":"material_0",
			"pbrMetallicRoughness":{
				"baseColorTexture":{
					"index":0
				},
				"metallicFactor":0,
				"roughnessFactor":0.5623413324356079
			}
		}
	],
	"meshes":[
		{
			"name":"Object_8",
			"primitives":[
				{
					"attributes":{
						"POSITION":0,
						"NORMAL":1,
						"TEXCOORD_0":2
					},
					"indices":3,
					"material":0
				}
			]
		},
		{
			"name":"Object_9",
			"primitives":[
				{
					"attributes":{
						"POSITION":4,
						"NORMAL":5,
						"TEXCOORD_0":6
					},
					"indices":7,
					"material":0
				}
			]
		},
		{
			"name":"Object_10",
			"primitives":[
				{
					"attributes":{
						"POSITION":8,
						"NORMAL":9,
						"TEXCOORD_0":10
					},
					"indices":11,
					"material":0
				}
			]
		},
		{
			"name":"Object_11",
			"primitives":[
				{
					"attributes":{
						"POSITION":12,
						"NORMAL":13,
						"TEXCOORD_0":14
					},
					"indices":15,
					"material":0
				}
			]
		},
		{
			"name":"Object_0",
			"primitives":[
				{
					"attributes":{
						"POSITION":16,
						"NORMAL":17,
						"TEXCOORD_0":18
					},
					"indices":19,
					"material":0
				}
			]
		},
		{
			"name":"Object_1",
			"primitives":[
				{
					"attributes":{
						"POSITION":20,
						"NORMAL":21,
						"TEXCOORD_0":22
					},
					"indices":23,
					"material":0
				}
			]
		},
		{
			"name":"Object_2",
			"primitives":[
				{
					"attributes":{
						"POSITION":24,
						"NORMAL":25,
						"TEXCOORD_0":26
					},
					"indices":27,
					"material":0
				}
			]
		},
		{
			"name":"Object_3",
			"primitives":[
				{
					"attributes":{
						"POSITION":28,
						"NORMAL":29,
						"TEXCOORD_0":30
					},
					"indices":31,
					"material":0
				}
			]
		},
		{
			"name":"Object_4",
			"primitives":[
				{
					"attributes":{
						"POSITION":32,
						"NORMAL":33,
						"TEXCOORD_0":34
					},
					"indices":35,
					"material":0
				}
			]
		},
		{
			"name":"Object_5",
			"primitives":[
				{
					"attributes":{
						"POSITION":36,
						"NORMAL":37,
						"TEXCOORD_0":38
					},
					"indices":39,
					"material":0
				}
			]
		},
		{
			"name":"Object_6",
			"primitives":[
				{
					"attributes":{
						"POSITION":40,
						"NORMAL":41,
						"TEXCOORD_0":42
					},
					"indices":43,
					"material":0
				}
			]
		},
		{
			"name":"Object_7",
			"primitives":[
				{
					"attributes":{
						"POSITION":44,
						"NORMAL":45,
						"TEXCOORD_0":46
					},
					"indices":47,
					"material":0
				}
			]
		}
	],
	"textures":[
		{
			"sampler":0,
			"source":0
		}
	],
	"images":[
		{
			"mimeType":"image/png",
			"name":"material_0_diffuse.png",
			"uri":"../Downloads/the_diagonal_of_a_square_tablet/textures/material_0_diffuse.png"
		}
	],
	"accessors":[
		{
			"bufferView":0,
			"componentType":5126,
			"count":65549,
			"max":[
				18.358741760253906,
				19.40550422668457,
				10.753499984741211
			],
			"min":[
				-35.880027770996094,
				-27.544498443603516,
				-5.619990825653076
			],
			"type":"VEC3"
		},
		{
			"bufferView":1,
			"componentType":5126,
			"count":65549,
			"type":"VEC3"
		},
		{
			"bufferView":2,
			"componentType":5126,
			"count":65549,
			"type":"VEC2"
		},
		{
			"bufferView":3,
			"componentType":5125,
			"count":377379,
			"type":"SCALAR"
		},
		{
			"bufferView":4,
			"componentType":5126,
			"count":65552,
			"max":[
				35.69962692260742,
				38.028770446777344,
				26.147497177124023
			],
			"min":[
				-31.89126205444336,
				-27.12192726135254,
				-5.516873836517334
			],
			"type":"VEC3"
		},
		{
			"bufferView":5,
			"componentType":5126,
			"count":65552,
			"type":"VEC3"
		},
		{
			"bufferView":6,
			"componentType":5126,
			"count":65552,
			"type":"VEC2"
		},
		{
			"bufferView":7,
			"componentType":5125,
			"count":372690,
			"type":"SCALAR"
		},
		{
			"bufferView":8,
			"componentType":5126,
			"count":65545,
			"max":[
				21.05874252319336,
				38.094417572021484,
				26.864694595336914
			],
			"min":[
				-33.83562088012695,
				12.205503463745117,
				4.603498935699463
			],
			"type":"VEC3"
		},
		{
			"bufferView":9,
			"componentType":5126,
			"count":65545,
			"type":"VEC3"
		},
		{
			"bufferView":10,
			"componentType":5126,
			"count":65545,
			"type":"VEC2"
		},
		{
			"bufferView":11,
			"componentType":5125,
			"count":376245,
			"type":"SCALAR"
		},
		{
			"bufferView":12,
			"componentType":5126,
			"count":16474,
			"max":[
				36.22468566894531,
				24.346433639526367,
				24.55350112915039
			],
			"min":[
				-34.05000305175781,
				-7.6700029373168945,
				5.723021030426025
			],
			"type":"VEC3"
		},
		{
			"bufferView":13,
			"componentType":5126,
			"count":16474,
			"type":"VEC3"
		},
		{
			"bufferView":14,
			"componentType":5126,
			"count":16474,
			"type":"VEC2"
		},
		{
			"bufferView":15,
			"componentType":5123,
			"count":86634,
			"type":"SCALAR"
		},
		{
			"bufferView":16,
			"componentType":5126,
			"count":65560,
			"max":[
				30.80874252319336,
				31.70550537109375,
				25.603500366210938
			],
			"min":[
				-26.791261672973633,
				-28.099254608154297,
				-5.397480010986328
			],
			"type":"VEC3"
		},
		{
			"bufferView":17,
			"componentType":5126,
			"count":65560,
			"type":"VEC3"
		},
		{
			"bufferView":18,
			"componentType":5126,
			"count":65560,
			"type":"VEC2"
		},
		{
			"bufferView":19,
			"componentType":5125,
			"count":364461,
			"type":"SCALAR"
		},
		{
			"bufferView":20,
			"componentType":5126,
			"count":65549,
			"max":[
				32.15874481201172,
				35.605506896972656,
				26.653501510620117
			],
			"min":[
				-24.40512466430664,
				-32.49449920654297,
				-3.051024913787842
			],
			"type":"VEC3"
		},
		{
			"bufferView":21,
			"componentType":5126,
			"count":65549,
			"type":"VEC3"
		},
		{
			"bufferView":22,
			"componentType":5126,
			"count":65549,
			"type":"VEC2"
		},
		{
			"bufferView":23,
			"componentType":5125,
			"count":375354,
			"type":"SCALAR"
		},
		{
			"bufferView":24,
			"componentType":5126,
			"count":65603,
			"max":[
				36.23520278930664,
				38.129940032958984,
				19.603500366210938
			],
			"min":[
				-7.741260051727295,
				-15.094497680664062,
				-1.1991950273513794
			],
			"type":"VEC3"
		},
		{
			"bufferView":25,
			"componentType":5126,
			"count":65603,
			"type":"VEC3"
		},
		{
			"bufferView":26,
			"componentType":5126,
			"count":65603,
			"type":"VEC2"
		},
		{
			"bufferView":27,
			"componentType":5125,
			"count":362007,
			"type":"SCALAR"
		},
		{
			"bufferView":28,
			"componentType":5126,
			"count":65656,
			"max":[
				35.39784240722656,
				38.117191314697266,
				21.25349998474121
			],
			"min":[
				-28.891691207885742,
				-32.53327178955078,
				0.25349900126457214
			],
			"type":"VEC3"
		},
		{
			"bufferView":29,
			"componentType":5126,
			"count":65656,
			"type":"VEC3"
		},
		{
			"bufferView":30,
			"componentType":5126,
			"count":65656,
			"type":"VEC2"
		},
		{
			"bufferView":31,
			"componentType":5125,
			"count":327360,
			"type":"SCALAR"
		},
		{
			"bufferView":32,
			"componentType":5126,
			"count":65605,
			"max":[
				35.75874328613281,
				1.555503010749817,
				23.75322914123535
			],
			"min":[
				-34.6987419128418,
				-27.415786743164062,
				3.103498935699463
			],
			"type":"VEC3"
		},
		{
			"bufferView":33,
			"componentType":5126,
			"count":65605,
			"type":"VEC3"
		},
		{
			"bufferView":34,
			"componentType":5126,
			"count":65605,
			"type":"VEC2"
		},
		{
			"bufferView":35,
			"componentType":5125,
			"count":349929,
			"type":"SCALAR"
		},
		{
			"bufferView":36,
			"componentType":5126,
			"count":65639,
			"max":[
				36.023380279541016,
				11.155503273010254,
				25.251646041870117
			],
			"min":[
				-36.80787658691406,
				-31.50341033935547,
				3.332369089126587
			],
			"type":"VEC3"
		},
		{
			"bufferView":37,
			"componentType":5126,
			"count":65639,
			"type":"VEC3"
		},
		{
			"bufferView":38,
			"componentType":5126,
			"count":65639,
			"type":"VEC2"
		},
		{
			"bufferView":39,
			"componentType":5125,
			"count":316227,
			"type":"SCALAR"
		},
		{
			"bufferView":40,
			"componentType":5126,
			"count":65616,
			"max":[
				36.041648864746094,
				20.305503845214844,
				26.128997802734375
			],
			"min":[
				-36.80787658691406,
				-32.70232391357422,
				2.353498935699463
			],
			"type":"VEC3"
		},
		{
			"bufferView":41,
			"componentType":5126,
			"count":65616,
			"type":"VEC3"
		},
		{
			"bufferView":42,
			"componentType":5126,
			"count":65616,
			"type":"VEC2"
		},
		{
			"bufferView":43,
			"componentType":5125,
			"count":328710,
			"type":"SCALAR"
		},
		{
			"bufferView":44,
			"componentType":5126,
			"count":65606,
			"max":[
				35.98881149291992,
				35.31633758544922,
				24.18752098083496
			],
			"min":[
				-36.77281951904297,
				-25.74449920654297,
				-0.49650099873542786
			],
			"type":"VEC3"
		},
		{
			"bufferView":45,
			"componentType":5126,
			"count":65606,
			"type":"VEC3"
		},
		{
			"bufferView":46,
			"componentType":5126,
			"count":65606,
			"type":"VEC2"
		},
		{
			"bufferView":47,
			"componentType":5125,
			"count":326886,
			"type":"SCALAR"
		}
	],
	"bufferViews":[
		{
			"buffer":0,
			"byteLength":786588,
			"byteOffset":0,
			"target":34962
		},
		{
			"buffer":0,
			"byteLength":786588,
			"byteOffset":786588,
			"target":34962
		},
		{
			"buffer":0,
			"byteLength":524392,
			"byteOffset":1573176,
			"target":34962
		},
		{
			"buffer":0,
			"byteLength":1509516,
			"byteOffset":2097568,
			"target":34963
		},
		{
			"buffer":0,
			"byteLength":786624,
			"byteOffset":3607084,
			"target":34962
		},
		{
			"buffer":0,
			"byteLength":786624,
			"byteOffset":4393708,
			"target":34962
		},
		{
			"buffer":0,
			"byteLength":524416,
			"byteOffset":5180332,
			"target":34962
		},
		{
			"buffer":0,
			"byteLength":1490760,
			"byteOffset":5704748,
			"target":34963
		},
		{
			"buffer":0,
			"byteLength":786540,
			"byteOffset":7195508,
			"target":34962
		},
		{
			"buffer":0,
			"byteLength":786540,
			"byteOffset":7982048,
			"target":34962
		},
		{
			"buffer":0,
			"byteLength":524360,
			"byteOffset":8768588,
			"target":34962
		},
		{
			"buffer":0,
			"byteLength":1504980,
			"byteOffset":9292948,
			"target":34963
		},
		{
			"buffer":0,
			"byteLength":197688,
			"byteOffset":10797928,
			"target":34962
		},
		{
			"buffer":0,
			"byteLength":197688,
			"byteOffset":10995616,
			"target":34962
		},
		{
			"buffer":0,
			"byteLength":131792,
			"byteOffset":11193304,
			"target":34962
		},
		{
			"buffer":0,
			"byteLength":173268,
			"byteOffset":11325096,
			"target":34963
		},
		{
			"buffer":0,
			"byteLength":786720,
			"byteOffset":11498364,
			"target":34962
		},
		{
			"buffer":0,
			"byteLength":786720,
			"byteOffset":12285084,
			"target":34962
		},
		{
			"buffer":0,
			"byteLength":524480,
			"byteOffset":13071804,
			"target":34962
		},
		{
			"buffer":0,
			"byteLength":1457844,
			"byteOffset":13596284,
			"target":34963
		},
		{
			"buffer":0,
			"byteLength":786588,
			"byteOffset":15054128,
			"target":34962
		},
		{
			"buffer":0,
			"byteLength":786588,
			"byteOffset":15840716,
			"target":34962
		},
		{
			"buffer":0,
			"byteLength":524392,
			"byteOffset":16627304,
			"target":34962
		},
		{
			"buffer":0,
			"byteLength":1501416,
			"byteOffset":17151696,
			"target":34963
		},
		{
			"buffer":0,
			"byteLength":787236,
			"byteOffset":18653112,
			"target":34962
		},
		{
			"buffer":0,
			"byteLength":787236,
			"byteOffset":19440348,
			"target":34962
		},
		{
			"buffer":0,
			"byteLength":524824,
			"byteOffset":20227584,
			"target":34962
		},
		{
			"buffer":0,
			"byteLength":1448028,
			"byteOffset":20752408,
			"target":34963
		},
		{
			"buffer":0,
			"byteLength":787872,
			"byteOffset":22200436,
			"target":34962
		},
		{
			"buffer":0,
			"byteLength":787872,
			"byteOffset":22988308,
			"target":34962
		},
		{
			"buffer":0,
			"byteLength":525248,
			"byteOffset":23776180,
			"target":34962
		},
		{
			"buffer":0,
			"byteLength":1309440,
			"byteOffset":24301428,
			"target":34963
		},
		{
			"buffer":0,
			"byteLength":787260,
			"byteOffset":25610868,
			"target":34962
		},
		{
			"buffer":0,
			"byteLength":787260,
			"byteOffset":26398128,
			"target":34962
		},
		{
			"buffer":0,
			"byteLength":524840,
			"byteOffset":27185388,
			"target":34962
		},
		{
			"buffer":0,
			"byteLength":1399716,
			"byteOffset":27710228,
			"target":34963
		},
		{
			"buffer":0,
			"byteLength":787668,
			"byteOffset":29109944,
			"target":34962
		},
		{
			"buffer":0,
			"byteLength":787668,
			"byteOffset":29897612,
			"target":34962
		},
		{
			"buffer":0,
			"byteLength":525112,
			"byteOffset":30685280,
			"target":34962
		},
		{
			"buffer":0,
			"byteLength":1264908,
			"byteOffset":31210392,
			"target":34963
		},
		{
			"buffer":0,
			"byteLength":787392,
			"byteOffset":32475300,
			"target":34962
		},
		{
			"buffer":0,
			"byteLength":787392,
			"byteOffset":33262692,
			"target":34962
		},
		{
			"buffer":0,
			"byteLength":524928,
			"byteOffset":34050084,
			"target":34962
		},
		{
			"buffer":0,
			"byteLength":1314840,
			"byteOffset":34575012,
			"target":34963
		},
		{
			"buffer":0,
			"byteLength":787272,
			"byteOffset":35889852,
			"target":34962
		},
		{
			"buffer":0,
			"byteLength":787272,
			"byteOffset":36677124,
			"target":34962
		},
		{
			"buffer":0,
			"byteLength":524848,
			"byteOffset":37464396,
			"target":34962
		},
		{
			"buffer":0,
			"byteLength":1307544,
			"byteOffset":37989244,
			"target":34963
		}
	],
	"samplers":[
		{
			"magFilter":9729,
			"minFilter":9987
		}
	],
	"buffers":[
		{
			"byteLength":39296788,
			"uri":"scene.bin"
		}
	]
}
