{
  "accessors": [
    {
      "bufferView": 2,
      "componentType": 5126,
      "count": 65532,
      "max": [
        30.80874252319336,
        31.70550537109375,
        25.603500366210938
      ],
      "min": [
        -26.791261672973633,
        -28.099254608154297,
        -5.397480010986328
      ],
      "type": "VEC3"
    },
    {
      "bufferView": 2,
      "byteOffset": 786384,
      "componentType": 5126,
      "count": 65532,
      "max": [
        1.0,
        1.0,
        1.0
      ],
      "min": [
        -0.9999999403953552,
        -0.9991376996040344,
        -1.0
      ],
      "type": "VEC3"
    },
    {
      "bufferView": 1,
      "componentType": 5126,
      "count": 65532,
      "max": [
        0.9388229846954346,
        0.7674869894981384
      ],
      "min": [
        0.0232510007917881,
        0.0015930000226944685
      ],
      "type": "VEC2"
    },
    {
      "bufferView": 0,
      "componentType": 5125,
      "count": 364461,
      "type": "SCALAR"
    },
    {
      "bufferView": 2,
      "byteOffset": 1572768,
      "componentType": 5126,
      "count": 65532,
      "max": [
        32.15874481201172,
        35.605506896972656,
        26.653501510620117
      ],
      "min": [
        -24.40512466430664,
        -32.49449920654297,
        -3.051024913787842
      ],
      "type": "VEC3"
    },
    {
      "bufferView": 2,
      "byteOffset": 2359152,
      "componentType": 5126,
      "count": 65532,
      "max": [
        1.0,
        0.9998811483383179,
        1.0
      ],
      "min": [
        -1.0,
        -1.0,
        -1.0
      ],
      "type": "VEC3"
    },
    {
      "bufferView": 1,
      "byteOffset": 524256,
      "componentType": 5126,
      "count": 65532,
      "max": [
        0.9521380066871643,
        0.7907389998435974
      ],
      "min": [
        0.7672920227050781,
        0.1677200049161911
      ],
      "type": "VEC2"
    },
    {
      "bufferView": 0,
      "byteOffset": 1457844,
      "componentType": 5125,
      "count": 375354,
      "type": "SCALAR"
    },
    {
      "bufferView": 2,
      "byteOffset": 3145536,
      "componentType": 5126,
      "count": 65532,
      "max": [
        36.23520278930664,
        38.129940032958984,
        19.603500366210938
      ],
      "min": [
        -7.741260051727295,
        -15.094497680664063,
        -1.1991950273513794
      ],
      "type": "VEC3"
    },
    {
      "bufferView": 2,
      "byteOffset": 3931920,
      "componentType": 5126,
      "count": 65532,
      "max": [
        1.0,
        1.0,
        0.8399196267127991
      ],
      "min": [
        -0.9092646837234497,
        -0.9970338344573975,
        -1.0
      ],
      "type": "VEC3"
    },
    {
      "bufferView": 1,
      "byteOffset": 1048512,
      "componentType": 5126,
      "count": 65532,
      "max": [
        0.9391800165176392,
        0.9766870141029358
      ],
      "min": [
        0.3952710032463074,
        0.3587220013141632
      ],
      "type": "VEC2"
    },
    {
      "bufferView": 0,
      "byteOffset": 2959260,
      "componentType": 5125,
      "count": 362007,
      "type": "SCALAR"
    },
    {
      "bufferView": 2,
      "byteOffset": 4718304,
      "componentType": 5126,
      "count": 65532,
      "max": [
        35.39784240722656,
        38.117191314697266,
        21.25349998474121
      ],
      "min": [
        -28.891691207885742,
        -32.53327178955078,
        0.25349900126457214
      ],
      "type": "VEC3"
    },
    {
      "bufferView": 2,
      "byteOffset": 5504688,
      "componentType": 5126,
      "count": 65532,
      "max": [
        1.0,
        1.0,
        1.0
      ],
      "min": [
        -0.9861721992492676,
        -1.0,
        -0.9996078014373779
      ],
      "type": "VEC3"
    },
    {
      "bufferView": 1,
      "byteOffset": 1572768,
      "componentType": 5126,
      "count": 65532,
      "max": [
        0.5921679735183716,
        0.9767490029335022
      ],
      "min": [
        0.0232510007917881,
        0.47508499026298523
      ],
      "type": "VEC2"
    },
    {
      "bufferView": 0,
      "byteOffset": 4407288,
      "componentType": 5125,
      "count": 327360,
      "type": "SCALAR"
    },
    {
      "bufferView": 2,
      "byteOffset": 6291072,
      "componentType": 5126,
      "count": 65532,
      "max": [
        35.75874328613281,
        1.555503010749817,
        23.75322914123535
      ],
      "min": [
        -34.6987419128418,
        -27.415786743164063,
        3.103498935699463
      ],
      "type": "VEC3"
    },
    {
      "bufferView": 2,
      "byteOffset": 7077456,
      "componentType": 5126,
      "count": 65532,
      "max": [
        0.9999446272850037,
        0.9973830580711365,
        1.0
      ],
      "min": [
        -0.9999909400939941,
        -0.9997639656066895,
        -0.913053572177887
      ],
      "type": "VEC3"
    },
    {
      "bufferView": 1,
      "byteOffset": 2097024,
      "componentType": 5126,
      "count": 65532,
      "max": [
        0.2693080008029938,
        0.9296950101852417
      ],
      "min": [
        0.06729300320148468,
        0.47538700699806213
      ],
      "type": "VEC2"
    },
    {
      "bufferView": 0,
      "byteOffset": 5716728,
      "componentType": 5125,
      "count": 349929,
      "type": "SCALAR"
    },
    {
      "bufferView": 2,
      "byteOffset": 7863840,
      "componentType": 5126,
      "count": 65532,
      "max": [
        36.023380279541016,
        11.155503273010254,
        25.251646041870117
      ],
      "min": [
        -36.80787658691406,
        -31.50341033935547,
        3.332369089126587
      ],
      "type": "VEC3"
    },
    {
      "bufferView": 2,
      "byteOffset": 8650224,
      "componentType": 5126,
      "count": 65532,
      "max": [
        0.995287299156189,
        0.8590582609176636,
        1.0
      ],
      "min": [
        -0.9999905228614807,
        -1.0,
        -0.6580885052680969
      ],
      "type": "VEC3"
    },
    {
      "bufferView": 1,
      "byteOffset": 2621280,
      "componentType": 5126,
      "count": 65532,
      "max": [
        0.3331969976425171,
        0.9761919975280762
      ],
      "min": [
        0.04981699958443642,
        0.47114500403404236
      ],
      "type": "VEC2"
    },
    {
      "bufferView": 0,
      "byteOffset": 7116444,
      "componentType": 5125,
      "count": 316227,
      "type": "SCALAR"
    },
    {
      "bufferView": 2,
      "byteOffset": 9436608,
      "componentType": 5126,
      "count": 65532,
      "max": [
        36.041648864746094,
        20.305503845214844,
        26.128997802734375
      ],
      "min": [
        -36.80787658691406,
        -32.70232391357422,
        2.353498935699463
      ],
      "type": "VEC3"
    },
    {
      "bufferView": 2,
      "byteOffset": 10222992,
      "componentType": 5126,
      "count": 65532,
      "max": [
        0.9987844228744507,
        0.9428791999816895,
        1.0
      ],
      "min": [
        -1.0,
        -1.0,
        -0.9153357148170471
      ],
      "type": "VEC3"
    },
    {
      "bufferView": 1,
      "byteOffset": 3145536,
      "componentType": 5126,
      "count": 65532,
      "max": [
        0.3903830051422119,
        0.9767490029335022
      ],
      "min": [
        0.023886999115347862,
        0.46965500712394714
      ],
      "type": "VEC2"
    },
    {
      "bufferView": 0,
      "byteOffset": 8381352,
      "componentType": 5125,
      "count": 328710,
      "type": "SCALAR"
    },
    {
      "bufferView": 2,
      "byteOffset": 11009376,
      "componentType": 5126,
      "count": 65532,
      "max": [
        35.98881149291992,
        35.31633758544922,
        24.18752098083496
      ],
      "min": [
        -36.77281951904297,
        -25.74449920654297,
        -0.49650099873542786
      ],
      "type": "VEC3"
    },
    {
      "bufferView": 2,
      "byteOffset": 11795760,
      "componentType": 5126,
      "count": 65532,
      "max": [
        0.9957542419433594,
        1.0,
        1.0
      ],
      "min": [
        -1.0,
        -0.9999788999557495,
        -0.9999793171882629
      ],
      "type": "VEC3"
    },
    {
      "bufferView": 1,
      "byteOffset": 3669792,
      "componentType": 5126,
      "count": 65532,
      "max": [
        0.5513820052146912,
        0.9475859999656677
      ],
      "min": [
        0.0607450008392334,
        0.2153400033712387
      ],
      "type": "VEC2"
    },
    {
      "bufferView": 0,
      "byteOffset": 9696192,
      "componentType": 5125,
      "count": 326886,
      "type": "SCALAR"
    },
    {
      "bufferView": 2,
      "byteOffset": 12582144,
      "componentType": 5126,
      "count": 65532,
      "max": [
        18.358741760253906,
        19.40550422668457,
        10.753499984741211
      ],
      "min": [
        -35.880027770996094,
        -27.544498443603516,
        -5.619990825653076
      ],
      "type": "VEC3"
    },
    {
      "bufferView": 2,
      "byteOffset": 13368528,
      "componentType": 5126,
      "count": 65532,
      "max": [
        1.0,
        0.9807204008102417,
        0.07363428175449371
      ],
      "min": [
        -1.0,
        -0.9986125230789185,
        -1.0
      ],
      "type": "VEC3"
    },
    {
      "bufferView": 1,
      "byteOffset": 4194048,
      "componentType": 5126,
      "count": 65532,
      "max": [
        0.9757530093193054,
        0.9767490029335022
      ],
      "min": [
        0.38715898990631104,
        0.5587970018386841
      ],
      "type": "VEC2"
    },
    {
      "bufferView": 0,
      "byteOffset": 11003736,
      "componentType": 5125,
      "count": 377379,
      "type": "SCALAR"
    },
    {
      "bufferView": 2,
      "byteOffset": 14154912,
      "componentType": 5126,
      "count": 65532,
      "max": [
        35.69962692260742,
        38.028770446777344,
        26.147497177124023
      ],
      "min": [
        -31.89126205444336,
        -27.12192726135254,
        -5.516873836517334
      ],
      "type": "VEC3"
    },
    {
      "bufferView": 2,
      "byteOffset": 14941296,
      "componentType": 5126,
      "count": 65532,
      "max": [
        1.0,
        1.0,
        1.0
      ],
      "min": [
        -1.0,
        -0.9997050166130066,
        -1.0
      ],
      "type": "VEC3"
    },
    {
      "bufferView": 1,
      "byteOffset": 4718304,
      "componentType": 5126,
      "count": 65532,
      "max": [
        0.9713299870491028,
        0.9767490029335022
      ],
      "min": [
        0.06975399702787399,
        0.12177599966526031
      ],
      "type": "VEC2"
    },
    {
      "bufferView": 0,
      "byteOffset": 12513252,
      "componentType": 5125,
      "count": 372690,
      "type": "SCALAR"
    },
    {
      "bufferView": 2,
      "byteOffset": 15727680,
      "componentType": 5126,
      "count": 65532,
      "max": [
        21.05874252319336,
        38.094417572021484,
        26.864694595336914
      ],
      "min": [
        -33.83562088012695,
        12.205503463745117,
        4.603498935699463
      ],
      "type": "VEC3"
    },
    {
      "bufferView": 2,
      "byteOffset": 16514064,
      "componentType": 5126,
      "count": 65532,
      "max": [
        0.9996891617774963,
        1.0,
        1.0
      ],
      "min": [
        -1.0,
        -1.0,
        -0.9995294213294983
      ],
      "type": "VEC3"
    },
    {
      "bufferView": 1,
      "byteOffset": 5242560,
      "componentType": 5126,
      "count": 65532,
      "max": [
        0.6737449765205383,
        0.6879860162734985
      ],
      "min": [
        0.16275900602340698,
        0.04278000071644783
      ],
      "type": "VEC2"
    },
    {
      "bufferView": 0,
      "byteOffset": 14004012,
      "componentType": 5125,
      "count": 376245,
      "type": "SCALAR"
    },
    {
      "bufferView": 2,
      "byteOffset": 17300448,
      "componentType": 5126,
      "count": 16458,
      "max": [
        36.22468566894531,
        24.346433639526367,
        24.55350112915039
      ],
      "min": [
        -34.05000305175781,
        -7.6700029373168945,
        5.723021030426025
      ],
      "type": "VEC3"
    },
    {
      "bufferView": 2,
      "byteOffset": 17497944,
      "componentType": 5126,
      "count": 16458,
      "max": [
        0.9999999403953552,
        1.0,
        0.999900221824646
      ],
      "min": [
        -1.0,
        -0.9727839231491089,
        -0.999454915523529
      ],
      "type": "VEC3"
    },
    {
      "bufferView": 1,
      "byteOffset": 5766816,
      "componentType": 5126,
      "count": 16458,
      "max": [
        0.7116860151290894,
        0.697733998298645
      ],
      "min": [
        0.5137919783592224,
        0.19753600656986237
      ],
      "type": "VEC2"
    },
    {
      "bufferView": 0,
      "byteOffset": 15508992,
      "componentType": 5125,
      "count": 86634,
      "type": "SCALAR"
    }
  ],
  "asset": {
    "extras": {
      "author": "IPCH Digitization Lab (https://sketchfab.com/IPCH_Yale)",
      "license": "CC-BY-NC-4.0 (http://creativecommons.org/licenses/by-nc/4.0/)",
      "source": "https://sketchfab.com/3d-models/the-diagonal-of-a-square-tablet-605c9d9573d14b52b8880e14c826e133",
      "title": "The Diagonal of a Square tablet"
    },
    "generator": "Sketchfab-12.65.0",
    "version": "2.0"
  },
  "bufferViews": [
    {
      "buffer": 0,
      "byteLength": 15855528,
      "name": "floatBufferViews",
      "target": 34963
    },
    {
      "buffer": 0,
      "byteLength": 5898480,
      "byteOffset": 15855528,
      "byteStride": 8,
      "name": "floatBufferViews",
      "target": 34962
    },
    {
      "buffer": 0,
      "byteLength": 17695440,
      "byteOffset": 21754008,
      "byteStride": 12,
      "name": "floatBufferViews",
      "target": 34962
    }
  ],
  "buffers": [
    {
      "byteLength": 39449448,
      "uri": "scene.bin"
    }
  ],
  "extensionsRequired": [
    "KHR_materials_pbrSpecularGlossiness"
  ],
  "extensionsUsed": [
    "KHR_materials_pbrSpecularGlossiness"
  ],
  "images": [
    {
      "uri": "textures/material_0_diffuse.png"
    }
  ],
  "materials": [
    {
      "doubleSided": true,
      "extensions": {
        "KHR_materials_pbrSpecularGlossiness": {
          "diffuseFactor": [
            1.0,
            1.0,
            1.0,
            1.0
          ],
          "diffuseTexture": {
            "index": 0
          },
          "glossinessFactor": 0.4376586748,
          "specularFactor": [
            0.0,
            0.0,
            0.0
          ]
        }
      },
      "name": "material_0"
    }
  ],
  "meshes": [
    {
      "name": "Object_0",
      "primitives": [
        {
          "attributes": {
            "NORMAL": 1,
            "POSITION": 0,
            "TEXCOORD_0": 2
          },
          "indices": 3,
          "material": 0,
          "mode": 4
        }
      ]
    },
    {
      "name": "Object_1",
      "primitives": [
        {
          "attributes": {
            "NORMAL": 5,
            "POSITION": 4,
            "TEXCOORD_0": 6
          },
          "indices": 7,
          "material": 0,
          "mode": 4
        }
      ]
    },
    {
      "name": "Object_2",
      "primitives": [
        {
          "attributes": {
            "NORMAL": 9,
            "POSITION": 8,
            "TEXCOORD_0": 10
          },
          "indices": 11,
          "material": 0,
          "mode": 4
        }
      ]
    },
    {
      "name": "Object_3",
      "primitives": [
        {
          "attributes": {
            "NORMAL": 13,
            "POSITION": 12,
            "TEXCOORD_0": 14
          },
          "indices": 15,
          "material": 0,
          "mode": 4
        }
      ]
    },
    {
      "name": "Object_4",
      "primitives": [
        {
          "attributes": {
            "NORMAL": 17,
            "POSITION": 16,
            "TEXCOORD_0": 18
          },
          "indices": 19,
          "material": 0,
          "mode": 4
        }
      ]
    },
    {
      "name": "Object_5",
      "primitives": [
        {
          "attributes": {
            "NORMAL": 21,
            "POSITION": 20,
            "TEXCOORD_0": 22
          },
          "indices": 23,
          "material": 0,
          "mode": 4
        }
      ]
    },
    {
      "name": "Object_6",
      "primitives": [
        {
          "attributes": {
            "NORMAL": 25,
            "POSITION": 24,
            "TEXCOORD_0": 26
          },
          "indices": 27,
          "material": 0,
          "mode": 4
        }
      ]
    },
    {
      "name": "Object_7",
      "primitives": [
        {
          "attributes": {
            "NORMAL": 29,
            "POSITION": 28,
            "TEXCOORD_0": 30
          },
          "indices": 31,
          "material": 0,
          "mode": 4
        }
      ]
    },
    {
      "name": "Object_8",
      "primitives": [
        {
          "attributes": {
            "NORMAL": 33,
            "POSITION": 32,
            "TEXCOORD_0": 34
          },
          "indices": 35,
          "material": 0,
          "mode": 4
        }
      ]
    },
    {
      "name": "Object_9",
      "primitives": [
        {
          "attributes": {
            "NORMAL": 37,
            "POSITION": 36,
            "TEXCOORD_0": 38
          },
          "indices": 39,
          "material": 0,
          "mode": 4
        }
      ]
    },
    {
      "name": "Object_10",
      "primitives": [
        {
          "attributes": {
            "NORMAL": 41,
            "POSITION": 40,
            "TEXCOORD_0": 42
          },
          "indices": 43,
          "material": 0,
          "mode": 4
        }
      ]
    },
    {
      "name": "Object_11",
      "primitives": [
        {
          "attributes": {
            "NORMAL": 45,
            "POSITION": 44,
            "TEXCOORD_0": 46
          },
          "indices": 47,
          "material": 0,
          "mode": 4
        }
      ]
    }
  ],
  "nodes": [
    {
      "children": [
        1
      ],
      "matrix": [
        0.7555457949638367,
        -0.6547073721885681,
        0.02255528979003415,
        0.0,
        0.6502152681350708,
        0.7452772855758667,
        -0.14758676290512068,
        0.0,
        0.07981619983911514,
        0.1261743605136869,
        0.9887918829917908,
        0.0,
        -2.589916229248047,
        8.609642028808597,
        -13.448271751403807,
        1.0
      ],
      "name": "Sketchfab_model"
    },
    {
      "children": [
        2,
        3,
        4,
        5,
        6,
        7,
        8,
        9,
        10,
        11,
        12,
        13
      ],
      "name": "YBC7289.obj.cleaner.materialmerger.gles"
    },
    {
      "mesh": 0,
      "name": "Object_2"
    },
    {
      "mesh": 1,
      "name": "Object_3"
    },
    {
      "mesh": 2,
      "name": "Object_4"
    },
    {
      "mesh": 3,
      "name": "Object_5"
    },
    {
      "mesh": 4,
      "name": "Object_6"
    },
    {
      "mesh": 5,
      "name": "Object_7"
    },
    {
      "mesh": 6,
      "name": "Object_8"
    },
    {
      "mesh": 7,
      "name": "Object_9"
    },
    {
      "mesh": 8,
      "name": "Object_10"
    },
    {
      "mesh": 9,
      "name": "Object_11"
    },
    {
      "mesh": 10,
      "name": "Object_12"
    },
    {
      "mesh": 11,
      "name": "Object_13"
    }
  ],
  "samplers": [
    {
      "magFilter": 9729,
      "minFilter": 9987,
      "wrapS": 10497,
      "wrapT": 10497
    }
  ],
  "scene": 0,
  "scenes": [
    {
      "name": "Sketchfab_Scene",
      "nodes": [
        0
      ]
    }
  ],
  "textures": [
    {
      "sampler": 0,
      "source": 0
    }
  ]
}
