{
  "accessors": [
    {
      "bufferView": 2,
      "componentType": 5126,
      "count": 65532,
      "max": [
        0.46365299820899963,
        4.884607791900635,
        11.324748992919922
      ],
      "min": [
        -4.042381763458252,
        -4.6224751472473145,
        0.36207300424575806
      ],
      "type": "VEC3"
    },
    {
      "bufferView": 2,
      "byteOffset": 786384,
      "componentType": 5126,
      "count": 65532,
      "max": [
        0.9997679591178894,
        0.9998002648353577,
        0.9999570846557617
      ],
      "min": [
        -0.9999995231628418,
        -0.9999737739562988,
        -0.9998419880867004
      ],
      "type": "VEC3"
    },
    {
      "bufferView": 1,
      "componentType": 5126,
      "count": 65532,
      "max": [
        0.9993839859962463,
        0.9976850152015686
      ],
      "min": [
        0.0006329999887384474,
        0.0006319999811239541
      ],
      "type": "VEC2"
    },
    {
      "bufferView": 0,
      "componentType": 5125,
      "count": 210909,
      "type": "SCALAR"
    },
    {
      "bufferView": 2,
      "byteOffset": 1572768,
      "componentType": 5126,
      "count": 65534,
      "max": [
        3.615787982940674,
        4.7970380783081055,
        11.324748992919922
      ],
      "min": [
        -3.4242889881134033,
        -4.663547992706299,
        0.6402159929275513
      ],
      "type": "VEC3"
    },
    {
      "bufferView": 2,
      "byteOffset": 2359176,
      "componentType": 5126,
      "count": 65534,
      "max": [
        0.9999984502792358,
        0.9999904632568359,
        0.9999971389770508
      ],
      "min": [
        -0.9999998807907104,
        -0.9999638795852661,
        -0.9994949698448181
      ],
      "type": "VEC3"
    },
    {
      "bufferView": 1,
      "byteOffset": 524256,
      "componentType": 5126,
      "count": 65534,
      "max": [
        0.9993510246276855,
        0.9968339800834656
      ],
      "min": [
        0.0006319999811239541,
        0.0006290000164881349
      ],
      "type": "VEC2"
    },
    {
      "bufferView": 0,
      "byteOffset": 843636,
      "componentType": 5125,
      "count": 203946,
      "type": "SCALAR"
    },
    {
      "bufferView": 2,
      "byteOffset": 3145584,
      "componentType": 5126,
      "count": 65532,
      "max": [
        3.693070888519287,
        5.991637229919434,
        8.554582595825195
      ],
      "min": [
        -1.0659220218658447,
        -3.84871506690979,
        0.27700701355934143
      ],
      "type": "VEC3"
    },
    {
      "bufferView": 2,
      "byteOffset": 3931968,
      "componentType": 5126,
      "count": 65532,
      "max": [
        1.0,
        0.9999749660491943,
        0.9999992847442627
      ],
      "min": [
        -0.9975699186325073,
        -0.9999433755874634,
        -0.9983497858047485
      ],
      "type": "VEC3"
    },
    {
      "bufferView": 1,
      "byteOffset": 1048528,
      "componentType": 5126,
      "count": 65532,
      "max": [
        0.9993529915809631,
        0.9922289848327637
      ],
      "min": [
        0.0006360000115819275,
        0.0006309999735094607
      ],
      "type": "VEC2"
    },
    {
      "bufferView": 0,
      "byteOffset": 1659420,
      "componentType": 5125,
      "count": 213924,
      "type": "SCALAR"
    },
    {
      "bufferView": 2,
      "byteOffset": 4718352,
      "componentType": 5126,
      "count": 65534,
      "max": [
        3.6948258876800537,
        7.646907806396484,
        8.57163143157959
      ],
      "min": [
        -0.6919050216674805,
        -7.455502986907959,
        0.27417999505996704
      ],
      "type": "VEC3"
    },
    {
      "bufferView": 2,
      "byteOffset": 5504760,
      "componentType": 5126,
      "count": 65534,
      "max": [
        1.0,
        1.0,
        0.9999963045120239
      ],
      "min": [
        -0.9997400641441345,
        -0.9999998807907104,
        -0.9999252557754517
      ],
      "type": "VEC3"
    },
    {
      "bufferView": 1,
      "byteOffset": 1572784,
      "componentType": 5126,
      "count": 65534,
      "max": [
        0.999301016330719,
        0.9934589862823486
      ],
      "min": [
        0.0006350000039674342,
        0.0006300000241026282
      ],
      "type": "VEC2"
    },
    {
      "bufferView": 0,
      "byteOffset": 2515116,
      "componentType": 5125,
      "count": 209175,
      "type": "SCALAR"
    },
    {
      "bufferView": 2,
      "byteOffset": 6291168,
      "componentType": 5126,
      "count": 65532,
      "max": [
        3.68943190574646,
        7.647086143493652,
        7.00806188583374
      ],
      "min": [
        -3.6636838912963867,
        -7.490394115447998,
        0.27266401052474976
      ],
      "type": "VEC3"
    },
    {
      "bufferView": 2,
      "byteOffset": 7077552,
      "componentType": 5126,
      "count": 65532,
      "max": [
        1.0,
        1.0,
        0.9999744892120361
      ],
      "min": [
        -0.9999995231628418,
        -0.999998927116394,
        -0.9996240735054016
      ],
      "type": "VEC3"
    },
    {
      "bufferView": 1,
      "byteOffset": 2097056,
      "componentType": 5126,
      "count": 65532,
      "max": [
        0.9993640184402466,
        0.995701014995575
      ],
      "min": [
        0.0006319999811239541,
        0.0006300000241026282
      ],
      "type": "VEC2"
    },
    {
      "bufferView": 0,
      "byteOffset": 3351816,
      "componentType": 5125,
      "count": 197370,
      "type": "SCALAR"
    },
    {
      "bufferView": 2,
      "byteOffset": 7863936,
      "componentType": 5126,
      "count": 65532,
      "max": [
        3.6832149028778076,
        7.647086143493652,
        11.031149864196777
      ],
      "min": [
        -4.056056022644043,
        -7.4557671546936035,
        0.3270289897918701
      ],
      "type": "VEC3"
    },
    {
      "bufferView": 2,
      "byteOffset": 8650320,
      "componentType": 5126,
      "count": 65532,
      "max": [
        1.0,
        0.9999945163726807,
        0.9999997615814209
      ],
      "min": [
        -0.9999995231628418,
        -0.9999998807907104,
        -0.999895453453064
      ],
      "type": "VEC3"
    },
    {
      "bufferView": 1,
      "byteOffset": 2621312,
      "componentType": 5126,
      "count": 65532,
      "max": [
        0.9993669986724854,
        0.9976199865341187
      ],
      "min": [
        0.0006309999735094607,
        0.0006290000164881349
      ],
      "type": "VEC2"
    },
    {
      "bufferView": 0,
      "byteOffset": 4141296,
      "componentType": 5125,
      "count": 186531,
      "type": "SCALAR"
    },
    {
      "bufferView": 2,
      "byteOffset": 9436704,
      "componentType": 5126,
      "count": 65532,
      "max": [
        -0.07364100217819214,
        7.583413124084473,
        8.039688110351563
      ],
      "min": [
        -4.235702991485596,
        -7.490437030792236,
        0.3275890052318573
      ],
      "type": "VEC3"
    },
    {
      "bufferView": 2,
      "byteOffset": 10223088,
      "componentType": 5126,
      "count": 65532,
      "max": [
        0.9999392032623291,
        0.9999997615814209,
        0.9999747276306152
      ],
      "min": [
        -0.9999998807907104,
        -0.9999997615814209,
        -0.9988713264465332
      ],
      "type": "VEC3"
    },
    {
      "bufferView": 1,
      "byteOffset": 3145568,
      "componentType": 5126,
      "count": 65532,
      "max": [
        0.9993590116500854,
        0.9954180121421814
      ],
      "min": [
        0.0006980000180192292,
        0.0006300000241026282
      ],
      "type": "VEC2"
    },
    {
      "bufferView": 0,
      "byteOffset": 4887420,
      "componentType": 5125,
      "count": 206742,
      "type": "SCALAR"
    },
    {
      "bufferView": 2,
      "byteOffset": 11009472,
      "componentType": 5126,
      "count": 65532,
      "max": [
        -0.07946299761533737,
        3.9851489067077637,
        8.049006462097168
      ],
      "min": [
        -3.873992919921875,
        -7.490394115447998,
        0.3648819923400879
      ],
      "type": "VEC3"
    },
    {
      "bufferView": 2,
      "byteOffset": 11795856,
      "componentType": 5126,
      "count": 65532,
      "max": [
        0.9996963143348694,
        0.969216525554657,
        0.9999740123748779
      ],
      "min": [
        -1.0,
        -0.9999991655349731,
        -0.9977816939353943
      ],
      "type": "VEC3"
    },
    {
      "bufferView": 1,
      "byteOffset": 3669824,
      "componentType": 5126,
      "count": 65532,
      "max": [
        0.9994339942932129,
        0.9990010261535645
      ],
      "min": [
        0.0006309999735094607,
        0.0006300000241026282
      ],
      "type": "VEC2"
    },
    {
      "bufferView": 0,
      "byteOffset": 5714388,
      "componentType": 5125,
      "count": 196545,
      "type": "SCALAR"
    },
    {
      "bufferView": 2,
      "byteOffset": 12582240,
      "componentType": 5126,
      "count": 65533,
      "max": [
        -0.08417899906635284,
        5.692502021789551,
        8.105915069580078
      ],
      "min": [
        -4.242496967315674,
        -3.337775945663452,
        3.8367791175842285
      ],
      "type": "VEC3"
    },
    {
      "bufferView": 2,
      "byteOffset": 13368636,
      "componentType": 5126,
      "count": 65533,
      "max": [
        0.9995715022087097,
        0.9999961853027344,
        0.9999980926513672
      ],
      "min": [
        -0.9999963045120239,
        -0.9998798370361328,
        -0.9997860789299011
      ],
      "type": "VEC3"
    },
    {
      "bufferView": 1,
      "byteOffset": 4194080,
      "componentType": 5126,
      "count": 65533,
      "max": [
        0.9993810057640076,
        0.9990419745445251
      ],
      "min": [
        0.0006399999838322401,
        0.0006319999811239541
      ],
      "type": "VEC2"
    },
    {
      "bufferView": 0,
      "byteOffset": 6500568,
      "componentType": 5125,
      "count": 200100,
      "type": "SCALAR"
    },
    {
      "bufferView": 2,
      "byteOffset": 14155032,
      "componentType": 5126,
      "count": 34568,
      "max": [
        -0.0847259983420372,
        4.042728900909424,
        10.790364265441895
      ],
      "min": [
        -4.239912986755371,
        -3.355123996734619,
        3.7856249809265137
      ],
      "type": "VEC3"
    },
    {
      "bufferView": 2,
      "byteOffset": 14569848,
      "componentType": 5126,
      "count": 34568,
      "max": [
        0.9986871480941772,
        0.9999260902404785,
        0.9998733997344971
      ],
      "min": [
        -0.999985933303833,
        -0.999838650226593,
        -0.9997848868370056
      ],
      "type": "VEC3"
    },
    {
      "bufferView": 1,
      "byteOffset": 4718344,
      "componentType": 5126,
      "count": 34568,
      "max": [
        0.9993810057640076,
        0.9980810284614563
      ],
      "min": [
        0.0006300000241026282,
        0.0006300000241026282
      ],
      "type": "VEC2"
    },
    {
      "bufferView": 0,
      "byteOffset": 7300968,
      "componentType": 5125,
      "count": 87795,
      "type": "SCALAR"
    },
    {
      "bufferView": 2,
      "byteOffset": 14984664,
      "componentType": 5126,
      "count": 6252,
      "max": [
        3.6892030239105225,
        7.605494976043701,
        0.37809398770332336
      ],
      "min": [
        -3.660444974899292,
        -7.489083766937256,
        0.27266401052474976
      ],
      "type": "VEC3"
    },
    {
      "bufferView": 2,
      "byteOffset": 15059688,
      "componentType": 5126,
      "count": 6252,
      "max": [
        0.565178394317627,
        0.8972084522247314,
        0.5394340753555298
      ],
      "min": [
        -0.5114922523498535,
        -0.005500078201293945,
        -0.9999994039535522
      ],
      "type": "VEC3"
    },
    {
      "bufferView": 1,
      "byteOffset": 4994888,
      "componentType": 5126,
      "count": 6252,
      "max": [
        0.375,
        0.9425680041313171
      ],
      "min": [
        0.375,
        0.8073449730873108
      ],
      "type": "VEC2"
    },
    {
      "bufferView": 0,
      "byteOffset": 7652148,
      "componentType": 5125,
      "count": 8319,
      "type": "SCALAR"
    }
  ],
  "asset": {
    "extras": {
      "author": "noe-3d.at (https://sketchfab.com/www.noe-3d.at)",
      "license": "CC-BY-NC-4.0 (http://creativecommons.org/licenses/by-nc/4.0/)",
      "source": "https://sketchfab.com/3d-models/grabfigur-04aa53e76761434b8618be7a1a98812d",
      "title": "Grabfigur"
    },
    "generator": "Sketchfab-16.15.0",
    "version": "2.0"
  },
  "bufferViews": [
    {
      "buffer": 0,
      "byteLength": 7685424,
      "name": "floatBufferViews",
      "target": 34963
    },
    {
      "buffer": 0,
      "byteLength": 5044904,
      "byteOffset": 7685424,
      "byteStride": 8,
      "name": "floatBufferViews",
      "target": 34962
    },
    {
      "buffer": 0,
      "byteLength": 15134712,
      "byteOffset": 12730328,
      "byteStride": 12,
      "name": "floatBufferViews",
      "target": 34962
    }
  ],
  "buffers": [
    {
      "byteLength": 27865040,
      "uri": "scene.bin"
    }
  ],
  "extensionsUsed": [
    "KHR_materials_specular"
  ],
  "images": [
    {
      "uri": "textures/Grabfigur_O.001_baseColor.png"
    }
  ],
  "materials": [
    {
      "doubleSided": true,
      "extensions": {
        "KHR_materials_specular": {
          "specularColorFactor": [
            1.0,
            1.0,
            1.0
          ],
          "specularFactor": 0.0
        }
      },
      "name": "Grabfigur_O.001",
      "pbrMetallicRoughness": {
        "baseColorTexture": {
          "index": 0
        },
        "metallicFactor": 0.0
      }
    },
    {
      "doubleSided": true,
      "extensions": {
        "KHR_materials_specular": {
          "specularColorFactor": [
            1.0,
            1.0,
            1.0
          ],
          "specularFactor": 0.0
        }
      },
      "name": "bottom",
      "pbrMetallicRoughness": {
        "baseColorFactor": [
          0.014676405870951224,
          0.014676405870951224,
          0.014676405870951224,
          1.0
        ],
        "metallicFactor": 0.0
      }
    }
  ],
  "meshes": [
    {
      "name": "Object_0",
      "primitives": [
        {
          "attributes": {
            "NORMAL": 1,
            "POSITION": 0,
            "TEXCOORD_0": 2
          },
          "indices": 3,
          "material": 0,
          "mode": 4
        }
      ]
    },
    {
      "name": "Object_1",
      "primitives": [
        {
          "attributes": {
            "NORMAL": 5,
            "POSITION": 4,
            "TEXCOORD_0": 6
          },
          "indices": 7,
          "material": 0,
          "mode": 4
        }
      ]
    },
    {
      "name": "Object_2",
      "primitives": [
        {
          "attributes": {
            "NORMAL": 9,
            "POSITION": 8,
            "TEXCOORD_0": 10
          },
          "indices": 11,
          "material": 0,
          "mode": 4
        }
      ]
    },
    {
      "name": "Object_3",
      "primitives": [
        {
          "attributes": {
            "NORMAL": 13,
            "POSITION": 12,
            "TEXCOORD_0": 14
          },
          "indices": 15,
          "material": 0,
          "mode": 4
        }
      ]
    },
    {
      "name": "Object_4",
      "primitives": [
        {
          "attributes": {
            "NORMAL": 17,
            "POSITION": 16,
            "TEXCOORD_0": 18
          },
          "indices": 19,
          "material": 0,
          "mode": 4
        }
      ]
    },
    {
      "name": "Object_5",
      "primitives": [
        {
          "attributes": {
            "NORMAL": 21,
            "POSITION": 20,
            "TEXCOORD_0": 22
          },
          "indices": 23,
          "material": 0,
          "mode": 4
        }
      ]
    },
    {
      "name": "Object_6",
      "primitives": [
        {
          "attributes": {
            "NORMAL": 25,
            "POSITION": 24,
            "TEXCOORD_0": 26
          },
          "indices": 27,
          "material": 0,
          "mode": 4
        }
      ]
    },
    {
      "name": "Object_7",
      "primitives": [
        {
          "attributes": {
            "NORMAL": 29,
            "POSITION": 28,
            "TEXCOORD_0": 30
          },
          "indices": 31,
          "material": 0,
          "mode": 4
        }
      ]
    },
    {
      "name": "Object_8",
      "primitives": [
        {
          "attributes": {
            "NORMAL": 33,
            "POSITION": 32,
            "TEXCOORD_0": 34
          },
          "indices": 35,
          "material": 0,
          "mode": 4
        }
      ]
    },
    {
      "name": "Object_9",
      "primitives": [
        {
          "attributes": {
            "NORMAL": 37,
            "POSITION": 36,
            "TEXCOORD_0": 38
          },
          "indices": 39,
          "material": 0,
          "mode": 4
        }
      ]
    },
    {
      "name": "Object_10",
      "primitives": [
        {
          "attributes": {
            "NORMAL": 41,
            "POSITION": 40,
            "TEXCOORD_0": 42
          },
          "indices": 43,
          "material": 1,
          "mode": 4
        }
      ]
    }
  ],
  "nodes": [
    {
      "children": [
        1
      ],
      "matrix": [
        0.0007607016458570856,
        0.0005856391833476822,
        -0.058091608074289924,
        0.0,
        -0.058094562015466256,
        7.668475047981816e-06,
        -0.0007606630117348717,
        0.0,
        -5.0393319563370824e-20,
        0.05809659133496137,
        0.0005856893968846773,
        0.0,
        0.0,
        0.0,
        0.0,
        1.0
      ],
      "name": "Sketchfab_model"
    },
    {
      "children": [
        2,
        3,
        4,
        5,
        6,
        7,
        8,
        9,
        10,
        11,
        12
      ],
      "name": "Grabfigur_C.obj.cleaner.materialmerger.gles"
    },
    {
      "mesh": 0,
      "name": "Object_2"
    },
    {
      "mesh": 1,
      "name": "Object_3"
    },
    {
      "mesh": 2,
      "name": "Object_4"
    },
    {
      "mesh": 3,
      "name": "Object_5"
    },
    {
      "mesh": 4,
      "name": "Object_6"
    },
    {
      "mesh": 5,
      "name": "Object_7"
    },
    {
      "mesh": 6,
      "name": "Object_8"
    },
    {
      "mesh": 7,
      "name": "Object_9"
    },
    {
      "mesh": 8,
      "name": "Object_10"
    },
    {
      "mesh": 9,
      "name": "Object_11"
    },
    {
      "mesh": 10,
      "name": "Object_12"
    }
  ],
  "samplers": [
    {
      "magFilter": 9729,
      "minFilter": 9987,
      "wrapS": 10497,
      "wrapT": 10497
    }
  ],
  "scene": 0,
  "scenes": [
    {
      "name": "Sketchfab_Scene",
      "nodes": [
        0
      ]
    }
  ],
  "textures": [
    {
      "sampler": 0,
      "source": 0
    }
  ]
}
