{
	"asset":{
		"generator":"Khronos glTF Blender I/O v4.2.57",
		"version":"2.0"
	},
	"extensionsUsed":[
		"KHR_materials_specular",
		"KHR_materials_ior"
	],
	"scene":0,
	"scenes":[
		{
			"name":"Scene",
			"nodes":[
				15
			]
		}
	],
	"nodes":[
		{
			"mesh":0,
			"name":"Object_10",
			"translation":[
				2.034175395965576,
				-29.615684509277344,
				-4.569918155670166
			]
		},
		{
			"mesh":1,
			"name":"Object_11",
			"translation":[
				11.173112869262695,
				-23.50604248046875,
				-7.06912088394165
			]
		},
		{
			"mesh":2,
			"name":"Object_12",
			"translation":[
				-12.228116035461426,
				-3.302168607711792,
				18.134340286254883
			]
		},
		{
			"mesh":3,
			"name":"Object_13",
			"translation":[
				15.409485816955566,
				-13.238945007324219,
				17.210298538208008
			]
		},
		{
			"mesh":4,
			"name":"Object_14",
			"translation":[
				-24.828062057495117,
				-16.83968734741211,
				14.526996612548828
			]
		},
		{
			"mesh":5,
			"name":"Object_15",
			"translation":[
				-17.875919342041016,
				-19.21587371826172,
				-0.6959906220436096
			]
		},
		{
			"mesh":6,
			"name":"Object_2",
			"translation":[
				-8.38817024230957,
				-6.772818565368652,
				11.664149284362793
			]
		},
		{
			"mesh":7,
			"name":"Object_3",
			"translation":[
				-0.6537672877311707,
				-4.362529277801514,
				16.19980812072754
			]
		},
		{
			"mesh":8,
			"name":"Object_4",
			"translation":[
				-11.268176078796387,
				-11.049072265625,
				-14.385858535766602
			]
		},
		{
			"mesh":9,
			"name":"Object_5",
			"translation":[
				-20.838947296142578,
				-2.7990660667419434,
				4.367083549499512
			]
		},
		{
			"mesh":10,
			"name":"Object_6",
			"translation":[
				0.9733806848526001,
				-15.436589241027832,
				-8.169145584106445
			]
		},
		{
			"mesh":11,
			"name":"Object_7",
			"translation":[
				8.486273765563965,
				-14.556558609008789,
				-17.558250427246094
			]
		},
		{
			"mesh":12,
			"name":"Object_8",
			"translation":[
				6.3285932540893555,
				-11.16074275970459,
				-4.94577169418335
			]
		},
		{
			"mesh":13,
			"name":"Object_9",
			"translation":[
				7.202853679656982,
				-27.76919937133789,
				1.1425681114196777
			]
		},
		{
			"children":[
				0,
				1,
				2,
				3,
				4,
				5,
				6,
				7,
				8,
				9,
				10,
				11,
				12,
				13
			],
			"name":"YBC7302.obj.cleaner.materialmerger.gles",
			"translation":[
				0,
				-4.548579454421997e-06,
				0
			]
		},
		{
			"children":[
				14
			],
			"name":"Sketchfab_model",
			"rotation":[
				-0.02183486521244049,
				-0.5046533942222595,
				0.8623917698860168,
				0.03359619155526161
			],
			"scale":[
				0.02611691504716873,
				0.026116911321878433,
				0.026116911321878433
			],
			"translation":[
				-0.01220463216304779,
				-0.2529337406158447,
				-0.7619836926460266
			]
		}
	],
	"materials":[
		{
			"doubleSided":true,
			"extensions":{
				"KHR_materials_specular":{
					"specularColorFactor":[
						0.0,
						0.0,
						0.0
					]
				},
				"KHR_materials_ior":{
					"ior":1000
				}
			},
			"name":"material_0",
			"pbrMetallicRoughness":{
				"baseColorTexture":{
					"index":0
				},
				"metallicFactor":0,
				"roughnessFactor":0.5623413324356079
			}
		}
	],
	"meshes":[
		{
			"name":"Object_8",
			"primitives":[
				{
					"attributes":{
						"POSITION":0,
						"NORMAL":1,
						"TEXCOORD_0":2
					},
					"indices":3,
					"material":0
				}
			]
		},
		{
			"name":"Object_9",
			"primitives":[
				{
					"attributes":{
						"POSITION":4,
						"NORMAL":5,
						"TEXCOORD_0":6
					},
					"indices":7,
					"material":0
				}
			]
		},
		{
			"name":"Object_10",
			"primitives":[
				{
					"attributes":{
						"POSITION":8,
						"NORMAL":9,
						"TEXCOORD_0":10
					},
					"indices":11,
					"material":0
				}
			]
		},
		{
			"name":"Object_11",
			"primitives":[
				{
					"attributes":{
						"POSITION":12,
						"NORMAL":13,
						"TEXCOORD_0":14
					},
					"indices":15,
					"material":0
				}
			]
		},
		{
			"name":"Object_12",
			"primitives":[
				{
					"attributes":{
						"POSITION":16,
						"NORMAL":17,
						"TEXCOORD_0":18
					},
					"indices":19,
					"material":0
				}
			]
		},
		{
			"name":"Object_13",
			"primitives":[
				{
					"attributes":{
						"POSITION":20,
						"NORMAL":21,
						"TEXCOORD_0":22
					},
					"indices":23,
					"material":0
				}
			]
		},
		{
			"name":"Object_0",
			"primitives":[
				{
					"attributes":{
						"POSITION":24,
						"NORMAL":25,
						"TEXCOORD_0":26
					},
					"indices":27,
					"material":0
				}
			]
		},
		{
			"name":"Object_1",
			"primitives":[
				{
					"attributes":{
						"POSITION":28,
						"NORMAL":29,
						"TEXCOORD_0":30
					},
					"indices":31,
					"material":0
				}
			]
		},
		{
			"name":"Object_2",
			"primitives":[
				{
					"attributes":{
						"POSITION":32,
						"NORMAL":33,
						"TEXCOORD_0":34
					},
					"indices":35,
					"material":0
				}
			]
		},
		{
			"name":"Object_3",
			"primitives":[
				{
					"attributes":{
						"POSITION":36,
						"NORMAL":37,
						"TEXCOORD_0":38
					},
					"indices":39,
					"material":0
				}
			]
		},
		{
			"name":"Object_4",
			"primitives":[
				{
					"attributes":{
						"POSITION":40,
						"NORMAL":41,
						"TEXCOORD_0":42
					},
					"indices":43,
					"material":0
				}
			]
		},
		{
			"name":"Object_5",
			"primitives":[
				{
					"attributes":{
						"POSITION":44,
						"NORMAL":45,
						"TEXCOORD_0":46
					},
					"indices":47,
					"material":0
				}
			]
		},
		{
			"name":"Object_6",
			"primitives":[
				{
					"attributes":{
						"POSITION":48,
						"NORMAL":49,
						"TEXCOORD_0":50
					},
					"indices":51,
					"material":0
				}
			]
		},
		{
			"name":"Object_7",
			"primitives":[
				{
					"attributes":{
						"POSITION":52,
						"NORMAL":53,
						"TEXCOORD_0":54
					},
					"indices":55,
					"material":0
				}
			]
		}
	],
	"textures":[
		{
			"sampler":0,
			"source":0
		}
	],
	"images":[
		{
			"mimeType":"image/png",
			"name":"material_0_diffuse",
			"uri":"material_0_diffuse.png"
		}
	],
	"accessors":[
		{
			"bufferView":0,
			"componentType":5126,
			"count":30614,
			"max":[
				24.719833374023438,
				23.09111976623535,
				41.91004943847656
			],
			"min":[
				-32.43016052246094,
				-9.465781211853027,
				-24.699634552001953
			],
			"type":"VEC3"
		},
		{
			"bufferView":1,
			"componentType":5126,
			"count":30614,
			"type":"VEC3"
		},
		{
			"bufferView":2,
			"componentType":5126,
			"count":30614,
			"type":"VEC2"
		},
		{
			"bufferView":3,
			"componentType":5123,
			"count":136638,
			"type":"SCALAR"
		},
		{
			"bufferView":4,
			"componentType":5126,
			"count":30828,
			"max":[
				22.44489288330078,
				36.722068786621094,
				39.299495697021484
			],
			"min":[
				-43.07543182373047,
				-10.46851921081543,
				-27.01936149597168
			],
			"type":"VEC3"
		},
		{
			"bufferView":5,
			"componentType":5126,
			"count":30828,
			"type":"VEC3"
		},
		{
			"bufferView":6,
			"componentType":5126,
			"count":30828,
			"type":"VEC2"
		},
		{
			"bufferView":7,
			"componentType":5123,
			"count":136380,
			"type":"SCALAR"
		},
		{
			"bufferView":8,
			"componentType":5126,
			"count":27450,
			"max":[
				49.057044982910156,
				16.681995391845703,
				20.604307174682617
			],
			"min":[
				-32.56813430786133,
				-30.75942039489746,
				-39.022544860839844
			],
			"type":"VEC3"
		},
		{
			"bufferView":9,
			"componentType":5126,
			"count":27450,
			"type":"VEC3"
		},
		{
			"bufferView":10,
			"componentType":5126,
			"count":27450,
			"type":"VEC2"
		},
		{
			"bufferView":11,
			"componentType":5123,
			"count":150912,
			"type":"SCALAR"
		},
		{
			"bufferView":12,
			"componentType":5126,
			"count":28498,
			"max":[
				22.09029197692871,
				14.514378547668457,
				21.929040908813477
			],
			"min":[
				-44.30546951293945,
				-20.585617065429688,
				-37.801673889160156
			],
			"type":"VEC3"
		},
		{
			"bufferView":13,
			"componentType":5126,
			"count":28498,
			"type":"VEC3"
		},
		{
			"bufferView":14,
			"componentType":5126,
			"count":28498,
			"type":"VEC2"
		},
		{
			"bufferView":15,
			"componentType":5123,
			"count":146673,
			"type":"SCALAR"
		},
		{
			"bufferView":16,
			"componentType":5126,
			"count":28477,
			"max":[
				35.27445983886719,
				10.615099906921387,
				21.1534423828125
			],
			"min":[
				-20.202346801757812,
				-15.935373306274414,
				-34.046749114990234
			],
			"type":"VEC3"
		},
		{
			"bufferView":17,
			"componentType":5126,
			"count":28477,
			"type":"VEC3"
		},
		{
			"bufferView":18,
			"componentType":5126,
			"count":28477,
			"type":"VEC2"
		},
		{
			"bufferView":19,
			"componentType":5123,
			"count":146382,
			"type":"SCALAR"
		},
		{
			"bufferView":20,
			"componentType":5126,
			"count":14615,
			"max":[
				49.579925537109375,
				28.427661895751953,
				24.67643165588379
			],
			"min":[
				-26.226295471191406,
				-13.258687973022461,
				-18.823564529418945
			],
			"type":"VEC3"
		},
		{
			"bufferView":21,
			"componentType":5126,
			"count":14615,
			"type":"VEC3"
		},
		{
			"bufferView":22,
			"componentType":5126,
			"count":14615,
			"type":"VEC2"
		},
		{
			"bufferView":23,
			"componentType":5123,
			"count":57324,
			"type":"SCALAR"
		},
		{
			"bufferView":24,
			"componentType":5126,
			"count":28005,
			"max":[
				35.892181396484375,
				19.80386734008789,
				25.816308975219727
			],
			"min":[
				-31.60927391052246,
				-25.551742553710938,
				-42.88370132446289
			],
			"type":"VEC3"
		},
		{
			"bufferView":25,
			"componentType":5126,
			"count":28005,
			"type":"VEC3"
		},
		{
			"bufferView":26,
			"componentType":5126,
			"count":28005,
			"type":"VEC2"
		},
		{
			"bufferView":27,
			"componentType":5123,
			"count":147474,
			"type":"SCALAR"
		},
		{
			"bufferView":28,
			"componentType":5126,
			"count":27615,
			"max":[
				37.101966857910156,
				17.162403106689453,
				22.940935134887695
			],
			"min":[
				-36.79221725463867,
				-23.369245529174805,
				-41.41936111450195
			],
			"type":"VEC3"
		},
		{
			"bufferView":29,
			"componentType":5126,
			"count":27615,
			"type":"VEC3"
		},
		{
			"bufferView":30,
			"componentType":5126,
			"count":27615,
			"type":"VEC2"
		},
		{
			"bufferView":31,
			"componentType":5123,
			"count":149994,
			"type":"SCALAR"
		},
		{
			"bufferView":32,
			"componentType":5126,
			"count":27640,
			"max":[
				45.67218017578125,
				18.08124542236328,
				42.86629867553711
			],
			"min":[
				-23.327810287475586,
				-22.475561141967773,
				-18.967145919799805
			],
			"type":"VEC3"
		},
		{
			"bufferView":33,
			"componentType":5126,
			"count":27640,
			"type":"VEC3"
		},
		{
			"bufferView":34,
			"componentType":5126,
			"count":27640,
			"type":"VEC2"
		},
		{
			"bufferView":35,
			"componentType":5123,
			"count":150444,
			"type":"SCALAR"
		},
		{
			"bufferView":36,
			"componentType":5126,
			"count":27120,
			"max":[
				36.64641571044922,
				16.32974624633789,
				25.61335563659668
			],
			"min":[
				-23.851276397705078,
				-30.725496292114258,
				-34.386634826660156
			],
			"type":"VEC3"
		},
		{
			"bufferView":37,
			"componentType":5126,
			"count":27120,
			"type":"VEC3"
		},
		{
			"bufferView":38,
			"componentType":5126,
			"count":27120,
			"type":"VEC2"
		},
		{
			"bufferView":39,
			"componentType":5123,
			"count":152049,
			"type":"SCALAR"
		},
		{
			"bufferView":40,
			"componentType":5126,
			"count":29648,
			"max":[
				35.755218505859375,
				24.664173126220703,
				32.14958953857422
			],
			"min":[
				-46.084774017333984,
				-23.51410675048828,
				-25.91962432861328
			],
			"type":"VEC3"
		},
		{
			"bufferView":41,
			"componentType":5126,
			"count":29648,
			"type":"VEC3"
		},
		{
			"bufferView":42,
			"componentType":5126,
			"count":29648,
			"type":"VEC2"
		},
		{
			"bufferView":43,
			"componentType":5123,
			"count":141207,
			"type":"SCALAR"
		},
		{
			"bufferView":44,
			"componentType":5126,
			"count":30134,
			"max":[
				23.817853927612305,
				22.399398803710938,
				32.389095306396484
			],
			"min":[
				-29.582258224487305,
				-24.329456329345703,
				-16.529905319213867
			],
			"type":"VEC3"
		},
		{
			"bufferView":45,
			"componentType":5126,
			"count":30134,
			"type":"VEC3"
		},
		{
			"bufferView":46,
			"componentType":5126,
			"count":30134,
			"type":"VEC2"
		},
		{
			"bufferView":47,
			"componentType":5123,
			"count":139386,
			"type":"SCALAR"
		},
		{
			"bufferView":48,
			"componentType":5126,
			"count":30579,
			"max":[
				24.9254150390625,
				20.33538818359375,
				22.324684143066406
			],
			"min":[
				-39.40021514892578,
				-27.83359146118164,
				-23.813867568969727
			],
			"type":"VEC3"
		},
		{
			"bufferView":49,
			"componentType":5126,
			"count":30579,
			"type":"VEC3"
		},
		{
			"bufferView":50,
			"componentType":5126,
			"count":30579,
			"type":"VEC2"
		},
		{
			"bufferView":51,
			"componentType":5123,
			"count":137127,
			"type":"SCALAR"
		},
		{
			"bufferView":52,
			"componentType":5126,
			"count":30502,
			"max":[
				23.601160049438477,
				18.22370147705078,
				33.037872314453125
			],
			"min":[
				-40.27447509765625,
				-11.276071548461914,
				-30.41275978088379
			],
			"type":"VEC3"
		},
		{
			"bufferView":53,
			"componentType":5126,
			"count":30502,
			"type":"VEC3"
		},
		{
			"bufferView":54,
			"componentType":5126,
			"count":30502,
			"type":"VEC2"
		},
		{
			"bufferView":55,
			"componentType":5123,
			"count":135864,
			"type":"SCALAR"
		}
	],
	"bufferViews":[
		{
			"buffer":0,
			"byteLength":367368,
			"byteOffset":0,
			"target":34962
		},
		{
			"buffer":0,
			"byteLength":367368,
			"byteOffset":367368,
			"target":34962
		},
		{
			"buffer":0,
			"byteLength":244912,
			"byteOffset":734736,
			"target":34962
		},
		{
			"buffer":0,
			"byteLength":273276,
			"byteOffset":979648,
			"target":34963
		},
		{
			"buffer":0,
			"byteLength":369936,
			"byteOffset":1252924,
			"target":34962
		},
		{
			"buffer":0,
			"byteLength":369936,
			"byteOffset":1622860,
			"target":34962
		},
		{
			"buffer":0,
			"byteLength":246624,
			"byteOffset":1992796,
			"target":34962
		},
		{
			"buffer":0,
			"byteLength":272760,
			"byteOffset":2239420,
			"target":34963
		},
		{
			"buffer":0,
			"byteLength":329400,
			"byteOffset":2512180,
			"target":34962
		},
		{
			"buffer":0,
			"byteLength":329400,
			"byteOffset":2841580,
			"target":34962
		},
		{
			"buffer":0,
			"byteLength":219600,
			"byteOffset":3170980,
			"target":34962
		},
		{
			"buffer":0,
			"byteLength":301824,
			"byteOffset":3390580,
			"target":34963
		},
		{
			"buffer":0,
			"byteLength":341976,
			"byteOffset":3692404,
			"target":34962
		},
		{
			"buffer":0,
			"byteLength":341976,
			"byteOffset":4034380,
			"target":34962
		},
		{
			"buffer":0,
			"byteLength":227984,
			"byteOffset":4376356,
			"target":34962
		},
		{
			"buffer":0,
			"byteLength":293346,
			"byteOffset":4604340,
			"target":34963
		},
		{
			"buffer":0,
			"byteLength":341724,
			"byteOffset":4897688,
			"target":34962
		},
		{
			"buffer":0,
			"byteLength":341724,
			"byteOffset":5239412,
			"target":34962
		},
		{
			"buffer":0,
			"byteLength":227816,
			"byteOffset":5581136,
			"target":34962
		},
		{
			"buffer":0,
			"byteLength":292764,
			"byteOffset":5808952,
			"target":34963
		},
		{
			"buffer":0,
			"byteLength":175380,
			"byteOffset":6101716,
			"target":34962
		},
		{
			"buffer":0,
			"byteLength":175380,
			"byteOffset":6277096,
			"target":34962
		},
		{
			"buffer":0,
			"byteLength":116920,
			"byteOffset":6452476,
			"target":34962
		},
		{
			"buffer":0,
			"byteLength":114648,
			"byteOffset":6569396,
			"target":34963
		},
		{
			"buffer":0,
			"byteLength":336060,
			"byteOffset":6684044,
			"target":34962
		},
		{
			"buffer":0,
			"byteLength":336060,
			"byteOffset":7020104,
			"target":34962
		},
		{
			"buffer":0,
			"byteLength":224040,
			"byteOffset":7356164,
			"target":34962
		},
		{
			"buffer":0,
			"byteLength":294948,
			"byteOffset":7580204,
			"target":34963
		},
		{
			"buffer":0,
			"byteLength":331380,
			"byteOffset":7875152,
			"target":34962
		},
		{
			"buffer":0,
			"byteLength":331380,
			"byteOffset":8206532,
			"target":34962
		},
		{
			"buffer":0,
			"byteLength":220920,
			"byteOffset":8537912,
			"target":34962
		},
		{
			"buffer":0,
			"byteLength":299988,
			"byteOffset":8758832,
			"target":34963
		},
		{
			"buffer":0,
			"byteLength":331680,
			"byteOffset":9058820,
			"target":34962
		},
		{
			"buffer":0,
			"byteLength":331680,
			"byteOffset":9390500,
			"target":34962
		},
		{
			"buffer":0,
			"byteLength":221120,
			"byteOffset":9722180,
			"target":34962
		},
		{
			"buffer":0,
			"byteLength":300888,
			"byteOffset":9943300,
			"target":34963
		},
		{
			"buffer":0,
			"byteLength":325440,
			"byteOffset":10244188,
			"target":34962
		},
		{
			"buffer":0,
			"byteLength":325440,
			"byteOffset":10569628,
			"target":34962
		},
		{
			"buffer":0,
			"byteLength":216960,
			"byteOffset":10895068,
			"target":34962
		},
		{
			"buffer":0,
			"byteLength":304098,
			"byteOffset":11112028,
			"target":34963
		},
		{
			"buffer":0,
			"byteLength":355776,
			"byteOffset":11416128,
			"target":34962
		},
		{
			"buffer":0,
			"byteLength":355776,
			"byteOffset":11771904,
			"target":34962
		},
		{
			"buffer":0,
			"byteLength":237184,
			"byteOffset":12127680,
			"target":34962
		},
		{
			"buffer":0,
			"byteLength":282414,
			"byteOffset":12364864,
			"target":34963
		},
		{
			"buffer":0,
			"byteLength":361608,
			"byteOffset":12647280,
			"target":34962
		},
		{
			"buffer":0,
			"byteLength":361608,
			"byteOffset":13008888,
			"target":34962
		},
		{
			"buffer":0,
			"byteLength":241072,
			"byteOffset":13370496,
			"target":34962
		},
		{
			"buffer":0,
			"byteLength":278772,
			"byteOffset":13611568,
			"target":34963
		},
		{
			"buffer":0,
			"byteLength":366948,
			"byteOffset":13890340,
			"target":34962
		},
		{
			"buffer":0,
			"byteLength":366948,
			"byteOffset":14257288,
			"target":34962
		},
		{
			"buffer":0,
			"byteLength":244632,
			"byteOffset":14624236,
			"target":34962
		},
		{
			"buffer":0,
			"byteLength":274254,
			"byteOffset":14868868,
			"target":34963
		},
		{
			"buffer":0,
			"byteLength":366024,
			"byteOffset":15143124,
			"target":34962
		},
		{
			"buffer":0,
			"byteLength":366024,
			"byteOffset":15509148,
			"target":34962
		},
		{
			"buffer":0,
			"byteLength":244016,
			"byteOffset":15875172,
			"target":34962
		},
		{
			"buffer":0,
			"byteLength":271728,
			"byteOffset":16119188,
			"target":34963
		}
	],
	"samplers":[
		{
			"magFilter":9729,
			"minFilter":9987
		}
	],
	"buffers":[
		{
			"byteLength":16390916,
			"uri":"scene.bin"
		}
	]
}
