{
  "accessors": [
    {
      "bufferView": 2,
      "componentType": 5126,
      "count": 18405,
      "max": [
        0.06665900349617004,
        0.02776399999856949,
        0.16045700013637543
      ],
      "min": [
        -0.070933997631073,
        -0.027859000489115715,
        -0.12444400042295456
      ],
      "type": "VEC3"
    },
    {
      "bufferView": 2,
      "byteOffset": 220860,
      "componentType": 5126,
      "count": 18405,
      "max": [
        0.9995999932289124,
        0.9999964237213135,
        0.9998156428337097
      ],
      "min": [
        -0.9999696016311646,
        -0.9999672174453735,
        -0.9999990463256836
      ],
      "type": "VEC3"
    },
    {
      "bufferView": 3,
      "componentType": 5126,
      "count": 18405,
      "max": [
        0.9999530911445618,
        0.9999604225158691,
        0.9997022151947021,
        1.0
      ],
      "min": [
        -0.9999829530715942,
        -0.9999973177909851,
        -0.9998022317886353,
        -1.0
      ],
      "type": "VEC4"
    },
    {
      "bufferView": 1,
      "componentType": 5126,
      "count": 18405,
      "max": [
        0.9749820232391357,
        1.0
      ],
      "min": [
        0.0,
        0.0
      ],
      "type": "VEC2"
    },
    {
      "bufferView": 0,
      "componentType": 5125,
      "count": 78828,
      "type": "SCALAR"
    }
  ],
  "asset": {
    "extras": {
      "author": "Bonn Center for Digital Humanities (https://sketchfab.com/bcdh)",
      "license": "CC-BY-4.0 (http://creativecommons.org/licenses/by/4.0/)",
      "source": "https://sketchfab.com/3d-models/boeotian-terracotta-figurine-of-goddess-7c7dc7c0b4c943a7a2e9a27f33f1c14d",
      "title": "Boeotian terracotta figurine of goddess"
    },
    "generator": "Sketchfab-16.12.0",
    "version": "2.0"
  },
  "bufferViews": [
    {
      "buffer": 0,
      "byteLength": 315312,
      "name": "floatBufferViews",
      "target": 34963
    },
    {
      "buffer": 0,
      "byteLength": 147240,
      "byteOffset": 315312,
      "byteStride": 8,
      "name": "floatBufferViews",
      "target": 34962
    },
    {
      "buffer": 0,
      "byteLength": 441720,
      "byteOffset": 462552,
      "byteStride": 12,
      "name": "floatBufferViews",
      "target": 34962
    },
    {
      "buffer": 0,
      "byteLength": 294480,
      "byteOffset": 904272,
      "byteStride": 16,
      "name": "floatBufferViews",
      "target": 34962
    }
  ],
  "buffers": [
    {
      "byteLength": 1198752,
      "uri": "scene.bin"
    }
  ],
  "images": [
    {
      "uri": "textures/Terrakottafigur_5482_baseColor.png"
    },
    {
      "uri": "textures/Terrakottafigur_5482_metallicRoughness.png"
    },
    {
      "uri": "textures/Terrakottafigur_5482_normal.png"
    }
  ],
  "materials": [
    {
      "doubleSided": true,
      "name": "Terrakottafigur_5482",
      "normalTexture": {
        "index": 2
      },
      "occlusionTexture": {
        "index": 1
      },
      "pbrMetallicRoughness": {
        "baseColorTexture": {
          "index": 0
        },
        "metallicFactor": 0.0,
        "metallicRoughnessTexture": {
          "index": 1
        }
      }
    }
  ],
  "meshes": [
    {
      "name": "Object_0",
      "primitives": [
        {
          "attributes": {
            "NORMAL": 1,
            "POSITION": 0,
            "TANGENT": 2,
            "TEXCOORD_0": 3
          },
          "indices": 4,
          "material": 0,
          "mode": 4
        }
      ]
    }
  ],
  "nodes": [
    {
      "children": [
        1
      ],
      "matrix": [
        1.0,
        0.0,
        0.0,
        0.0,
        0.0,
        2.220446049250313e-16,
        -1.0,
        0.0,
        0.0,
        1.0,
        2.220446049250313e-16,
        0.0,
        0.0,
        0.0,
        0.0,
        1.0
      ],
      "name": "Sketchfab_model"
    },
    {
      "children": [
        2
      ],
      "name": "Terrakottafigur_5482_lp_ausgerichtet.obj.cleaner.materialmerger.gles"
    },
    {
      "mesh": 0,
      "name": "Object_2"
    }
  ],
  "samplers": [
    {
      "magFilter": 9729,
      "minFilter": 9987,
      "wrapS": 10497,
      "wrapT": 10497
    }
  ],
  "scene": 0,
  "scenes": [
    {
      "name": "Sketchfab_Scene",
      "nodes": [
        0
      ]
    }
  ],
  "textures": [
    {
      "sampler": 0,
      "source": 0
    },
    {
      "sampler": 0,
      "source": 1
    },
    {
      "sampler": 0,
      "source": 2
    }
  ]
}
