{
  "accessors": [
    {
      "bufferView": 2,
      "componentType": 5126,
      "count": 43600,
      "max": [
        0.35804861783981323,
        0.3932946026325226,
        2.5295329093933105
      ],
      "min": [
        -0.22172468900680542,
        -0.46543291211128235,
        0.9612807035446167
      ],
      "type": "VEC3"
    },
    {
      "bufferView": 2,
      "byteOffset": 523200,
      "componentType": 5126,
      "count": 43600,
      "max": [
        0.9999147653579712,
        0.9999788403511047,
        0.9999912977218628
      ],
      "min": [
        -0.9998201727867126,
        -0.99992835521698,
        -0.9999993443489075
      ],
      "type": "VEC3"
    },
    {
      "bufferView": 1,
      "componentType": 5126,
      "count": 43600,
      "max": [
        0.9998705387115479,
        0.9979246854782104
      ],
      "min": [
        0.0001220703125,
        0.00013103021774441004
      ],
      "type": "VEC2"
    },
    {
      "bufferView": 0,
      "componentType": 5125,
      "count": 149892,
      "type": "SCALAR"
    }
  ],
  "asset": {
    "extras": {
      "author": "Historiska (https://sketchfab.com/historiska)",
      "license": "CC-BY-4.0 (http://creativecommons.org/licenses/by/4.0/)",
      "source": "https://sketchfab.com/3d-models/st-olaf-the-patron-saint-of-norway-342b6866ba7c46449392acbe27217aa2",
      "title": "St Olaf, the Patron Saint of Norway"
    },
    "generator": "Sketchfab-12.65.0",
    "version": "2.0"
  },
  "bufferViews": [
    {
      "buffer": 0,
      "byteLength": 599568,
      "name": "floatBufferViews",
      "target": 34963
    },
    {
      "buffer": 0,
      "byteLength": 348800,
      "byteOffset": 599568,
      "byteStride": 8,
      "name": "floatBufferViews",
      "target": 34962
    },
    {
      "buffer": 0,
      "byteLength": 1046400,
      "byteOffset": 948368,
      "byteStride": 12,
      "name": "floatBufferViews",
      "target": 34962
    }
  ],
  "buffers": [
    {
      "byteLength": 1994768,
      "uri": "scene.bin"
    }
  ],
  "images": [
    {
      "uri": "textures/tex_u1_v1_baseColor.jpeg"
    }
  ],
  "materials": [
    {
      "doubleSided": true,
      "name": "tex_u1_v1",
      "pbrMetallicRoughness": {
        "baseColorTexture": {
          "index": 0
        },
        "metallicFactor": 0.6949178523296597,
        "roughnessFactor": 0.7433369197778587
      }
    }
  ],
  "meshes": [
    {
      "name": "Object_0",
      "primitives": [
        {
          "attributes": {
            "NORMAL": 1,
            "POSITION": 0,
            "TEXCOORD_0": 2
          },
          "indices": 3,
          "material": 0,
          "mode": 4
        }
      ]
    }
  ],
  "nodes": [
    {
      "children": [
        1
      ],
      "matrix": [
        0.31822547810634205,
        0.0009230408600971452,
        -1.1511975106292525,
        0.0,
        -1.1511926697019064,
        -0.0033391353097853974,
        -0.3182267951233406,
        0.0,
        -0.0034643653838842825,
        1.1943667649984846,
        2.652026964696762e-16,
        0.0,
        0.02029830776154995,
        -0.00014617342094427158,
        0.09215627610683441,
        1.0
      ],
      "name": "Sketchfab_model"
    },
    {
      "children": [
        2
      ],
      "name": "model.obj.cleaner.materialmerger.gles"
    },
    {
      "mesh": 0,
      "name": "Object_2"
    }
  ],
  "samplers": [
    {
      "magFilter": 9729,
      "minFilter": 9987,
      "wrapS": 10497,
      "wrapT": 10497
    }
  ],
  "scene": 0,
  "scenes": [
    {
      "name": "Sketchfab_Scene",
      "nodes": [
        0
      ]
    }
  ],
  "textures": [
    {
      "sampler": 0,
      "source": 0
    }
  ]
}
