{
	"asset":{
		"generator":"Khronos glTF Blender I/O v4.0.44",
		"version":"2.0"
	},
	"scene":0,
	"scenes":[
		{
			"name":"Scene",
			"nodes":[
				6
			]
		}
	],
	"nodes":[
		{
			"mesh":0,
			"name":"Plane_Material.002_0",
			"translation":[
				0.10801578313112259,
				0.997742772102356,
				0.09730566293001175
			]
		},
		{
			"mesh":1,
			"name":"Plane_Material.003_0",
			"translation":[
				-0.11423254013061523,
				0.11428883671760559,
				-0.021583981812000275
			]
		},
		{
			"mesh":2,
			"name":"Plane_Material.004_0",
			"translation":[
				-0.05557732284069061,
				1.9009084701538086,
				0.4859124720096588
			]
		},
		{
			"children":[
				0,
				1,
				2
			],
			"name":"Plane",
			"rotation":[
				-0.7071070075035095,
				0,
				0,
				0.7071065902709961
			],
			"scale":[
				1402.2674560546875,
				1402.267578125,
				1402.267578125
			],
			"translation":[
				1053.573486328125,
				0,
				2122.009521484375
			]
		},
		{
			"children":[
				3
			],
			"name":"RootNode",
			"translation":[
				-580.4942626953125,
				-123.46078491210938,
				-4.365959167480469
			]
		},
		{
			"children":[
				4
			],
			"name":"3a8fb8e31c3e434db4b1afb11710a903.fbx",
			"rotation":[
				0.70710688829422,
				0,
				0,
				0.7071066498756409
			],
			"translation":[
				-580.494384765625,
				4.365968227386475,
				-123.46082305908203
			]
		},
		{
			"children":[
				5
			],
			"name":"Sketchfab_model",
			"rotation":[
				-0.7071069478988647,
				0,
				0,
				0.7071066498756409
			],
			"scale":[
				0.0006049185176379979,
				0.0006049185758456588,
				0.0006049185758456588
			],
			"translation":[
				0.1683579832315445,
				-0.10351524502038956,
				-0.04159953072667122
			]
		}
	],
	"materials":[
		{
			"doubleSided":true,
			"emissiveFactor":[
				1,
				0.09321818500757217,
				0.09321818500757217
			],
			"name":"Material.002",
			"pbrMetallicRoughness":{
				"baseColorFactor":[
					0,
					0,
					0,
					1
				],
				"metallicFactor":0,
				"roughnessFactor":0.8211145401000977
			}
		},
		{
			"doubleSided":true,
			"name":"Material.003",
			"pbrMetallicRoughness":{
				"baseColorTexture":{
					"index":0
				},
				"metallicFactor":0,
				"roughnessFactor":0.8211145401000977
			}
		},
		{
			"doubleSided":true,
			"name":"Material.004",
			"pbrMetallicRoughness":{
				"baseColorFactor":[
					0.800000011920929,
					0.800000011920929,
					0.800000011920929,
					1
				]
			}
		}
	],
	"meshes":[
		{
			"name":"Plane_Material.002_0",
			"primitives":[
				{
					"attributes":{
						"POSITION":0,
						"NORMAL":1,
						"TEXCOORD_0":2
					},
					"indices":3,
					"material":0
				}
			]
		},
		{
			"name":"Plane_Material.003_0",
			"primitives":[
				{
					"attributes":{
						"POSITION":4,
						"NORMAL":5,
						"TEXCOORD_0":6
					},
					"indices":7,
					"material":1
				}
			]
		},
		{
			"name":"Plane_Material.004_0",
			"primitives":[
				{
					"attributes":{
						"POSITION":8,
						"NORMAL":9,
						"TEXCOORD_0":10
					},
					"indices":11,
					"material":2
				}
			]
		}
	],
	"textures":[
		{
			"sampler":0,
			"source":0
		}
	],
	"images":[
		{
			"mimeType":"image/png",
			"name":"Material.003_baseColor",
			"uri":"Material_003_baseColor.png"
		}
	],
	"accessors":[
		{
			"bufferView":0,
			"componentType":5126,
			"count":1118,
			"max":[
				0.000965118408203125,
				0.8006241321563721,
				0.29542747139930725
			],
			"min":[
				-0.42932891845703125,
				-0.8190558552742004,
				-0.33161690831184387
			],
			"type":"VEC3"
		},
		{
			"bufferView":1,
			"componentType":5126,
			"count":1118,
			"type":"VEC3"
		},
		{
			"bufferView":2,
			"componentType":5126,
			"count":1118,
			"type":"VEC2"
		},
		{
			"bufferView":3,
			"componentType":5123,
			"count":5760,
			"type":"SCALAR"
		},
		{
			"bufferView":4,
			"componentType":5126,
			"count":7840,
			"max":[
				1.1142325401306152,
				0.885711133480072,
				0.021583914756774902
			],
			"min":[
				-0.8857675194740295,
				-1.1142890453338623,
				-0.21079504489898682
			],
			"type":"VEC3"
		},
		{
			"bufferView":5,
			"componentType":5126,
			"count":7840,
			"type":"VEC3"
		},
		{
			"bufferView":6,
			"componentType":5126,
			"count":7840,
			"type":"VEC2"
		},
		{
			"bufferView":7,
			"componentType":5123,
			"count":24576,
			"type":"SCALAR"
		},
		{
			"bufferView":8,
			"componentType":5126,
			"count":62276,
			"max":[
				0.5673177242279053,
				0.5858020782470703,
				0.5848255753517151
			],
			"min":[
				-0.5848570466041565,
				-0.5667171478271484,
				-0.5676952004432678
			],
			"type":"VEC3"
		},
		{
			"bufferView":9,
			"componentType":5126,
			"count":62276,
			"type":"VEC3"
		},
		{
			"bufferView":10,
			"componentType":5126,
			"count":62276,
			"type":"VEC2"
		},
		{
			"bufferView":11,
			"componentType":5123,
			"count":139968,
			"type":"SCALAR"
		}
	],
	"bufferViews":[
		{
			"buffer":0,
			"byteLength":13416,
			"byteOffset":0,
			"target":34962
		},
		{
			"buffer":0,
			"byteLength":13416,
			"byteOffset":13416,
			"target":34962
		},
		{
			"buffer":0,
			"byteLength":8944,
			"byteOffset":26832,
			"target":34962
		},
		{
			"buffer":0,
			"byteLength":11520,
			"byteOffset":35776,
			"target":34963
		},
		{
			"buffer":0,
			"byteLength":94080,
			"byteOffset":47296,
			"target":34962
		},
		{
			"buffer":0,
			"byteLength":94080,
			"byteOffset":141376,
			"target":34962
		},
		{
			"buffer":0,
			"byteLength":62720,
			"byteOffset":235456,
			"target":34962
		},
		{
			"buffer":0,
			"byteLength":49152,
			"byteOffset":298176,
			"target":34963
		},
		{
			"buffer":0,
			"byteLength":747312,
			"byteOffset":347328,
			"target":34962
		},
		{
			"buffer":0,
			"byteLength":747312,
			"byteOffset":1094640,
			"target":34962
		},
		{
			"buffer":0,
			"byteLength":498208,
			"byteOffset":1841952,
			"target":34962
		},
		{
			"buffer":0,
			"byteLength":279936,
			"byteOffset":2340160,
			"target":34963
		}
	],
	"samplers":[
		{
			"magFilter":9729,
			"minFilter":9987
		}
	],
	"buffers":[
		{
			"byteLength":2620096,
			"uri":"scene.bin"
		}
	]
}
