{
  "accessors": [
    {
      "bufferView": 2,
      "componentType": 5126,
      "count": 992,
      "max": [
        10.000009536743164,
        10.0,
        10.0
      ],
      "min": [
        -10.0,
        -10.0,
        -10.0
      ],
      "type": "VEC3"
    },
    {
      "bufferView": 2,
      "byteOffset": 11904,
      "componentType": 5126,
      "count": 992,
      "max": [
        0.9762404561042786,
        0.9762404561042786,
        0.9949957132339478
      ],
      "min": [
        -0.9762404561042786,
        -0.9762404561042786,
        -0.9949957132339478
      ],
      "type": "VEC3"
    },
    {
      "bufferView": 0,
      "componentType": 5125,
      "count": 1440,
      "type": "SCALAR"
    },
    {
      "bufferView": 2,
      "byteOffset": 23808,
      "componentType": 5126,
      "count": 1536,
      "max": [
        9.999990463256836,
        10.0,
        9.848079681396484
      ],
      "min": [
        -10.0,
        -10.0,
        -9.848079681396484
      ],
      "type": "VEC3"
    },
    {
      "bufferView": 2,
      "byteOffset": 42240,
      "componentType": 5126,
      "count": 1536,
      "max": [
        0.9877355098724365,
        0.9877355098724365,
        0.9653664231300354
      ],
      "min": [
        -0.9877355098724365,
        -0.9877355098724365,
        -0.9653664231300354
      ],
      "type": "VEC3"
    },
    {
      "bufferView": 0,
      "byteOffset": 5760,
      "componentType": 5125,
      "count": 2304,
      "type": "SCALAR"
    },
    {
      "bufferView": 2,
      "byteOffset": 60672,
      "componentType": 5126,
      "count": 192,
      "max": [
        1.7364799976348877,
        1.7364799976348877,
        681.6917724609375
      ],
      "min": [
        -1.73649001121521,
        -1.7364799976348877,
        -665.3836669921875
      ],
      "type": "VEC3"
    },
    {
      "bufferView": 2,
      "byteOffset": 62976,
      "componentType": 5126,
      "count": 192,
      "max": [
        0.9914443492889404,
        0.99144446849823,
        0.0
      ],
      "min": [
        -0.9914443492889404,
        -0.9914443492889404,
        0.0
      ],
      "type": "VEC3"
    },
    {
      "bufferView": 0,
      "byteOffset": 14976,
      "componentType": 5125,
      "count": 288,
      "type": "SCALAR"
    },
    {
      "bufferView": 2,
      "byteOffset": 65280,
      "componentType": 5126,
      "count": 429,
      "max": [
        1411.9345703125,
        1411.9351806640625,
        1411.9356689453125
      ],
      "min": [
        -1411.9356689453125,
        -1411.934814453125,
        -1411.9356689453125
      ],
      "type": "VEC3"
    },
    {
      "bufferView": 2,
      "byteOffset": 70428,
      "componentType": 5126,
      "count": 429,
      "max": [
        1.0,
        1.0,
        1.0
      ],
      "min": [
        -1.0,
        -1.0,
        -1.0
      ],
      "type": "VEC3"
    },
    {
      "bufferView": 1,
      "componentType": 5126,
      "count": 429,
      "max": [
        0.9399200081825256,
        0.9001500010490417
      ],
      "min": [
        0.05973000079393387,
        0.09984999895095825
      ],
      "type": "VEC2"
    },
    {
      "bufferView": 0,
      "byteOffset": 16128,
      "componentType": 5125,
      "count": 2448,
      "type": "SCALAR"
    },
    {
      "bufferView": 2,
      "byteOffset": 75576,
      "componentType": 5126,
      "count": 2304,
      "max": [
        90.25,
        90.25000762939453,
        0.25
      ],
      "min": [
        -90.25,
        -90.25000762939453,
        -0.25
      ],
      "type": "VEC3"
    },
    {
      "bufferView": 2,
      "byteOffset": 103224,
      "componentType": 5126,
      "count": 2304,
      "max": [
        0.9639936685562134,
        0.9639992713928223,
        0.9657908082008362
      ],
      "min": [
        -0.9639936685562134,
        -0.9640018343925476,
        -0.9657908082008362
      ],
      "type": "VEC3"
    },
    {
      "bufferView": 0,
      "byteOffset": 25920,
      "componentType": 5125,
      "count": 3456,
      "type": "SCALAR"
    }
  ],
  "asset": {
    "extras": {
      "author": "eliut (https://sketchfab.com/eliut)",
      "license": "CC-BY-4.0 (http://creativecommons.org/licenses/by/4.0/)",
      "source": "https://sketchfab.com/3d-models/celestial-sphere-5010ef3e53cc4256af2095770dab826f",
      "title": "Celestial sphere"
    },
    "generator": "Sketchfab-12.66.0",
    "version": "2.0"
  },
  "bufferViews": [
    {
      "buffer": 0,
      "byteLength": 39744,
      "name": "floatBufferViews",
      "target": 34963
    },
    {
      "buffer": 0,
      "byteLength": 3432,
      "byteOffset": 39744,
      "byteStride": 8,
      "name": "floatBufferViews",
      "target": 34962
    },
    {
      "buffer": 0,
      "byteLength": 130872,
      "byteOffset": 43176,
      "byteStride": 12,
      "name": "floatBufferViews",
      "target": 34962
    }
  ],
  "buffers": [
    {
      "byteLength": 174048,
      "uri": "scene.bin"
    }
  ],
  "images": [
    {
      "uri": "textures/mapa_baseColor.png"
    }
  ],
  "materials": [
    {
      "doubleSided": true,
      "emissiveFactor": [
        1.0,
        0.0,
        0.0
      ],
      "name": "Material.001",
      "pbrMetallicRoughness": {
        "baseColorFactor": [
          1.0,
          0.0,
          0.0,
          1.0
        ],
        "metallicFactor": 0.0,
        "roughnessFactor": 0.6
      }
    },
    {
      "doubleSided": true,
      "emissiveFactor": [
        0.000149807658,
        0.608539020144,
        0.66
      ],
      "name": "earth",
      "pbrMetallicRoughness": {
        "baseColorFactor": [
          0.0438447173,
          0.5991177783,
          1.0,
          1.0
        ],
        "metallicFactor": 0.0,
        "roughnessFactor": 0.6
      }
    },
    {
      "name": "mapa",
      "pbrMetallicRoughness": {
        "baseColorTexture": {
          "index": 0
        },
        "metallicFactor": 0.0,
        "roughnessFactor": 0.6
      }
    },
    {
      "doubleSided": true,
      "emissiveFactor": [
        0.9669680801,
        0.7596724147,
        0.0012300761
      ],
      "name": "material",
      "pbrMetallicRoughness": {
        "baseColorFactor": [
          1.0,
          0.6662549012,
          0.0,
          1.0
        ],
        "metallicFactor": 0.0,
        "roughnessFactor": 0.6
      }
    }
  ],
  "meshes": [
    {
      "name": "sun",
      "primitives": [
        {
          "attributes": {
            "NORMAL": 1,
            "POSITION": 0
          },
          "indices": 2,
          "material": 3,
          "mode": 4
        }
      ]
    },
    {
      "name": "tierra",
      "primitives": [
        {
          "attributes": {
            "NORMAL": 4,
            "POSITION": 3
          },
          "indices": 5,
          "material": 1,
          "mode": 4
        }
      ]
    },
    {
      "name": "tierra",
      "primitives": [
        {
          "attributes": {
            "NORMAL": 7,
            "POSITION": 6
          },
          "indices": 8,
          "material": 0,
          "mode": 4
        }
      ]
    },
    {
      "name": "Sphere",
      "primitives": [
        {
          "attributes": {
            "NORMAL": 10,
            "POSITION": 9,
            "TEXCOORD_0": 11
          },
          "indices": 12,
          "material": 2,
          "mode": 4
        }
      ]
    },
    {
      "name": "Torus.001",
      "primitives": [
        {
          "attributes": {
            "NORMAL": 14,
            "POSITION": 13
          },
          "indices": 15,
          "material": 0,
          "mode": 4
        }
      ]
    }
  ],
  "nodes": [
    {
      "children": [
        1
      ],
      "matrix": [
        1.0,
        0.0,
        0.0,
        0.0,
        0.0,
        2.220446049250313e-16,
        -1.0,
        0.0,
        0.0,
        1.0,
        2.220446049250313e-16,
        0.0,
        0.0,
        0.0,
        0.0,
        1.0
      ],
      "name": "Sketchfab_model"
    },
    {
      "children": [
        2,
        4,
        6,
        11
      ],
      "name": "Root"
    },
    {
      "children": [
        3
      ],
      "matrix": [
        -0.29086000000000006,
        0.9551700000000001,
        -0.05519000000000001,
        0.0,
        -0.7711,
        -0.19988000000000003,
        0.6045200000000001,
        0.0,
        0.5663900000000001,
        0.21839000000000003,
        0.7946700000000001,
        0.0,
        4.076250000000001,
        1.00545,
        5.903860000000001,
        1.0
      ],
      "name": "Lamp"
    },
    {
      "name": "Lamp"
    },
    {
      "children": [
        5
      ],
      "matrix": [
        3.0,
        0.0,
        0.0,
        0.0,
        0.0,
        3.0,
        0.0,
        0.0,
        0.0,
        0.0,
        3.0,
        0.0,
        0.0,
        0.0,
        0.0,
        1.0
      ],
      "name": "sun"
    },
    {
      "mesh": 0,
      "name": "sun"
    },
    {
      "children": [
        7,
        8,
        9
      ],
      "matrix": [
        1.0,
        0.0,
        0.0,
        0.0,
        0.0,
        0.9177500000000001,
        -0.39715000000000006,
        0.0,
        0.0,
        0.39715000000000006,
        0.9177500000000001,
        0.0,
        193.48074000000003,
        -49.68734,
        0.0,
        1.0
      ],
      "name": "tierra"
    },
    {
      "mesh": 1,
      "name": "tierra"
    },
    {
      "mesh": 2,
      "name": "tierra"
    },
    {
      "children": [
        10
      ],
      "matrix": [
        -0.029600000000000005,
        -0.9995599999999999,
        0.0,
        0.0,
        0.9995599999999999,
        -0.029600000000000005,
        -0.0,
        0.0,
        0.0,
        0.0,
        1.0,
        0.0,
        -2.000000000000001e-05,
        -1.0000000000000004e-05,
        -0.0,
        1.0
      ],
      "name": "Sphere"
    },
    {
      "mesh": 3,
      "name": "Sphere"
    },
    {
      "children": [
        12
      ],
      "matrix": [
        2.22221,
        0.0,
        0.0,
        0.0,
        0.0,
        2.22221,
        0.0,
        0.0,
        0.0,
        0.0,
        2.22221,
        0.0,
        0.0,
        0.0,
        0.0,
        1.0
      ],
      "name": "Torus.001"
    },
    {
      "mesh": 4,
      "name": "Torus.001"
    }
  ],
  "samplers": [
    {
      "magFilter": 9729,
      "minFilter": 9987,
      "wrapS": 10497,
      "wrapT": 10497
    }
  ],
  "scene": 0,
  "scenes": [
    {
      "name": "Sketchfab_Scene",
      "nodes": [
        0
      ]
    }
  ],
  "textures": [
    {
      "sampler": 0,
      "source": 0
    }
  ]
}
