{
    "asset" : {
        "generator" : "Khronos glTF Blender I/O v1.6.16",
        "version" : "2.0"
    },
    "scene" : 0,
    "scenes" : [
        {
            "name" : "Scene",
            "nodes" : [
                0
            ]
        }
    ],
    "nodes" : [
        {
            "mesh" : 0,
            "name" : "P-v-T_Phase_Diagram_expands_on_freezing"
        }
    ],
    "meshes" : [
        {
            "name" : "P-v-T_Phase_Diagram_expands_on_freezing",
            "primitives" : [
                {
                    "attributes" : {
                        "POSITION" : 0,
                        "NORMAL" : 1
                    },
                    "indices" : 2
                }
            ]
        }
    ],
    "accessors" : [
        {
            "bufferView" : 0,
            "componentType" : 5126,
            "count" : 86612,
            "max" : [
                220.00003051757812,
                190,
                0
            ],
            "min" : [
                2.5000001187436283e-05,
                0,
                -210.00001525878906
            ],
            "type" : "VEC3"
        },
        {
            "bufferView" : 1,
            "componentType" : 5126,
            "count" : 86612,
            "type" : "VEC3"
        },
        {
            "bufferView" : 2,
            "componentType" : 5125,
            "count" : 95796,
            "type" : "SCALAR"
        }
    ],
    "bufferViews" : [
        {
            "buffer" : 0,
            "byteLength" : 1039344,
            "byteOffset" : 0
        },
        {
            "buffer" : 0,
            "byteLength" : 1039344,
            "byteOffset" : 1039344
        },
        {
            "buffer" : 0,
            "byteLength" : 383184,
            "byteOffset" : 2078688
        }
    ],
    "buffers" : [
        {
            "byteLength" : 2461872,
            "uri" : "data:application/octet-stream;base64,"
        }
    ]
}
