{
    "asset" : {
        "generator" : "Khronos glTF Blender I/O v1.6.16",
        "version" : "2.0"
    },
    "scene" : 0,
    "scenes" : [
        {
            "name" : "Scene",
            "nodes" : [
                10
            ]
        }
    ],
    "nodes" : [
        {
            "mesh" : 0,
            "name" : "Plane_0"
        },
        {
            "mesh" : 1,
            "name" : "Plane_1"
        },
        {
            "mesh" : 2,
            "name" : "Plane_2"
        },
        {
            "mesh" : 3,
            "name" : "Plane_3"
        },
        {
            "mesh" : 4,
            "name" : "Plane_4"
        },
        {
            "mesh" : 5,
            "name" : "Plane_5"
        },
        {
            "children" : [
                0,
                1,
                2,
                3,
                4,
                5
            ],
            "name" : "Plane"
        },
        {
            "name" : "Sun.001"
        },
        {
            "children" : [
                7
            ],
            "name" : "Sun",
            "scale" : [
                0.41672998666763306,
                0.41672998666763306,
                0.41672998666763306
            ],
            "translation" : [
                4.656000137329102,
                0.08167000114917755,
                11.489950180053711
            ]
        },
        {
            "children" : [
                6,
                8
            ],
            "name" : "Root"
        },
        {
            "children" : [
                9
            ],
            "name" : "Sketchfab_model",
            "rotation" : [
                -0.7071068286895752,
                0,
                0,
                0.7071068286895752
            ],
            "scale" : [
                0.9623343348503113,
                0.9623343348503113,
                0.9623343348503113
            ]
        }
    ],
    "materials" : [
        {
            "doubleSided" : true,
            "name" : "YELLOW",
            "pbrMetallicRoughness" : {
                "baseColorFactor" : [
                    0.8000000715255737,
                    0.6402056813240051,
                    0.003171545220538974,
                    1
                ],
                "metallicFactor" : 0,
                "roughnessFactor" : 0.6000000238418579
            }
        },
        {
            "doubleSided" : true,
            "name" : "GREEN",
            "pbrMetallicRoughness" : {
                "baseColorFactor" : [
                    0.09428416937589645,
                    0.8000000715255737,
                    0.0003062129835598171,
                    1
                ],
                "metallicFactor" : 0,
                "roughnessFactor" : 0.6000000238418579
            }
        },
        {
            "doubleSided" : true,
            "emissiveFactor" : [
                0.4699999988079071,
                0.4699999988079071,
                0.4699999988079071
            ],
            "name" : "material",
            "pbrMetallicRoughness" : {
                "baseColorFactor" : [
                    0.8000000715255737,
                    0.008994020521640778,
                    0.003669451456516981,
                    1
                ],
                "metallicFactor" : 0,
                "roughnessFactor" : 0.6000000238418579
            }
        },
        {
            "doubleSided" : true,
            "name" : "PINK",
            "pbrMetallicRoughness" : {
                "baseColorFactor" : [
                    0.8000000715255737,
                    0,
                    0.540071427822113,
                    1
                ],
                "metallicFactor" : 0,
                "roughnessFactor" : 0.6000000238418579
            }
        },
        {
            "doubleSided" : true,
            "name" : "BLUE",
            "pbrMetallicRoughness" : {
                "baseColorFactor" : [
                    0.01542038843035698,
                    0.041875842958688736,
                    0.8000000715255737,
                    1
                ],
                "metallicFactor" : 0,
                "roughnessFactor" : 0.6000000238418579
            }
        },
        {
            "doubleSided" : true,
            "emissiveFactor" : [
                0.7599999904632568,
                0.7599999904632568,
                0.7599999904632568
            ],
            "name" : "LIGHT_YELLOW",
            "pbrMetallicRoughness" : {
                "baseColorFactor" : [
                    0.8000000715255737,
                    0.7046115398406982,
                    0.14233280718326569,
                    1
                ],
                "metallicFactor" : 0,
                "roughnessFactor" : 0.6000000238418579
            }
        }
    ],
    "meshes" : [
        {
            "name" : "Plane_0",
            "primitives" : [
                {
                    "attributes" : {
                        "POSITION" : 0,
                        "NORMAL" : 1
                    },
                    "indices" : 2,
                    "material" : 0
                }
            ]
        },
        {
            "name" : "Plane_1",
            "primitives" : [
                {
                    "attributes" : {
                        "POSITION" : 3,
                        "NORMAL" : 4
                    },
                    "indices" : 5,
                    "material" : 1
                }
            ]
        },
        {
            "name" : "Plane_2",
            "primitives" : [
                {
                    "attributes" : {
                        "POSITION" : 6,
                        "NORMAL" : 7
                    },
                    "indices" : 8,
                    "material" : 2
                }
            ]
        },
        {
            "name" : "Plane_3",
            "primitives" : [
                {
                    "attributes" : {
                        "POSITION" : 9,
                        "NORMAL" : 10
                    },
                    "indices" : 11,
                    "material" : 3
                }
            ]
        },
        {
            "name" : "Plane_4",
            "primitives" : [
                {
                    "attributes" : {
                        "POSITION" : 12,
                        "NORMAL" : 13
                    },
                    "indices" : 14,
                    "material" : 4
                }
            ]
        },
        {
            "name" : "Plane_5",
            "primitives" : [
                {
                    "attributes" : {
                        "POSITION" : 15,
                        "NORMAL" : 16
                    },
                    "indices" : 17,
                    "material" : 5
                }
            ]
        }
    ],
    "accessors" : [
        {
            "bufferView" : 0,
            "componentType" : 5126,
            "count" : 226,
            "max" : [
                1,
                1,
                2
            ],
            "min" : [
                -1,
                -1,
                0
            ],
            "type" : "VEC3"
        },
        {
            "bufferView" : 1,
            "componentType" : 5126,
            "count" : 226,
            "type" : "VEC3"
        },
        {
            "bufferView" : 2,
            "componentType" : 5123,
            "count" : 888,
            "type" : "SCALAR"
        },
        {
            "bufferView" : 3,
            "componentType" : 5126,
            "count" : 13,
            "max" : [
                -0.4525800049304962,
                0.25,
                2
            ],
            "min" : [
                -0.800000011920929,
                -1,
                0
            ],
            "type" : "VEC3"
        },
        {
            "bufferView" : 4,
            "componentType" : 5126,
            "count" : 13,
            "type" : "VEC3"
        },
        {
            "bufferView" : 5,
            "componentType" : 5123,
            "count" : 15,
            "type" : "SCALAR"
        },
        {
            "bufferView" : 6,
            "componentType" : 5126,
            "count" : 15,
            "max" : [
                0.08595000207424164,
                0.5019500255584717,
                2
            ],
            "min" : [
                -0.49099001288414,
                0.01133000012487173,
                0.3569500148296356
            ],
            "type" : "VEC3"
        },
        {
            "bufferView" : 7,
            "componentType" : 5126,
            "count" : 15,
            "type" : "VEC3"
        },
        {
            "bufferView" : 8,
            "componentType" : 5123,
            "count" : 27,
            "type" : "SCALAR"
        },
        {
            "bufferView" : 9,
            "componentType" : 5126,
            "count" : 129,
            "max" : [
                0.5869500041007996,
                0.4694899916648865,
                0.9947400093078613
            ],
            "min" : [
                -0.4525800049304962,
                0.01133000012487173,
                0.3569500148296356
            ],
            "type" : "VEC3"
        },
        {
            "bufferView" : 10,
            "componentType" : 5126,
            "count" : 129,
            "type" : "VEC3"
        },
        {
            "bufferView" : 11,
            "componentType" : 5123,
            "count" : 189,
            "type" : "SCALAR"
        },
        {
            "bufferView" : 12,
            "componentType" : 5126,
            "count" : 42,
            "max" : [
                1,
                0.01133000012487173,
                0.3569500148296356
            ],
            "min" : [
                -0.800000011920929,
                -1,
                0
            ],
            "type" : "VEC3"
        },
        {
            "bufferView" : 13,
            "componentType" : 5126,
            "count" : 42,
            "type" : "VEC3"
        },
        {
            "bufferView" : 14,
            "componentType" : 5123,
            "count" : 54,
            "type" : "SCALAR"
        },
        {
            "bufferView" : 15,
            "componentType" : 5126,
            "count" : 37,
            "max" : [
                1,
                1,
                2
            ],
            "min" : [
                -1,
                -1,
                0
            ],
            "type" : "VEC3"
        },
        {
            "bufferView" : 16,
            "componentType" : 5126,
            "count" : 37,
            "type" : "VEC3"
        },
        {
            "bufferView" : 17,
            "componentType" : 5123,
            "count" : 78,
            "type" : "SCALAR"
        }
    ],
    "bufferViews" : [
        {
            "buffer" : 0,
            "byteLength" : 2712,
            "byteOffset" : 0
        },
        {
            "buffer" : 0,
            "byteLength" : 2712,
            "byteOffset" : 2712
        },
        {
            "buffer" : 0,
            "byteLength" : 1776,
            "byteOffset" : 5424
        },
        {
            "buffer" : 0,
            "byteLength" : 156,
            "byteOffset" : 7200
        },
        {
            "buffer" : 0,
            "byteLength" : 156,
            "byteOffset" : 7356
        },
        {
            "buffer" : 0,
            "byteLength" : 30,
            "byteOffset" : 7512
        },
        {
            "buffer" : 0,
            "byteLength" : 180,
            "byteOffset" : 7544
        },
        {
            "buffer" : 0,
            "byteLength" : 180,
            "byteOffset" : 7724
        },
        {
            "buffer" : 0,
            "byteLength" : 54,
            "byteOffset" : 7904
        },
        {
            "buffer" : 0,
            "byteLength" : 1548,
            "byteOffset" : 7960
        },
        {
            "buffer" : 0,
            "byteLength" : 1548,
            "byteOffset" : 9508
        },
        {
            "buffer" : 0,
            "byteLength" : 378,
            "byteOffset" : 11056
        },
        {
            "buffer" : 0,
            "byteLength" : 504,
            "byteOffset" : 11436
        },
        {
            "buffer" : 0,
            "byteLength" : 504,
            "byteOffset" : 11940
        },
        {
            "buffer" : 0,
            "byteLength" : 108,
            "byteOffset" : 12444
        },
        {
            "buffer" : 0,
            "byteLength" : 444,
            "byteOffset" : 12552
        },
        {
            "buffer" : 0,
            "byteLength" : 444,
            "byteOffset" : 12996
        },
        {
            "buffer" : 0,
            "byteLength" : 156,
            "byteOffset" : 13440
        }
    ],
    "buffers" : [
        {
            "byteLength" : 13596,
            "uri" : "data:application/octet-stream;base64,"
        }
    ]
}
