{
  "accessors": [
    {
      "bufferView": 1,
      "componentType": 5126,
      "count": 8,
      "max": [
        16000.0,
        16000.0,
        16000.0
      ],
      "min": [
        0.0,
        0.0,
        0.0
      ],
      "type": "VEC3"
    },
    {
      "bufferView": 0,
      "componentType": 5125,
      "count": 24,
      "type": "SCALAR"
    },
    {
      "bufferView": 1,
      "byteOffset": 96,
      "componentType": 5126,
      "count": 5636,
      "max": [
        15144.23828125,
        15652.2919921875,
        16000.0
      ],
      "min": [
        2821.98583984375,
        57.5048828125,
        890.72021484375
      ],
      "type": "VEC3"
    },
    {
      "bufferView": 1,
      "byteOffset": 67728,
      "componentType": 5126,
      "count": 5636,
      "max": [
        1.0,
        1.0,
        1.0
      ],
      "min": [
        -1.0,
        -0.999139666557312,
        -0.9998763799667358
      ],
      "type": "VEC3"
    },
    {
      "bufferView": 0,
      "byteOffset": 96,
      "componentType": 5125,
      "count": 33126,
      "type": "SCALAR"
    },
    {
      "bufferView": 1,
      "byteOffset": 135360,
      "componentType": 5126,
      "count": 65532,
      "max": [
        15905.7470703125,
        13259.6484375,
        16000.0
      ],
      "min": [
        0.0,
        0.0,
        0.0
      ],
      "type": "VEC3"
    },
    {
      "bufferView": 1,
      "byteOffset": 921744,
      "componentType": 5126,
      "count": 65532,
      "max": [
        1.0,
        1.0,
        1.0
      ],
      "min": [
        -1.0,
        -1.0,
        -1.0
      ],
      "type": "VEC3"
    },
    {
      "bufferView": 0,
      "byteOffset": 132600,
      "componentType": 5125,
      "count": 379824,
      "type": "SCALAR"
    },
    {
      "bufferView": 1,
      "byteOffset": 1708128,
      "componentType": 5126,
      "count": 61491,
      "max": [
        16000.0,
        16000.0,
        16000.0
      ],
      "min": [
        0.0,
        6900.0,
        0.0
      ],
      "type": "VEC3"
    },
    {
      "bufferView": 1,
      "byteOffset": 2446020,
      "componentType": 5126,
      "count": 61491,
      "max": [
        1.0,
        1.0,
        1.0
      ],
      "min": [
        -1.0,
        -1.0,
        -1.0
      ],
      "type": "VEC3"
    },
    {
      "bufferView": 0,
      "byteOffset": 1651896,
      "componentType": 5125,
      "count": 348174,
      "type": "SCALAR"
    },
    {
      "bufferView": 1,
      "byteOffset": 3183912,
      "componentType": 5126,
      "count": 61685,
      "max": [
        16000.0,
        16000.0,
        16000.0
      ],
      "min": [
        0.0,
        0.0,
        0.0
      ],
      "type": "VEC3"
    },
    {
      "bufferView": 1,
      "byteOffset": 3924132,
      "componentType": 5126,
      "count": 61685,
      "max": [
        1.0,
        1.0,
        1.0
      ],
      "min": [
        -1.0,
        -1.0,
        -1.0
      ],
      "type": "VEC3"
    },
    {
      "bufferView": 0,
      "byteOffset": 3044592,
      "componentType": 5125,
      "count": 360450,
      "type": "SCALAR"
    }
  ],
  "asset": {
    "extras": {
      "author": "Daniel Pomarède (https://sketchfab.com/pomarede)",
      "license": "CC-BY-4.0 (http://creativecommons.org/licenses/by/4.0/)",
      "source": "https://sketchfab.com/3d-models/cosmography-of-the-local-universe-44cc223ce5ad4227818ea9dde5893431",
      "title": "Cosmography of the Local Universe"
    },
    "generator": "Sketchfab-12.68.0",
    "version": "2.0"
  },
  "bufferViews": [
    {
      "buffer": 0,
      "byteLength": 4486392,
      "name": "floatBufferViews",
      "target": 34963
    },
    {
      "buffer": 0,
      "byteLength": 4664352,
      "byteOffset": 4486392,
      "byteStride": 12,
      "name": "floatBufferViews",
      "target": 34962
    }
  ],
  "buffers": [
    {
      "byteLength": 9150744,
      "uri": "scene.bin"
    }
  ],
  "extensionsRequired": [
    "KHR_materials_pbrSpecularGlossiness"
  ],
  "extensionsUsed": [
    "KHR_materials_pbrSpecularGlossiness"
  ],
  "materials": [
    {
      "doubleSided": true,
      "extensions": {
        "KHR_materials_pbrSpecularGlossiness": {
          "diffuseFactor": [
            0.0,
            0.0,
            0.0,
            1.0
          ],
          "glossinessFactor": 0.4,
          "specularFactor": [
            0.0,
            0.0,
            0.0
          ]
        }
      },
      "name": "material"
    },
    {
      "doubleSided": true,
      "extensions": {
        "KHR_materials_pbrSpecularGlossiness": {
          "diffuseFactor": [
            1.0,
            0.0,
            0.0,
            1.0
          ],
          "glossinessFactor": 0.5,
          "specularFactor": [
            0.42,
            0.42,
            0.42
          ]
        }
      },
      "name": "iso_high"
    },
    {
      "alphaMode": "BLEND",
      "doubleSided": true,
      "extensions": {
        "KHR_materials_pbrSpecularGlossiness": {
          "diffuseFactor": [
            0.0006849502726102266,
            0.0,
            1.0,
            0.47
          ],
          "glossinessFactor": 0.4,
          "specularFactor": [
            0.48,
            0.48,
            0.48
          ]
        }
      },
      "name": "iso_low"
    },
    {
      "alphaMode": "BLEND",
      "doubleSided": true,
      "extensions": {
        "KHR_materials_pbrSpecularGlossiness": {
          "diffuseFactor": [
            0.03964991359815876,
            0.2307903924940071,
            0.04436502909407186,
            0.42
          ],
          "glossinessFactor": 0.04999999999999993,
          "specularFactor": [
            0.597791692381846,
            0.5281422820007249,
            0.5281422820007249
          ]
        }
      },
      "name": "iso_mid"
    }
  ],
  "meshes": [
    {
      "name": "Object_0",
      "primitives": [
        {
          "attributes": {
            "POSITION": 0
          },
          "indices": 1,
          "material": 0,
          "mode": 1
        }
      ]
    },
    {
      "name": "Object_1",
      "primitives": [
        {
          "attributes": {
            "NORMAL": 3,
            "POSITION": 2
          },
          "indices": 4,
          "material": 1,
          "mode": 4
        }
      ]
    },
    {
      "name": "Object_2",
      "primitives": [
        {
          "attributes": {
            "NORMAL": 6,
            "POSITION": 5
          },
          "indices": 7,
          "material": 2,
          "mode": 4
        }
      ]
    },
    {
      "name": "Object_3",
      "primitives": [
        {
          "attributes": {
            "NORMAL": 9,
            "POSITION": 8
          },
          "indices": 10,
          "material": 2,
          "mode": 4
        }
      ]
    },
    {
      "name": "Object_4",
      "primitives": [
        {
          "attributes": {
            "NORMAL": 12,
            "POSITION": 11
          },
          "indices": 13,
          "material": 3,
          "mode": 4
        }
      ]
    }
  ],
  "nodes": [
    {
      "children": [
        1
      ],
      "matrix": [
        0.00010023452341556549,
        0.0,
        0.0,
        0.0,
        0.0,
        -0.00010023452341556549,
        -2.225653515165804e-20,
        0.0,
        0.0,
        2.225653515165804e-20,
        -0.00010023452341556549,
        0.0,
        0.0,
        -0.014953613281250002,
        0.0048828124999999965,
        1.0
      ],
      "name": "Sketchfab_model"
    },
    {
      "children": [
        2
      ],
      "matrix": [
        1.0,
        0.0,
        0.0,
        0.0,
        0.0,
        1.0,
        0.0,
        0.0,
        0.0,
        0.0,
        1.0,
        0.0,
        -8000.0,
        -8000.0,
        -8000.0,
        1.0
      ],
      "name": "SDvision_v8k_corr_intensity_cosmography.obj.cleaner.gles"
    },
    {
      "children": [
        3,
        4,
        5,
        6,
        7
      ],
      "name": "Object_2"
    },
    {
      "mesh": 0,
      "name": "Object_3"
    },
    {
      "mesh": 1,
      "name": "Object_4"
    },
    {
      "mesh": 2,
      "name": "Object_5"
    },
    {
      "mesh": 3,
      "name": "Object_6"
    },
    {
      "mesh": 4,
      "name": "Object_7"
    }
  ],
  "scene": 0,
  "scenes": [
    {
      "name": "Sketchfab_Scene",
      "nodes": [
        0
      ]
    }
  ]
}
