{
	"asset":{
		"generator":"Khronos glTF Blender I/O v4.2.57",
		"version":"2.0"
	},
	"extensionsUsed":[
		"KHR_materials_specular",
		"KHR_materials_ior"
	],
	"scene":0,
	"scenes":[
		{
			"name":"Scene",
			"nodes":[
				17
			]
		}
	],
	"nodes":[
		{
			"mesh":0,
			"name":"Object_6"
		},
		{
			"children":[
				0
			],
			"name":"sun.001_2"
		},
		{
			"children":[
				1
			],
			"name":"sun_3",
			"scale":[
				3,
				2.999999761581421,
				2.999999761581421
			]
		},
		{
			"mesh":1,
			"name":"Object_10",
			"translation":[
				2.2426247596740723e-06,
				1.7716316506266594e-05,
				0
			]
		},
		{
			"children":[
				3
			],
			"name":"Sphere.001_4",
			"translation":[
				2.2426247596740723e-06,
				1.7716316506266594e-05,
				0
			]
		},
		{
			"children":[
				4
			],
			"name":"Sphere_5",
			"rotation":[
				0,
				0,
				-0.7174956798553467,
				0.6965630054473877
			],
			"translation":[
				0,
				-7.817521691322327e-06,
				0
			]
		},
		{
			"mesh":2,
			"name":"Object_12",
			"translation":[
				1.52587890625e-05,
				0,
				0
			]
		},
		{
			"children":[
				6
			],
			"name":"tierra.001_6",
			"translation":[
				1.52587890625e-05,
				0,
				0
			]
		},
		{
			"mesh":3,
			"name":"Object_14",
			"translation":[
				1.52587890625e-05,
				0,
				0
			]
		},
		{
			"children":[
				8
			],
			"name":"tierra.002_7",
			"translation":[
				1.52587890625e-05,
				0,
				0
			]
		},
		{
			"children":[
				5,
				7,
				9
			],
			"name":"tierra_8",
			"rotation":[
				-0.20278917253017426,
				0,
				0,
				0.9792224764823914
			],
			"scale":[
				1,
				0.999996542930603,
				0.999996542930603
			],
			"translation":[
				193.4807586669922,
				-49.68733596801758,
				0
			]
		},
		{
			"mesh":4,
			"name":"Object_17"
		},
		{
			"children":[
				11
			],
			"name":"Torus.002_9"
		},
		{
			"children":[
				12
			],
			"name":"Torus.001_10",
			"scale":[
				20,
				20,
				20
			]
		},
		{
			"children":[
				2,
				10,
				13
			],
			"name":"Celestial sphere_11",
			"rotation":[
				-0.70710688829422,
				0,
				0,
				0.7071066498756409
			]
		},
		{
			"children":[
				14
			],
			"name":"GLTF_SceneRootNode",
			"rotation":[
				0.70710688829422,
				0,
				0,
				0.7071066498756409
			]
		},
		{
			"children":[
				15
			],
			"name":"root"
		},
		{
			"children":[
				16
			],
			"name":"Sketchfab_model",
			"rotation":[
				-0.5,
				-0.5,
				-0.5,
				0.5
			],
			"scale":[
				0.11902836710214615,
				0.11902836710214615,
				0.11902836710214615
			],
			"translation":[
				0.6230778694152832,
				-0.0046694278717041016,
				-2.640817880630493
			]
		}
	],
	"materials":[
		{
			"doubleSided":true,
			"emissiveFactor":[
				0.9669679999351501,
				0.7596719861030579,
				0.0012300800299271941
			],
			"extensions":{
				"KHR_materials_specular":{
					"specularColorFactor":[
						0.0,
						0.0,
						0.0
					]
				},
				"KHR_materials_ior":{
					"ior":1000
				}
			},
			"name":"material",
			"pbrMetallicRoughness":{
				"baseColorFactor":[
					1,
					0.666254997253418,
					0,
					1
				],
				"metallicFactor":0,
				"roughnessFactor":0.6000000238418579
			}
		},
		{
			"emissiveFactor":[
				1,
				1,
				1
			],
			"emissiveTexture":{
				"index":0
			},
			"extensions":{
				"KHR_materials_specular":{
					"specularColorFactor":[
						0.0,
						0.0,
						0.0
					]
				},
				"KHR_materials_ior":{
					"ior":1000
				}
			},
			"name":"mapa",
			"pbrMetallicRoughness":{
				"baseColorTexture":{
					"index":1
				},
				"metallicFactor":0,
				"roughnessFactor":0
			}
		},
		{
			"doubleSided":true,
			"emissiveFactor":[
				0.0024247963447123766,
				0.0001498079946031794,
				0.6600000262260437
			],
			"extensions":{
				"KHR_materials_specular":{
					"specularColorFactor":[
						0.0,
						0.0,
						0.0
					]
				},
				"KHR_materials_ior":{
					"ior":1000
				}
			},
			"name":"earth",
			"pbrMetallicRoughness":{
				"baseColorFactor":[
					0.04384469985961914,
					0.5991179943084717,
					1,
					1
				],
				"metallicFactor":0,
				"roughnessFactor":0.6000000238418579
			}
		},
		{
			"alphaMode":"BLEND",
			"doubleSided":true,
			"emissiveFactor":[
				0.058818966150283813,
				0.28231433033943176,
				1
			],
			"extensions":{
				"KHR_materials_specular":{
					"specularColorFactor":[
						0.0,
						0.0,
						0.0
					]
				},
				"KHR_materials_ior":{
					"ior":1000
				}
			},
			"name":"Material.001",
			"pbrMetallicRoughness":{
				"baseColorFactor":[
					0.02662418968975544,
					0.11734436452388763,
					0.22232376039028168,
					0.38476094603538513
				],
				"metallicFactor":0,
				"roughnessFactor":0.6000000238418579
			}
		}
	],
	"meshes":[
		{
			"name":"Object_0",
			"primitives":[
				{
					"attributes":{
						"POSITION":0,
						"NORMAL":1
					},
					"indices":2,
					"material":0
				}
			]
		},
		{
			"name":"Object_1",
			"primitives":[
				{
					"attributes":{
						"POSITION":3,
						"NORMAL":4,
						"TEXCOORD_0":5
					},
					"indices":6,
					"material":1
				}
			]
		},
		{
			"name":"Object_2",
			"primitives":[
				{
					"attributes":{
						"POSITION":7,
						"NORMAL":8
					},
					"indices":9,
					"material":2
				}
			]
		},
		{
			"name":"Object_3",
			"primitives":[
				{
					"attributes":{
						"POSITION":10,
						"NORMAL":11
					},
					"indices":12,
					"material":3
				}
			]
		},
		{
			"name":"Object_4",
			"primitives":[
				{
					"attributes":{
						"POSITION":13,
						"NORMAL":14
					},
					"indices":15,
					"material":3
				}
			]
		}
	],
	"textures":[
		{
			"sampler":0,
			"source":0
		},
		{
			"sampler":0,
			"source":0
		}
	],
	"images":[
		{
			"mimeType":"image/png",
			"name":"mapa_diffuse",
			"uri":"mapa_diffuse.png"
		}
	],
	"accessors":[
		{
			"bufferView":0,
			"componentType":5126,
			"count":1026,
			"max":[
				10.000009536743164,
				10,
				10
			],
			"min":[
				-10,
				-10,
				-10
			],
			"type":"VEC3"
		},
		{
			"bufferView":1,
			"componentType":5126,
			"count":1026,
			"type":"VEC3"
		},
		{
			"bufferView":2,
			"componentType":5123,
			"count":1440,
			"type":"SCALAR"
		},
		{
			"bufferView":3,
			"componentType":5126,
			"count":455,
			"max":[
				1411.9345703125,
				1411.9351806640625,
				1411.9356689453125
			],
			"min":[
				-1411.9356689453125,
				-1411.934814453125,
				-1411.9356689453125
			],
			"type":"VEC3"
		},
		{
			"bufferView":4,
			"componentType":5126,
			"count":455,
			"type":"VEC3"
		},
		{
			"bufferView":5,
			"componentType":5126,
			"count":455,
			"type":"VEC2"
		},
		{
			"bufferView":6,
			"componentType":5123,
			"count":2448,
			"type":"SCALAR"
		},
		{
			"bufferView":7,
			"componentType":5126,
			"count":1574,
			"max":[
				9.999990463256836,
				10,
				9.848079681396484
			],
			"min":[
				-10,
				-10,
				-9.848079681396484
			],
			"type":"VEC3"
		},
		{
			"bufferView":8,
			"componentType":5126,
			"count":1574,
			"type":"VEC3"
		},
		{
			"bufferView":9,
			"componentType":5123,
			"count":2304,
			"type":"SCALAR"
		},
		{
			"bufferView":10,
			"componentType":5126,
			"count":192,
			"max":[
				1.7364799976348877,
				1.7364799976348877,
				681.6917724609375
			],
			"min":[
				-1.73649001121521,
				-1.7364799976348877,
				-665.3836669921875
			],
			"type":"VEC3"
		},
		{
			"bufferView":11,
			"componentType":5126,
			"count":192,
			"type":"VEC3"
		},
		{
			"bufferView":12,
			"componentType":5123,
			"count":288,
			"type":"SCALAR"
		},
		{
			"bufferView":13,
			"componentType":5126,
			"count":2814,
			"max":[
				90.25,
				90.25000762939453,
				0.25
			],
			"min":[
				-90.25,
				-90.25000762939453,
				-0.25
			],
			"type":"VEC3"
		},
		{
			"bufferView":14,
			"componentType":5126,
			"count":2814,
			"type":"VEC3"
		},
		{
			"bufferView":15,
			"componentType":5123,
			"count":3456,
			"type":"SCALAR"
		}
	],
	"bufferViews":[
		{
			"buffer":0,
			"byteLength":12312,
			"byteOffset":0,
			"target":34962
		},
		{
			"buffer":0,
			"byteLength":12312,
			"byteOffset":12312,
			"target":34962
		},
		{
			"buffer":0,
			"byteLength":2880,
			"byteOffset":24624,
			"target":34963
		},
		{
			"buffer":0,
			"byteLength":5460,
			"byteOffset":27504,
			"target":34962
		},
		{
			"buffer":0,
			"byteLength":5460,
			"byteOffset":32964,
			"target":34962
		},
		{
			"buffer":0,
			"byteLength":3640,
			"byteOffset":38424,
			"target":34962
		},
		{
			"buffer":0,
			"byteLength":4896,
			"byteOffset":42064,
			"target":34963
		},
		{
			"buffer":0,
			"byteLength":18888,
			"byteOffset":46960,
			"target":34962
		},
		{
			"buffer":0,
			"byteLength":18888,
			"byteOffset":65848,
			"target":34962
		},
		{
			"buffer":0,
			"byteLength":4608,
			"byteOffset":84736,
			"target":34963
		},
		{
			"buffer":0,
			"byteLength":2304,
			"byteOffset":89344,
			"target":34962
		},
		{
			"buffer":0,
			"byteLength":2304,
			"byteOffset":91648,
			"target":34962
		},
		{
			"buffer":0,
			"byteLength":576,
			"byteOffset":93952,
			"target":34963
		},
		{
			"buffer":0,
			"byteLength":33768,
			"byteOffset":94528,
			"target":34962
		},
		{
			"buffer":0,
			"byteLength":33768,
			"byteOffset":128296,
			"target":34962
		},
		{
			"buffer":0,
			"byteLength":6912,
			"byteOffset":162064,
			"target":34963
		}
	],
	"samplers":[
		{
			"magFilter":9729,
			"minFilter":9987
		}
	],
	"buffers":[
		{
			"byteLength":168976,
			"uri":"scene.bin"
		}
	]
}
