{
  "accessors": [
    {
      "bufferView": 2,
      "componentType": 5126,
      "count": 992,
      "max": [
        10.000009536743164,
        10.0,
        10.0
      ],
      "min": [
        -10.0,
        -10.0,
        -10.0
      ],
      "type": "VEC3"
    },
    {
      "bufferView": 2,
      "byteOffset": 11904,
      "componentType": 5126,
      "count": 992,
      "max": [
        0.9762409925460815,
        0.9762418866157532,
        0.9949955940246582
      ],
      "min": [
        -0.9762411713600159,
        -0.9762415885925293,
        -0.9949955940246582
      ],
      "type": "VEC3"
    },
    {
      "bufferView": 0,
      "componentType": 5125,
      "count": 1440,
      "type": "SCALAR"
    },
    {
      "bufferView": 2,
      "byteOffset": 23808,
      "componentType": 5126,
      "count": 455,
      "max": [
        1411.9345703125,
        1411.9351806640625,
        1411.9356689453125
      ],
      "min": [
        -1411.9356689453125,
        -1411.934814453125,
        -1411.9356689453125
      ],
      "type": "VEC3"
    },
    {
      "bufferView": 2,
      "byteOffset": 29268,
      "componentType": 5126,
      "count": 455,
      "max": [
        1.0,
        1.0,
        1.0
      ],
      "min": [
        -1.0,
        -1.0,
        -1.0
      ],
      "type": "VEC3"
    },
    {
      "bufferView": 1,
      "componentType": 5126,
      "count": 455,
      "max": [
        0.9364089965820313,
        0.9001500010490417
      ],
      "min": [
        0.06089264899492264,
        0.09984999895095825
      ],
      "type": "VEC2"
    },
    {
      "bufferView": 0,
      "byteOffset": 5760,
      "componentType": 5125,
      "count": 2448,
      "type": "SCALAR"
    },
    {
      "bufferView": 2,
      "byteOffset": 34728,
      "componentType": 5126,
      "count": 1536,
      "max": [
        9.999990463256836,
        10.0,
        9.848079681396484
      ],
      "min": [
        -10.0,
        -10.0,
        -9.848079681396484
      ],
      "type": "VEC3"
    },
    {
      "bufferView": 2,
      "byteOffset": 53160,
      "componentType": 5126,
      "count": 1536,
      "max": [
        0.9877365827560425,
        0.9877365827560425,
        0.9653663635253906
      ],
      "min": [
        -0.9877362251281738,
        -0.9877365827560425,
        -0.9653648138046265
      ],
      "type": "VEC3"
    },
    {
      "bufferView": 0,
      "byteOffset": 15552,
      "componentType": 5125,
      "count": 2304,
      "type": "SCALAR"
    },
    {
      "bufferView": 2,
      "byteOffset": 71592,
      "componentType": 5126,
      "count": 192,
      "max": [
        1.7364799976348877,
        1.7364799976348877,
        681.6917724609375
      ],
      "min": [
        -1.73649001121521,
        -1.7364799976348877,
        -665.3836669921875
      ],
      "type": "VEC3"
    },
    {
      "bufferView": 2,
      "byteOffset": 73896,
      "componentType": 5126,
      "count": 192,
      "max": [
        0.9914445281028748,
        0.9914449453353882,
        -0.0
      ],
      "min": [
        -0.991447389125824,
        -0.9914449453353882,
        -0.0
      ],
      "type": "VEC3"
    },
    {
      "bufferView": 0,
      "byteOffset": 24768,
      "componentType": 5125,
      "count": 288,
      "type": "SCALAR"
    },
    {
      "bufferView": 2,
      "byteOffset": 76200,
      "componentType": 5126,
      "count": 2304,
      "max": [
        90.25,
        90.25000762939453,
        0.25
      ],
      "min": [
        -90.25,
        -90.25000762939453,
        -0.25
      ],
      "type": "VEC3"
    },
    {
      "bufferView": 2,
      "byteOffset": 103848,
      "componentType": 5126,
      "count": 2304,
      "max": [
        0.9652265310287476,
        0.9640025496482849,
        0.9658087491989136
      ],
      "min": [
        -0.9654169082641602,
        -0.9640038013458252,
        -0.9658085107803345
      ],
      "type": "VEC3"
    },
    {
      "bufferView": 0,
      "byteOffset": 25920,
      "componentType": 5125,
      "count": 3456,
      "type": "SCALAR"
    }
  ],
  "asset": {
    "extras": {
      "author": "commonfactory (https://sketchfab.com/commonfactory)",
      "license": "CC-BY-4.0 (http://creativecommons.org/licenses/by/4.0/)",
      "source": "https://sketchfab.com/3d-models/celestial-sphere-2020-update-6a9fbfbac60f437fa1ce9aea2a38c692",
      "title": "Celestial sphere 2020 update"
    },
    "generator": "Sketchfab-12.67.0",
    "version": "2.0"
  },
  "bufferViews": [
    {
      "buffer": 0,
      "byteLength": 39744,
      "name": "floatBufferViews",
      "target": 34963
    },
    {
      "buffer": 0,
      "byteLength": 3640,
      "byteOffset": 39744,
      "byteStride": 8,
      "name": "floatBufferViews",
      "target": 34962
    },
    {
      "buffer": 0,
      "byteLength": 131496,
      "byteOffset": 43384,
      "byteStride": 12,
      "name": "floatBufferViews",
      "target": 34962
    }
  ],
  "buffers": [
    {
      "byteLength": 174880,
      "uri": "scene.bin"
    }
  ],
  "extensionsRequired": [
    "KHR_materials_pbrSpecularGlossiness"
  ],
  "extensionsUsed": [
    "KHR_materials_pbrSpecularGlossiness"
  ],
  "images": [
    {
      "uri": "textures/mapa_diffuse.png"
    }
  ],
  "materials": [
    {
      "doubleSided": true,
      "emissiveFactor": [
        0.966968,
        0.759672,
        0.00123008
      ],
      "extensions": {
        "KHR_materials_pbrSpecularGlossiness": {
          "diffuseFactor": [
            1.0,
            0.666255,
            0.0,
            1.0
          ],
          "glossinessFactor": 0.4,
          "specularFactor": [
            0.0,
            0.0,
            0.0
          ]
        }
      },
      "name": "material"
    },
    {
      "emissiveFactor": [
        1.0,
        1.0,
        1.0
      ],
      "emissiveTexture": {
        "index": 0
      },
      "extensions": {
        "KHR_materials_pbrSpecularGlossiness": {
          "diffuseFactor": [
            1.0,
            1.0,
            1.0,
            1.0
          ],
          "diffuseTexture": {
            "index": 0
          },
          "glossinessFactor": 1.0,
          "specularFactor": [
            0.0,
            0.0,
            0.0
          ]
        }
      },
      "name": "mapa"
    },
    {
      "doubleSided": true,
      "emissiveFactor": [
        0.002424796455948775,
        0.0001498079999999986,
        0.66
      ],
      "extensions": {
        "KHR_materials_pbrSpecularGlossiness": {
          "diffuseFactor": [
            0.043844699999999986,
            0.5991180000000007,
            1.0,
            1.0
          ],
          "glossinessFactor": 0.4,
          "specularFactor": [
            0.0,
            0.0,
            0.0
          ]
        }
      },
      "name": "earth"
    },
    {
      "alphaMode": "BLEND",
      "doubleSided": true,
      "emissiveFactor": [
        0.058818967917169465,
        0.2823143188766927,
        1.0
      ],
      "extensions": {
        "KHR_materials_pbrSpecularGlossiness": {
          "diffuseFactor": [
            0.02662419005365271,
            0.11734436443831425,
            0.22232376186523486,
            0.38476095799208365
          ],
          "glossinessFactor": 0.4,
          "specularFactor": [
            0.0,
            0.0,
            0.0
          ]
        }
      },
      "name": "Material.001"
    }
  ],
  "meshes": [
    {
      "name": "Object_0",
      "primitives": [
        {
          "attributes": {
            "NORMAL": 1,
            "POSITION": 0
          },
          "indices": 2,
          "material": 0,
          "mode": 4
        }
      ]
    },
    {
      "name": "Object_1",
      "primitives": [
        {
          "attributes": {
            "NORMAL": 4,
            "POSITION": 3,
            "TEXCOORD_0": 5
          },
          "indices": 6,
          "material": 1,
          "mode": 4
        }
      ]
    },
    {
      "name": "Object_2",
      "primitives": [
        {
          "attributes": {
            "NORMAL": 8,
            "POSITION": 7
          },
          "indices": 9,
          "material": 2,
          "mode": 4
        }
      ]
    },
    {
      "name": "Object_3",
      "primitives": [
        {
          "attributes": {
            "NORMAL": 11,
            "POSITION": 10
          },
          "indices": 12,
          "material": 3,
          "mode": 4
        }
      ]
    },
    {
      "name": "Object_4",
      "primitives": [
        {
          "attributes": {
            "NORMAL": 14,
            "POSITION": 13
          },
          "indices": 15,
          "material": 3,
          "mode": 4
        }
      ]
    }
  ],
  "nodes": [
    {
      "children": [
        1
      ],
      "matrix": [
        2.444563245362783e-19,
        -4.214999171714666e-19,
        0.0011009334120899439,
        0.0,
        0.0011009334120899439,
        1.7704359263518836e-19,
        -2.4445632453627823e-19,
        0.0,
        -1.770435926351883e-19,
        0.0011009334120899439,
        4.214999171714666e-19,
        0.0,
        243.1765899658203,
        -0.008188249543277277,
        -143.821533203125,
        1.0
      ],
      "name": "Sketchfab_model"
    },
    {
      "children": [
        2
      ],
      "name": "root"
    },
    {
      "children": [
        3
      ],
      "matrix": [
        1.0,
        0.0,
        0.0,
        0.0,
        0.0,
        2.220446049250313e-16,
        1.0,
        0.0,
        0.0,
        -1.0,
        2.220446049250313e-16,
        0.0,
        0.0,
        0.0,
        0.0,
        1.0
      ],
      "name": "GLTF_SceneRootNode"
    },
    {
      "children": [
        4,
        7,
        15
      ],
      "matrix": [
        1.0,
        0.0,
        -0.0,
        0.0,
        -0.0,
        -1.685873969314855e-07,
        -0.9999999999999858,
        0.0,
        0.0,
        0.9999999999999858,
        -1.685873969314855e-07,
        0.0,
        0.0,
        0.0,
        0.0,
        1.0
      ],
      "name": "Celestial sphere_11"
    },
    {
      "children": [
        5
      ],
      "matrix": [
        3.0,
        0.0,
        0.0,
        0.0,
        0.0,
        3.0,
        0.0,
        0.0,
        0.0,
        0.0,
        3.0,
        0.0,
        0.0,
        0.0,
        0.0,
        1.0
      ],
      "name": "sun_3"
    },
    {
      "children": [
        6
      ],
      "name": "sun.001_2"
    },
    {
      "mesh": 0,
      "name": "Object_6"
    },
    {
      "children": [
        8,
        11,
        13
      ],
      "matrix": [
        1.0,
        0.0,
        -0.0,
        0.0,
        0.0,
        0.9177500053610683,
        -0.3971500128941173,
        0.0,
        0.0,
        0.3971500128941173,
        0.9177500053610683,
        0.0,
        193.48074340820313,
        -49.687339782714844,
        0.0,
        1.0
      ],
      "name": "tierra_8"
    },
    {
      "children": [
        9
      ],
      "matrix": [
        -0.02960019644164036,
        -0.9995618181836561,
        -0.0,
        0.0,
        0.9995618181836561,
        -0.02960019644164036,
        0.0,
        0.0,
        0.0,
        -0.0,
        1.0,
        0.0,
        -1.9999999494757503e-05,
        -9.999999747378752e-06,
        0.0,
        1.0
      ],
      "name": "Sphere_5"
    },
    {
      "children": [
        10
      ],
      "name": "Sphere.001_4"
    },
    {
      "mesh": 1,
      "name": "Object_10"
    },
    {
      "children": [
        12
      ],
      "name": "tierra.001_6"
    },
    {
      "mesh": 2,
      "name": "Object_12"
    },
    {
      "children": [
        14
      ],
      "name": "tierra.002_7"
    },
    {
      "mesh": 3,
      "name": "Object_14"
    },
    {
      "children": [
        16
      ],
      "matrix": [
        2.222209930419922,
        0.0,
        0.0,
        0.0,
        0.0,
        2.222209930419922,
        0.0,
        0.0,
        0.0,
        0.0,
        2.222209930419922,
        0.0,
        0.0,
        0.0,
        0.0,
        1.0
      ],
      "name": "Torus.001_10"
    },
    {
      "children": [
        17
      ],
      "name": "Torus.002_9"
    },
    {
      "mesh": 4,
      "name": "Object_17"
    }
  ],
  "samplers": [
    {
      "magFilter": 9729,
      "minFilter": 9987,
      "wrapS": 10497,
      "wrapT": 10497
    }
  ],
  "scene": 0,
  "scenes": [
    {
      "name": "Sketchfab_Scene",
      "nodes": [
        0
      ]
    }
  ],
  "textures": [
    {
      "sampler": 0,
      "source": 0
    }
  ]
}
