{  "asset": {    "version": "2.0",    "generator": "THREE.GLTFExporter"  },  "scenes": [    {      "name": "AuxScene",      "nodes": [        1      ]    }  ],  "scene": 0,  "nodes": [    {      "mesh": 0    },    {      "children": [        0      ]    }  ],  "bufferViews": [    {      "buffer": 0,      "byteOffset": 0,      "byteLength": 363384,      "target": 34962,      "byteStride": 12    },    {      "buffer": 0,      "byteOffset": 363384,      "byteLength": 363384,      "target": 34962,      "byteStride": 12    }  ],  "buffers": [    {      "byteLength": 726768,      "uri": "data:application/octet-stream;base64,"    }  ],  "accessors": [    {      "bufferView": 0,      "componentType": 5126,      "count": 30282,      "max": [        45.937137603759766,        51.99864196777344,        3.4055066108703613      ],      "min": [        -45.937137603759766,        -51.99864196777344,        -3.4055066108703613      ],      "type": "VEC3"    },    {      "bufferView": 1,      "componentType": 5126,      "count": 30282,      "max": [        1,        0.999716579914093,        0.9997990727424622      ],      "min": [        -1,        -0.9996954202651978,        -0.9998195171356201      ],      "type": "VEC3"    }  ],  "materials": [    {      "pbrMetallicRoughness": {        "baseColorFactor": [          0.6038273388475408,          0.6038273388475408,          0.6038273388475408,          1        ],        "metallicFactor": 0.5,        "roughnessFactor": 0.5      },      "doubleSided": true,      "name": "mat0"    }  ],  "meshes": [    {      "primitives": [        {          "mode": 4,          "attributes": {            "POSITION": 0,            "NORMAL": 1          },          "material": 0        }      ]    }  ]}