{
	"asset":{
		"generator":"Khronos glTF Blender I/O v4.0.44",
		"version":"2.0"
	},
	"scene":0,
	"scenes":[
		{
			"name":"Scene",
			"nodes":[
				0
			]
		}
	],
	"nodes":[
		{
			"mesh":0,
			"name":"Mesh_0"
		}
	],
	"materials":[
		{
			"name":"Material_0",
			"normalTexture":{
				"index":0
			},
			"occlusionTexture":{
				"index":1
			},
			"pbrMetallicRoughness":{
				"baseColorTexture":{
					"index":2
				},
				"metallicFactor":0
			}
		}
	],
	"meshes":[
		{
			"name":"Mesh_0",
			"primitives":[
				{
					"attributes":{
						"POSITION":0,
						"NORMAL":1,
						"TEXCOORD_0":2
					},
					"indices":3,
					"material":0
				}
			]
		}
	],
	"textures":[
		{
			"sampler":0,
			"source":0
		},
		{
			"sampler":0,
			"source":1
		},
		{
			"sampler":0,
			"source":2
		}
	],
	"images":[
		{
			"mimeType":"image/jpeg",
			"name":"Image_0",
			"uri":"Image_0.jpg"
		},
		{
			"mimeType":"image/jpeg",
			"name":"Image_1",
			"uri":"Image_1.jpg"
		},
		{
			"mimeType":"image/jpeg",
			"name":"Image_2",
			"uri":"Image_2.jpg"
		}
	],
	"accessors":[
		{
			"bufferView":0,
			"componentType":5126,
			"count":149985,
			"max":[
				0.5641505718231201,
				1.231383204460144,
				0.35681331157684326
			],
			"min":[
				-0.5102860927581787,
				-1.9971697184928416e-08,
				-0.35495725274086
			],
			"type":"VEC3"
		},
		{
			"bufferView":1,
			"componentType":5126,
			"count":149985,
			"type":"VEC3"
		},
		{
			"bufferView":2,
			"componentType":5126,
			"count":149985,
			"type":"VEC2"
		},
		{
			"bufferView":3,
			"componentType":5125,
			"count":149997,
			"type":"SCALAR"
		}
	],
	"bufferViews":[
		{
			"buffer":0,
			"byteLength":1799820,
			"byteOffset":0,
			"target":34962
		},
		{
			"buffer":0,
			"byteLength":1799820,
			"byteOffset":1799820,
			"target":34962
		},
		{
			"buffer":0,
			"byteLength":1199880,
			"byteOffset":3599640,
			"target":34962
		},
		{
			"buffer":0,
			"byteLength":599988,
			"byteOffset":4799520,
			"target":34963
		}
	],
	"samplers":[
		{
			"magFilter":9729,
			"minFilter":9987
		}
	],
	"buffers":[
		{
			"byteLength":5399508,
			"uri":"untitled.bin"
		}
	]
}
