{
  "accessors": [
    {
      "bufferView": 2,
      "componentType": 5126,
      "count": 33,
      "max": [
        0.04980999976396561,
        0.048629000782966614,
        0.3146530091762543
      ],
      "min": [
        -0.04980999976396561,
        -0.048629000782966614,
        0.3146530091762543
      ],
      "type": "VEC3"
    },
    {
      "bufferView": 2,
      "byteOffset": 396,
      "componentType": 5126,
      "count": 33,
      "max": [
        -0.0,
        0.0,
        1.0
      ],
      "min": [
        -0.0,
        0.0,
        1.0
      ],
      "type": "VEC3"
    },
    {
      "bufferView": 1,
      "componentType": 5126,
      "count": 33,
      "max": [
        1.0,
        1.0
      ],
      "min": [
        0.0,
        0.0
      ],
      "type": "VEC2"
    },
    {
      "bufferView": 0,
      "componentType": 5125,
      "count": 96,
      "type": "SCALAR"
    },
    {
      "bufferView": 2,
      "byteOffset": 792,
      "componentType": 5126,
      "count": 65532,
      "max": [
        0.12933099269866943,
        0.13230499625205994,
        0.3873409926891327
      ],
      "min": [
        -0.12301100045442581,
        -0.13144299387931824,
        -0.0006580000044777989
      ],
      "type": "VEC3"
    },
    {
      "bufferView": 2,
      "byteOffset": 787176,
      "componentType": 5126,
      "count": 65532,
      "max": [
        0.9998012185096741,
        0.999990701675415,
        0.9998859167098999
      ],
      "min": [
        -0.9999679327011108,
        -0.9999988079071045,
        -1.0
      ],
      "type": "VEC3"
    },
    {
      "bufferView": 1,
      "byteOffset": 264,
      "componentType": 5126,
      "count": 65532,
      "max": [
        0.9816949963569641,
        0.9766089916229248
      ],
      "min": [
        0.041524000465869904,
        0.0
      ],
      "type": "VEC2"
    },
    {
      "bufferView": 0,
      "byteOffset": 384,
      "componentType": 5125,
      "count": 355134,
      "type": "SCALAR"
    },
    {
      "bufferView": 2,
      "byteOffset": 1573560,
      "componentType": 5126,
      "count": 65532,
      "max": [
        0.12746700644493103,
        0.13290800154209137,
        0.3895849883556366
      ],
      "min": [
        -0.13178199529647827,
        -0.1259949952363968,
        -0.00038400001358240843
      ],
      "type": "VEC3"
    },
    {
      "bufferView": 2,
      "byteOffset": 2359944,
      "componentType": 5126,
      "count": 65532,
      "max": [
        0.9998207688331604,
        0.9999984502792358,
        0.9999946355819702
      ],
      "min": [
        -0.999997615814209,
        -0.9999333620071411,
        -0.9999990463256836
      ],
      "type": "VEC3"
    },
    {
      "bufferView": 1,
      "byteOffset": 524520,
      "componentType": 5126,
      "count": 65532,
      "max": [
        1.0,
        0.9869850277900696
      ],
      "min": [
        -0.0,
        0.0
      ],
      "type": "VEC2"
    },
    {
      "bufferView": 0,
      "byteOffset": 1420920,
      "componentType": 5125,
      "count": 346230,
      "type": "SCALAR"
    },
    {
      "bufferView": 2,
      "byteOffset": 3146328,
      "componentType": 5126,
      "count": 15245,
      "max": [
        0.130840003490448,
        0.12833599746227264,
        0.3728959858417511
      ],
      "min": [
        -0.1311589926481247,
        -0.1311749964952469,
        -0.0005559999844990671
      ],
      "type": "VEC3"
    },
    {
      "bufferView": 2,
      "byteOffset": 3329268,
      "componentType": 5126,
      "count": 15245,
      "max": [
        0.9999922513961792,
        0.9999935626983643,
        0.9998427033424377
      ],
      "min": [
        -0.9984031915664673,
        -0.9996647238731384,
        -0.9999996423721313
      ],
      "type": "VEC3"
    },
    {
      "bufferView": 1,
      "byteOffset": 1048776,
      "componentType": 5126,
      "count": 15245,
      "max": [
        0.9616310000419617,
        0.983959972858429
      ],
      "min": [
        0.003229999914765358,
        0.0
      ],
      "type": "VEC2"
    },
    {
      "bufferView": 0,
      "byteOffset": 2805840,
      "componentType": 5125,
      "count": 50607,
      "type": "SCALAR"
    }
  ],
  "asset": {
    "extras": {
      "author": "Bonn Center for Digital Humanities (https://sketchfab.com/bcdh)",
      "license": "CC-BY-NC-ND-4.0 (http://creativecommons.org/licenses/by-nc-nd/4.0/)",
      "source": "https://sketchfab.com/3d-models/attic-black-figure-amphora-2af8cb128db34f1e9b9c9bfbe11d09fc",
      "title": "Attic Black-Figure Amphora"
    },
    "generator": "Sketchfab-16.15.0",
    "version": "2.0"
  },
  "bufferViews": [
    {
      "buffer": 0,
      "byteLength": 3008268,
      "name": "floatBufferViews",
      "target": 34963
    },
    {
      "buffer": 0,
      "byteLength": 1170736,
      "byteOffset": 3008268,
      "byteStride": 8,
      "name": "floatBufferViews",
      "target": 34962
    },
    {
      "buffer": 0,
      "byteLength": 3512208,
      "byteOffset": 4179004,
      "byteStride": 12,
      "name": "floatBufferViews",
      "target": 34962
    }
  ],
  "buffers": [
    {
      "byteLength": 7691212,
      "uri": "scene.bin"
    }
  ],
  "extensionsUsed": [
    "KHR_materials_specular"
  ],
  "images": [
    {
      "uri": "textures/Material.002_baseColor.jpeg"
    },
    {
      "uri": "textures/Material.002_metallicRoughness.png"
    }
  ],
  "materials": [
    {
      "doubleSided": true,
      "extensions": {
        "KHR_materials_specular": {
          "specularColorFactor": [
            1.0,
            1.0,
            1.0
          ],
          "specularFactor": 0.0
        }
      },
      "name": "Material.001",
      "pbrMetallicRoughness": {
        "baseColorFactor": [
          0.0,
          0.0,
          0.0,
          1.0
        ],
        "metallicFactor": 0.0,
        "roughnessFactor": 0.6
      }
    },
    {
      "doubleSided": true,
      "name": "Material.002",
      "pbrMetallicRoughness": {
        "baseColorTexture": {
          "index": 0
        },
        "metallicFactor": 0.0,
        "metallicRoughnessTexture": {
          "index": 1
        }
      }
    }
  ],
  "meshes": [
    {
      "name": "Object_0",
      "primitives": [
        {
          "attributes": {
            "NORMAL": 1,
            "POSITION": 0,
            "TEXCOORD_0": 2
          },
          "indices": 3,
          "material": 0,
          "mode": 4
        }
      ]
    },
    {
      "name": "Object_1",
      "primitives": [
        {
          "attributes": {
            "NORMAL": 5,
            "POSITION": 4,
            "TEXCOORD_0": 6
          },
          "indices": 7,
          "material": 1,
          "mode": 4
        }
      ]
    },
    {
      "name": "Object_2",
      "primitives": [
        {
          "attributes": {
            "NORMAL": 9,
            "POSITION": 8,
            "TEXCOORD_0": 10
          },
          "indices": 11,
          "material": 1,
          "mode": 4
        }
      ]
    },
    {
      "name": "Object_3",
      "primitives": [
        {
          "attributes": {
            "NORMAL": 13,
            "POSITION": 12,
            "TEXCOORD_0": 14
          },
          "indices": 15,
          "material": 1,
          "mode": 4
        }
      ]
    }
  ],
  "nodes": [
    {
      "children": [
        1
      ],
      "matrix": [
        1.0,
        0.0,
        0.0,
        0.0,
        0.0,
        2.220446049250313e-16,
        -1.0,
        0.0,
        0.0,
        1.0,
        2.220446049250313e-16,
        0.0,
        0.0,
        0.0,
        0.0,
        1.0
      ],
      "name": "Sketchfab_model"
    },
    {
      "children": [
        2,
        3,
        4,
        5
      ],
      "name": "Amphora_43_lp_uv_ausgerichtet.obj.cleaner.materialmerger.gles"
    },
    {
      "mesh": 0,
      "name": "Object_2"
    },
    {
      "mesh": 1,
      "name": "Object_3"
    },
    {
      "mesh": 2,
      "name": "Object_4"
    },
    {
      "mesh": 3,
      "name": "Object_5"
    }
  ],
  "samplers": [
    {
      "magFilter": 9729,
      "minFilter": 9987,
      "wrapS": 10497,
      "wrapT": 10497
    }
  ],
  "scene": 0,
  "scenes": [
    {
      "name": "Sketchfab_Scene",
      "nodes": [
        0
      ]
    }
  ],
  "textures": [
    {
      "sampler": 0,
      "source": 0
    },
    {
      "sampler": 0,
      "source": 1
    }
  ]
}
