{
	"asset":{
		"generator":"Khronos glTF Blender I/O v4.2.57",
		"version":"2.0"
	},
	"extensionsUsed":[
		"KHR_materials_unlit"
	],
	"scene":0,
	"scenes":[
		{
			"name":"Scene",
			"nodes":[
				3
			]
		}
	],
	"nodes":[
		{
			"mesh":0,
			"name":"Object_2"
		},
		{
			"mesh":1,
			"name":"Object_3"
		},
		{
			"children":[
				0,
				1
			],
			"name":"Scaniverse.obj.cleaner.materialmerger.gles"
		},
		{
			"children":[
				2
			],
			"name":"Sketchfab_model",
			"rotation":[
				-0.70710688829422,
				0,
				0,
				0.7071066498756409
			]
		}
	],
	"materials":[
		{
			"doubleSided":true,
			"extensions":{
				"KHR_materials_unlit":{}
			},
			"name":"main",
			"pbrMetallicRoughness":{
				"baseColorTexture":{
					"index":0
				},
				"metallicFactor":0,
				"roughnessFactor":0.9
			}
		}
	],
	"meshes":[
		{
			"name":"Object_0",
			"primitives":[
				{
					"attributes":{
						"POSITION":0,
						"NORMAL":1,
						"TEXCOORD_0":2
					},
					"indices":3,
					"material":0
				}
			]
		},
		{
			"name":"Object_1",
			"primitives":[
				{
					"attributes":{
						"POSITION":4,
						"NORMAL":5,
						"TEXCOORD_0":6
					},
					"indices":7,
					"material":0
				}
			]
		}
	],
	"textures":[
		{
			"sampler":0,
			"source":0
		}
	],
	"images":[
		{
			"mimeType":"image/jpeg",
			"name":"main_baseColor",
			"uri":"main_baseColor.jpg"
		}
	],
	"accessors":[
		{
			"bufferView":0,
			"componentType":5126,
			"count":65541,
			"max":[
				0.22399765253067017,
				0.2491213083267212,
				0.4373513460159302
			],
			"min":[
				-0.29251235723495483,
				-0.12095868587493896,
				-0.2672387361526489
			],
			"type":"VEC3"
		},
		{
			"bufferView":1,
			"componentType":5126,
			"count":65541,
			"type":"VEC3"
		},
		{
			"bufferView":2,
			"componentType":5126,
			"count":65541,
			"type":"VEC2"
		},
		{
			"bufferView":3,
			"componentType":5125,
			"count":365463,
			"type":"SCALAR"
		},
		{
			"bufferView":4,
			"componentType":5126,
			"count":17160,
			"max":[
				0.20791764557361603,
				0.24897131323814392,
				0.43803131580352783
			],
			"min":[
				-0.28871238231658936,
				-0.11556869745254517,
				-0.2672387361526489
			],
			"type":"VEC3"
		},
		{
			"bufferView":5,
			"componentType":5126,
			"count":17160,
			"type":"VEC3"
		},
		{
			"bufferView":6,
			"componentType":5126,
			"count":17160,
			"type":"VEC2"
		},
		{
			"bufferView":7,
			"componentType":5123,
			"count":94443,
			"type":"SCALAR"
		}
	],
	"bufferViews":[
		{
			"buffer":0,
			"byteLength":786492,
			"byteOffset":0,
			"target":34962
		},
		{
			"buffer":0,
			"byteLength":786492,
			"byteOffset":786492,
			"target":34962
		},
		{
			"buffer":0,
			"byteLength":524328,
			"byteOffset":1572984,
			"target":34962
		},
		{
			"buffer":0,
			"byteLength":1461852,
			"byteOffset":2097312,
			"target":34963
		},
		{
			"buffer":0,
			"byteLength":205920,
			"byteOffset":3559164,
			"target":34962
		},
		{
			"buffer":0,
			"byteLength":205920,
			"byteOffset":3765084,
			"target":34962
		},
		{
			"buffer":0,
			"byteLength":137280,
			"byteOffset":3971004,
			"target":34962
		},
		{
			"buffer":0,
			"byteLength":188886,
			"byteOffset":4108284,
			"target":34963
		}
	],
	"samplers":[
		{
			"magFilter":9729,
			"minFilter":9987
		}
	],
	"buffers":[
		{
			"byteLength":4297172,
			"uri":"scene.bin"
		}
	]
}
